<?xml version="1.0" encoding="utf-8"?>
<!-- Generator: Adobe Illustrator 21.0.0, SVG Export Plug-In . SVG Version: 6.00 Build 0)  -->
<svg version="1.1" id="Capa_1" xmlns="http://www.w3.org/2000/svg" xmlns:xlink="http://www.w3.org/1999/xlink" x="0px" y="0px"
	 viewBox="0 0 70 60" style="enable-background:new 0 0 70 60;" xml:space="preserve">
<style type="text/css">
	.st0{display:none;}
	.st1{display:inline;}
	.st2{clip-path:url(#SVGID_2_);}
</style>
<g class="st0">
	<path class="st1" d="M41,40.7H3.4V8.7H53v7.8c0.5,0,0.9-0.1,1.4-0.1c1.4,0,2.7,0.1,3.8,0.4V5.7c0-0.9-0.7-1.7-1.6-1.7H1.8
		C0.9,4,0.2,4.8,0.2,5.7v38c0,0.9,0.7,1.7,1.6,1.7h18.1c-0.4,2.2-1.2,6.2-2.9,10.2c-0.2,0.5-0.2,1.1,0.1,1.6
		c0.3,0.5,0.8,0.8,1.4,0.8h18.2c-0.2-0.5-0.2-1-0.1-1.6c0.3-1.9,0.7-4,1.1-6c-0.5-2-0.9-3.7-1.1-4.9h2.4
		C39.5,43.5,40.2,41.9,41,40.7L41,40.7z M41,40.7"/>
	<path class="st1" d="M43.5,19.3c1.5,0,2.7-1.3,2.7-2.8c0-1.6-1.2-2.8-2.7-2.8c-1.5,0-2.7,1.3-2.7,2.8c0,0.1,0,0.3,0,0.4l-12.5,10
		c-0.3-0.2-0.7-0.2-1.1-0.2c-0.5,0-1,0.2-1.4,0.4l-10.7-6.4c0,0,0,0,0-0.1c0-1.6-1.2-2.8-2.7-2.8c-1.5,0-2.7,1.3-2.7,2.8
		c0,1.6,1.2,2.8,2.7,2.8c0.5,0,1-0.2,1.4-0.4l10.7,6.4c0,0,0,0,0,0.1c0,1.6,1.2,2.8,2.7,2.8c1.5,0,2.7-1.3,2.7-2.8
		c0-0.1,0-0.3,0-0.4l12.5-10C42.8,19.2,43.2,19.3,43.5,19.3L43.5,19.3z M43.5,19.3"/>
	<path class="st1" d="M70,56.8c-0.5-3.4-2-11.8-4-14.5c-1.1-1.4-5.2-3.8-6.1-4.3c-0.2-0.1-0.4-0.1-0.6,0.1c-0.9,0.8-1.9,1.3-3,1.5
		c-0.2,0-0.3,0.2-0.4,0.4l-1.1,3l-1.1-3c-0.1-0.2-0.2-0.3-0.4-0.4c-1.1-0.2-2.1-0.8-3-1.5c-0.2-0.1-0.4-0.2-0.6-0.1
		c-0.8,0.5-5,2.8-6.1,4.3c-2,2.8-3.5,11.1-4,14.5c0,0.2,0,0.4,0.1,0.5c0.1,0.1,0.3,0.2,0.4,0.2h29.4c0.2,0,0.3-0.1,0.4-0.2
		C70,57.1,70,56.9,70,56.8L70,56.8z M70,56.8"/>
	<path class="st1" d="M46.6,26.1c-0.9,0.5-2,1.3-2.5,2.6c-0.5,1.3-0.3,2.6,0.6,4.1c-0.1,0.3,0,0.6,0.1,0.8l0.3,0.5
		c0.2,0.3,0.5,0.4,0.8,0.4c0.2,0,0.4-0.1,0.6-0.2c0.2-0.2,0.4-0.4,0.4-0.7c0-0.3,0-0.5-0.2-0.8l-0.3-0.5c-0.1-0.2-0.3-0.3-0.5-0.4
		c-0.6-1.1-0.8-2-0.5-2.9c0.2-0.6,0.6-1,1.1-1.4c0,0.3,0,0.6,0,0.9c0,5.3,3.7,9.7,8.2,9.7c4.5,0,8.2-4.3,8.2-9.7
		c0-5.3-0.7-9.7-8.2-9.7C48.6,19.2,47,22.1,46.6,26.1L46.6,26.1z M46.6,26.1"/>
</g>
<g>
	<g>
		<defs>
			<rect id="SVGID_1_" x="6.8" y="2" width="58.7" height="56.9"/>
		</defs>
		<clipPath id="SVGID_2_">
			<use xlink:href="#SVGID_1_"  style="overflow:visible;"/>
		</clipPath>
		<path class="st2" d="M43.7,2c-1.8,0-3.5,0.2-5.1,0.5c1.5,0.7,2.8,1.6,3.9,2.6c0.4,0,0.8,0,1.2,0c5.1,0,9.9,1.5,13.5,4.3
			c3.3,2.6,5.2,5.9,5.2,9.4c0,2.9-1.2,5.7-3.6,8l-0.7,0.7l-0.1,1l-1.2,8.3l-6.1-4.2l-1.1-0.7l-1.3,0.2c-1.5,0.3-3,0.4-4.6,0.4
			c-1.2,0-2.5-0.1-3.7-0.3c-0.1,0-0.3,0-0.4,0.1l-1.2,1.1c1.4,0.7,2.7,1.5,4,2.2c0.4,0,0.8,0,1.2,0c1.8,0,3.5-0.2,5.2-0.5l8.4,5.8
			c0.2,0.2,0.5,0.2,0.8,0.2c0.2,0,0.4,0,0.5-0.1c0.4-0.2,0.7-0.6,0.8-1.1l1.7-11c2.8-2.8,4.5-6.4,4.5-10.2C65.5,9.5,55.8,2,43.7,2
			L43.7,2z M43.7,2"/>
		<path class="st2" d="M48,40.3c-1.8-1.2-7.9-4.5-10.6-5.9l-0.1,0c-0.1-0.1-0.3-0.1-0.4-0.1c-0.2,0-0.4,0.1-0.5,0.2
			c-1.4,1.1-2.9,1.8-4.5,2.2c-0.3,0.1-0.5,0.3-0.6,0.5l-1.6,4.3L28,37.2c-0.1-0.3-0.3-0.5-0.6-0.5c-1.6-0.4-3.1-1.1-4.5-2.2
			c-0.2-0.1-0.3-0.2-0.5-0.2c-0.1,0-0.3,0-0.4,0.1c-2.6,1.4-8.8,4.8-10.6,5.9c-3,2-4.3,9.3-4.5,10.7c0,0.1,0,0.3,0,0.4
			c0.1,0.3,2.8,7.4,22.8,7.4c19.9,0,22.7-7.1,22.8-7.4c0-0.1,0.1-0.3,0-0.4C51.8,47.1,50.6,42.1,48,40.3L48,40.3z M48,40.3"/>
	</g>
	<path d="M13.1,27.5h2.8c1,0,1.9-0.8,1.9-1.9v-8c0-0.7-0.4-1.3-0.9-1.6C17.4,9.5,20,4.9,29.7,4.9c5.6,0,9.1,1.4,11,4.5
		c1.1,1.8,1.6,4.1,1.9,6.6c-0.6,0.3-0.9,0.9-0.9,1.6v8c0,0.9,0.6,1.6,1.5,1.8c-1.2,0.8-3.7,1.6-9,1.6c-0.4,0-0.9,0-1.3,0
		c-0.3-0.5-0.8-0.9-1.4-0.9H29c-0.9,0-1.6,0.7-1.6,1.6c0,0.9,0.7,1.6,1.6,1.6h2.3c0.5,0,1-0.3,1.3-0.7c0.5,0,1,0,1.4,0
		c5.9,0,9.6-1,11.2-3c0.1-0.1,0.1-0.2,0.2-0.3h0.9c1,0,1.9-0.8,1.9-1.9v-8c0-1-0.8-1.9-1.9-1.9h-1c-0.3-3-0.9-5.6-2.3-7.7
		c-2.4-3.9-6.7-5.8-13.2-5.8c-6.5,0-10.8,1.9-13.2,5.8c-1.3,2.2-2,4.7-2.3,7.7h-1c-1,0-1.9,0.8-1.9,1.9v8
		C11.2,26.7,12.1,27.5,13.1,27.5L13.1,27.5z M13.1,27.5"/>
	<path d="M18.8,27.5c2.6,5.7,8.1,8.2,10.9,8.2c1.8,0,4.8-1.1,7.4-3.4c-0.9,0.1-2,0.1-3,0.1c-0.3,0-0.5,0-0.8,0
		C32.7,32.7,32,33,31.3,33H29c-1.7,0-3.2-1.4-3.2-3.2c0-1.7,1.4-3.2,3.2-3.2h2.3c0.8,0,1.6,0.3,2.2,0.9c0.2,0,0.4,0,0.6,0
		c3,0,4.9-0.3,6.2-0.6c-0.2-0.4-0.3-0.8-0.3-1.3v-8c0-0.8,0.3-1.6,0.8-2.2c-0.3-2.2-0.8-3.9-1.6-5.2c-1.6-2.6-4.7-3.8-9.6-3.8
		c-4.1,0-7,0.9-8.7,2.6c-1.3,1.4-2.1,3.3-2.5,6.3c0.5,0.6,0.9,1.4,0.9,2.3v8C19.3,26.3,19.1,26.9,18.8,27.5L18.8,27.5z M18.8,27.5"
		/>
</g>
</svg>
