<?xml version="1.0" encoding="utf-8"?>
<!-- Generator: Adobe Illustrator 21.0.0, SVG Export Plug-In . SVG Version: 6.00 Build 0)  -->
<svg version="1.1" id="Capa_1" xmlns="http://www.w3.org/2000/svg" xmlns:xlink="http://www.w3.org/1999/xlink" x="0px" y="0px"
	 viewBox="0 0 70 60" style="enable-background:new 0 0 70 60;" xml:space="preserve">
<style type="text/css">
	.st0{display:none;}
	.st1{display:inline;}
	.st2{clip-path:url(#SVGID_2_);}
	.st3{clip-path:url(#SVGID_4_);}
</style>
<g>
	<path d="M41,40.7H3.4V8.7H53v7.8c0.5,0,0.9-0.1,1.4-0.1c1.4,0,2.7,0.1,3.8,0.4V5.7c0-0.9-0.7-1.7-1.6-1.7H1.8
		C0.9,4,0.2,4.8,0.2,5.7v38c0,0.9,0.7,1.7,1.6,1.7h18.1c-0.4,2.2-1.2,6.2-2.9,10.2c-0.2,0.5-0.2,1.1,0.1,1.6
		c0.3,0.5,0.8,0.8,1.4,0.8h18.2c-0.2-0.5-0.2-1-0.1-1.6c0.3-1.9,0.7-4,1.1-6c-0.5-2-0.9-3.7-1.1-4.9h2.4
		C39.5,43.5,40.2,41.9,41,40.7L41,40.7z M41,40.7"/>
	<path d="M43.5,19.3c1.5,0,2.7-1.3,2.7-2.8c0-1.6-1.2-2.8-2.7-2.8c-1.5,0-2.7,1.3-2.7,2.8c0,0.1,0,0.3,0,0.4l-12.5,10
		c-0.3-0.2-0.7-0.2-1.1-0.2c-0.5,0-1,0.2-1.4,0.4l-10.7-6.4c0,0,0,0,0-0.1c0-1.6-1.2-2.8-2.7-2.8c-1.5,0-2.7,1.3-2.7,2.8
		c0,1.6,1.2,2.8,2.7,2.8c0.5,0,1-0.2,1.4-0.4l10.7,6.4c0,0,0,0,0,0.1c0,1.6,1.2,2.8,2.7,2.8c1.5,0,2.7-1.3,2.7-2.8
		c0-0.1,0-0.3,0-0.4l12.5-10C42.8,19.2,43.2,19.3,43.5,19.3L43.5,19.3z M43.5,19.3"/>
	<path d="M70,56.8c-0.5-3.4-2-11.8-4-14.5c-1.1-1.4-5.2-3.8-6.1-4.3c-0.2-0.1-0.4-0.1-0.6,0.1c-0.9,0.8-1.9,1.3-3,1.5
		c-0.2,0-0.3,0.2-0.4,0.4l-1.1,3l-1.1-3c-0.1-0.2-0.2-0.3-0.4-0.4c-1.1-0.2-2.1-0.8-3-1.5c-0.2-0.1-0.4-0.2-0.6-0.1
		c-0.8,0.5-5,2.8-6.1,4.3c-2,2.8-3.5,11.1-4,14.5c0,0.2,0,0.4,0.1,0.5c0.1,0.1,0.3,0.2,0.4,0.2h29.4c0.2,0,0.3-0.1,0.4-0.2
		C70,57.1,70,56.9,70,56.8L70,56.8z M70,56.8"/>
	<path d="M46.6,26.1c-0.9,0.5-2,1.3-2.5,2.6c-0.5,1.3-0.3,2.6,0.6,4.1c-0.1,0.3,0,0.6,0.1,0.8l0.3,0.5c0.2,0.3,0.5,0.4,0.8,0.4
		c0.2,0,0.4-0.1,0.6-0.2c0.2-0.2,0.4-0.4,0.4-0.7c0-0.3,0-0.5-0.2-0.8l-0.3-0.5c-0.1-0.2-0.3-0.3-0.5-0.4c-0.6-1.1-0.8-2-0.5-2.9
		c0.2-0.6,0.6-1,1.1-1.4c0,0.3,0,0.6,0,0.9c0,5.3,3.7,9.7,8.2,9.7c4.5,0,8.2-4.3,8.2-9.7c0-5.3-0.7-9.7-8.2-9.7
		C48.6,19.2,47,22.1,46.6,26.1L46.6,26.1z M46.6,26.1"/>
</g>
<g class="st0">
	<g class="st1">
		<defs>
			<rect id="SVGID_1_" x="14" y="2" width="43" height="58"/>
		</defs>
		<clipPath id="SVGID_2_">
			<use xlink:href="#SVGID_1_"  style="overflow:visible;"/>
		</clipPath>
		<path class="st2" d="M22.4,40.9l1.4-1.4h10.6l-6.7-12.2l-5,1c-1.3,0.3-2.3,1.2-2.7,2.5l-5.9,19.3c-0.3,1-0.1,2.2,0.6,3
			c0.7,0.9,1.7,1.4,2.8,1.4h4.9V40.9z M22.4,40.9"/>
	</g>
	<path class="st1" d="M56.6,50.1l-5.9-19.3c-0.3-1.3-1.4-2.3-2.7-2.5l-5-0.9l-6.7,12.1h11.4l1.4,1.4v13.6h4.1c1.1,0,2.1-0.5,2.8-1.4
		C56.6,52.3,56.9,51.2,56.6,50.1L56.6,50.1z M56.6,50.1"/>
	<path class="st1" d="M25.3,54.5h-0.4v0h20.9v0h0.4V42.3H25.3V54.5z M25.3,54.5"/>
	<g class="st1">
		<defs>
			<rect id="SVGID_3_" x="14" y="2" width="43" height="58"/>
		</defs>
		<clipPath id="SVGID_4_">
			<use xlink:href="#SVGID_3_"  style="overflow:visible;"/>
		</clipPath>
		<rect x="19.6" y="55.8" class="st3" width="31.6" height="2.6"/>
		<path class="st3" d="M24.1,18.8c0.1,0.1,0.1,0.3,0.2,0.5c0.3,0.7,0.6,1.3,0.9,1.6c1.6,5.2,5.7,8.9,10.1,8.8c4.4,0,8.5-3.7,10-8.9
			c0.3-0.3,0.6-0.9,0.9-1.6c0.1-0.2,0.1-0.4,0.2-0.5c0.6-1.2,0.4-2.6-0.4-3.2v-0.1C46,8.9,45.1,2,35.3,2c-9.9,0-10.8,6.7-10.7,13.5
			c0,0,0,0.1,0,0.1C23.7,16.2,23.5,17.6,24.1,18.8L24.1,18.8z M25.5,16.7L25.5,16.7c0.2-0.1,0.3-0.2,0.4-0.3l1.7,0.3
			c0.2,0,0.3-0.1,0.4-0.2l1.1-2.5c1.2,0.3,5.9,1.3,9.6,1.3c1.1,0,2.1-0.1,2.8-0.3l0.7,1.7c0.1,0.1,0.2,0.2,0.3,0.2c0,0,0.1,0,0.1,0
			l2-0.6c0.1,0.2,0.2,0.3,0.4,0.4l0,0c0.3,0.1,0.4,0.8,0.1,1.4c-0.1,0.2-0.2,0.3-0.2,0.6c-0.1,0.3-0.4,0.9-0.5,1.1
			c-0.2,0.1-0.3,0.3-0.3,0.4c-1.3,4.7-4.9,8.1-8.7,8.1c-3.8,0-7.4-3.3-8.8-8c-0.1-0.2-0.2-0.3-0.3-0.4c-0.1-0.2-0.4-0.8-0.5-1.1
			c-0.1-0.2-0.2-0.4-0.2-0.6C25.1,17.5,25.2,16.8,25.5,16.7L25.5,16.7z M25.5,16.7"/>
	</g>
</g>
</svg>
