<?xml version="1.0" standalone="no"?>
<!DOCTYPE svg PUBLIC "-//W3C//DTD SVG 1.1//EN" "http://www.w3.org/Graphics/SVG/1.1/DTD/svg11.dtd" >
<svg>
<metadata>
Created by FontForge 20090914 at Wed Aug 17 01:07:04 2016
 By www-data
Font created by Alvaro Thomaz
</metadata>
<defs>
<font id="BondoluoPeek" horiz-adv-x="1038" >
  <font-face 
    font-family="Bondoluo Peek"
    font-weight="100"
    font-stretch="normal"
    units-per-em="1000"
    panose-1="2 0 3 3 0 0 0 0 0 0"
    ascent="800"
    descent="-200"
    x-height="740"
    cap-height="1003"
    bbox="8 -283.113 1160 1061"
    underline-thickness="50"
    underline-position="-100"
    unicode-range="U+0001-U+FB04"
  />
<missing-glyph horiz-adv-x="500" 
d="M50 0v533h400v-533h-400zM100 50h300v433h-300v-433z" />
    <glyph glyph-name=".notdef" horiz-adv-x="500" 
d="M50 0v533h400v-533h-400zM100 50h300v433h-300v-433z" />
    <glyph glyph-name="uni0000" horiz-adv-x="75" 
 />
    <glyph glyph-name="uni0000" horiz-adv-x="75" 
 />
    <glyph glyph-name="uni0001" 
 />
    <glyph glyph-name="uni0002" 
 />
    <glyph glyph-name="uni0003" 
 />
    <glyph glyph-name="uni0004" 
 />
    <glyph glyph-name="uni0005" 
 />
    <glyph glyph-name="uni0006" 
 />
    <glyph glyph-name="uni0007" 
 />
    <glyph glyph-name="uni0008" 
 />
    <glyph glyph-name="uni0009" unicode="&#x9;" 
 />
    <glyph glyph-name="uni000A" unicode="&#xa;" 
 />
    <glyph glyph-name="uni000B" 
 />
    <glyph glyph-name="uni000C" 
 />
    <glyph glyph-name="uni000D" unicode="&#xd;" 
 />
    <glyph glyph-name="uni000E" 
 />
    <glyph glyph-name="uni000F" 
 />
    <glyph glyph-name="uni0010" 
 />
    <glyph glyph-name="uni0011" 
 />
    <glyph glyph-name="uni0012" 
 />
    <glyph glyph-name="uni0013" 
 />
    <glyph glyph-name="uni0014" 
 />
    <glyph glyph-name="uni0015" 
 />
    <glyph glyph-name="uni0016" 
 />
    <glyph glyph-name="uni0017" 
 />
    <glyph glyph-name="uni0018" 
 />
    <glyph glyph-name="uni0019" 
 />
    <glyph glyph-name="uni001A" 
 />
    <glyph glyph-name="uni001B" 
 />
    <glyph glyph-name="uni001C" 
 />
    <glyph glyph-name="uni001D" 
 />
    <glyph glyph-name="uni001E" 
 />
    <glyph glyph-name="uni001F" 
 />
    <glyph glyph-name="space" unicode=" " horiz-adv-x="300" 
 />
    <glyph glyph-name="exclam" unicode="!" horiz-adv-x="171" 
d="M48 87c10 10 22 15 36 15s25.833 -5 35.5 -15s14.5 -22 14.5 -36s-4.83301 -26 -14.5 -36s-21.5 -15 -35.5 -15s-26 5 -36 15s-15 22 -15 36s5 26 15 36zM70 1061h30v-907h-30v907z" />
    <glyph glyph-name="quotedbl" unicode="&#x22;" 
 />
    <glyph glyph-name="numbersign" unicode="#" 
 />
    <glyph glyph-name="dollar" unicode="$" 
 />
    <glyph glyph-name="percent" unicode="%" 
 />
    <glyph glyph-name="ampersand" unicode="&#x26;" 
 />
    <glyph glyph-name="quotesingle" unicode="'" 
 />
    <glyph glyph-name="parenleft" unicode="(" 
 />
    <glyph glyph-name="parenright" unicode=")" 
 />
    <glyph glyph-name="asterisk" unicode="*" 
 />
    <glyph glyph-name="plus" unicode="+" 
 />
    <glyph glyph-name="comma" unicode="," horiz-adv-x="623" 
d="M160 76l-113 -119l45 119h68z" />
    <glyph glyph-name="hyphen" unicode="-" 
 />
    <glyph glyph-name="period" unicode="." horiz-adv-x="171" 
d="M48 87c10 10 22 15 36 15s25.833 -5 35.5 -15s14.5 -22 14.5 -36s-4.83301 -26 -14.5 -36s-21.5 -15 -35.5 -15s-26 5 -36 15s-15 22 -15 36s5 26 15 36z" />
    <glyph glyph-name="slash" unicode="/" 
 />
    <glyph glyph-name="zero" unicode="0" 
 />
    <glyph glyph-name="one" unicode="1" 
 />
    <glyph glyph-name="two" unicode="2" 
 />
    <glyph glyph-name="three" unicode="3" 
 />
    <glyph glyph-name="four" unicode="4" 
 />
    <glyph glyph-name="five" unicode="5" 
 />
    <glyph glyph-name="six" unicode="6" 
 />
    <glyph glyph-name="seven" unicode="7" 
 />
    <glyph glyph-name="eight" unicode="8" 
 />
    <glyph glyph-name="nine" unicode="9" 
 />
    <glyph glyph-name="colon" unicode=":" horiz-adv-x="171" 
d="M48 393c10 10 22 15 36 15s25.833 -5 35.5 -15s14.5 -22 14.5 -36s-4.83301 -26 -14.5 -36s-21.5 -15 -35.5 -15s-26 5 -36 15s-15 22 -15 36s5 26 15 36zM48 87c10 10 22 15 36 15s25.833 -5 35.5 -15s14.5 -22 14.5 -36s-4.83301 -26 -14.5 -36s-21.5 -15 -35.5 -15
s-26 5 -36 15s-15 22 -15 36s5 26 15 36z" />
    <glyph glyph-name="semicolon" unicode=";" horiz-adv-x="171" 
d="M120 76l-112 -119l44 119h68zM48 393c10 10 22 15 36 15s25.833 -5 35.5 -15s14.5 -22 14.5 -36s-4.83301 -26 -14.5 -36s-21.5 -15 -35.5 -15s-26 5 -36 15s-15 22 -15 36s5 26 15 36z" />
    <glyph glyph-name="less" unicode="&#x3c;" 
 />
    <glyph glyph-name="equal" unicode="=" 
 />
    <glyph glyph-name="greater" unicode="&#x3e;" 
 />
    <glyph glyph-name="question" unicode="?" 
 />
    <glyph glyph-name="at" unicode="@" 
 />
    <glyph glyph-name="A" unicode="A" horiz-adv-x="828" 
d="M418 758c56.667 0 110.335 -12.333 161.002 -37c62.667 -30 113 -74.667 151 -134c11.333 -16.667 21.333 -35.334 30 -56.001v209h30v-740h-30v241c-34.667 -85.333 -90.667 -154.333 -168 -207h-1c-67.333 -39.333 -140 -55.333 -218 -48
c-53.333 4.66699 -103.833 21.167 -151.5 49.5s-86.834 64.5 -117.501 108.5s-51.167 93.167 -61.5 147.5s-9.83301 107.5 1.5 159.5c17.333 82 56.666 151 117.999 207c62 56.667 134.667 89.334 218 98.001c12 1.33301 24.667 2 38 2zM418.001 728
c-12 0 -23.665 -0.668945 -34.998 -2.00195c-76.667 -8 -143.667 -38 -201 -90c-56 -52 -92.333 -116 -109 -192c-10.667 -48 -11 -97 -1 -147s29 -95.333 57 -136c28 -40 64 -73 108 -99s90.333 -41.333 139 -46c71.333 -7.33301 137.666 7 198.999 43
c56.667 38.667 101.667 88.334 135 149.001s49.666 122.334 48.999 185.001v0c-1.33301 64.667 -19.333 124 -54 178s-81 95 -139 123c-46.667 22.667 -96 34 -148 34z" />
    <glyph glyph-name="B" unicode="B" horiz-adv-x="829" 
d="M37 1004h29.9961v-473c8.66699 20.667 18.334 39.334 29.001 56.001c38 59.333 88.667 104 152 134c50.667 24.667 104.334 37 161.001 37c12.667 0 25.334 -0.666992 38.001 -2c82.667 -8.66699 155 -41.334 217 -98.001c61.333 -56 101 -125 119 -207
c11.333 -52 11.666 -105.167 0.999023 -159.5s-31 -103.5 -61 -147.5c-31.333 -44 -70.666 -80.167 -117.999 -108.5s-97.666 -44.833 -150.999 -49.5c-78 -7.33301 -150.667 8.66699 -218 48h-1c-77.333 52.667 -133.333 121.667 -168 207v-241h-30v1004zM408.996 728
c-52 0 -101.329 -11.3311 -147.996 -33.998c-58 -28 -104.5 -69 -139.5 -123s-53.167 -113.333 -54.5 -178c-0.666992 -62.667 15.666 -124.334 48.999 -185.001s78.666 -110.334 135.999 -149.001c61.333 -36 127.666 -50.333 198.999 -43c48.667 4.66699 95 20 139 46
s80 59 108 99c28 40.667 46.833 86 56.5 136s9.5 99.333 -0.5 148c-16.667 75.333 -53.334 139 -110.001 191c-57.333 52 -124 82 -200 90c-11.333 1.33301 -23 2 -35 2z" />
    <glyph glyph-name="C" unicode="C" horiz-adv-x="783" 
d="M420 758c68 0 131 -16.498 189 -49.498s104.333 -77.167 139 -132.5l-18 -30c-30.667 55.333 -73.5 99.5 -128.5 132.5s-115.5 49.5 -181.5 49.5c-64 0 -123.333 -15.833 -178 -47.5s-97.834 -74.834 -129.501 -129.501s-47.5 -114.167 -47.5 -178.5
s15.833 -123.666 47.5 -177.999s74.834 -97.333 129.501 -129s114 -47.5 178 -47.5c66 0 126.667 16.667 182 50s98.333 77.666 129 132.999l17 -30c-34 -56 -80.167 -100.5 -138.5 -133.5s-121.5 -49.5 -189.5 -49.5c-69.333 0 -133.666 17.167 -192.999 51.5
s-106.166 81 -140.499 140s-51.5 123.333 -51.5 193s17.167 134.167 51.5 193.5s81.166 106.166 140.499 140.499s123.666 51.5 192.999 51.5z" />
    <glyph glyph-name="D" unicode="D" horiz-adv-x="828" 
d="M760 1004h30.001v-1004h-30v241c-34.667 -85.333 -90.667 -154.333 -168 -207h-1c-67.333 -39.333 -140 -55.333 -218 -48c-53.333 4.66699 -103.833 21.167 -151.5 49.5s-86.834 64.5 -117.501 108.5s-51.167 93.167 -61.5 147.5s-9.83301 107.5 1.5 159.5
c17.333 82 56.666 151 117.999 207c62 56.667 134.667 89.334 218 98.001c12 1.33301 24.667 2 38 2c56.667 0 110.334 -12.333 161.001 -37c62.667 -30 113 -74.667 151 -134c11.333 -16.667 21.333 -35.334 30 -56.001v473zM418.001 728
c-12 0 -23.665 -0.668945 -34.998 -2.00195c-76.667 -8 -143.667 -38 -201 -90c-56 -52 -92.333 -115.667 -109 -191c-10.667 -48.667 -11 -98 -1 -148s29 -95.333 57 -136c28 -40 64 -73 108 -99s90.333 -41.333 139 -46c71.333 -7.33301 137.666 7 198.999 43
c56.667 38.667 101.667 88.334 135 149.001s49.666 122.334 48.999 185.001v0c-1.33301 64.667 -19.333 124 -54 178s-81 95 -139 123c-46.667 22.667 -96 34 -148 34z" />
    <glyph glyph-name="E" unicode="E" horiz-adv-x="840" 
d="M420 758c79.333 0 151.331 -22.166 215.998 -66.499s111.667 -101.833 141 -172.5c14 -34 22.667 -69.333 26 -106c1.33301 -8.66699 0.833008 -13.834 -1.5 -15.501s-8.83301 -2.5 -19.5 -2.5h-7h-709c-0.666992 -7.33301 -1 -14.666 -1 -21.999
c0 -29.333 3.66699 -58.333 11 -87v-1.5v-1.5c20.667 -77.333 62.834 -140.833 126.501 -190.5s136.167 -74.5 217.5 -74.5c65.333 0 125.333 16.167 180 48.5s97.334 75.5 128.001 129.5l17 -29c-34.667 -55.333 -80.667 -99 -138 -131s-119.666 -48 -186.999 -48
c-88.667 0 -167.667 27.333 -237 82s-114.666 124 -135.999 208c0 0.666992 -0.166992 1.33398 -0.5 2.00098s-0.5 1.33398 -0.5 2.00098c-7.33301 29.333 -11 59.666 -11 90.999c0 69.333 17.167 133.666 51.5 192.999s81.166 106.166 140.499 140.499
s123.666 51.5 192.999 51.5zM419.998 728.001c-88.667 0 -166.169 -29 -232.502 -87s-105.833 -130 -118.5 -216h703c-5.33301 32.667 -14.666 64 -27.999 94c-28 62.667 -71.167 113.167 -129.5 151.5s-123.166 57.5 -194.499 57.5z" />
    <glyph glyph-name="F" unicode="F" horiz-adv-x="476" 
d="M401 1021h6.00195c11.333 0 22.666 -1 33.999 -3l-5 -30c-40.667 7.33301 -80 3 -118 -13c-36.667 -15.333 -67.334 -40.333 -92.001 -75c-22 -30.667 -37 -67.667 -45 -111c-2.66699 -12.667 -4.66699 -26 -6 -40h188v-30h-189c-0.666992 -13.333 -1 -31.666 -1 -54.999
v-664h-30v664c0 23.333 0.333008 41.666 1 54.999h-110v30h111c1.33301 16 3.33301 31 6 45c9.33301 48 26.333 89.333 51 124c27.333 38.667 62.333 67 105 85c30 12.667 61.333 18.667 94 18z" />
    <glyph glyph-name="G" unicode="G" horiz-adv-x="828" 
d="M418 758c56.667 0 110.334 -12.334 161.001 -37.001c62.667 -30 113 -74.667 151 -134c11.333 -16.667 21.333 -35.334 30 -56.001v210h30v-740c-18.667 -74 -57.167 -137 -115.5 -189s-127.166 -83.333 -206.499 -94c-42.667 -3.33301 -85.167 0.833984 -127.5 12.501
s-81 30.167 -116 55.5s-64.5 56.333 -88.5 93s-41 76 -51 118l30 7c8.66699 -38 24.167 -74 46.5 -108s49.166 -62.333 80.499 -85c44.667 -32 94.334 -51 149.001 -57s106.334 -0.5 155.001 16.5s92.667 45.667 132 86s66.666 88.5 81.999 144.5v240
c-34.667 -85.333 -90.667 -154.333 -168 -207h-1c-67.333 -39.333 -140 -55.333 -218 -48c-53.333 5.33301 -103.833 22 -151.5 50s-86.834 64 -117.501 108s-51.167 93.167 -61.5 147.5s-9.83301 107.5 1.5 159.5c17.333 82 56.666 151 117.999 207
c62 56.667 134.667 89.334 218 98.001c12 1.33301 24.667 2 38 2zM418 727.999c-12 0 -23.665 -0.667969 -34.998 -2.00098c-76.667 -7.33301 -143.667 -37.333 -201 -90c-56 -52 -92.333 -115.667 -109 -191c-10.667 -48.667 -11 -98 -1 -148s29 -95 57 -135
c28 -40.667 64 -74 108 -100s90.333 -41.333 139 -46c71.333 -6.66699 137.666 7.66602 198.999 42.999c56.667 38.667 101.667 88.334 135 149.001s49.666 122.334 48.999 185.001v1c-1.33301 64 -19.333 123 -54 177s-81 95 -139 123c-46.667 22.667 -96 34 -148 34z" />
    <glyph glyph-name="H" unicode="H" horiz-adv-x="655" 
d="M37 1003l30 0.000976562v-401c18 29.333 39.667 55.333 65 78c46 40 99 65 159 75c17.333 2.66699 34.666 4 51.999 4c30 0 59 -4.66699 87 -14c46.667 -16 85.334 -42.333 116.001 -79c30 -35.333 50.333 -77.333 61 -126c6.66699 -32 10 -77.667 10 -137v-403h-30v403
c0 56.667 -3 100 -9 130c-10 44.667 -28.333 82.334 -55 113.001c-27.333 33.333 -61.333 56.666 -102 69.999c-40 13.333 -81.667 16.666 -125 9.99902c-54.667 -9.33301 -102.667 -32 -144 -68c-40 -35.333 -68.333 -78.333 -85 -129v-529h-30v532v1.5v0.5v469z" />
    <glyph glyph-name="I" unicode="I" horiz-adv-x="171" 
d="M49 988c10 10 22 15 36 15s26 -5 36 -15s15 -22 15 -36s-5 -26 -15 -36s-22 -15 -36 -15s-26 5 -36 15s-15 22 -15 36s5 26 15 36zM70 740h30v-740h-30v740z" />
    <glyph glyph-name="J" unicode="J" horiz-adv-x="419" 
d="M297 1005c10 10 22 15 36 15s26 -4.83301 36 -14.5s15 -21.5 15 -35.5s-5 -26 -15 -36s-22 -15 -36 -15s-26 5 -36 15s-15 22 -15 36s5 25.667 15 35zM318 758l30.001 -0.000976562v-740c0 -30.667 -1 -54 -3 -70c-4 -26 -11.333 -49.333 -22 -70
c-12 -22.667 -27.667 -41.667 -47 -57c-20.667 -15.333 -43.334 -25.333 -68.001 -30c-37.333 -6.66699 -72.5 -0.5 -105.5 18.5s-55.833 46.5 -68.5 82.5l28 10c10.667 -28.667 29.167 -50.667 55.5 -66s54.5 -20.333 84.5 -15c20.667 3.33301 39.334 11.333 56.001 24
c16 12.667 28.667 28.334 38 47.001c9.33301 17.333 15.666 37.333 18.999 60c2 14.667 3 36.667 3 66v740z" />
    <glyph glyph-name="K" unicode="K" horiz-adv-x="623" 
d="M37 996h30v-950l399 692l26 -15l-207 -359l303 -364l-23 -19l-296 355l-204 -353l-28 -49v56v1006z" />
    <glyph glyph-name="L" unicode="L" horiz-adv-x="105" 
d="M37 1000h30v-1000h-30v1000z" />
    <glyph glyph-name="M" unicode="M" horiz-adv-x="1198" 
d="M343 759c30 0 59 -4.66504 87 -13.998c46.667 -16 85.334 -42.333 116.001 -79c21.333 -26 38 -55.667 50 -89c19.333 40 45.333 74.333 78 103c46 40 99 65 159 75c17.333 2.66699 34.666 4 51.999 4c30.667 0 59.667 -4.66699 87 -14
c46.667 -16 85.334 -42.333 116.001 -79c30 -35.333 50.333 -77.333 61 -126c7.33301 -32 11 -77.667 11 -137v-403h-30v403c0 56.667 -3.33301 100 -10 130c-10 44 -28 81.667 -54 113c-28 33.333 -62.333 56.666 -103 69.999c-40 13.333 -81.667 16.666 -125 9.99902
c-54.667 -9.33301 -102.667 -32 -144 -68c-40 -35.333 -68.333 -78.666 -85 -129.999c5.33301 -29.333 8 -71 8 -125v-403h-30v403c0 56.667 -3 100 -9 130c-10 44.667 -28.333 82.334 -55 113.001c-27.333 33.333 -61.333 56.666 -102 69.999
c-40 13.333 -81.667 16.666 -125 9.99902c-54.667 -9.33301 -102.667 -32 -144 -68c-40 -35.333 -68.333 -78.333 -85 -129v-529h-30v532v1.5v0.5v206h30v-138c18 29.333 39.667 55.333 65 78c46 40 99 65 159 75c17.333 2.66699 34.666 4 51.999 4z" />
    <glyph glyph-name="N" unicode="N" horiz-adv-x="655" 
d="M37 740l30 0.000976562v-138c18 29.333 39.667 55.333 65 78c46 40 99 65 159 75c17.333 2.66699 34.666 4 51.999 4c30 0 59 -4.66699 87 -14c46.667 -16 85.334 -42.333 116.001 -79c30 -35.333 50.333 -77.333 61 -126c6.66699 -32 10 -77.667 10 -137v-403h-30v403
c0 56.667 -3 100 -9 130c-10 44.667 -28.333 82.334 -55 113.001c-27.333 33.333 -61.333 56.666 -102 69.999c-40 13.333 -81.667 16.666 -125 9.99902c-54.667 -9.33301 -102.667 -32 -144 -68c-40 -35.333 -68.333 -78.333 -85 -129v-529h-30v532v1.5v0.5v206z" />
    <glyph glyph-name="O" unicode="O" horiz-adv-x="842" 
d="M227 706c59.333 34.667 123.833 51.999 193.5 51.999s134 -17.167 193 -51.5s105.667 -81.166 140 -140.499s51.5 -123.833 51.5 -193.5s-17.167 -134 -51.5 -193s-81 -105.667 -140 -140s-123.333 -51.5 -193 -51.5s-134.167 17.167 -193.5 51.5
s-106.166 81 -140.499 140s-51.5 123.333 -51.5 193s17.167 134.167 51.5 193.5s81.166 106 140.499 140zM598 679.999c-54 32 -113.165 48.001 -177.498 48.001s-123.833 -15.833 -178.5 -47.5s-97.834 -74.834 -129.501 -129.501s-47.5 -114.167 -47.5 -178.5
s15.833 -123.666 47.5 -177.999s74.834 -97.333 129.501 -129s114.167 -47.5 178.5 -47.5s123.666 15.833 177.999 47.5s97.333 74.667 129 129s47.5 113.666 47.5 177.999s-15.833 123.833 -47.5 178.5s-74.834 97.667 -129.501 129z" />
    <glyph glyph-name="P" unicode="P" horiz-adv-x="829" 
d="M67 -260l-29.9961 -0.000976562v1004h30v-241c34.667 85.333 90.667 154.333 168 207h1c67.333 39.333 140 55.333 218 48c53.333 -5.33301 103.666 -22 150.999 -50s86.666 -64 117.999 -108c30 -44 50.333 -93.167 61 -147.5s10.334 -107.5 -0.999023 -159.5
c-18 -82 -57.667 -151 -119 -207c-62 -57.333 -134.333 -90 -217 -98c-12.667 -1.33301 -25.334 -2 -38.001 -2c-56.667 0 -110.334 12.333 -161.001 37c-63.333 30 -114 74.667 -152 134c-10.667 16.667 -20.334 35.334 -29.001 56.001v-473zM409.004 15.999
c12 0 23.667 0.667969 35 2.00098c76 7.33301 142.667 37.333 200 90c56.667 52 93.334 115.667 110.001 191c10 48 10.167 97.167 0.5 147.5s-28.5 95.5 -56.5 135.5c-28.667 40.667 -64.834 74 -108.501 100s-89.834 41.333 -138.501 46
c-71.333 6.66699 -138 -7.66602 -200 -42.999c-56.667 -38.667 -101.667 -88.334 -135 -149.001s-49.666 -122.334 -48.999 -185.001v-1c1.33301 -64 19.5 -123 54.5 -177s81.5 -95 139.5 -123c46.667 -22.667 96 -34 148 -34z" />
    <glyph glyph-name="Q" unicode="Q" horiz-adv-x="828" 
d="M760 -260l-0.000976562 473.001c-8.66699 -20.667 -18.667 -39.334 -30 -56.001c-38 -59.333 -88.333 -104 -151 -134c-50.667 -24.667 -104.334 -37 -161.001 -37c-13.333 0 -26 0.666992 -38 2c-83.333 8 -156 40.667 -218 98c-61.333 56 -100.666 125 -117.999 207
c-11.333 52 -11.833 105.167 -1.5 159.5s30.833 103.5 61.5 147.5s69.834 80 117.501 108s98.167 44.667 151.5 50c78 7.33301 150.667 -8.66699 218 -48h1c77.333 -52.667 133.333 -121.667 168 -207v241h30v-1004h-30zM417.999 16.001c52 0 101.331 11.332 147.998 33.999
c58 28 104.333 69 139 123s52.667 113 54 177v1c0.666992 62.667 -15.666 124.334 -48.999 185.001s-78.333 110.334 -135 149.001c-61.333 35.333 -127.666 49.666 -198.999 42.999c-48.667 -4.66699 -95 -20 -139 -46s-80 -59.333 -108 -100
c-28 -40 -47 -85.167 -57 -135.5s-9.66699 -99.5 1 -147.5c16.667 -75.333 53 -139 109 -191c57.333 -52.667 124.333 -82.667 201 -90c11.333 -1.33301 23 -2 35 -2z" />
    <glyph glyph-name="R" unicode="R" horiz-adv-x="317" 
d="M257 754l3.99902 -0.000976562c7.33301 0 14.333 -0.666992 21 -2l-4 -29c-49.333 5.33301 -94 -6.66699 -134 -36s-64.667 -68.666 -74 -117.999c-1.33301 -8 -2.33301 -16 -3 -24v-545h-30v546v0v192h30v-92c15.333 26 35 47.667 59 65
c38.667 28.667 82.334 43 131.001 43z" />
    <glyph glyph-name="S" unicode="S" horiz-adv-x="480" 
d="M227 758c11.333 0 22.3379 -0.671875 33.0049 -2.00488c44 -6.66699 80.667 -26.5 110 -59.5s45 -71.5 47 -115.5l-30 -1c-1.33301 36.667 -14.333 68.834 -39 96.501s-55.334 44.167 -92.001 49.5c-25.333 4 -50 1.66699 -74 -7c-24.667 -8 -45.334 -21.667 -62.001 -41
s-27.334 -41.333 -32.001 -66c-4.66699 -25.333 -2.66699 -49.666 6 -72.999c10 -27.333 29.333 -52.333 58 -75c19.333 -16 47.666 -33 84.999 -51h1c47.333 -24 78.333 -40.333 93 -49c35.333 -22 62 -46.667 80 -74c20 -29.333 31 -62 33 -98
c2 -35.333 -5.33301 -68.666 -22 -99.999s-40 -56.5 -70 -75.5s-62.667 -29.167 -98 -30.5c-55.333 -2 -104 15.667 -146 53c-40 36.667 -63.667 82.667 -71 138c-2 13.333 -2.66699 27 -2 41l30 -1c-0.666992 -12 0 -24 2 -36c6 -48 26.333 -87.667 61 -119
c36 -32.667 77.667 -48 125 -46c30 0.666992 57.833 9.16699 83.5 25.5s45.334 37.833 59.001 64.5s19.667 55 18 85s-10.834 57.333 -27.501 82c-16 24 -39.667 45.667 -71 65c-14 8.66699 -44.333 24.667 -91 48c-39.333 19.333 -69.666 37.333 -90.999 54
c-32.667 26 -55 55.333 -67 88c-10.667 28.667 -13.334 58.334 -8.00098 89.001c6 30.667 19.333 57.667 40 81c20 22.667 44.667 39.334 74 50.001c17.333 6 35.666 9.33301 54.999 10z" />
    <glyph glyph-name="T" unicode="T" horiz-adv-x="403" 
d="M186 1002h30v-261h152v-30h-152v-711h-30v711h-152v30h152v261z" />
    <glyph glyph-name="U" unicode="U" horiz-adv-x="654" 
d="M616 0l-30 -0.00195312v138c-17.333 -29.333 -38.666 -55.333 -63.999 -78c-46 -40 -99 -65 -159 -75c-18 -2.66699 -35.667 -4 -53 -4c-30 0.666992 -58.667 5.33398 -86 14.001l-1 1c-46 15.333 -84.667 41.666 -116 78.999c-29.333 34.667 -49.333 76.667 -60 126
c-7.33301 32 -11 77.667 -11 137v402h30v-402c0 -57.333 3.33301 -101 10 -131c10 -44 28 -81.667 54 -113c27.333 -32.667 61.666 -56 102.999 -70c39.333 -13.333 81 -16.333 125 -9c54.667 8.66699 102.667 31.334 144 68.001c39.333 34.667 67.333 77.334 84 128.001
v529h30v-532v-0.5v-1.5v-206z" />
    <glyph glyph-name="V" unicode="V" horiz-adv-x="737" 
d="M62 755l296 -711l317 709l27 -13l-331 -740l-14 -32l-14 32l-309 744z" />
    <glyph glyph-name="W" unicode="W" horiz-adv-x="1153" 
d="M62 755l296 -711l198 444l-106 256l27 11l96 -230l102 228l27 -13l-113 -253l184 -443l317 709l28 -13l-331 -740l-15 -32l-13 32l-187 450l-201 -450l-14 -32l-14 32l-309 744z" />
    <glyph glyph-name="X" unicode="X" horiz-adv-x="613" 
d="M59 758l247 -353l247 353l25 -18l-254 -361l254 -362l-25 -17l-247 353l-247 -353l-25 17l254 362l-254 361z" />
    <glyph glyph-name="Y" unicode="Y" horiz-adv-x="737" 
d="M62 755l296 -711l317 709l27 -13l-331 -740l-112 -253h-33l114 259l-306 738z" />
    <glyph glyph-name="Z" unicode="Z" horiz-adv-x="672" 
d="M97 740h509h31l-19 -24l-523 -686h501v-30h-532h-30l18 24l524 686h-479v30z" />
    <glyph glyph-name="bracketleft" unicode="[" 
 />
    <glyph glyph-name="backslash" unicode="\" 
 />
    <glyph glyph-name="bracketright" unicode="]" 
 />
    <glyph glyph-name="asciicircum" unicode="^" 
 />
    <glyph glyph-name="underscore" unicode="_" 
 />
    <glyph glyph-name="grave" unicode="`" 
 />
    <glyph glyph-name="a" unicode="a" horiz-adv-x="828" 
d="M418 758c56.667 0 110.335 -12.333 161.002 -37c62.667 -30 113 -74.667 151 -134c11.333 -16.667 21.333 -35.334 30 -56.001v209h30v-740h-30v241c-34.667 -85.333 -90.667 -154.333 -168 -207h-1c-67.333 -39.333 -140 -55.333 -218 -48
c-53.333 4.66699 -103.833 21.167 -151.5 49.5s-86.834 64.5 -117.501 108.5s-51.167 93.167 -61.5 147.5s-9.83301 107.5 1.5 159.5c17.333 82 56.666 151 117.999 207c62 56.667 134.667 89.334 218 98.001c12 1.33301 24.667 2 38 2zM418.001 728
c-12 0 -23.665 -0.668945 -34.998 -2.00195c-76.667 -8 -143.667 -38 -201 -90c-56 -52 -92.333 -116 -109 -192c-10.667 -48 -11 -97 -1 -147s29 -95.333 57 -136c28 -40 64 -73 108 -99s90.333 -41.333 139 -46c71.333 -7.33301 137.666 7 198.999 43
c56.667 38.667 101.667 88.334 135 149.001s49.666 122.334 48.999 185.001v0c-1.33301 64.667 -19.333 124 -54 178s-81 95 -139 123c-46.667 22.667 -96 34 -148 34z" />
    <glyph glyph-name="b" unicode="b" horiz-adv-x="829" 
d="M37 1004h29.9961v-473c8.66699 20.667 18.334 39.334 29.001 56.001c38 59.333 88.667 104 152 134c50.667 24.667 104.334 37 161.001 37c12.667 0 25.334 -0.666992 38.001 -2c82.667 -8.66699 155 -41.334 217 -98.001c61.333 -56 101 -125 119 -207
c11.333 -52 11.666 -105.167 0.999023 -159.5s-31 -103.5 -61 -147.5c-31.333 -44 -70.666 -80.167 -117.999 -108.5s-97.666 -44.833 -150.999 -49.5c-78 -7.33301 -150.667 8.66699 -218 48h-1c-77.333 52.667 -133.333 121.667 -168 207v-241h-30v1004zM408.996 728
c-52 0 -101.329 -11.3311 -147.996 -33.998c-58 -28 -104.5 -69 -139.5 -123s-53.167 -113.333 -54.5 -178c-0.666992 -62.667 15.666 -124.334 48.999 -185.001s78.666 -110.334 135.999 -149.001c61.333 -36 127.666 -50.333 198.999 -43c48.667 4.66699 95 20 139 46
s80 59 108 99c28 40.667 46.833 86 56.5 136s9.5 99.333 -0.5 148c-16.667 75.333 -53.334 139 -110.001 191c-57.333 52 -124 82 -200 90c-11.333 1.33301 -23 2 -35 2z" />
    <glyph glyph-name="c" unicode="c" horiz-adv-x="783" 
d="M420 758c68 0 131 -16.498 189 -49.498s104.333 -77.167 139 -132.5l-18 -30c-30.667 55.333 -73.5 99.5 -128.5 132.5s-115.5 49.5 -181.5 49.5c-64 0 -123.333 -15.833 -178 -47.5s-97.834 -74.834 -129.501 -129.501s-47.5 -114.167 -47.5 -178.5
s15.833 -123.666 47.5 -177.999s74.834 -97.333 129.501 -129s114 -47.5 178 -47.5c66 0 126.667 16.667 182 50s98.333 77.666 129 132.999l17 -30c-34 -56 -80.167 -100.5 -138.5 -133.5s-121.5 -49.5 -189.5 -49.5c-69.333 0 -133.666 17.167 -192.999 51.5
s-106.166 81 -140.499 140s-51.5 123.333 -51.5 193s17.167 134.167 51.5 193.5s81.166 106.166 140.499 140.499s123.666 51.5 192.999 51.5z" />
    <glyph glyph-name="d" unicode="d" horiz-adv-x="828" 
d="M760 1004h30.001v-1004h-30v241c-34.667 -85.333 -90.667 -154.333 -168 -207h-1c-67.333 -39.333 -140 -55.333 -218 -48c-53.333 4.66699 -103.833 21.167 -151.5 49.5s-86.834 64.5 -117.501 108.5s-51.167 93.167 -61.5 147.5s-9.83301 107.5 1.5 159.5
c17.333 82 56.666 151 117.999 207c62 56.667 134.667 89.334 218 98.001c12 1.33301 24.667 2 38 2c56.667 0 110.334 -12.333 161.001 -37c62.667 -30 113 -74.667 151 -134c11.333 -16.667 21.333 -35.334 30 -56.001v473zM418.001 728
c-12 0 -23.665 -0.668945 -34.998 -2.00195c-76.667 -8 -143.667 -38 -201 -90c-56 -52 -92.333 -115.667 -109 -191c-10.667 -48.667 -11 -98 -1 -148s29 -95.333 57 -136c28 -40 64 -73 108 -99s90.333 -41.333 139 -46c71.333 -7.33301 137.666 7 198.999 43
c56.667 38.667 101.667 88.334 135 149.001s49.666 122.334 48.999 185.001v0c-1.33301 64.667 -19.333 124 -54 178s-81 95 -139 123c-46.667 22.667 -96 34 -148 34z" />
    <glyph glyph-name="e" unicode="e" horiz-adv-x="840" 
d="M420 758c79.333 0 151.331 -22.166 215.998 -66.499s111.667 -101.833 141 -172.5c14 -34 22.667 -69.333 26 -106c1.33301 -8.66699 0.833008 -13.834 -1.5 -15.501s-8.83301 -2.5 -19.5 -2.5h-7h-709c-0.666992 -7.33301 -1 -14.666 -1 -21.999
c0 -29.333 3.66699 -58.333 11 -87v-1.5v-1.5c20.667 -77.333 62.834 -140.833 126.501 -190.5s136.167 -74.5 217.5 -74.5c65.333 0 125.333 16.167 180 48.5s97.334 75.5 128.001 129.5l17 -29c-34.667 -55.333 -80.667 -99 -138 -131s-119.666 -48 -186.999 -48
c-88.667 0 -167.667 27.333 -237 82s-114.666 124 -135.999 208c0 0.666992 -0.166992 1.33398 -0.5 2.00098s-0.5 1.33398 -0.5 2.00098c-7.33301 29.333 -11 59.666 -11 90.999c0 69.333 17.167 133.666 51.5 192.999s81.166 106.166 140.499 140.499
s123.666 51.5 192.999 51.5zM419.998 728.001c-88.667 0 -166.169 -29 -232.502 -87s-105.833 -130 -118.5 -216h703c-5.33301 32.667 -14.666 64 -27.999 94c-28 62.667 -71.167 113.167 -129.5 151.5s-123.166 57.5 -194.499 57.5z" />
    <glyph glyph-name="f" unicode="f" horiz-adv-x="476" 
d="M401 1021h6.00195c11.333 0 22.666 -1 33.999 -3l-5 -30c-40.667 7.33301 -80 3 -118 -13c-36.667 -15.333 -67.334 -40.333 -92.001 -75c-22 -30.667 -37 -67.667 -45 -111c-2.66699 -12.667 -4.66699 -26 -6 -40h188v-30h-189c-0.666992 -13.333 -1 -31.666 -1 -54.999
v-664h-30v664c0 23.333 0.333008 41.666 1 54.999h-110v30h111c1.33301 16 3.33301 31 6 45c9.33301 48 26.333 89.333 51 124c27.333 38.667 62.333 67 105 85c30 12.667 61.333 18.667 94 18z" />
    <glyph glyph-name="g" unicode="g" horiz-adv-x="828" 
d="M418 758c56.667 0 110.334 -12.334 161.001 -37.001c62.667 -30 113 -74.667 151 -134c11.333 -16.667 21.333 -35.334 30 -56.001v210h30v-740c-18.667 -74 -57.167 -137 -115.5 -189s-127.166 -83.333 -206.499 -94c-42.667 -3.33301 -85.167 0.833984 -127.5 12.501
s-81 30.167 -116 55.5s-64.5 56.333 -88.5 93s-41 76 -51 118l30 7c8.66699 -38 24.167 -74 46.5 -108s49.166 -62.333 80.499 -85c44.667 -32 94.334 -51 149.001 -57s106.334 -0.5 155.001 16.5s92.667 45.667 132 86s66.666 88.5 81.999 144.5v240
c-34.667 -85.333 -90.667 -154.333 -168 -207h-1c-67.333 -39.333 -140 -55.333 -218 -48c-53.333 5.33301 -103.833 22 -151.5 50s-86.834 64 -117.501 108s-51.167 93.167 -61.5 147.5s-9.83301 107.5 1.5 159.5c17.333 82 56.666 151 117.999 207
c62 56.667 134.667 89.334 218 98.001c12 1.33301 24.667 2 38 2zM418 727.999c-12 0 -23.665 -0.667969 -34.998 -2.00098c-76.667 -7.33301 -143.667 -37.333 -201 -90c-56 -52 -92.333 -115.667 -109 -191c-10.667 -48.667 -11 -98 -1 -148s29 -95 57 -135
c28 -40.667 64 -74 108 -100s90.333 -41.333 139 -46c71.333 -6.66699 137.666 7.66602 198.999 42.999c56.667 38.667 101.667 88.334 135 149.001s49.666 122.334 48.999 185.001v1c-1.33301 64 -19.333 123 -54 177s-81 95 -139 123c-46.667 22.667 -96 34 -148 34z" />
    <glyph glyph-name="h" unicode="h" horiz-adv-x="655" 
d="M37 1003l30 0.000976562v-401c18 29.333 39.667 55.333 65 78c46 40 99 65 159 75c17.333 2.66699 34.666 4 51.999 4c30 0 59 -4.66699 87 -14c46.667 -16 85.334 -42.333 116.001 -79c30 -35.333 50.333 -77.333 61 -126c6.66699 -32 10 -77.667 10 -137v-403h-30v403
c0 56.667 -3 100 -9 130c-10 44.667 -28.333 82.334 -55 113.001c-27.333 33.333 -61.333 56.666 -102 69.999c-40 13.333 -81.667 16.666 -125 9.99902c-54.667 -9.33301 -102.667 -32 -144 -68c-40 -35.333 -68.333 -78.333 -85 -129v-529h-30v532v1.5v0.5v469z" />
    <glyph glyph-name="i" unicode="i" horiz-adv-x="171" 
d="M49 988c10 10 22 15 36 15s26 -5 36 -15s15 -22 15 -36s-5 -26 -15 -36s-22 -15 -36 -15s-26 5 -36 15s-15 22 -15 36s5 26 15 36zM70 740h30v-740h-30v740z" />
    <glyph glyph-name="j" unicode="j" horiz-adv-x="419" 
d="M297 1005c10 10 22 15 36 15s26 -4.83301 36 -14.5s15 -21.5 15 -35.5s-5 -26 -15 -36s-22 -15 -36 -15s-26 5 -36 15s-15 22 -15 36s5 25.667 15 35zM318 758l30.001 -0.000976562v-740c0 -30.667 -1 -54 -3 -70c-4 -26 -11.333 -49.333 -22 -70
c-12 -22.667 -27.667 -41.667 -47 -57c-20.667 -15.333 -43.334 -25.333 -68.001 -30c-37.333 -6.66699 -72.5 -0.5 -105.5 18.5s-55.833 46.5 -68.5 82.5l28 10c10.667 -28.667 29.167 -50.667 55.5 -66s54.5 -20.333 84.5 -15c20.667 3.33301 39.334 11.333 56.001 24
c16 12.667 28.667 28.334 38 47.001c9.33301 17.333 15.666 37.333 18.999 60c2 14.667 3 36.667 3 66v740z" />
    <glyph glyph-name="k" unicode="k" horiz-adv-x="623" 
d="M37 996h30v-950l399 692l26 -15l-207 -359l303 -364l-23 -19l-296 355l-204 -353l-28 -49v56v1006z" />
    <glyph glyph-name="l" unicode="l" horiz-adv-x="105" 
d="M37 1000h30v-1000h-30v1000z" />
    <glyph glyph-name="m" unicode="m" horiz-adv-x="1198" 
d="M343 759c30 0 59 -4.66504 87 -13.998c46.667 -16 85.334 -42.333 116.001 -79c21.333 -26 38 -55.667 50 -89c19.333 40 45.333 74.333 78 103c46 40 99 65 159 75c17.333 2.66699 34.666 4 51.999 4c30.667 0 59.667 -4.66699 87 -14
c46.667 -16 85.334 -42.333 116.001 -79c30 -35.333 50.333 -77.333 61 -126c7.33301 -32 11 -77.667 11 -137v-403h-30v403c0 56.667 -3.33301 100 -10 130c-10 44 -28 81.667 -54 113c-28 33.333 -62.333 56.666 -103 69.999c-40 13.333 -81.667 16.666 -125 9.99902
c-54.667 -9.33301 -102.667 -32 -144 -68c-40 -35.333 -68.333 -78.666 -85 -129.999c5.33301 -29.333 8 -71 8 -125v-403h-30v403c0 56.667 -3 100 -9 130c-10 44.667 -28.333 82.334 -55 113.001c-27.333 33.333 -61.333 56.666 -102 69.999
c-40 13.333 -81.667 16.666 -125 9.99902c-54.667 -9.33301 -102.667 -32 -144 -68c-40 -35.333 -68.333 -78.333 -85 -129v-529h-30v532v1.5v0.5v206h30v-138c18 29.333 39.667 55.333 65 78c46 40 99 65 159 75c17.333 2.66699 34.666 4 51.999 4z" />
    <glyph glyph-name="n" unicode="n" horiz-adv-x="655" 
d="M37 740l30 0.000976562v-138c18 29.333 39.667 55.333 65 78c46 40 99 65 159 75c17.333 2.66699 34.666 4 51.999 4c30 0 59 -4.66699 87 -14c46.667 -16 85.334 -42.333 116.001 -79c30 -35.333 50.333 -77.333 61 -126c6.66699 -32 10 -77.667 10 -137v-403h-30v403
c0 56.667 -3 100 -9 130c-10 44.667 -28.333 82.334 -55 113.001c-27.333 33.333 -61.333 56.666 -102 69.999c-40 13.333 -81.667 16.666 -125 9.99902c-54.667 -9.33301 -102.667 -32 -144 -68c-40 -35.333 -68.333 -78.333 -85 -129v-529h-30v532v1.5v0.5v206z" />
    <glyph glyph-name="o" unicode="o" horiz-adv-x="842" 
d="M227 706c59.333 34.667 123.833 51.999 193.5 51.999s134 -17.167 193 -51.5s105.667 -81.166 140 -140.499s51.5 -123.833 51.5 -193.5s-17.167 -134 -51.5 -193s-81 -105.667 -140 -140s-123.333 -51.5 -193 -51.5s-134.167 17.167 -193.5 51.5
s-106.166 81 -140.499 140s-51.5 123.333 -51.5 193s17.167 134.167 51.5 193.5s81.166 106 140.499 140zM598 679.999c-54 32 -113.165 48.001 -177.498 48.001s-123.833 -15.833 -178.5 -47.5s-97.834 -74.834 -129.501 -129.501s-47.5 -114.167 -47.5 -178.5
s15.833 -123.666 47.5 -177.999s74.834 -97.333 129.501 -129s114.167 -47.5 178.5 -47.5s123.666 15.833 177.999 47.5s97.333 74.667 129 129s47.5 113.666 47.5 177.999s-15.833 123.833 -47.5 178.5s-74.834 97.667 -129.501 129z" />
    <glyph glyph-name="p" unicode="p" horiz-adv-x="829" 
d="M67 -260l-29.9961 -0.000976562v1004h30v-241c34.667 85.333 90.667 154.333 168 207h1c67.333 39.333 140 55.333 218 48c53.333 -5.33301 103.666 -22 150.999 -50s86.666 -64 117.999 -108c30 -44 50.333 -93.167 61 -147.5s10.334 -107.5 -0.999023 -159.5
c-18 -82 -57.667 -151 -119 -207c-62 -57.333 -134.333 -90 -217 -98c-12.667 -1.33301 -25.334 -2 -38.001 -2c-56.667 0 -110.334 12.333 -161.001 37c-63.333 30 -114 74.667 -152 134c-10.667 16.667 -20.334 35.334 -29.001 56.001v-473zM409.004 15.999
c12 0 23.667 0.667969 35 2.00098c76 7.33301 142.667 37.333 200 90c56.667 52 93.334 115.667 110.001 191c10 48 10.167 97.167 0.5 147.5s-28.5 95.5 -56.5 135.5c-28.667 40.667 -64.834 74 -108.501 100s-89.834 41.333 -138.501 46
c-71.333 6.66699 -138 -7.66602 -200 -42.999c-56.667 -38.667 -101.667 -88.334 -135 -149.001s-49.666 -122.334 -48.999 -185.001v-1c1.33301 -64 19.5 -123 54.5 -177s81.5 -95 139.5 -123c46.667 -22.667 96 -34 148 -34z" />
    <glyph glyph-name="q" unicode="q" horiz-adv-x="828" 
d="M760 -260l-0.000976562 473.001c-8.66699 -20.667 -18.667 -39.334 -30 -56.001c-38 -59.333 -88.333 -104 -151 -134c-50.667 -24.667 -104.334 -37 -161.001 -37c-13.333 0 -26 0.666992 -38 2c-83.333 8 -156 40.667 -218 98c-61.333 56 -100.666 125 -117.999 207
c-11.333 52 -11.833 105.167 -1.5 159.5s30.833 103.5 61.5 147.5s69.834 80 117.501 108s98.167 44.667 151.5 50c78 7.33301 150.667 -8.66699 218 -48h1c77.333 -52.667 133.333 -121.667 168 -207v241h30v-1004h-30zM417.999 16.001c52 0 101.331 11.332 147.998 33.999
c58 28 104.333 69 139 123s52.667 113 54 177v1c0.666992 62.667 -15.666 124.334 -48.999 185.001s-78.333 110.334 -135 149.001c-61.333 35.333 -127.666 49.666 -198.999 42.999c-48.667 -4.66699 -95 -20 -139 -46s-80 -59.333 -108 -100
c-28 -40 -47 -85.167 -57 -135.5s-9.66699 -99.5 1 -147.5c16.667 -75.333 53 -139 109 -191c57.333 -52.667 124.333 -82.667 201 -90c11.333 -1.33301 23 -2 35 -2z" />
    <glyph glyph-name="r" unicode="r" horiz-adv-x="317" 
d="M257 754l3.99902 -0.000976562c7.33301 0 14.333 -0.666992 21 -2l-4 -29c-49.333 5.33301 -94 -6.66699 -134 -36s-64.667 -68.666 -74 -117.999c-1.33301 -8 -2.33301 -16 -3 -24v-545h-30v546v0v192h30v-92c15.333 26 35 47.667 59 65
c38.667 28.667 82.334 43 131.001 43z" />
    <glyph glyph-name="s" unicode="s" horiz-adv-x="480" 
d="M227 758c11.333 0 22.3379 -0.671875 33.0049 -2.00488c44 -6.66699 80.667 -26.5 110 -59.5s45 -71.5 47 -115.5l-30 -1c-1.33301 36.667 -14.333 68.834 -39 96.501s-55.334 44.167 -92.001 49.5c-25.333 4 -50 1.66699 -74 -7c-24.667 -8 -45.334 -21.667 -62.001 -41
s-27.334 -41.333 -32.001 -66c-4.66699 -25.333 -2.66699 -49.666 6 -72.999c10 -27.333 29.333 -52.333 58 -75c19.333 -16 47.666 -33 84.999 -51h1c47.333 -24 78.333 -40.333 93 -49c35.333 -22 62 -46.667 80 -74c20 -29.333 31 -62 33 -98
c2 -35.333 -5.33301 -68.666 -22 -99.999s-40 -56.5 -70 -75.5s-62.667 -29.167 -98 -30.5c-55.333 -2 -104 15.667 -146 53c-40 36.667 -63.667 82.667 -71 138c-2 13.333 -2.66699 27 -2 41l30 -1c-0.666992 -12 0 -24 2 -36c6 -48 26.333 -87.667 61 -119
c36 -32.667 77.667 -48 125 -46c30 0.666992 57.833 9.16699 83.5 25.5s45.334 37.833 59.001 64.5s19.667 55 18 85s-10.834 57.333 -27.501 82c-16 24 -39.667 45.667 -71 65c-14 8.66699 -44.333 24.667 -91 48c-39.333 19.333 -69.666 37.333 -90.999 54
c-32.667 26 -55 55.333 -67 88c-10.667 28.667 -13.334 58.334 -8.00098 89.001c6 30.667 19.333 57.667 40 81c20 22.667 44.667 39.334 74 50.001c17.333 6 35.666 9.33301 54.999 10z" />
    <glyph glyph-name="t" unicode="t" horiz-adv-x="403" 
d="M186 1002h30v-261h152v-30h-152v-711h-30v711h-152v30h152v261z" />
    <glyph glyph-name="u" unicode="u" horiz-adv-x="654" 
d="M616 0l-30 -0.00195312v138c-17.333 -29.333 -38.666 -55.333 -63.999 -78c-46 -40 -99 -65 -159 -75c-18 -2.66699 -35.667 -4 -53 -4c-30 0.666992 -58.667 5.33398 -86 14.001l-1 1c-46 15.333 -84.667 41.666 -116 78.999c-29.333 34.667 -49.333 76.667 -60 126
c-7.33301 32 -11 77.667 -11 137v402h30v-402c0 -57.333 3.33301 -101 10 -131c10 -44 28 -81.667 54 -113c27.333 -32.667 61.666 -56 102.999 -70c39.333 -13.333 81 -16.333 125 -9c54.667 8.66699 102.667 31.334 144 68.001c39.333 34.667 67.333 77.334 84 128.001
v529h30v-532v-0.5v-1.5v-206z" />
    <glyph glyph-name="v" unicode="v" horiz-adv-x="737" 
d="M62 755l296 -711l317 709l27 -13l-331 -740l-14 -32l-14 32l-309 744z" />
    <glyph glyph-name="w" unicode="w" horiz-adv-x="1153" 
d="M62 755l296 -711l198 444l-106 256l27 11l96 -230l102 228l27 -13l-113 -253l184 -443l317 709l28 -13l-331 -740l-15 -32l-13 32l-187 450l-201 -450l-14 -32l-14 32l-309 744z" />
    <glyph glyph-name="x" unicode="x" horiz-adv-x="613" 
d="M59 758l247 -353l247 353l25 -18l-254 -361l254 -362l-25 -17l-247 353l-247 -353l-25 17l254 362l-254 361z" />
    <glyph glyph-name="y" unicode="y" horiz-adv-x="737" 
d="M62 755l296 -711l317 709l27 -13l-331 -740l-112 -253h-33l114 259l-306 738z" />
    <glyph glyph-name="z" unicode="z" horiz-adv-x="672" 
d="M97 740h509h31l-19 -24l-523 -686h501v-30h-532h-30l18 24l524 686h-479v30z" />
    <glyph glyph-name="braceleft" unicode="{" 
 />
    <glyph glyph-name="bar" unicode="|" 
 />
    <glyph glyph-name="braceright" unicode="}" 
 />
    <glyph glyph-name="asciitilde" unicode="~" 
 />
    <glyph glyph-name="uni007F" 
 />
    <glyph glyph-name="uni0080" 
 />
    <glyph glyph-name="uni0081" 
 />
    <glyph glyph-name="uni0082" 
 />
    <glyph glyph-name="uni0083" 
 />
    <glyph glyph-name="uni0084" 
 />
    <glyph glyph-name="uni0085" unicode="&#x85;" 
 />
    <glyph glyph-name="uni0086" 
 />
    <glyph glyph-name="uni0087" 
 />
    <glyph glyph-name="uni0088" 
 />
    <glyph glyph-name="uni0089" 
 />
    <glyph glyph-name="uni008A" 
 />
    <glyph glyph-name="uni008B" 
 />
    <glyph glyph-name="uni008C" 
 />
    <glyph glyph-name="uni008D" 
 />
    <glyph glyph-name="uni008E" 
 />
    <glyph glyph-name="uni008F" 
 />
    <glyph glyph-name="uni0090" 
 />
    <glyph glyph-name="uni0091" 
 />
    <glyph glyph-name="uni0092" 
 />
    <glyph glyph-name="uni0093" 
 />
    <glyph glyph-name="uni0094" 
 />
    <glyph glyph-name="uni0095" 
 />
    <glyph glyph-name="uni0096" 
 />
    <glyph glyph-name="uni0097" 
 />
    <glyph glyph-name="uni0098" 
 />
    <glyph glyph-name="uni0099" 
 />
    <glyph glyph-name="uni009A" 
 />
    <glyph glyph-name="uni009B" 
 />
    <glyph glyph-name="exclamdown" unicode="&#xa1;" horiz-adv-x="171" 
d="M119 897c-9.33301 -10 -21 -15 -35 -15s-26 5 -36 15s-15 22 -15 36s5 26 15 36s22 15 36 15s25.833 -5 35.5 -15s14.5 -22 14.5 -36s-5 -26 -15 -36zM70 -77v907h30v-907h-30z" />
    <glyph glyph-name="cent" unicode="&#xa2;" horiz-adv-x="783" 
d="M420 758l16.0029 0.00292969l9 41h30l-9 -44c58.667 -6.66699 112.667 -26 162 -58s89.333 -72.333 120 -121l-18 -30c-27.333 49.333 -64.833 90 -112.5 122s-100.167 51.333 -157.5 58l-139 -694c32 -9.33301 65 -14 99 -14c66 0 126.667 16.667 182 50
s98.333 77.666 129 132.999l17 -30c-34 -56 -80.167 -100.5 -138.5 -133.5s-121.5 -49.5 -189.5 -49.5c-35.333 0 -70.333 4.66699 -105 14l-9 -48h-30l11 57c-74.667 28 -135.334 74.833 -182.001 140.5s-70 139.5 -70 221.5c0 69.333 17.167 133.666 51.5 192.999
s81.166 106.166 140.499 140.499s123.666 51.5 192.999 51.5zM293.003 41.0029l137.002 687.001h-10c-64 0 -123.333 -15.833 -178 -47.5s-97.834 -74.834 -129.501 -129.501s-47.5 -114 -47.5 -178c0 -74.667 21.167 -142.167 63.5 -202.5s97.166 -103.5 164.499 -129.5z
" />
    <glyph glyph-name="sterling" unicode="&#xa3;" 
 />
    <glyph glyph-name="currency" unicode="&#xa4;" 
 />
    <glyph glyph-name="yen" unicode="&#xa5;" 
 />
    <glyph glyph-name="brokenbar" unicode="&#xa6;" 
 />
    <glyph glyph-name="section" unicode="&#xa7;" 
 />
    <glyph glyph-name="dieresis" unicode="&#xa8;" 
 />
    <glyph glyph-name="copyright" unicode="&#xa9;" 
 />
    <glyph glyph-name="ordfeminine" unicode="&#xaa;" 
 />
    <glyph glyph-name="guillemotleft" unicode="&#xab;" 
 />
    <glyph glyph-name="logicalnot" unicode="&#xac;" 
 />
    <glyph glyph-name="uni00AD" unicode="&#xad;" 
 />
    <glyph glyph-name="registered" unicode="&#xae;" 
 />
    <glyph glyph-name="macron" unicode="&#xaf;" 
 />
    <glyph glyph-name="degree" unicode="&#xb0;" 
 />
    <glyph glyph-name="plusminus" unicode="&#xb1;" 
 />
    <glyph glyph-name="uni00B2" unicode="&#xb2;" 
 />
    <glyph glyph-name="uni00B3" unicode="&#xb3;" 
 />
    <glyph glyph-name="acute" unicode="&#xb4;" 
 />
    <glyph glyph-name="uni00B5" unicode="&#xb5;" 
 />
    <glyph glyph-name="paragraph" unicode="&#xb6;" 
 />
    <glyph glyph-name="periodcentered" unicode="&#xb7;" 
 />
    <glyph glyph-name="cedilla" unicode="&#xb8;" 
 />
    <glyph glyph-name="uni00B9" unicode="&#xb9;" 
 />
    <glyph glyph-name="ordmasculine" unicode="&#xba;" 
 />
    <glyph glyph-name="guillemotright" unicode="&#xbb;" 
 />
    <glyph glyph-name="onequarter" unicode="&#xbc;" 
 />
    <glyph glyph-name="onehalf" unicode="&#xbd;" 
 />
    <glyph glyph-name="threequarters" unicode="&#xbe;" 
 />
    <glyph glyph-name="questiondown" unicode="&#xbf;" 
 />
    <glyph glyph-name="Agrave" unicode="&#xc0;" horiz-adv-x="1039" 
 />
    <glyph glyph-name="Aacute" unicode="&#xc1;" horiz-adv-x="1039" 
 />
    <glyph glyph-name="Acircumflex" unicode="&#xc2;" horiz-adv-x="1039" 
 />
    <glyph glyph-name="Atilde" unicode="&#xc3;" horiz-adv-x="1039" 
 />
    <glyph glyph-name="Adieresis" unicode="&#xc4;" horiz-adv-x="1039" 
 />
    <glyph glyph-name="Aring" unicode="&#xc5;" horiz-adv-x="1039" 
 />
    <glyph glyph-name="AE" unicode="&#xc6;" horiz-adv-x="1039" 
 />
    <glyph glyph-name="Ccedilla" unicode="&#xc7;" horiz-adv-x="1039" 
 />
    <glyph glyph-name="Egrave" unicode="&#xc8;" horiz-adv-x="1039" 
 />
    <glyph glyph-name="Eacute" unicode="&#xc9;" horiz-adv-x="1039" 
 />
    <glyph glyph-name="Ecircumflex" unicode="&#xca;" horiz-adv-x="1039" 
 />
    <glyph glyph-name="Edieresis" unicode="&#xcb;" horiz-adv-x="1039" 
 />
    <glyph glyph-name="Igrave" unicode="&#xcc;" horiz-adv-x="1039" 
 />
    <glyph glyph-name="Iacute" unicode="&#xcd;" horiz-adv-x="1039" 
 />
    <glyph glyph-name="Icircumflex" unicode="&#xce;" horiz-adv-x="1039" 
 />
    <glyph glyph-name="Idieresis" unicode="&#xcf;" horiz-adv-x="1039" 
 />
    <glyph glyph-name="Eth" unicode="&#xd0;" horiz-adv-x="1039" 
 />
    <glyph glyph-name="Ntilde" unicode="&#xd1;" horiz-adv-x="1039" 
 />
    <glyph glyph-name="Ograve" unicode="&#xd2;" horiz-adv-x="1039" 
 />
    <glyph glyph-name="Oacute" unicode="&#xd3;" horiz-adv-x="1039" 
 />
    <glyph glyph-name="Ocircumflex" unicode="&#xd4;" horiz-adv-x="1039" 
 />
    <glyph glyph-name="Otilde" unicode="&#xd5;" horiz-adv-x="1039" 
 />
    <glyph glyph-name="Odieresis" unicode="&#xd6;" horiz-adv-x="1039" 
 />
    <glyph glyph-name="multiply" unicode="&#xd7;" horiz-adv-x="1039" 
 />
    <glyph glyph-name="Oslash" unicode="&#xd8;" horiz-adv-x="1039" 
 />
    <glyph glyph-name="Ugrave" unicode="&#xd9;" horiz-adv-x="1039" 
 />
    <glyph glyph-name="Uacute" unicode="&#xda;" horiz-adv-x="1039" 
 />
    <glyph glyph-name="Ucircumflex" unicode="&#xdb;" horiz-adv-x="1039" 
 />
    <glyph glyph-name="Udieresis" unicode="&#xdc;" horiz-adv-x="1039" 
 />
    <glyph glyph-name="Yacute" unicode="&#xdd;" horiz-adv-x="1039" 
 />
    <glyph glyph-name="Thorn" unicode="&#xde;" horiz-adv-x="1039" 
 />
    <glyph glyph-name="germandbls" unicode="&#xdf;" horiz-adv-x="1039" 
 />
    <glyph glyph-name="agrave" unicode="&#xe0;" horiz-adv-x="1039" 
 />
    <glyph glyph-name="aacute" unicode="&#xe1;" horiz-adv-x="1039" 
 />
    <glyph glyph-name="acircumflex" unicode="&#xe2;" horiz-adv-x="1039" 
 />
    <glyph glyph-name="atilde" unicode="&#xe3;" horiz-adv-x="1039" 
 />
    <glyph glyph-name="adieresis" unicode="&#xe4;" horiz-adv-x="1039" 
 />
    <glyph glyph-name="aring" unicode="&#xe5;" horiz-adv-x="1039" 
 />
    <glyph glyph-name="ae" unicode="&#xe6;" horiz-adv-x="1039" 
 />
    <glyph glyph-name="ccedilla" unicode="&#xe7;" horiz-adv-x="1039" 
 />
    <glyph glyph-name="egrave" unicode="&#xe8;" horiz-adv-x="1039" 
 />
    <glyph glyph-name="eacute" unicode="&#xe9;" horiz-adv-x="1039" 
 />
    <glyph glyph-name="ecircumflex" unicode="&#xea;" horiz-adv-x="1039" 
 />
    <glyph glyph-name="edieresis" unicode="&#xeb;" horiz-adv-x="1039" 
 />
    <glyph glyph-name="igrave" unicode="&#xec;" horiz-adv-x="1039" 
 />
    <glyph glyph-name="iacute" unicode="&#xed;" horiz-adv-x="1039" 
 />
    <glyph glyph-name="icircumflex" unicode="&#xee;" horiz-adv-x="1039" 
 />
    <glyph glyph-name="idieresis" unicode="&#xef;" horiz-adv-x="1039" 
 />
    <glyph glyph-name="eth" unicode="&#xf0;" horiz-adv-x="1039" 
 />
    <glyph glyph-name="ntilde" unicode="&#xf1;" horiz-adv-x="1039" 
 />
    <glyph glyph-name="ograve" unicode="&#xf2;" horiz-adv-x="1039" 
 />
    <glyph glyph-name="oacute" unicode="&#xf3;" horiz-adv-x="1039" 
 />
    <glyph glyph-name="ocircumflex" unicode="&#xf4;" horiz-adv-x="1039" 
 />
    <glyph glyph-name="otilde" unicode="&#xf5;" horiz-adv-x="1039" 
 />
    <glyph glyph-name="odieresis" unicode="&#xf6;" horiz-adv-x="1039" 
 />
    <glyph glyph-name="divide" unicode="&#xf7;" horiz-adv-x="1039" 
 />
    <glyph glyph-name="oslash" unicode="&#xf8;" horiz-adv-x="1039" 
 />
    <glyph glyph-name="ugrave" unicode="&#xf9;" horiz-adv-x="1039" 
 />
    <glyph glyph-name="uacute" unicode="&#xfa;" horiz-adv-x="1039" 
 />
    <glyph glyph-name="ucircumflex" unicode="&#xfb;" horiz-adv-x="1039" 
 />
    <glyph glyph-name="udieresis" unicode="&#xfc;" horiz-adv-x="1039" 
 />
    <glyph glyph-name="yacute" unicode="&#xfd;" horiz-adv-x="1039" 
 />
    <glyph glyph-name="thorn" unicode="&#xfe;" horiz-adv-x="1039" 
 />
    <glyph glyph-name="ydieresis" unicode="&#xff;" horiz-adv-x="1039" 
 />
    <glyph glyph-name="ff" unicode="&#xfb00;" horiz-adv-x="816" 
d="M401 1021h6.00293c11.333 0 22.666 -1 33.999 -3l-5 -30c-40.667 7.33301 -80 3 -118 -13c-36.667 -15.333 -67.334 -40.333 -92.001 -75c-22 -30.667 -37 -67.667 -45 -111c-2.66699 -12.667 -4.66699 -26 -6 -40h216h17h95c1.33301 16 3 31 5 45
c9.33301 48 26.333 89.333 51 124c28 38.667 63 67 105 85c30 12.667 61.333 18.667 94 18h6c11.333 0 22.666 -1 33.999 -3l-5 -30c-40 7.33301 -79 3 -117 -13c-37.333 -15.333 -68 -40.333 -92 -75c-22.667 -30.667 -38 -67.667 -46 -111c-2 -12.667 -3.66699 -26 -5 -40
h187v-30h-189c-0.666992 -13.333 -1 -31.666 -1 -54.999v-664h-30v664c0 23.333 0.333008 41.666 1 54.999h-93h-17h-217c-0.666992 -13.333 -1 -31.666 -1 -54.999v-664h-30v664c0 23.333 0.333008 41.666 1 54.999h-110v30h111c1.33301 16 3.33301 31 6 45
c9.33301 48 26.333 89.333 51 124c27.333 38.667 62.333 67 105 85c30 12.667 61.333 18.667 94 18z" />
    <glyph glyph-name="fi" unicode="&#xfb01;" horiz-adv-x="524" 
d="M401 1021h6.00195c11.333 0 22.666 -1 33.999 -3l-5 -30c-40.667 7.33301 -80 3 -118 -13c-36.667 -15.333 -67.334 -40.333 -92.001 -75c-22 -30.667 -37 -67.667 -45 -111c-2.66699 -12.667 -4.66699 -26 -6 -40h301v-9v-21v-719h-30v719h-272
c-0.666992 -13.333 -1 -31.666 -1 -54.999v-664h-30v664c0 23.333 0.333008 41.666 1 54.999h-110v30h111c1.33301 16 3.33301 31 6 45c9.33301 48 26.333 89.333 51 124c27.333 38.667 62.333 67 105 85c30 12.667 61.333 18.667 94 18z" />
    <glyph glyph-name="fl" unicode="&#xfb02;" horiz-adv-x="476" 
d="M464 1000h30v-1000h-30v1000zM401 1021h6.00195c11.333 0 22.666 -1 33.999 -3l-5 -30c-40.667 7.33301 -80 3 -118 -13c-36.667 -15.333 -67.334 -40.333 -92.001 -75c-22 -30.667 -37 -67.667 -45 -111c-2.66699 -12.667 -4.66699 -26 -6 -40h188v-30h-189
c-0.666992 -13.333 -1 -31.666 -1 -54.999v-664h-30v664c0 23.333 0.333008 41.666 1 54.999h-110v30h111c1.33301 16 3.33301 31 6 45c9.33301 48 26.333 89.333 51 124c27.333 38.667 62.333 67 105 85c30 12.667 61.333 18.667 94 18z" />
    <glyph glyph-name="uniFB03" unicode="&#xfb03;" horiz-adv-x="937" 
d="M788 1021h6.00098c12 0 23.667 -1 35 -3l-6 -30c-40 7.33301 -79 3 -117 -13c-37.333 -15.333 -68 -40.333 -92 -75c-22.667 -30.667 -38 -67.667 -46 -111c-2 -12.667 -3.66699 -26 -5 -40h300v-9v-21v-719h-30v719h-272c-0.666992 -13.333 -1 -31.666 -1 -54.999v-664
h-30v664c0 23.333 0.333008 41.666 1 54.999h-70h-16h-24h-247c-0.666992 -13.333 -1 -31.666 -1 -54.999v-664h-30v664c0 23.333 0.333008 41.666 1 54.999h-110v30h111c1.33301 16 3.33301 31 6 45c9.33301 48 26.333 89.333 51 124c27.333 38.667 62.333 67 105 85
c30 12.667 61.333 18.667 94 18h6c11.333 0 22.666 -1 33.999 -3l-5 -30c-40.667 7.33301 -80 3 -118 -13c-36.667 -15.333 -67.334 -40.333 -92.001 -75c-22 -30.667 -37 -67.667 -45 -111c-2.66699 -12.667 -4.66699 -26 -6 -40h246h24h88c1.33301 16 3.33301 31 6 45
c8.66699 48 25.334 89.333 50.001 124c28 38.667 63 67 105 85c30 12.667 61.333 18.667 94 18z" />
    <glyph glyph-name="ffl" unicode="&#xfb04;" horiz-adv-x="912" 
d="M790 1021h6.00098c12 0 23.667 -1 35 -3l-6 -30c-40 7.33301 -79 3 -117 -13c-37.333 -15.333 -68 -40.333 -92 -75c-22.667 -30.667 -38 -67.667 -46 -111c-2 -12.667 -3.66699 -26 -5 -40h188v-30h-190c-0.666992 -13.333 -1 -31.666 -1 -54.999v-664h-30v664
c0 23.333 0.333008 41.666 1 54.999h-70h-16h-24h-249c-0.666992 -13.333 -1 -31.666 -1 -54.999v-664h-30v664c0 23.333 0.333008 41.666 1 54.999h-110v30h111c1.33301 16 3.33301 31 6 45c9.33301 48 26.333 89.333 51 124c27.333 38.667 62.333 67 105 85
c30 12.667 61.333 18.667 94 18h6c11.333 0 22.666 -1 33.999 -3l-5 -30c-40.667 7.33301 -80 3 -118 -13c-36.667 -15.333 -67.334 -40.333 -92.001 -75c-22 -30.667 -37 -67.667 -45 -111c-2.66699 -12.667 -4.66699 -26 -6 -40h248h24h88c1.33301 16 3.33301 31 6 45
c8.66699 48 25.334 89.333 50.001 124c28 38.667 63 67 105 85c30 12.667 61.333 18.667 94 18zM853.001 1000h30v-1000h-30v1000z" />
    </font>
</defs>
</svg>
