<?xml version="1.0" standalone="no"?>
<!DOCTYPE svg PUBLIC "-//W3C//DTD SVG 1.1//EN" "http://www.w3.org/Graphics/SVG/1.1/DTD/svg11.dtd" >
<svg xmlns="http://www.w3.org/2000/svg">
<metadata></metadata>
<defs>
<font id="chub_gothicregular" horiz-adv-x="1200" >
<font-face units-per-em="2048" ascent="1536" descent="-512" />
<missing-glyph horiz-adv-x="1024" />
<glyph horiz-adv-x="0" />
<glyph unicode="&#xd;" horiz-adv-x="1024" />
<glyph horiz-adv-x="0" />
<glyph horiz-adv-x="0" />
<glyph unicode=" "  horiz-adv-x="1024" />
<glyph unicode="&#x09;" horiz-adv-x="1024" />
<glyph unicode="&#xa0;" horiz-adv-x="1024" />
<glyph unicode="A" horiz-adv-x="1460" d="M35 4l653 1385h72l647 -1385h-211l-209 436h-530l-207 -436h-215zM545 629h356l-178 377z" />
<glyph unicode="B" horiz-adv-x="976" d="M76 0v1384h293q164 0 254 -38q92 -39 147 -127q53 -84 53 -189q0 -94 -47 -176q-29 -51 -84 -94q63 -29 111 -66q31 -27 54.5 -58.5t39.5 -66.5q35 -76 35 -159q0 -170 -127 -291q-125 -119 -334 -119h-395zM268 190h133q141 0 201 27q63 27 94 78q37 51 37 113 q0 80 -51 133q-47 55 -141 82q-33 8 -90.5 11t-139.5 3h-43v-447zM268 831h45q132 0 191 25q57 20 90 70q31 45 31 104q0 76 -52 119q-53 45 -182 45h-123v-363z" />
<glyph unicode="C" horiz-adv-x="1466" d="M47 715q0 303 213 510t533 207q96 0 183 -18.5t165 -57.5q158 -78 256 -215l18 -25l-153 -117l-19 25q-80 104 -196 162q-115 55 -252 55q-150 0 -279 -74q-129 -72 -197 -192q-71 -119 -71 -269q0 -115 39 -214q41 -96 119 -173q39 -39 82.5 -66.5t93.5 -47.5 q106 -39 221 -39q131 0 241 53q109 49 201 156l19 20l151 -114l-18 -25q-102 -131 -258 -205q-154 -71 -339 -71h-5q-360 0 -572 241q-176 207 -176 494z" />
<glyph unicode="D" horiz-adv-x="1347" d="M104 0v1384h306q299 0 440 -49q204 -71 317 -245q113 -176 113 -414q0 -207 -90 -365q-88 -158 -236 -235q-143 -76 -399 -76h-451zM293 186h121q274 0 372 33q143 47 218 164q82 119 81 291q0 180 -88 309q-88 127 -241 174q-121 37 -402 37h-61v-1008z" />
<glyph unicode="E" horiz-adv-x="989" d="M102 -2v1384h822v-190h-627v-352h621v-193h-621v-459h621v-190h-816z" />
<glyph unicode="F" horiz-adv-x="993" d="M180 6v1385h723v-191h-530v-354h530v-191h-530v-649h-193z" />
<glyph unicode="G" horiz-adv-x="1533" d="M20 705q0 195 101 366q98 168 270 264q170 96 387 97q86 0 168 -16.5t160 -47.5q152 -63 301 -201l23 -22l-148 -141l-20 22q-109 106 -234 158q-121 53 -246 53q-147 0 -280 -72q-137 -74 -207 -196q-74 -123 -74 -260q0 -143 76 -269q78 -131 209 -200q135 -74 295 -74 q195 0 327 108q33 27 58.5 57.5t46.5 65.5q29 51 45 121h-416v191h633l-2 -31q0 -319 -190 -510q-188 -188 -504 -188q-195 0 -342 63q-152 68 -264 197q-172 203 -173 465z" />
<glyph unicode="H" d="M100 0v1384h193v-555h612v555h195v-1384h-195v639h-612v-639h-193z" />
<glyph unicode="I" horiz-adv-x="452" d="M135 0v1384h195v-1384h-195z" />
<glyph unicode="J" horiz-adv-x="919" d="M39 143l102 154l25 -18q51 -35 93 -59.5t75 -39.5q39 -18 76 -18q45 0 86 28q39 29 53 76q6 16 11 63.5t5 145.5v922h195v-926q0 -209 -35 -297q-35 -90 -119 -143q-82 -53 -196 -54q-90 0 -170 33q-82 35 -181 115z" />
<glyph unicode="K" d="M123 0v1384h196v-456l488 456h266l-670 -624l713 -760h-260l-537 569v-569h-196z" />
<glyph unicode="L" horiz-adv-x="854" d="M119 0v1384h192v-1196h510v-188h-702z" />
<glyph unicode="M" horiz-adv-x="1705" d="M72 2l198 1384h68l518 -1046l514 1046h68l198 -1384h-192l-121 875l-432 -875h-72l-438 881l-119 -881h-190z" />
<glyph unicode="N" horiz-adv-x="1306" d="M92 0v1384h74l835 -962v962h193v-1384h-74l-829 950v-950h-199z" />
<glyph unicode="O" horiz-adv-x="1560" d="M47 696q0 199 96 369t265 266q164 96 358 96h3q311 0 523 -208q211 -211 211 -517q0 -305 -211 -516t-514 -211q-305 0 -520 211q-211 211 -211 510zM285 489q37 -92 114 -170q78 -78 172 -114q90 -39 201 -39q143 0 270 70q125 72 193 194q70 118 70 272q0 150 -68 271 q-70 119 -197 192q-127 72 -268 72q-137 0 -262 -72q-123 -74 -195 -194q-69 -119 -69 -271q0 -119 39 -211z" />
<glyph unicode="P" horiz-adv-x="1030" d="M76 0v1384h295q233 0 313 -20q125 -31 201 -125q80 -96 80 -238q0 -141 -78 -237q-74 -92 -209 -127q-90 -20 -344 -21h-64v-616h-194zM270 807l193 -4q66 2 113 7t75 17q53 18 84 68q31 45 31 106q0 55 -31 105q-29 45 -80 68q-53 20 -182 20h-203v-387z" />
<glyph unicode="Q" horiz-adv-x="1650" d="M82 702q0 199 98 369q96 172 262 266q168 96 367 97q307 0 518 -211t211 -516q0 -156 -59 -291q-51 -119 -158 -230l154 -184h-242l-64 70q-162 -90 -358 -90q-305 0 -516 211q-213 209 -213 509zM319 496q37 -92 115 -170t170 -115q90 -39 203 -39q131 0 242 55 l-199 236h240l110 -123q31 35 56.5 74t41.5 80q41 100 41 215q0 147 -69 270q-66 117 -195 192q-127 72 -266 72t-264 -72q-123 -72 -195 -194q-69 -125 -69 -271q0 -119 38 -210z" />
<glyph unicode="R" horiz-adv-x="1153" d="M96 0v1384h295q55 0 90 -2t56.5 -5t33 -6t21.5 -5q129 -31 207 -125q82 -96 82 -240q0 -117 -56 -204q-29 -47 -68.5 -81t-90.5 -57q-35 -16 -56.5 -25t-50.5 -18l477 -616h-241l-476 614h-28v-614h-195zM291 805l196 -2q41 0 57.5 6t45.5 20q27 14 36 28.5t25 37.5 q31 49 31 109q0 55 -31 102q-16 25 -34.5 42t-34.5 28q-31 18 -88 18h-203v-389z" />
<glyph unicode="S" horiz-adv-x="948" d="M27 303l163 100l17 -28q53 -100 121 -156q59 -47 127 -47q59 0 110 27q49 27 76 71q27 45 27 97q0 59 -39 112q-59 86 -219 205q-170 129 -213 188q-76 100 -76 220q0 98 45 174q23 39 55.5 69.5t73.5 53.5q78 45 178 45q104 0 189 -52q90 -49 182 -178l18 -24l-155 -119 l-21 24q-72 94 -117 123q-45 27 -100 27q-70 0 -109 -39q-43 -41 -43 -98q0 -33 17 -72q14 -35 59 -78q8 -10 43 -36.5t125 -92.5q176 -131 244 -235t67 -215q0 -156 -118 -273q-118 -114 -284 -114h-3q-127 0 -236 69q-104 68 -190 228z" />
<glyph unicode="T" horiz-adv-x="1079" d="M47 1202v191h993v-191h-397v-1196h-197v1196h-399z" />
<glyph unicode="U" horiz-adv-x="1064" d="M68 563v830h194v-830q0 -88 1 -125t3 -47l2 -2q6 -68 39 -117q35 -49 101 -77q66 -33 137 -33q57 0 112 24q51 25 91 70q35 45 53 109q4 16 8 59t4 139v830h193v-830q0 -92 -8.5 -165.5t-26.5 -131.5q-37 -117 -150 -205t-270 -88q-168 0 -291 82t-166 219 q-12 41 -19 113t-7 176z" />
<glyph unicode="V" horiz-adv-x="1372" d="M41 1384h211l420 -974l426 974h211l-604 -1384h-68z" />
<glyph unicode="W" horiz-adv-x="1773" d="M43 1384h201l252 -888l352 888h70l350 -888l256 888h198l-397 -1384h-70l-370 948l-381 -948h-68z" />
<glyph unicode="X" horiz-adv-x="1255" d="M72 0l442 715l-414 669h228l301 -487l301 487h225l-414 -669l439 -715h-226l-327 530l-328 -530h-227z" />
<glyph unicode="Y" horiz-adv-x="1163" d="M29 1384h225l321 -518l318 518h223l-442 -729v-655h-193v655z" />
<glyph unicode="Z" horiz-adv-x="1054" d="M86 0l557 1196h-479v188h776l-553 -1194h508v-190h-809z" />
<glyph unicode="a" horiz-adv-x="1460" d="M35 4l653 1385h72l647 -1385h-211l-209 436h-530l-207 -436h-215zM545 629h356l-178 377z" />
<glyph unicode="b" horiz-adv-x="976" d="M76 0v1384h293q164 0 254 -38q92 -39 147 -127q53 -84 53 -189q0 -94 -47 -176q-29 -51 -84 -94q63 -29 111 -66q31 -27 54.5 -58.5t39.5 -66.5q35 -76 35 -159q0 -170 -127 -291q-125 -119 -334 -119h-395zM268 190h133q141 0 201 27q63 27 94 78q37 51 37 113 q0 80 -51 133q-47 55 -141 82q-33 8 -90.5 11t-139.5 3h-43v-447zM268 831h45q132 0 191 25q57 20 90 70q31 45 31 104q0 76 -52 119q-53 45 -182 45h-123v-363z" />
<glyph unicode="c" horiz-adv-x="1466" d="M47 715q0 303 213 510t533 207q96 0 183 -18.5t165 -57.5q158 -78 256 -215l18 -25l-153 -117l-19 25q-80 104 -196 162q-115 55 -252 55q-150 0 -279 -74q-129 -72 -197 -192q-71 -119 -71 -269q0 -115 39 -214q41 -96 119 -173q39 -39 82.5 -66.5t93.5 -47.5 q106 -39 221 -39q131 0 241 53q109 49 201 156l19 20l151 -114l-18 -25q-102 -131 -258 -205q-154 -71 -339 -71h-5q-360 0 -572 241q-176 207 -176 494z" />
<glyph unicode="d" horiz-adv-x="1347" d="M104 0v1384h306q299 0 440 -49q204 -71 317 -245q113 -176 113 -414q0 -207 -90 -365q-88 -158 -236 -235q-143 -76 -399 -76h-451zM293 186h121q274 0 372 33q143 47 218 164q82 119 81 291q0 180 -88 309q-88 127 -241 174q-121 37 -402 37h-61v-1008z" />
<glyph unicode="e" horiz-adv-x="989" d="M102 -2v1384h822v-190h-627v-352h621v-193h-621v-459h621v-190h-816z" />
<glyph unicode="f" horiz-adv-x="993" d="M180 6v1385h723v-191h-530v-354h530v-191h-530v-649h-193z" />
<glyph unicode="g" horiz-adv-x="1533" d="M20 705q0 195 101 366q98 168 270 264q170 96 387 97q86 0 168 -16.5t160 -47.5q152 -63 301 -201l23 -22l-148 -141l-20 22q-109 106 -234 158q-121 53 -246 53q-147 0 -280 -72q-137 -74 -207 -196q-74 -123 -74 -260q0 -143 76 -269q78 -131 209 -200q135 -74 295 -74 q195 0 327 108q33 27 58.5 57.5t46.5 65.5q29 51 45 121h-416v191h633l-2 -31q0 -319 -190 -510q-188 -188 -504 -188q-195 0 -342 63q-152 68 -264 197q-172 203 -173 465z" />
<glyph unicode="h" d="M100 0v1384h193v-555h612v555h195v-1384h-195v639h-612v-639h-193z" />
<glyph unicode="i" horiz-adv-x="452" d="M135 0v1384h195v-1384h-195z" />
<glyph unicode="j" horiz-adv-x="919" d="M39 143l102 154l25 -18q51 -35 93 -59.5t75 -39.5q39 -18 76 -18q45 0 86 28q39 29 53 76q6 16 11 63.5t5 145.5v922h195v-926q0 -209 -35 -297q-35 -90 -119 -143q-82 -53 -196 -54q-90 0 -170 33q-82 35 -181 115z" />
<glyph unicode="k" d="M123 0v1384h196v-456l488 456h266l-670 -624l713 -760h-260l-537 569v-569h-196z" />
<glyph unicode="l" horiz-adv-x="854" d="M119 0v1384h192v-1196h510v-188h-702z" />
<glyph unicode="m" horiz-adv-x="1705" d="M72 2l198 1384h68l518 -1046l514 1046h68l198 -1384h-192l-121 875l-432 -875h-72l-438 881l-119 -881h-190z" />
<glyph unicode="n" horiz-adv-x="1306" d="M92 0v1384h74l835 -962v962h193v-1384h-74l-829 950v-950h-199z" />
<glyph unicode="o" horiz-adv-x="1560" d="M47 696q0 199 96 369t265 266q164 96 358 96h3q311 0 523 -208q211 -211 211 -517q0 -305 -211 -516t-514 -211q-305 0 -520 211q-211 211 -211 510zM285 489q37 -92 114 -170q78 -78 172 -114q90 -39 201 -39q143 0 270 70q125 72 193 194q70 118 70 272q0 150 -68 271 q-70 119 -197 192q-127 72 -268 72q-137 0 -262 -72q-123 -74 -195 -194q-69 -119 -69 -271q0 -119 39 -211z" />
<glyph unicode="p" horiz-adv-x="1030" d="M76 0v1384h295q233 0 313 -20q125 -31 201 -125q80 -96 80 -238q0 -141 -78 -237q-74 -92 -209 -127q-90 -20 -344 -21h-64v-616h-194zM270 807l193 -4q66 2 113 7t75 17q53 18 84 68q31 45 31 106q0 55 -31 105q-29 45 -80 68q-53 20 -182 20h-203v-387z" />
<glyph unicode="q" horiz-adv-x="1650" d="M82 702q0 199 98 369q96 172 262 266q168 96 367 97q307 0 518 -211t211 -516q0 -156 -59 -291q-51 -119 -158 -230l154 -184h-242l-64 70q-162 -90 -358 -90q-305 0 -516 211q-213 209 -213 509zM319 496q37 -92 115 -170t170 -115q90 -39 203 -39q131 0 242 55 l-199 236h240l110 -123q31 35 56.5 74t41.5 80q41 100 41 215q0 147 -69 270q-66 117 -195 192q-127 72 -266 72t-264 -72q-123 -72 -195 -194q-69 -125 -69 -271q0 -119 38 -210z" />
<glyph unicode="r" horiz-adv-x="1153" d="M96 0v1384h295q55 0 90 -2t56.5 -5t33 -6t21.5 -5q129 -31 207 -125q82 -96 82 -240q0 -117 -56 -204q-29 -47 -68.5 -81t-90.5 -57q-35 -16 -56.5 -25t-50.5 -18l477 -616h-241l-476 614h-28v-614h-195zM291 805l196 -2q41 0 57.5 6t45.5 20q27 14 36 28.5t25 37.5 q31 49 31 109q0 55 -31 102q-16 25 -34.5 42t-34.5 28q-31 18 -88 18h-203v-389z" />
<glyph unicode="s" horiz-adv-x="948" d="M27 303l163 100l17 -28q53 -100 121 -156q59 -47 127 -47q59 0 110 27q49 27 76 71q27 45 27 97q0 59 -39 112q-59 86 -219 205q-170 129 -213 188q-76 100 -76 220q0 98 45 174q23 39 55.5 69.5t73.5 53.5q78 45 178 45q104 0 189 -52q90 -49 182 -178l18 -24l-155 -119 l-21 24q-72 94 -117 123q-45 27 -100 27q-70 0 -109 -39q-43 -41 -43 -98q0 -33 17 -72q14 -35 59 -78q8 -10 43 -36.5t125 -92.5q176 -131 244 -235t67 -215q0 -156 -118 -273q-118 -114 -284 -114h-3q-127 0 -236 69q-104 68 -190 228z" />
<glyph unicode="t" horiz-adv-x="1079" d="M47 1202v191h993v-191h-397v-1196h-197v1196h-399z" />
<glyph unicode="u" horiz-adv-x="1064" d="M68 563v830h194v-830q0 -88 1 -125t3 -47l2 -2q6 -68 39 -117q35 -49 101 -77q66 -33 137 -33q57 0 112 24q51 25 91 70q35 45 53 109q4 16 8 59t4 139v830h193v-830q0 -92 -8.5 -165.5t-26.5 -131.5q-37 -117 -150 -205t-270 -88q-168 0 -291 82t-166 219 q-12 41 -19 113t-7 176z" />
<glyph unicode="v" horiz-adv-x="1372" d="M41 1384h211l420 -974l426 974h211l-604 -1384h-68z" />
<glyph unicode="w" horiz-adv-x="1773" d="M43 1384h201l252 -888l352 888h70l350 -888l256 888h198l-397 -1384h-70l-370 948l-381 -948h-68z" />
<glyph unicode="x" horiz-adv-x="1255" d="M72 0l442 715l-414 669h228l301 -487l301 487h225l-414 -669l439 -715h-226l-327 530l-328 -530h-227z" />
<glyph unicode="y" horiz-adv-x="1163" d="M29 1384h225l321 -518l318 518h223l-442 -729v-655h-193v655z" />
<glyph unicode="z" horiz-adv-x="1054" d="M86 0l557 1196h-479v188h776l-553 -1194h508v-190h-809z" />
<glyph unicode="&#x2000;" horiz-adv-x="717" />
<glyph unicode="&#x2001;" horiz-adv-x="1434" />
<glyph unicode="&#x2002;" horiz-adv-x="717" />
<glyph unicode="&#x2003;" horiz-adv-x="1434" />
<glyph unicode="&#x2004;" horiz-adv-x="478" />
<glyph unicode="&#x2005;" horiz-adv-x="358" />
<glyph unicode="&#x2006;" horiz-adv-x="239" />
<glyph unicode="&#x2007;" horiz-adv-x="239" />
<glyph unicode="&#x2008;" horiz-adv-x="179" />
<glyph unicode="&#x2009;" horiz-adv-x="286" />
<glyph unicode="&#x200a;" horiz-adv-x="79" />
<glyph unicode="&#x202f;" horiz-adv-x="286" />
<glyph unicode="&#x205f;" horiz-adv-x="358" />
<glyph unicode="&#x25fc;" horiz-adv-x="1382" d="M0 0v1382h1382v-1382h-1382z" />
</font>
</defs>
</svg>
