<?xml version="1.0" standalone="no"?>
<!DOCTYPE svg PUBLIC "-//W3C//DTD SVG 1.1//EN" "http://www.w3.org/Graphics/SVG/1.1/DTD/svg11.dtd" >
<svg xmlns="http://www.w3.org/2000/svg">
<metadata></metadata>
<defs>
<font id="colunacondensed_bold" horiz-adv-x="835" >
<font-face units-per-em="2048" ascent="1536" descent="-512" />
<missing-glyph horiz-adv-x="346" />
<glyph horiz-adv-x="0" />
<glyph horiz-adv-x="682" />
<glyph unicode=" "  horiz-adv-x="346" />
<glyph unicode="&#x09;" horiz-adv-x="346" />
<glyph unicode="&#xa0;" horiz-adv-x="346" />
<glyph unicode="!" horiz-adv-x="339" d="M47 111q0 53 36.5 90t88.5 37q51 0 88 -37.5t37 -89.5q0 -51 -37 -88t-88 -37q-52 0 -88.5 37t-36.5 88zM57 360v1115h224v-1115h-224z" />
<glyph unicode="&#x22;" horiz-adv-x="425" d="M33 1352v3v3v3v3v4v3v3v3v3v3v3v3v4v3v3v3v3v3v3v4v3v3v3v3v3v3v3v4v3v3v3v3v3v3v3v4v3v7h153v-175h-8q-56 0 -7 -109l15 -30v-47q-53 0 -103 61.5t-50 176.5zM229 1352v3v3v3v3v4v3v3v3v3v3v3v3v4v3v3v3v3v3v3v4v3v3v3v3v3v3v3v4v3v3v3v3v3v3v3v4v3v7h156v-175h-10 q-30 -5 -27.5 -36t20.5 -67l17 -36v-47q-54 0 -105 61.5t-51 176.5z" />
<glyph unicode="#" horiz-adv-x="843" d="M23 217l30 137h117l39 172h-133l33 140l131 -2l32 147h144l-35 -147h192l33 147h142l-33 -147h106l-30 -140l-107 2l-39 -172h123l-33 -139h-123l-32 -147h-142l33 147h-190l-33 -147h-144l35 147zM311 354h191l39 172h-191z" />
<glyph unicode="$" horiz-adv-x="722" d="M23 295v229h282v-243q0 -19 11 -30t21 -13t19 -2q8 0 17.5 2t21 13t11.5 30v174q0 16 -2.5 28t-4.5 20t-12 19.5t-15.5 17t-24.5 23.5t-30 29l-213 192q-43 43 -62 88t-19 111v186q0 141 104 242q59 59 154 74v162h163v-162q88 -18 144 -74q104 -101 104 -242v-215h-286 v230q0 26 -14.5 36.5t-29.5 10.5q-18 0 -31.5 -10t-13.5 -35v-174q0 -25 8 -44t17 -28.5t30.5 -28t33.5 -30.5l217 -187q47 -47 62 -95.5t15 -137.5v-166q0 -139 -104 -240q-58 -58 -152 -73v-168h-163v166q-94 15 -154 75q-104 101 -104 240z" />
<glyph unicode="%" horiz-adv-x="796" d="M25 1092v274q0 58 47 96.5t116 38.5q71 0 118.5 -38.5t47.5 -96.5v-274q0 -58 -47.5 -97t-118.5 -39q-69 0 -116 39t-47 97zM94 -2h158l436 1477h-158zM164 1100q0 -21 24 -21q27 0 27 21v258q0 9 -8 14.5t-19 5.5q-9 0 -16.5 -5.5t-7.5 -14.5v-258zM440 109v272 q0 58 47.5 97.5t116.5 39.5q71 0 118.5 -39.5t47.5 -97.5v-272q0 -59 -48 -98.5t-118 -39.5q-69 0 -116.5 40t-47.5 98zM580 117q0 -23 24 -23q27 0 27 23v256q0 9 -8 15.5t-19 6.5q-9 0 -16.5 -6.5t-7.5 -15.5v-256z" />
<glyph unicode="&#x26;" horiz-adv-x="872" d="M51 274v263q0 24 1 38t6.5 38t16 41.5t32 39t51.5 39.5q-4 2 -11 7t-25 22t-31.5 37t-24.5 54t-11 71v276q0 124 97 217q79 76 223 76q140 0 219 -76q98 -98 98 -227v-103h-256v123q0 30 -18.5 47t-42.5 17q-27 0 -45.5 -16.5t-18.5 -47.5v-336q0 -11 3 -22t18.5 -24 t42.5 -13h117v143h256v-143h100v-178h-100v-381q0 -27 28.5 -43.5t71.5 -19.5v-222q-8 1 -49.5 2t-63.5 3t-53.5 12.5t-50.5 29.5l-10 7l-13 -7q-89 -47 -209 -47q-72 0 -144 21t-108 55q-96 99 -96 227zM307 256q0 -34 20 -48.5t72 -14.5q32 0 52 5t28.5 15.5t10.5 19 t2 23.5v381h-117q-35 0 -51.5 -17t-16.5 -42v-322z" />
<glyph unicode="'" horiz-adv-x="217" d="M31 1122v353h153v-353h-153z" />
<glyph unicode="(" horiz-adv-x="389" d="M55 342v791q0 182 82 266q46 43 88 59.5t107 16.5h2v-199h-2h-4h-6q-101 0 -101 -92v-893q0 -14 4 -27t14.5 -29t34.5 -26t58 -10h2v-199h-2q-65 0 -107 16.5t-88 59.5q-82 82 -82 266z" />
<glyph unicode=")" horiz-adv-x="389" d="M55 0v199h2h4h7q100 0 100 92v893q0 14 -4 27t-14.5 29t-34.5 26t-58 10h-2v199h2q66 0 107 -16.5t86 -59.5q84 -84 84 -266v-791q0 -184 -84 -266q-45 -43 -86 -59.5t-107 -16.5h-2z" />
<glyph unicode="*" horiz-adv-x="303" d="M23 1321v49h67l-49 49l37 35l47 -47v68h51v-68l49 47l35 -35l-49 -49h70v-49h-70l49 -49l-35 -35l-49 47v-67h-51v67l-47 -47l-37 35l49 49h-67z" />
<glyph unicode="+" horiz-adv-x="532" d="M20 633v184h154v164h184v-164h154v-184h-154v-164h-184v164h-154z" />
<glyph unicode="," horiz-adv-x="280" d="M-29 -225l113 342h174l-113 -342h-174z" />
<glyph unicode="-" horiz-adv-x="479" d="M25 633v184h430v-184h-430z" />
<glyph unicode="." horiz-adv-x="335" d="M47 111q0 53 36.5 90t88.5 37q51 0 88 -37.5t37 -89.5q0 -51 -37 -88t-88 -37q-52 0 -88.5 37t-36.5 88z" />
<glyph unicode="/" horiz-adv-x="708" d="M39 -2l436 1477h195l-437 -1477h-194z" />
<glyph unicode="0" horiz-adv-x="763" d="M41 291v883q0 137 102 239q83 80 238 80q157 0 237 -80q105 -102 105 -239v-883q0 -138 -105 -240q-77 -80 -237 -80q-158 0 -238 80q-102 102 -102 240zM328 274q0 -27 17.5 -37t35.5 -10q11 0 22 3t22 14t11 30v64l-108 506v-570zM328 1190l108 -524v524q0 45 -55 45 q-53 0 -53 -45z" />
<glyph unicode="1" horiz-adv-x="604" d="M23 1225l227 250h299v-1475h-303v1163l-64 -84z" />
<glyph unicode="2" horiz-adv-x="778" d="M37 0v311q0 76 12.5 109t59.5 100l311 402q20 33 20 59v195q0 20 -12.5 32.5t-32.5 12.5q-47 0 -47 -45v-248h-303v227q0 143 109 252q89 86 243 86q158 0 244 -86q98 -98 98 -244v-202q-3 -52 -19 -95.5t-63 -111.5l-280 -357q-18 -25 -26.5 -57t-7.5 -51l1 -19h356 v-270h-663z" />
<glyph unicode="3" horiz-adv-x="747" d="M33 287v200h297v-219q0 -19 12.5 -28t26.5 -9q15 0 28 9t13 28v320q0 33 -41 33h-101v223h101q37 0 37 33v315q0 20 -11 28.5t-26 8.5q-13 0 -24 -8.5t-11 -28.5v-207h-297v189q0 135 102 237q83 80 230 80q148 0 231 -80q102 -99 102 -229v-258q0 -51 -20 -92.5 t-55 -88.5q-4 -7 -9 -10q6 -6 9 -12q26 -35 38.5 -53.5t27 -52.5t14.5 -66v-262q0 -135 -103 -238q-83 -80 -235 -80q-151 0 -234 80q-102 102 -102 238z" />
<glyph unicode="4" horiz-adv-x="782" d="M20 244v168l336 1063h287v-975h119v-256h-119v-244h-272v244h-351zM254 500h117v418z" />
<glyph unicode="5" horiz-adv-x="745" d="M43 291v201h270v-226q0 -45 54 -45q55 0 55 45v393q0 32 -14.5 52t-40.5 20q-52 0 -52 -80h-272v824h616v-275h-356v-219q0 19 64 27q56 4 121.5 -11.5t115.5 -66.5q105 -102 105 -230v-401q0 -146 -105 -248q-80 -80 -237 -80q-71 0 -124 18t-98 62q-102 102 -102 240z " />
<glyph unicode="6" horiz-adv-x="757" d="M35 297v180q0 142 35 264l219 729h286l-176 -577q146 -6 222 -82q104 -104 104 -244v-270q0 -143 -104 -244q-82 -82 -240 -82q-157 0 -242 82q-104 101 -104 244zM334 272q0 -39 47 -39q17 0 31 9t14 30v320q0 37 -45 37q-47 0 -47 -37v-320z" />
<glyph unicode="7" horiz-adv-x="733" d="M23 0l352 1180h-297v295h633v-195l-392 -1280h-296z" />
<glyph unicode="8" horiz-adv-x="735" d="M33 287v268q0 32 13.5 65.5t26.5 53.5t38 53q8 8 10 14q-3 6 -10 13q-25 33 -38 53t-26.5 53.5t-13.5 65.5v252q0 135 100 235q80 80 234 80q156 0 233 -80q102 -99 102 -235v-252q0 -32 -14 -66t-26.5 -53t-38.5 -53q-2 -4 -11 -13q2 -3 6 -7.5t5 -6.5q26 -34 38.5 -53 t26.5 -53t14 -66v-268q0 -137 -102 -236q-80 -80 -233 -80q-151 0 -234 80q-100 100 -100 236zM324 264q0 -37 43 -37q45 0 45 37v316q0 36 -45 36q-43 0 -43 -36v-316zM324 901q0 -35 43 -35q45 0 45 35v301q0 35 -45 35q-43 0 -43 -35v-301z" />
<glyph unicode="9" horiz-adv-x="741" d="M25 903v264q0 140 104 244q85 82 242 82t239 -82q105 -105 105 -244v-174q0 -142 -35 -264l-217 -729h-289l176 578q-146 6 -221 81q-104 101 -104 244zM324 879q0 -39 47 -39q17 0 31 9t14 30v313q0 37 -45 37q-47 0 -47 -37v-313z" />
<glyph unicode=":" horiz-adv-x="339" d="M47 111q0 53 36.5 90t88.5 37q51 0 88 -37.5t37 -89.5q0 -51 -37 -88t-88 -37q-52 0 -88.5 37t-36.5 88zM47 721q0 53 36.5 90t88.5 37q51 0 88 -37.5t37 -89.5q0 -51 -37 -88t-88 -37q-52 0 -88.5 37t-36.5 88z" />
<glyph unicode=";" horiz-adv-x="327" d="M-29 -225l113 342h174l-113 -342h-174zM49 721q0 53 36.5 90t88.5 37q51 0 88 -37.5t37 -89.5q0 -51 -37 -88t-88 -37q-52 0 -88.5 37t-36.5 88z" />
<glyph unicode="&#x3c;" horiz-adv-x="542" d="M18 715v2l392 391l114 -117l-274 -274l274 -277l-114 -116z" />
<glyph unicode="=" horiz-adv-x="471" d="M31 449v184h409v-184h-409zM31 817v184h409v-184h-409z" />
<glyph unicode="&#x3e;" horiz-adv-x="542" d="M18 440l277 277l-277 274l117 117l389 -391v-2l-389 -391z" />
<glyph unicode="?" horiz-adv-x="716" d="M31 1059v117q0 135 104 239q78 78 230 78q79 0 132.5 -18.5t96.5 -59.5q92 -92 92 -231v-60q0 -58 -16 -110t-41.5 -94t-56.5 -83.5t-62.5 -88.5t-57 -100t-41.5 -127.5t-16 -160.5h-229q0 102 16 187t41.5 143t56 107t61.5 89.5t56.5 80t41.5 89t16 105.5v7v8v8v10v4 q0 40 -27 68t-66 28q-44 0 -71 -26.5t-27 -69.5v-139h-233zM160 111q0 53 36.5 90t88.5 37q51 0 88 -37.5t37 -89.5q0 -51 -37 -88t-88 -37q-52 0 -88.5 37t-36.5 88z" />
<glyph unicode="@" horiz-adv-x="1185" d="M41 610q-21 131 6 252q19 108 88 223v2q67 106 158 168q93 68 207 93q46 10 104 10q56 0 111 -12q114 -25 196 -93q92 -71 154 -176q61 -107 82 -233q25 -165 -31 -299q-28 -69 -76 -111h-2q-59 -59 -141 -59q-42 0 -86.5 12.5t-62.5 30.5q-39 39 -48 78q-13 -34 -49 -47 q-39 -15 -73 -15q-108 0 -181 84q-80 86 -80 213q0 126 80 215q73 82 181 82q38 0 70 -14.5t32 -42.5v51h149v-430q0 -30 24.5 -39.5t43.5 -3.5q46 15 76 76q33 61 16 184v2q-27 161 -137 270t-254 109q-24 0 -74 -8q-155 -32 -260 -207q-90 -150 -65 -330 q27 -161 135.5 -267t253.5 -106q30 0 71 9q58 11 99 30l98 -139q-84 -44 -168 -59q-51 -11 -106 -11q-49 0 -109 13q-120 27 -197 90q-90 63 -151 168q-66 114 -84 237zM479 731q0 -52 28.5 -94.5t70.5 -42.5t66 41.5t24 95.5t-24 95.5t-66 41.5t-70.5 -42.5t-28.5 -94.5z " />
<glyph unicode="A" d="M23 0l245 1475h299l246 -1475h-305h4l-23 221h-143l-22 -221h-301zM367 440h102l-51 590z" />
<glyph unicode="B" horiz-adv-x="786" d="M55 0v1475h328q69 0 137.5 -26.5t114.5 -72.5q102 -102 102 -256v-139q0 -109 -90 -221q107 -120 107 -244v-162q0 -155 -103 -258q-46 -45 -114.5 -70.5t-137.5 -25.5h-344zM348 242h51q34 0 48 15t14 48v277q0 29 -17.5 46t-42.5 17h-53v-403zM348 854h39q57 0 57 61 v254q0 30 -16.5 46t-44.5 16h-35v-377z" />
<glyph unicode="C" horiz-adv-x="757" d="M41 293v878q0 141 104 242q80 80 238 80t238 -80q104 -101 104 -242v-299h-291v316q0 47 -51 47t-51 -47v-912q0 -47 51 -47t51 47v306h291v-289q0 -138 -104 -242q-80 -80 -238 -80t-238 80q-104 104 -104 242z" />
<glyph unicode="D" horiz-adv-x="778" d="M55 0v1475h342q140 0 240 -97q104 -104 104 -258v-766q0 -154 -104 -258q-99 -96 -240 -96h-342zM348 242h49q52 0 52 63v864q0 31 -14 47.5t-38 16.5h-49v-991z" />
<glyph unicode="E" horiz-adv-x="657" d="M55 0v1475h572v-246h-271v-398h201v-213h-201v-362h271v-256h-572z" />
<glyph unicode="F" horiz-adv-x="651" d="M55 0v1475h572v-246h-271v-398h201v-213h-201v-618h-301z" />
<glyph unicode="G" horiz-adv-x="761" d="M41 293v878q0 141 104 242q80 80 238 80t238 -80q104 -101 104 -242v-301h-291v318q0 47 -51 47t-51 -47v-912q0 -20 12 -31t22 -13.5t21 -2.5q46 0 55 47v269h-59v164h342v-709h-82v2t-1 5t-1.5 8t-1.5 10t-1.5 10.5t-1.5 10t-2 9.5t-2 7.5t-1.5 5t-1.5 0.5 q-50 -50 -103.5 -73.5t-142.5 -23.5q-158 0 -238 80q-104 104 -104 242z" />
<glyph unicode="H" horiz-adv-x="819" d="M55 0v1475h301v-644h107v644h301v-1475h-301v618h-107v-618h-301z" />
<glyph unicode="I" horiz-adv-x="434" d="M72 0v1475h290v-1475h-290z" />
<glyph unicode="J" horiz-adv-x="772" d="M33 293v287h291v-304q0 -47 51 -47t51 47v1197h291v-1180q0 -137 -105 -242q-80 -80 -237 -80q-158 0 -238 80q-104 104 -104 242z" />
<glyph unicode="K" horiz-adv-x="866" d="M55 0v1475h283v-525l180 525h291l-223 -590l264 -885h-293l-166 604l-45 -110v-494h-291z" />
<glyph unicode="L" horiz-adv-x="651" d="M55 0v1475h301v-1211h271v-264h-572z" />
<glyph unicode="M" horiz-adv-x="1036" d="M55 0v1473h375l88 -1113l90 1113h373v-1473h-252v840l-100 -840h-219l-101 842v-842h-254z" />
<glyph unicode="N" horiz-adv-x="811" d="M55 0v1475h273l172 -830v830h256v-1475h-264l-181 799v-799h-256z" />
<glyph unicode="O" horiz-adv-x="763" d="M37 291v883q0 137 102 239q83 80 242 80t242 -80q104 -101 104 -239v-883q0 -139 -104 -240q-80 -80 -242 -80t-242 80q-102 102 -102 240zM328 274q0 -27 17.5 -37t35.5 -10q11 0 22 3t22 14t11 30v916q0 45 -55 45q-53 0 -53 -45v-916z" />
<glyph unicode="P" horiz-adv-x="765" d="M55 0v1475h344q141 0 240 -99q102 -102 102 -256v-205q0 -154 -102 -256q-96 -96 -240 -96h-51v-563h-293zM348 805h51q28 0 39 14.5t11 46.5v303q0 33 -11 48.5t-39 15.5h-51v-428z" />
<glyph unicode="Q" horiz-adv-x="788" d="M41 293v878q0 140 102 242q83 80 238 80q157 0 237 -80q105 -102 105 -242v-878q0 -69 -41 -123h66v-197q-63 0 -114.5 17.5t-76.5 46.5q-106 -66 -176 -66q-155 0 -238 80q-102 105 -102 242zM332 276q0 -47 49 -47q5 0 10 2.5t8 4.5t4 2q12 10 10.5 25t-8 26 t-13.5 27.5t-7 29.5h47v842q0 47 -51 47q-49 0 -49 -47v-912z" />
<glyph unicode="R" horiz-adv-x="784" d="M55 0v514v961h342q141 0 240 -99q102 -102 102 -256v-188q0 -123 -102 -240q102 -79 102 -239v-375v-8q0 -28 13 -58l2 -4q0 -5 -6 -8h-43h-232q-10 0 -17 21.5t-7 52.5v444q0 62 -52 62h-51v-580h-291zM346 821h51q28 0 40 15t12 47v286q0 64 -52 64h-51v-412z" />
<glyph unicode="S" horiz-adv-x="751" d="M37 293v235h282v-249q0 -19 11.5 -30t21.5 -13.5t19 -2.5q8 0 17.5 2.5t20.5 13.5t11 30v180q0 16 -2.5 28t-4 19.5t-12 20t-15 17t-24.5 23.5t-30 29l-213 192q-43 43 -62.5 88.5t-19.5 110.5v184q0 141 104 242q83 80 232 80q146 0 229 -80q105 -102 105 -242v-213 h-287v228q0 26 -14 36.5t-29 10.5q-18 0 -31.5 -10t-13.5 -35v-172q0 -25 8 -44t16.5 -28.5t30.5 -28.5t33 -30l217 -187q48 -48 63 -96t15 -137v-172q0 -138 -105 -240q-82 -82 -239 -82q-148 0 -230 82q-104 101 -104 240z" />
<glyph unicode="T" horiz-adv-x="729" d="M23 1229v246h684v-246h-195v-1229h-295v1229h-194z" />
<glyph unicode="U" horiz-adv-x="757" d="M37 299v1174h289v-1199q0 -45 53 -45t53 45v1199h289v-1174q0 -145 -103 -248q-83 -80 -239 -80q-160 0 -240 80q-102 102 -102 248z" />
<glyph unicode="V" horiz-adv-x="837" d="M23 1475h301l94 -975l96 975h301l-242 -1475h-309z" />
<glyph unicode="W" horiz-adv-x="1222" d="M25 1475h268l94 -936l98 936h252l99 -936l94 936h268l-225 -1475h-266l-95 694l-96 -694h-266z" />
<glyph unicode="X" d="M27 0l247 774l-217 701h303l64 -424l63 424h304l-222 -701l240 -774h-301l-88 430l-92 -430h-301z" />
<glyph unicode="Y" horiz-adv-x="888" d="M20 1475h287l137 -492l138 492h286l-282 -865v-610h-285v614z" />
<glyph unicode="Z" horiz-adv-x="700" d="M31 0v193l297 999h-285v283h623v-187l-312 -1022h316v-266h-639z" />
<glyph unicode="[" horiz-adv-x="362" d="M55 0v1475h252v-164h-88v-1147h88v-164h-252z" />
<glyph unicode="\" horiz-adv-x="708" d="M39 1475h194l437 -1477h-195z" />
<glyph unicode="]" horiz-adv-x="362" d="M55 0v164h88v1147h-88v164h252v-1475h-252z" />
<glyph unicode="_" horiz-adv-x="430" d="M31 -2v205h368v-205h-368z" />
<glyph unicode="`" horiz-adv-x="327" d="M41 1792h201l55 -248h-111z" />
<glyph unicode="a" d="M23 0l245 1475h299l246 -1475h-305h4l-23 221h-143l-22 -221h-301zM367 440h102l-51 590z" />
<glyph unicode="b" horiz-adv-x="786" d="M55 0v1475h328q69 0 137.5 -26.5t114.5 -72.5q102 -102 102 -256v-139q0 -109 -90 -221q107 -120 107 -244v-162q0 -155 -103 -258q-46 -45 -114.5 -70.5t-137.5 -25.5h-344zM348 242h51q34 0 48 15t14 48v277q0 29 -17.5 46t-42.5 17h-53v-403zM348 854h39q57 0 57 61 v254q0 30 -16.5 46t-44.5 16h-35v-377z" />
<glyph unicode="c" horiz-adv-x="757" d="M41 293v878q0 141 104 242q80 80 238 80t238 -80q104 -101 104 -242v-299h-291v316q0 47 -51 47t-51 -47v-912q0 -47 51 -47t51 47v306h291v-289q0 -138 -104 -242q-80 -80 -238 -80t-238 80q-104 104 -104 242z" />
<glyph unicode="d" horiz-adv-x="778" d="M55 0v1475h342q140 0 240 -97q104 -104 104 -258v-766q0 -154 -104 -258q-99 -96 -240 -96h-342zM348 242h49q52 0 52 63v864q0 31 -14 47.5t-38 16.5h-49v-991z" />
<glyph unicode="e" horiz-adv-x="657" d="M55 0v1475h572v-246h-271v-398h201v-213h-201v-362h271v-256h-572z" />
<glyph unicode="f" horiz-adv-x="651" d="M55 0v1475h572v-246h-271v-398h201v-213h-201v-618h-301z" />
<glyph unicode="g" horiz-adv-x="761" d="M41 293v878q0 141 104 242q80 80 238 80t238 -80q104 -101 104 -242v-301h-291v318q0 47 -51 47t-51 -47v-912q0 -20 12 -31t22 -13.5t21 -2.5q46 0 55 47v269h-59v164h342v-709h-82v2t-1 5t-1.5 8t-1.5 10t-1.5 10.5t-1.5 10t-2 9.5t-2 7.5t-1.5 5t-1.5 0.5 q-50 -50 -103.5 -73.5t-142.5 -23.5q-158 0 -238 80q-104 104 -104 242z" />
<glyph unicode="h" horiz-adv-x="819" d="M55 0v1475h301v-644h107v644h301v-1475h-301v618h-107v-618h-301z" />
<glyph unicode="i" horiz-adv-x="434" d="M72 0v1475h290v-1475h-290z" />
<glyph unicode="j" horiz-adv-x="772" d="M33 293v287h291v-304q0 -47 51 -47t51 47v1197h291v-1180q0 -137 -105 -242q-80 -80 -237 -80q-158 0 -238 80q-104 104 -104 242z" />
<glyph unicode="k" horiz-adv-x="866" d="M55 0v1475h283v-525l180 525h291l-223 -590l264 -885h-293l-166 604l-45 -110v-494h-291z" />
<glyph unicode="l" horiz-adv-x="651" d="M55 0v1475h301v-1211h271v-264h-572z" />
<glyph unicode="m" horiz-adv-x="1036" d="M55 0v1473h375l88 -1113l90 1113h373v-1473h-252v840l-100 -840h-219l-101 842v-842h-254z" />
<glyph unicode="n" horiz-adv-x="811" d="M55 0v1475h273l172 -830v830h256v-1475h-264l-181 799v-799h-256z" />
<glyph unicode="o" horiz-adv-x="763" d="M37 291v883q0 137 102 239q83 80 242 80t242 -80q104 -101 104 -239v-883q0 -139 -104 -240q-80 -80 -242 -80t-242 80q-102 102 -102 240zM328 274q0 -27 17.5 -37t35.5 -10q11 0 22 3t22 14t11 30v916q0 45 -55 45q-53 0 -53 -45v-916z" />
<glyph unicode="p" horiz-adv-x="765" d="M55 0v1475h344q141 0 240 -99q102 -102 102 -256v-205q0 -154 -102 -256q-96 -96 -240 -96h-51v-563h-293zM348 805h51q28 0 39 14.5t11 46.5v303q0 33 -11 48.5t-39 15.5h-51v-428z" />
<glyph unicode="q" horiz-adv-x="788" d="M41 293v878q0 140 102 242q83 80 238 80q157 0 237 -80q105 -102 105 -242v-878q0 -69 -41 -123h66v-197q-63 0 -114.5 17.5t-76.5 46.5q-106 -66 -176 -66q-155 0 -238 80q-102 105 -102 242zM332 276q0 -47 49 -47q5 0 10 2.5t8 4.5t4 2q12 10 10.5 25t-8 26 t-13.5 27.5t-7 29.5h47v842q0 47 -51 47q-49 0 -49 -47v-912z" />
<glyph unicode="r" horiz-adv-x="784" d="M55 0v514v961h342q141 0 240 -99q102 -102 102 -256v-188q0 -123 -102 -240q102 -79 102 -239v-375v-8q0 -28 13 -58l2 -4q0 -5 -6 -8h-43h-232q-10 0 -17 21.5t-7 52.5v444q0 62 -52 62h-51v-580h-291zM346 821h51q28 0 40 15t12 47v286q0 64 -52 64h-51v-412z" />
<glyph unicode="s" horiz-adv-x="751" d="M37 293v235h282v-249q0 -19 11.5 -30t21.5 -13.5t19 -2.5q8 0 17.5 2.5t20.5 13.5t11 30v180q0 16 -2.5 28t-4 19.5t-12 20t-15 17t-24.5 23.5t-30 29l-213 192q-43 43 -62.5 88.5t-19.5 110.5v184q0 141 104 242q83 80 232 80q146 0 229 -80q105 -102 105 -242v-213 h-287v228q0 26 -14 36.5t-29 10.5q-18 0 -31.5 -10t-13.5 -35v-172q0 -25 8 -44t16.5 -28.5t30.5 -28.5t33 -30l217 -187q48 -48 63 -96t15 -137v-172q0 -138 -105 -240q-82 -82 -239 -82q-148 0 -230 82q-104 101 -104 240z" />
<glyph unicode="t" horiz-adv-x="729" d="M23 1229v246h684v-246h-195v-1229h-295v1229h-194z" />
<glyph unicode="u" horiz-adv-x="757" d="M37 299v1174h289v-1199q0 -45 53 -45t53 45v1199h289v-1174q0 -145 -103 -248q-83 -80 -239 -80q-160 0 -240 80q-102 102 -102 248z" />
<glyph unicode="v" horiz-adv-x="837" d="M23 1475h301l94 -975l96 975h301l-242 -1475h-309z" />
<glyph unicode="w" horiz-adv-x="1222" d="M25 1475h268l94 -936l98 936h252l99 -936l94 936h268l-225 -1475h-266l-95 694l-96 -694h-266z" />
<glyph unicode="x" d="M27 0l247 774l-217 701h303l64 -424l63 424h304l-222 -701l240 -774h-301l-88 430l-92 -430h-301z" />
<glyph unicode="y" horiz-adv-x="888" d="M20 1475h287l137 -492l138 492h286l-282 -865v-610h-285v614z" />
<glyph unicode="z" horiz-adv-x="700" d="M31 0v193l297 999h-285v283h623v-187l-312 -1022h316v-266h-639z" />
<glyph unicode="|" horiz-adv-x="225" d="M31 -236v1934h164v-1934h-164z" />
<glyph unicode="&#xa1;" horiz-adv-x="342" d="M47 614q0 51 37 88t88 37q52 0 88.5 -37t36.5 -88q0 -53 -36.5 -90t-88.5 -37q-51 0 -88 37.5t-37 89.5zM63 365h224v-1115h-224v1115z" />
<glyph unicode="&#xa2;" horiz-adv-x="757" d="M41 293v878q0 141 104 242q57 57 156 74v160h164v-160q99 -17 156 -74q104 -101 104 -242v-299h-291v316q0 47 -51 47t-51 -47v-912q0 -47 51 -47t51 47v306h291v-289q0 -138 -104 -242q-57 -57 -156 -74v-163h-164v163q-99 17 -156 74q-104 104 -104 242z" />
<glyph unicode="&#xa3;" horiz-adv-x="755" d="M23 575v164h133q-19 75 -51.5 177t-52 167t-19.5 91q0 103 13.5 141.5t70.5 93.5q86 86 258 86q154 0 237 -80q105 -102 105 -241v-132h-291v148q0 47 -51 47t-51 -47q0 -7 20 -71.5t49.5 -174t48.5 -205.5h260v-164h-235q25 -305 -131 -305h366l25 -268h-688l24 285 q172 0 127 288h-167z" />
<glyph unicode="&#xa5;" horiz-adv-x="890" d="M20 1475h287l137 -508l138 508h286l-239 -717h174v-164h-217v-111h217v-164h-217v-319h-285v319h-215v164h215v111h-215v164h172z" />
<glyph unicode="&#xa8;" horiz-adv-x="495" d="M29 1655q0 37 26.5 63.5t63.5 26.5t63.5 -26.5t26.5 -63.5t-26.5 -63.5t-63.5 -26.5t-63.5 26.5t-26.5 63.5zM287 1655q0 37 26.5 63.5t63.5 26.5t63.5 -26.5t26.5 -63.5t-26.5 -63.5t-63.5 -26.5t-63.5 26.5t-26.5 63.5z" />
<glyph unicode="&#xa9;" horiz-adv-x="1370" d="M43 737q0 133 46.5 252.5t135.5 212.5q183 189 459 189t459 -189q89 -94 136.5 -213.5t47.5 -251.5t-47.5 -252.5t-136.5 -212.5q-90 -93 -208 -141.5t-251 -48.5t-251 48.5t-208 141.5q-89 92 -135.5 212t-46.5 253zM195 737q0 -214 142 -363t347 -149t348.5 149 t143.5 363q0 140 -65.5 257.5t-178.5 185t-248 67.5q-205 0 -347 -148t-142 -362zM463 504v457q0 72 55 124q43 43 166 43q126 0 166 -43q55 -52 55 -124v-156h-151v164q0 15 -18 19.5t-52 4.5q-70 0 -70 -24v-473q0 -25 70 -25t70 25v157h151v-149q0 -70 -55 -125 q-40 -43 -166 -43q-123 0 -166 43q-55 55 -55 125z" />
<glyph unicode="&#xad;" horiz-adv-x="479" d="M25 633v184h430v-184h-430z" />
<glyph unicode="&#xae;" horiz-adv-x="1370" d="M43 737q0 132 47.5 251.5t136.5 213.5q88 93 206.5 141t250.5 48q134 0 252.5 -48t206.5 -141q89 -94 136.5 -213.5t47.5 -251.5t-47.5 -252.5t-136.5 -212.5q-88 -93 -207 -141.5t-252 -48.5q-132 0 -250.5 48.5t-206.5 141.5q-89 92 -136.5 212.5t-47.5 252.5zM195 737 q0 -214 142 -363t347 -149q136 0 249 68t178 186t65 258t-65 257.5t-178 185t-249 67.5q-205 0 -347 -148t-142 -362zM481 354v267v499h217q66 0 103 -12.5t63 -38.5q49 -46 49 -133v-98q0 -43 -11.5 -68.5t-37.5 -54.5q49 -41 49 -125v-195v-6q0 -1 7 -29l2 -2q0 -4 -4 -4 h-23h-115q-14 0 -14 37v232q0 14 -2 19t-17 9t-49 4h-69v-301h-148zM629 780h69q33 0 48 4t17.5 9.5t2.5 19.5v150q0 12 -3 17.5t-18 10t-47 4.5h-69v-215z" />
<glyph unicode="&#xaf;" horiz-adv-x="573" d="M31 1608v123h512v-123h-512z" />
<glyph unicode="&#xb0;" horiz-adv-x="444" d="M25 1309q0 83 57 138.5t139 55.5q84 0 141.5 -55.5t57.5 -138.5q0 -82 -58 -137.5t-141 -55.5q-82 0 -139 56t-57 137zM131 1309q0 -37 26.5 -63.5t63.5 -26.5q38 0 65 26.5t27 63.5q0 38 -27 65t-65 27q-37 0 -63.5 -27t-26.5 -65z" />
<glyph unicode="&#xb4;" horiz-adv-x="327" d="M29 1544l57 248h201l-148 -248h-110z" />
<glyph unicode="&#xb8;" horiz-adv-x="319" d="M33 -291l26 92q52 -16 86 -16q43 0 43 29q4 11 -6 18q-15 18 -76 18q-27 0 -43 -2l-18 60l21 20l127 129l59 -73l-64 -52l15 -6q35 -14 53 -32q37 -40 31 -93q-7 -60 -49 -88q-32 -22 -86 -22h-31q-35 5 -88 18z" />
<glyph unicode="&#xbf;" horiz-adv-x="512" d="M-92 -399q0 58 16 110t41.5 94t56.5 83.5t62.5 88.5t57 100t41.5 127.5t16 160.5h229q0 -102 -16 -187t-41.5 -143t-56.5 -107t-61.5 -89.5t-56 -80t-41.5 -89t-16 -105.5v-7v-8v-8v-10v-4q0 -40 26.5 -68t65.5 -28q44 0 71.5 26.5t27.5 69.5v139h233v-117 q0 -135 -104 -239q-78 -78 -230 -78q-79 0 -132.5 18.5t-96.5 59.5q-92 92 -92 231v60zM184 614q0 51 37 88t88 37q52 0 88.5 -37t36.5 -88q0 -53 -36.5 -90t-88.5 -37q-51 0 -88 37.5t-37 89.5z" />
<glyph unicode="&#xc0;" d="M23 0l245 1475h299l246 -1475h-305h4l-23 221h-143l-22 -221h-301zM209 1792h201l55 -248h-111zM367 440h102l-51 590z" />
<glyph unicode="&#xc1;" d="M23 0h301l22 221h143l23 -221h-4h305l-246 1475h-299zM367 440l51 590l51 -590h-102zM373 1544l57 248h201l-148 -248h-110z" />
<glyph unicode="&#xc2;" d="M23 0l245 1475h299l246 -1475h-305h4l-23 221h-143l-22 -221h-301zM211 1655l207 160l207 -160l-88 -96l-119 96l-121 -96zM367 440h102l-51 590z" />
<glyph unicode="&#xc3;" d="M23 0h301l22 221h143l23 -221h-4h305l-246 1475h-299zM184 1675l52 66q18 23 43 35q32 16 59 16q32 0 65 -20l58 -39q28 -21 59 8l37 45l98 -64l-55 -73q-18 -25 -45 -37q-27 -15 -57 -15q-34 0 -66 19l-61 39q-27 21 -56 -6l-32 -39zM367 440l51 590l51 -590h-102z" />
<glyph unicode="&#xc4;" d="M23 0h301l22 221h143l23 -221h-4h305l-246 1475h-299zM199 1655q0 37 26.5 63.5t63.5 26.5t63.5 -26.5t26.5 -63.5t-26.5 -63.5t-63.5 -26.5t-63.5 26.5t-26.5 63.5zM367 440l51 590l51 -590h-102zM457 1655q0 37 26.5 63.5t63.5 26.5t63.5 -26.5t26.5 -63.5t-26.5 -63.5 t-63.5 -26.5t-63.5 26.5t-26.5 63.5z" />
<glyph unicode="&#xc5;" d="M23 0l245 1475h299l246 -1475h-305h4l-23 221h-143l-22 -221h-301zM264 1686q0 63 45 107t109 44t108.5 -44t44.5 -107q0 -62 -45 -107q-43 -43 -108 -43q-66 0 -109 43q-45 45 -45 107zM358 1686q0 -23 18.5 -40.5t41.5 -17.5t40 17.5t17 40.5q0 25 -17 42t-40 17 q-25 0 -42.5 -17t-17.5 -42zM367 440h102l-51 590z" />
<glyph unicode="&#xc6;" horiz-adv-x="968" d="M27 0l245 1475h670v-246h-219v-398h151v-213h-151v-362h219v-256h-489v221h-101l-22 -221h-303zM375 440h78v785z" />
<glyph unicode="&#xc7;" horiz-adv-x="753" d="M37 291v880q0 141 104 242q80 80 238 80q157 0 237 -80q105 -102 105 -242v-294h-291v311q0 47 -51 47t-51 -47v-914q0 -47 51 -47t51 47v306h291v-289q0 -137 -105 -242q-62 -62 -174 -76l-51 -41l15 -6q35 -14 53 -32q36 -39 30 -93q-7 -60 -49 -88q-32 -22 -86 -22 h-30q-35 5 -88 18l26 92q52 -16 86 -16q43 0 43 29q4 11 -6 18q-15 18 -76 18q-27 0 -43 -2l-18 60l20 20l45 45q-106 13 -172 76q-104 104 -104 242z" />
<glyph unicode="&#xc8;" horiz-adv-x="657" d="M55 0v1475h572v-246h-271v-398h201v-213h-201v-362h271v-256h-572zM133 1792h201l55 -248h-110z" />
<glyph unicode="&#xc9;" horiz-adv-x="657" d="M55 0h572v256h-271v362h201v213h-201v398h271v246h-572v-1475zM299 1544l57 248h201l-147 -248h-111z" />
<glyph unicode="&#xca;" horiz-adv-x="657" d="M55 0v1475h572v-246h-271v-398h201v-213h-201v-362h271v-256h-572zM133 1655l207 160l207 -160l-88 -96l-119 96l-121 -96z" />
<glyph unicode="&#xcb;" horiz-adv-x="657" d="M55 0h572v256h-271v362h201v213h-201v398h271v246h-572v-1475zM121 1655q0 37 26.5 63.5t63.5 26.5t63.5 -26.5t26.5 -63.5t-26.5 -63.5t-63.5 -26.5t-63.5 26.5t-26.5 63.5zM379 1655q0 37 26.5 63.5t63.5 26.5t63.5 -26.5t26.5 -63.5t-26.5 -63.5t-63.5 -26.5 t-63.5 26.5t-26.5 63.5z" />
<glyph unicode="&#xcc;" horiz-adv-x="430" d="M4 1792h201l55 -248h-110zM68 0v1475h290v-1475h-290z" />
<glyph unicode="&#xcd;" horiz-adv-x="438" d="M72 0h290v1475h-290v-1475zM168 1544l57 248h201l-147 -248h-111z" />
<glyph unicode="&#xce;" horiz-adv-x="466" d="M27 1655l206 160l207 -160l-88 -96l-119 96l-120 -96zM88 0v1475h291v-1475h-291z" />
<glyph unicode="&#xcf;" horiz-adv-x="471" d="M16 1655q0 37 26.5 63.5t63.5 26.5t64 -26.5t27 -63.5t-27 -63.5t-64 -26.5t-63.5 26.5t-26.5 63.5zM90 0h291v1475h-291v-1475zM274 1655q0 37 27 63.5t64 26.5t63.5 -26.5t26.5 -63.5t-26.5 -63.5t-63.5 -26.5t-64 26.5t-27 63.5z" />
<glyph unicode="&#xd0;" horiz-adv-x="802" d="M12 643v164h68v668h342q140 0 240 -97q104 -104 104 -258v-766q0 -154 -104 -258q-99 -96 -240 -96h-342v643h-68zM373 242h49q51 0 51 63v864q0 64 -51 64h-49v-426h49v-164h-49v-401z" />
<glyph unicode="&#xd1;" horiz-adv-x="811" d="M55 0h256v799l181 -799h264v1475h-256v-830l-172 830h-273v-1475zM164 1675l51 66q18 23 43 35q32 16 59 16q33 0 66 -20l57 -39q29 -21 60 8l37 45l98 -64l-55 -73q-18 -25 -45 -37q-27 -15 -58 -15q-33 0 -65 19l-62 39q-26 21 -55 -6l-33 -39z" />
<glyph unicode="&#xd2;" horiz-adv-x="763" d="M37 291v883q0 137 102 239q83 80 242 80t242 -80q104 -101 104 -239v-883q0 -139 -104 -240q-80 -80 -242 -80t-242 80q-102 102 -102 240zM174 1792h201l55 -248h-111zM328 274q0 -27 17.5 -37t35.5 -10q11 0 22 3t22 14t11 30v916q0 45 -55 45q-53 0 -53 -45v-916z" />
<glyph unicode="&#xd3;" horiz-adv-x="763" d="M37 291v883q0 137 102 239q83 80 242 80t242 -80q104 -101 104 -239v-883q0 -139 -104 -240q-80 -80 -242 -80t-242 80q-102 102 -102 240zM328 274q0 -27 17.5 -37t35.5 -10q11 0 22 3t22 14t11 30v916q0 45 -55 45q-53 0 -53 -45v-916zM340 1544l57 248h201l-147 -248 h-111z" />
<glyph unicode="&#xd4;" horiz-adv-x="763" d="M37 291v883q0 137 102 239q83 80 242 80t242 -80q104 -101 104 -239v-883q0 -139 -104 -240q-80 -80 -242 -80t-242 80q-102 102 -102 240zM174 1655l207 160l207 -160l-88 -96l-119 96l-121 -96zM328 274q0 -27 17.5 -37t35.5 -10q11 0 22 3t22 14t11 30v916 q0 45 -55 45q-53 0 -53 -45v-916z" />
<glyph unicode="&#xd5;" horiz-adv-x="763" d="M37 291v883q0 137 102 239q83 80 242 80t242 -80q104 -101 104 -239v-883q0 -139 -104 -240q-80 -80 -242 -80t-242 80q-102 102 -102 240zM147 1675l52 66q18 23 43 35q32 16 59 16q33 0 66 -20l57 -39q28 -21 59 8l37 45l98 -64l-55 -73q-18 -25 -45 -37 q-27 -15 -57 -15q-34 0 -66 19l-61 39q-26 21 -55 -6l-33 -39zM328 274q0 -27 17.5 -37t35.5 -10q11 0 22 3t22 14t11 30v916q0 45 -55 45q-53 0 -53 -45v-916z" />
<glyph unicode="&#xd6;" horiz-adv-x="763" d="M37 291v883q0 137 102 239q83 80 242 80t242 -80q104 -101 104 -239v-883q0 -139 -104 -240q-80 -80 -242 -80t-242 80q-102 102 -102 240zM162 1655q0 37 26.5 63.5t63.5 26.5t63.5 -26.5t26.5 -63.5t-26.5 -63.5t-63.5 -26.5t-63.5 26.5t-26.5 63.5zM328 274 q0 -27 17.5 -37t35.5 -10q11 0 22 3t22 14t11 30v916q0 45 -55 45q-53 0 -53 -45v-916zM420 1655q0 37 26.5 63.5t63.5 26.5t63.5 -26.5t26.5 -63.5t-26.5 -63.5t-63.5 -26.5t-63.5 26.5t-26.5 63.5z" />
<glyph unicode="&#xd7;" horiz-adv-x="555" d="M25 582l137 137l-137 137l116 117l138 -137l137 137l114 -117l-137 -137l137 -137l-114 -117l-137 139l-138 -139z" />
<glyph unicode="&#xd8;" horiz-adv-x="811" d="M8 27l74 157q-19 52 -19 111v879q0 136 103 239q83 80 237 80q158 0 238 -80l12 -12l39 86l111 -53l-74 -158q16 -50 16 -102v-879q0 -139 -104 -240q-79 -82 -238 -82q-155 0 -237 82l-6 6l-41 -88zM354 279q0 -20 10 -31.5t19.5 -14t19.5 -2.5q52 0 52 48v413 l-101 -217v-196zM354 768l101 217v203q0 47 -52 47q-49 0 -49 -47v-420z" />
<glyph unicode="&#xd9;" horiz-adv-x="757" d="M37 299v1174h289v-1199q0 -45 53 -45t53 45v1199h289v-1174q0 -145 -103 -248q-83 -80 -239 -80q-160 0 -240 80q-102 102 -102 248zM178 1792h201l55 -248h-110z" />
<glyph unicode="&#xda;" horiz-adv-x="757" d="M37 299v1174h289v-1199q0 -45 53 -45t53 45v1199h289v-1174q0 -145 -103 -248q-83 -80 -239 -80q-160 0 -240 80q-102 102 -102 248zM328 1544l57 248h201l-148 -248h-110z" />
<glyph unicode="&#xdb;" horiz-adv-x="757" d="M37 299v1174h289v-1199q0 -45 53 -45t53 45v1199h289v-1174q0 -145 -103 -248q-83 -80 -239 -80q-160 0 -240 80q-102 102 -102 248zM170 1655l207 160l207 -160l-88 -96l-119 96l-121 -96z" />
<glyph unicode="&#xdc;" horiz-adv-x="757" d="M37 299v1174h289v-1199q0 -45 53 -45t53 45v1199h289v-1174q0 -145 -103 -248q-83 -80 -239 -80q-160 0 -240 80q-102 102 -102 248zM158 1655q0 37 26.5 63.5t63.5 26.5t63.5 -26.5t26.5 -63.5t-26.5 -63.5t-63.5 -26.5t-63.5 26.5t-26.5 63.5zM416 1655q0 37 26.5 63.5 t63.5 26.5t63.5 -26.5t26.5 -63.5t-26.5 -63.5t-63.5 -26.5t-63.5 26.5t-26.5 63.5z" />
<glyph unicode="&#xdd;" horiz-adv-x="888" d="M20 1475l281 -861v-614h285v610l282 865h-286l-138 -492l-137 492h-287zM395 1544l58 248h200l-147 -248h-111z" />
<glyph unicode="&#xde;" horiz-adv-x="765" d="M55 0v1475h293v-242v-37h51q141 0 240 -96q102 -102 102 -258v-203q0 -153 -102 -258q-99 -96 -240 -96h-51v-285h-293zM348 526h51q28 0 39 15t11 49v301q0 34 -11 48.5t-39 14.5h-51v-149v-242v-37z" />
<glyph unicode="&#xdf;" horiz-adv-x="815" d="M55 2v1137q0 153 103 256q46 46 114.5 72t137.5 26h2q69 0 137.5 -26t114.5 -72q102 -102 102 -256v-158q0 -129 -74 -221q90 -101 90 -244v-162q0 -57 -14 -106q-26 -93 -88 -152q-46 -45 -114.5 -70.5t-137.5 -25.5h-2v242h2q25 0 37 6q24 13 24 57v309q0 42 -11.5 53 t-57.5 11v143q39 0 46 8.5t7 53.5v305q0 61 -61 61h-2q-29 0 -45.5 -15.5t-16.5 -45.5v-1186h-293z" />
<glyph unicode="&#xe0;" d="M23 0l245 1475h299l246 -1475h-305l-23 221h-135l-22 -221h-305zM209 1792h201l55 -248h-111zM371 440h94l-47 586z" />
<glyph unicode="&#xe1;" d="M23 0h305l22 221h135l23 -221h305l-246 1475h-299zM371 440l47 586l47 -586h-94zM373 1544l57 248h201l-148 -248h-110z" />
<glyph unicode="&#xe2;" d="M23 0l245 1475h299l246 -1475h-305l-23 221h-135l-22 -221h-305zM211 1655l207 160l207 -160l-88 -96l-119 96l-121 -96zM371 440h94l-47 586z" />
<glyph unicode="&#xe3;" d="M23 0h305l22 221h135l23 -221h305l-246 1475h-299zM184 1675l52 66q18 23 43 35q32 16 59 16q32 0 65 -20l58 -39q28 -21 59 8l37 45l98 -64l-55 -73q-18 -25 -45 -37q-27 -15 -57 -15q-34 0 -66 19l-61 39q-27 21 -56 -6l-32 -39zM371 440l47 586l47 -586h-94z" />
<glyph unicode="&#xe4;" d="M23 0h305l22 221h135l23 -221h305l-246 1475h-299zM199 1655q0 37 26.5 63.5t63.5 26.5t63.5 -26.5t26.5 -63.5t-26.5 -63.5t-63.5 -26.5t-63.5 26.5t-26.5 63.5zM371 440l47 586l47 -586h-94zM457 1655q0 37 26.5 63.5t63.5 26.5t63.5 -26.5t26.5 -63.5t-26.5 -63.5 t-63.5 -26.5t-63.5 26.5t-26.5 63.5z" />
<glyph unicode="&#xe5;" d="M23 0l245 1475h299l246 -1475h-305l-23 221h-135l-22 -221h-305zM264 1686q0 63 45 107t109 44t108.5 -44t44.5 -107q0 -62 -45 -107q-43 -43 -108 -43q-66 0 -109 43q-45 45 -45 107zM358 1686q0 -23 18.5 -40.5t41.5 -17.5t40 17.5t17 40.5q0 25 -17 42t-40 17 q-25 0 -42.5 -17t-17.5 -42zM371 440h94l-47 586z" />
<glyph unicode="&#xe6;" horiz-adv-x="968" d="M27 0l245 1475h670v-246h-219v-398h151v-213h-151v-362h219v-256h-489v221h-101l-22 -221h-303zM375 440h78v785z" />
<glyph unicode="&#xe7;" horiz-adv-x="753" d="M37 291v880q0 141 104 242q80 80 238 80q157 0 237 -80q105 -102 105 -242v-294h-291v311q0 47 -51 47t-51 -47v-914q0 -47 51 -47t51 47v306h291v-289q0 -137 -105 -242q-62 -62 -174 -76l-51 -41l15 -6q35 -14 53 -32q36 -39 30 -93q-7 -60 -49 -88q-32 -22 -86 -22 h-30q-35 5 -88 18l26 92q52 -16 86 -16q43 0 43 29q4 11 -6 18q-15 18 -76 18q-27 0 -43 -2l-18 60l20 20l45 45q-106 13 -172 76q-104 104 -104 242z" />
<glyph unicode="&#xe8;" horiz-adv-x="657" d="M55 0v1475h572v-246h-271v-398h201v-213h-201v-362h271v-256h-572zM133 1792h201l55 -248h-110z" />
<glyph unicode="&#xe9;" horiz-adv-x="657" d="M55 0h572v256h-271v362h201v213h-201v398h271v246h-572v-1475zM299 1544l57 248h201l-147 -248h-111z" />
<glyph unicode="&#xea;" horiz-adv-x="657" d="M55 0v1475h572v-246h-271v-398h201v-213h-201v-362h271v-256h-572zM133 1655l207 160l207 -160l-88 -96l-119 96l-121 -96z" />
<glyph unicode="&#xeb;" horiz-adv-x="657" d="M55 0h572v256h-271v362h201v213h-201v398h271v246h-572v-1475zM121 1655q0 37 26.5 63.5t63.5 26.5t63.5 -26.5t26.5 -63.5t-26.5 -63.5t-63.5 -26.5t-63.5 26.5t-26.5 63.5zM379 1655q0 37 26.5 63.5t63.5 26.5t63.5 -26.5t26.5 -63.5t-26.5 -63.5t-63.5 -26.5 t-63.5 26.5t-26.5 63.5z" />
<glyph unicode="&#xec;" horiz-adv-x="430" d="M4 1792h201l55 -248h-110zM68 0v1475h290v-1475h-290z" />
<glyph unicode="&#xed;" horiz-adv-x="438" d="M72 0h290v1475h-290v-1475zM168 1544l57 248h201l-147 -248h-111z" />
<glyph unicode="&#xee;" horiz-adv-x="466" d="M27 1655l206 160l207 -160l-88 -96l-119 96l-120 -96zM88 0v1475h291v-1475h-291z" />
<glyph unicode="&#xef;" horiz-adv-x="471" d="M16 1655q0 37 26.5 63.5t63.5 26.5t64 -26.5t27 -63.5t-27 -63.5t-64 -26.5t-63.5 26.5t-26.5 63.5zM90 0h291v1475h-291v-1475zM274 1655q0 37 27 63.5t64 26.5t63.5 -26.5t26.5 -63.5t-26.5 -63.5t-63.5 -26.5t-64 26.5t-27 63.5z" />
<glyph unicode="&#xf0;" horiz-adv-x="802" d="M12 643v164h68v668h342q140 0 240 -97q104 -104 104 -258v-766q0 -154 -104 -258q-99 -96 -240 -96h-342v643h-68zM373 242h49q51 0 51 63v864q0 64 -51 64h-49v-426h49v-164h-49v-401z" />
<glyph unicode="&#xf1;" horiz-adv-x="811" d="M55 0h256v721l181 -721h264v1475h-256v-703l-172 703h-273v-1475zM164 1675l51 66q18 23 43 35q32 16 59 16q33 0 66 -20l57 -39q29 -21 60 8l37 45l98 -64l-55 -73q-18 -25 -45 -37q-27 -15 -58 -15q-33 0 -65 19l-62 39q-26 21 -55 -6l-33 -39z" />
<glyph unicode="&#xf2;" horiz-adv-x="763" d="M41 291v893q0 137 102 239q83 80 238 80q154 0 237 -80q105 -102 105 -239v-893q0 -138 -105 -240q-80 -80 -237 -80q-158 0 -238 80q-102 102 -102 240zM174 1792h201l55 -248h-111zM332 274q0 -27 16 -37t33 -10q11 0 21 3t20 14t10 30v926q0 45 -51 45q-49 0 -49 -45 v-926z" />
<glyph unicode="&#xf3;" horiz-adv-x="763" d="M41 291v893q0 137 102 239q83 80 238 80q154 0 237 -80q105 -102 105 -239v-893q0 -138 -105 -240q-80 -80 -237 -80q-158 0 -238 80q-102 102 -102 240zM332 274q0 -27 16 -37t33 -10q11 0 21 3t20 14t10 30v926q0 45 -51 45q-49 0 -49 -45v-926zM340 1544l57 248h201 l-147 -248h-111z" />
<glyph unicode="&#xf4;" horiz-adv-x="763" d="M41 291v893q0 137 102 239q83 80 238 80q154 0 237 -80q105 -102 105 -239v-893q0 -138 -105 -240q-80 -80 -237 -80q-158 0 -238 80q-102 102 -102 240zM174 1655l207 160l207 -160l-88 -96l-119 96l-121 -96zM332 274q0 -27 16 -37t33 -10q11 0 21 3t20 14t10 30v926 q0 45 -51 45q-49 0 -49 -45v-926z" />
<glyph unicode="&#xf5;" horiz-adv-x="763" d="M41 291v893q0 137 102 239q83 80 238 80q154 0 237 -80q105 -102 105 -239v-893q0 -138 -105 -240q-80 -80 -237 -80q-158 0 -238 80q-102 102 -102 240zM147 1675l52 66q18 23 43 35q32 16 59 16q33 0 66 -20l57 -39q28 -21 59 8l37 45l98 -64l-55 -73q-18 -25 -45 -37 q-27 -15 -57 -15q-34 0 -66 19l-61 39q-26 21 -55 -6l-33 -39zM332 274q0 -27 16 -37t33 -10q11 0 21 3t20 14t10 30v926q0 45 -51 45q-49 0 -49 -45v-926z" />
<glyph unicode="&#xf6;" horiz-adv-x="763" d="M41 291v893q0 137 102 239q83 80 238 80q154 0 237 -80q105 -102 105 -239v-893q0 -138 -105 -240q-80 -80 -237 -80q-158 0 -238 80q-102 102 -102 240zM162 1655q0 37 26.5 63.5t63.5 26.5t63.5 -26.5t26.5 -63.5t-26.5 -63.5t-63.5 -26.5t-63.5 26.5t-26.5 63.5z M332 274q0 -27 16 -37t33 -10q11 0 21 3t20 14t10 30v926q0 45 -51 45q-49 0 -49 -45v-926zM420 1655q0 37 26.5 63.5t63.5 26.5t63.5 -26.5t26.5 -63.5t-26.5 -63.5t-63.5 -26.5t-63.5 26.5t-26.5 63.5z" />
<glyph unicode="&#xf7;" horiz-adv-x="507" d="M18 633v184h471v-184h-471zM160 449q0 38 28 66t66 28t66 -28t28 -66q0 -39 -28 -67t-66 -28t-66 28t-28 67zM160 1001q0 38 28 66.5t66 28.5t66 -28.5t28 -66.5q0 -39 -27.5 -66.5t-66.5 -27.5t-66.5 27.5t-27.5 66.5z" />
<glyph unicode="&#xf8;" horiz-adv-x="823" d="M8 27l74 157q-19 52 -19 111v879q0 136 103 239q83 80 237 80q158 0 238 -80l12 -12l39 86l111 -53l-74 -158q16 -50 16 -102v-879q0 -139 -104 -240q-79 -82 -238 -82q-155 0 -237 82l-6 6l-41 -88zM354 279q0 -20 10 -31.5t19.5 -14t19.5 -2.5q52 0 52 48v413 l-101 -217v-196zM354 768l101 217v203q0 47 -52 47q-49 0 -49 -47v-420z" />
<glyph unicode="&#xf9;" horiz-adv-x="757" d="M41 291v1184h289v-1201q0 -45 49 -45t49 45v1201h289v-1184q0 -137 -103 -240q-83 -80 -235 -80q-156 0 -236 80q-102 102 -102 240zM178 1792h201l55 -248h-110z" />
<glyph unicode="&#xfa;" horiz-adv-x="757" d="M41 291v1184h289v-1201q0 -45 49 -45t49 45v1201h289v-1184q0 -137 -103 -240q-83 -80 -235 -80q-156 0 -236 80q-102 102 -102 240zM328 1544l57 248h201l-148 -248h-110z" />
<glyph unicode="&#xfb;" horiz-adv-x="757" d="M41 291v1184h289v-1201q0 -45 49 -45t49 45v1201h289v-1184q0 -137 -103 -240q-83 -80 -235 -80q-156 0 -236 80q-102 102 -102 240zM170 1655l207 160l207 -160l-88 -96l-119 96l-121 -96z" />
<glyph unicode="&#xfc;" horiz-adv-x="757" d="M41 291v1184h289v-1201q0 -45 49 -45t49 45v1201h289v-1184q0 -137 -103 -240q-83 -80 -235 -80q-156 0 -236 80q-102 102 -102 240zM158 1655q0 37 26.5 63.5t63.5 26.5t63.5 -26.5t26.5 -63.5t-26.5 -63.5t-63.5 -26.5t-63.5 26.5t-26.5 63.5zM416 1655q0 37 26.5 63.5 t63.5 26.5t63.5 -26.5t26.5 -63.5t-26.5 -63.5t-63.5 -26.5t-63.5 26.5t-26.5 63.5z" />
<glyph unicode="&#xfd;" horiz-adv-x="888" d="M20 1475l281 -861v-614h285v610l282 865h-286l-138 -492l-137 492h-287zM395 1544l58 248h200l-147 -248h-111z" />
<glyph unicode="&#xfe;" horiz-adv-x="765" d="M55 0v1475h293v-242v-37h51q141 0 240 -96q102 -102 102 -258v-203q0 -153 -102 -258q-99 -96 -240 -96h-51v-285h-293zM348 526h51q28 0 39 15t11 49v301q0 34 -11 48.5t-39 14.5h-51v-149v-242v-37z" />
<glyph unicode="&#xff;" horiz-adv-x="888" d="M20 1475l281 -861v-614h285v610l282 865h-286l-138 -492l-137 492h-287zM225 1655q0 37 26.5 63.5t63.5 26.5t64 -26.5t27 -63.5t-27 -63.5t-64 -26.5t-63.5 26.5t-26.5 63.5zM483 1655q0 37 26.5 63.5t63.5 26.5t64 -26.5t27 -63.5t-27 -63.5t-64 -26.5t-63.5 26.5 t-26.5 63.5z" />
<glyph unicode="&#x152;" horiz-adv-x="915" d="M37 317v842q0 142 98 240q42 40 118 58t153 18h479v-246h-221v-398h151v-213h-151v-362h221v-256h-482v2q-77 0 -151.5 18t-116.5 58q-98 98 -98 239zM315 317q0 -17 5.5 -28.5t13 -17.5t21.5 -9t22.5 -3.5t25.5 -0.5v961q-20 0 -31.5 -1.5t-26.5 -6.5t-22.5 -18 t-7.5 -34v-842z" />
<glyph unicode="&#x153;" horiz-adv-x="915" d="M37 317v842q0 142 98 240q42 40 118 58t153 18h479v-246h-221v-398h151v-213h-151v-362h221v-256h-482v2q-77 0 -151.5 18t-116.5 58q-98 98 -98 239zM315 317q0 -17 5.5 -28.5t13 -17.5t21.5 -9t22.5 -3.5t25.5 -0.5v961q-20 0 -31.5 -1.5t-26.5 -6.5t-22.5 -18 t-7.5 -34v-842z" />
<glyph unicode="&#x178;" horiz-adv-x="888" d="M20 1475l281 -861v-614h285v610l282 865h-286l-138 -492l-137 492h-287zM225 1655q0 37 26.5 63.5t63.5 26.5t64 -26.5t27 -63.5t-27 -63.5t-64 -26.5t-63.5 26.5t-26.5 63.5zM483 1655q0 37 26.5 63.5t63.5 26.5t64 -26.5t27 -63.5t-27 -63.5t-64 -26.5t-63.5 26.5 t-26.5 63.5z" />
<glyph unicode="&#x2c6;" horiz-adv-x="442" d="M14 1655l207 160l207 -160l-88 -96l-119 96l-121 -96z" />
<glyph unicode="&#x2dc;" horiz-adv-x="520" d="M27 1675l51 66q18 23 43 35q32 16 59 16q33 0 66 -20l57 -39q28 -21 59 8l37 45l99 -64l-56 -73q-18 -25 -45 -37q-27 -15 -57 -15q-34 0 -66 19l-61 39q-26 21 -55 -6l-33 -39z" />
<glyph unicode="&#x2000;" horiz-adv-x="918" />
<glyph unicode="&#x2001;" horiz-adv-x="1837" />
<glyph unicode="&#x2002;" horiz-adv-x="918" />
<glyph unicode="&#x2003;" horiz-adv-x="1837" />
<glyph unicode="&#x2004;" horiz-adv-x="612" />
<glyph unicode="&#x2005;" horiz-adv-x="459" />
<glyph unicode="&#x2006;" horiz-adv-x="306" />
<glyph unicode="&#x2007;" horiz-adv-x="306" />
<glyph unicode="&#x2008;" horiz-adv-x="229" />
<glyph unicode="&#x2009;" horiz-adv-x="367" />
<glyph unicode="&#x200a;" horiz-adv-x="102" />
<glyph unicode="&#x2010;" horiz-adv-x="479" d="M25 633v184h430v-184h-430z" />
<glyph unicode="&#x2011;" horiz-adv-x="479" d="M25 633v184h430v-184h-430z" />
<glyph unicode="&#x2012;" horiz-adv-x="479" d="M25 633v184h430v-184h-430z" />
<glyph unicode="&#x2013;" horiz-adv-x="759" d="M31 633v184h698v-184h-698z" />
<glyph unicode="&#x2014;" horiz-adv-x="985" d="M31 633v184h923v-184h-923z" />
<glyph unicode="&#x2018;" horiz-adv-x="212" d="M29 1114v1v1v1v1v1v1v1v1v1v1v1v1v1v1v1v1v1v1v1v1v1v1v1v1v1v1v1v1v1v1v1v1v1v1v1v1v1v1v1v1v1v1v1v1v1v1v1v1v1v1v1v1v1v1v1v1v1v1v1v1v1v1v1v1v1v1v1v1v1v1v1v1v1v1v1v1v1v1v1v1v1v1v1v1v1v1v1v1v1v1v1v1v1v1v1v1v1v1v1v1v1v1v1v1v1v1v1v1v1v1v1v1v9q0 116 50 178 t103 62v-48l-5.5 -11t-12 -25.5t-13 -34.5t-6.5 -33t5 -27t24 -10h8v-172h-153z" />
<glyph unicode="&#x2019;" horiz-adv-x="215" d="M31 1114v47q2 4 5.5 10.5t12 25t13 34.5t6.5 32.5t-5 26.5t-24 10h-8v175h153v-1v-1v-1v-1v-1v-1v-1v-1v-1v-1v-1v-1v-1v-1v-1v-1v-1v-1v-1v-1v-1v-1v-1v-1v-1v-1v-1v-1v-1v-1v-1v-1v-1v-1v-1v-1v-1v-1v-1v-1v-1v-1v-1v-1v-1v-1v-1v-1v-1v-1v-1v-1v-1v-1v-1v-1v-1v-1v-1 v-1v-1v-1v-1v-1v-1v-1v-1v-1v-1v-1v-1v-1v-1v-1v-1v-1v-1v-1v-1v-1v-1v-1v-1v-1v-1v-1v-1v-1v-1v-1v-1v-1v-1v-1v-1v-1v-1v-1v-1v-1v-1v-1v-1v-1v-1v-1v-1v-1v-1v-1v-1v-1v-1v-10q0 -115 -50 -176.5t-103 -61.5z" />
<glyph unicode="&#x201a;" horiz-adv-x="215" d="M31 -70v172h153v-1v-1v-1v-1v-1v-1v-1v-1v-1v-1v-1v-1v-1v-1v-1v-1v-1v-1v-1v-1v-1v-1v-1v-1v-1v-1v-1v-1v-1v-1v-1v-1v-1v-1v-1v-1v-1v-1v-1v-1v-1v-1v-1v-1v-1v-1v-1v-1v-1v-1v-1v-1v-1v-1v-1v-1v-1v-1v-1v-1v-1v-1v-1v-1v-1v-1v-1v-1v-1v-1v-1v-1v-1v-1v-1v-1v-1v-1 v-1v-1v-1v-1v-1v-1v-1v-1v-1v-1v-1v-1v-1v-1v-1v-1v-1v-1v-1v-1v-1v-1v-1v-1v-1v-1v-1v-1v-1v-1v-1v-1v-1v-9q0 -116 -50 -178t-103 -62v47l5.5 11t12 25.5t13 34.5t6.5 33t-5 27t-24 10h-8z" />
<glyph unicode="&#x201c;" horiz-adv-x="423" d="M35 1114v1v1v1v1v1v1v1v1v1v1v1v1v1v1v1v1v1v1v1v1v1v1v1v1v1v1v1v1v1v1v1v1v1v1v1v1v1v1v1v1v1v1v1v1v1v1v1v1v1v1v1v1v1v1v1v1v1v1v1v1v1v1v1v1v1v1v1v1v1v1v1v1v1v1v1v1v1v1v1v1v1v1v1v1v1v1v1v1v1v1v1v1v1v1v1v1v1v1v1v1v1v1v1v1v1v1v1v1v1v1v1v1v9q0 116 50 178 t103 62v-48l-5.5 -11t-12 -25.5t-13 -34.5t-6.5 -33t5 -27t24 -10h8v-172h-153zM231 1114v1v1v1v1v1v1v1v1v1v1v1v1v1v1v1v1v1v1v1v1v1v1v1v1v1v1v1v1v1v1v1v1v1v1v1v1v1v1v1v1v1v1v1v1v1v1v1v1v1v1v1v1v1v1v1v1v1v1v1v1v1v1v1v1v1v1v1v1v1v1v1v1v1v1v1v1v1v1v1v1v1v1v1v1v1 v1v1v1v1v1v1v1v1v1v1v1v1v1v1v1v1v1v1v1v1v1v1v1v1v1v1v1v9q0 116 50.5 178t105.5 62v-48l-5.5 -11t-12 -25.5t-13 -34.5t-7 -33t4.5 -27t23 -10h10v-172h-156z" />
<glyph unicode="&#x201d;" horiz-adv-x="425" d="M37 1114v47q2 4 5.5 10.5t12 25t13 34.5t6.5 32.5t-5 26.5t-24 10h-8v175h153v-1v-1v-1v-1v-1v-1v-1v-1v-1v-1v-1v-1v-1v-1v-1v-1v-1v-1v-1v-1v-1v-1v-1v-1v-1v-1v-1v-1v-1v-1v-1v-1v-1v-1v-1v-1v-1v-1v-1v-1v-1v-1v-1v-1v-1v-1v-1v-1v-1v-1v-1v-1v-1v-1v-1v-1v-1v-1v-1 v-1v-1v-1v-1v-1v-1v-1v-1v-1v-1v-1v-1v-1v-1v-1v-1v-1v-1v-1v-1v-1v-1v-1v-1v-1v-1v-1v-1v-1v-1v-1v-1v-1v-1v-1v-1v-1v-1v-1v-1v-1v-1v-1v-1v-1v-1v-1v-1v-1v-1v-1v-1v-1v-1v-10q0 -115 -50 -176.5t-103 -61.5zM233 1114v47q2 4 5.5 10.5t12 25t13 34.5t7 32.5t-4.5 26.5 t-24 10h-9v175h156v-1v-1v-1v-1v-1v-1v-1v-1v-1v-1v-1v-1v-1v-1v-1v-1v-1v-1v-1v-1v-1v-1v-1v-1v-1v-1v-1v-1v-1v-1v-1v-1v-1v-1v-1v-1v-1v-1v-1v-1v-1v-1v-1v-1v-1v-1v-1v-1v-1v-1v-1v-1v-1v-1v-1v-1v-1v-1v-1v-1v-1v-1v-1v-1v-1v-1v-1v-1v-1v-1v-1v-1v-1v-1v-1v-1v-1v-1 v-1v-1v-1v-1v-1v-1v-1v-1v-1v-1v-1v-1v-1v-1v-1v-1v-1v-1v-1v-1v-1v-1v-1v-1v-1v-1v-1v-1v-1v-1v-1v-1v-1v-1v-1v-10q0 -115 -51.5 -176.5t-104.5 -61.5z" />
<glyph unicode="&#x201e;" horiz-adv-x="425" d="M37 -70v172h153v-1v-1v-1v-1v-1v-1v-1v-1v-1v-1v-1v-1v-1v-1v-1v-1v-1v-1v-1v-1v-1v-1v-1v-1v-1v-1v-1v-1v-1v-1v-1v-1v-1v-1v-1v-1v-1v-1v-1v-1v-1v-1v-1v-1v-1v-1v-1v-1v-1v-1v-1v-1v-1v-1v-1v-1v-1v-1v-1v-1v-1v-1v-1v-1v-1v-1v-1v-1v-1v-1v-1v-1v-1v-1v-1v-1v-1v-1 v-1v-1v-1v-1v-1v-1v-1v-1v-1v-1v-1v-1v-1v-1v-1v-1v-1v-1v-1v-1v-1v-1v-1v-1v-1v-1v-1v-1v-1v-1v-1v-1v-1v-9q0 -116 -50 -178t-103 -62v47l5.5 11t12 25.5t13 34.5t6.5 33t-5 27t-24 10h-8zM233 -70v172h156v-1v-1v-1v-1v-1v-1v-1v-1v-1v-1v-1v-1v-1v-1v-1v-1v-1v-1v-1v-1 v-1v-1v-1v-1v-1v-1v-1v-1v-1v-1v-1v-1v-1v-1v-1v-1v-1v-1v-1v-1v-1v-1v-1v-1v-1v-1v-1v-1v-1v-1v-1v-1v-1v-1v-1v-1v-1v-1v-1v-1v-1v-1v-1v-1v-1v-1v-1v-1v-1v-1v-1v-1v-1v-1v-1v-1v-1v-1v-1v-1v-1v-1v-1v-1v-1v-1v-1v-1v-1v-1v-1v-1v-1v-1v-1v-1v-1v-1v-1v-1v-1v-1v-1v-1 v-1v-1v-1v-1v-1v-1v-1v-9q0 -116 -51.5 -178t-104.5 -62v47l5.5 11t12 25.5t13 34.5t7 33t-4.5 27t-24 10h-9z" />
<glyph unicode="&#x2022;" horiz-adv-x="407" d="M25 721q0 73 52.5 125.5t125.5 52.5q75 0 127.5 -52t52.5 -126q0 -75 -52.5 -127.5t-127.5 -52.5q-74 0 -126 52.5t-52 127.5z" />
<glyph unicode="&#x2026;" horiz-adv-x="1007" d="M51 111q0 53 36.5 90t88.5 37q51 0 88 -37.5t37 -89.5q0 -51 -37 -88t-88 -37q-52 0 -88.5 37t-36.5 88zM379 111q0 53 36.5 90t88.5 37q51 0 88 -37.5t37 -89.5q0 -51 -37 -88t-88 -37q-52 0 -88.5 37t-36.5 88zM707 111q0 53 36 90t88 37q51 0 88 -37.5t37 -89.5 q0 -51 -37 -88t-88 -37q-52 0 -88 37t-36 88z" />
<glyph unicode="&#x202f;" horiz-adv-x="367" />
<glyph unicode="&#x205f;" horiz-adv-x="459" />
<glyph unicode="&#x20ac;" horiz-adv-x="862" d="M16 530v156h129v78h-129v156h129v251q0 137 103 240q80 80 239 80q158 0 238 -80q104 -101 104 -240v-133h-290v150q0 27 -17.5 37t-34.5 10q-11 0 -21 -3t-20 -14t-10 -30v-268h260v-156h-260v-78h260v-156h-260v-260q0 -45 51 -45q52 0 52 45v142h290v-125 q0 -139 -104 -240q-83 -80 -238 -80q-156 0 -239 80q-103 103 -103 240v243h-129z" />
<glyph unicode="&#x2122;" horiz-adv-x="569" d="M29 1397v69h215v-69h-70v-197h-76v197h-69zM276 1200v266h97l37 -161l34 161h97v-266h-66v164l-45 -164h-41l-45 164v-164h-68z" />
<glyph unicode="&#x25fc;" horiz-adv-x="1474" d="M0 0v1475h1475v-1475h-1475z" />
</font>
</defs>
</svg>
