<?xml version="1.0" standalone="no"?>
<!DOCTYPE svg PUBLIC "-//W3C//DTD SVG 1.1//EN" "http://www.w3.org/Graphics/SVG/1.1/DTD/svg11.dtd" >
<svg xmlns="http://www.w3.org/2000/svg">
<metadata></metadata>
<defs>
<font id="coluna_roundedcondensed_bold" horiz-adv-x="835" >
<font-face units-per-em="2048" ascent="1536" descent="-512" />
<missing-glyph horiz-adv-x="346" />
<glyph horiz-adv-x="0" />
<glyph horiz-adv-x="682" />
<glyph unicode=" "  horiz-adv-x="346" />
<glyph unicode="&#x09;" horiz-adv-x="346" />
<glyph unicode="&#xa0;" horiz-adv-x="346" />
<glyph unicode="!" horiz-adv-x="339" d="M47 111q0 53 36.5 90t88.5 37q51 0 88 -37.5t37 -89.5q0 -51 -37 -88t-88 -37q-52 0 -88.5 37t-36.5 88zM57 360v1098q0 6 5.5 11.5t11.5 5.5h190q6 0 11.5 -5.5t5.5 -11.5v-1098q0 -6 -5.5 -11t-11.5 -5h-190q-6 0 -11.5 5t-5.5 11z" />
<glyph unicode="&#x22;" horiz-adv-x="425" d="M33 1368v78q0 29 35 29h79q18 0 28.5 -8.5t10.5 -22.5v-127h-8q-56 0 -7 -109l15 -30v-48q-53 0 -103 61.5t-50 176.5zM229 1368v78q0 29 37 29h80q17 0 27 -8.5t10 -22.5v-127h-8q-56 0 -7 -109l15 -30v-48q-53 0 -103.5 61.5t-50.5 176.5z" />
<glyph unicode="#" horiz-adv-x="843" d="M27 233l22 105q1 6 8 11t13 5h100l39 172h-117q-15 0 -12 17l24 104q2 6 8.5 11.5t12.5 5.5h115l28 131q1 6 8 11t13 5h110q6 0 10 -5t3 -11l-31 -131h192l29 131q1 6 8 11t13 5h108q6 0 9.5 -5t2.5 -11l-28 -131h90q6 0 10 -5.5t2 -11.5l-22 -104q-1 -7 -8 -12t-13 -5 h-90l-39 -172h107q6 0 10 -5t2 -11l-25 -107q-3 -16 -20 -16h-107l-28 -131q-3 -16 -21 -16h-108q-16 0 -13 16l29 131h-190l-29 -131q-3 -16 -21 -16h-110q-15 0 -12 16l30 131l-100 2q-15 0 -12 16zM311 354h191l39 172h-191z" />
<glyph unicode="$" horiz-adv-x="722" d="M25 293v180q0 23 16 39t39 16h172q23 0 39 -16t16 -39v-194q0 -19 11 -30t21 -13.5t19 -2.5q8 0 18 2.5t21 13.5t11 30v180q0 16 -2.5 28t-4.5 20t-12 19.5t-15.5 17t-24.5 23.5t-30 29l-213 192q-43 43 -62 88t-19 111v184q0 141 104 242q66 63 156 74v104q0 23 16 39.5 t39 16.5h53q23 0 39.5 -16.5t16.5 -39.5v-106q80 -14 141 -72q104 -101 104 -242v-157q0 -23 -16 -39.5t-39 -16.5h-176q-23 0 -39 16.5t-16 39.5v172q0 26 -14 36.5t-29 10.5q-46 0 -46 -45v-172q0 -25 8 -44t17 -28.5t30.5 -28t33.5 -30.5l217 -187q47 -47 62 -95.5 t15 -137.5v-172q0 -139 -104 -240q-58 -58 -149 -73v-111q0 -23 -16.5 -39t-39.5 -16h-53q-23 0 -39 16t-16 39v106q-92 14 -156 78q-104 101 -104 240z" />
<glyph unicode="%" horiz-adv-x="796" d="M25 1092v274q0 58 47 96.5t116 38.5q71 0 118.5 -38.5t47.5 -96.5v-274q0 -58 -47.5 -97t-118.5 -39q-69 0 -116 39t-47 97zM98 14l428 1444q2 6 8.5 11.5t12.5 5.5h125q6 0 10 -5.5t2 -11.5l-428 -1444q-3 -16 -20 -16h-125q-16 0 -13 16zM164 1100q0 -21 24 -21 q27 0 27 21v258q0 9 -8 14.5t-19 5.5q-9 0 -16.5 -5.5t-7.5 -14.5v-258zM440 109v272q0 58 47.5 97.5t116.5 39.5q71 0 118.5 -39.5t47.5 -97.5v-272q0 -59 -48 -98.5t-118 -39.5q-69 0 -116.5 40t-47.5 98zM580 117q0 -23 24 -23q27 0 27 23v256q0 9 -8 15.5t-19 6.5 q-9 0 -16.5 -6.5t-7.5 -15.5v-256z" />
<glyph unicode="&#x26;" horiz-adv-x="872" d="M51 274v263q0 24 1 38t6.5 38t16 41.5t32 39t51.5 39.5q-4 2 -11 7t-25 22t-31.5 37t-24.5 54t-11 71v276q0 124 97 217q79 76 223 76q140 0 219 -76q98 -98 98 -227v-47q0 -23 -16 -39.5t-39 -16.5h-145q-23 0 -39.5 16.5t-16.5 39.5v67q0 30 -18.5 47t-42.5 17 q-27 0 -45.5 -16.5t-18.5 -47.5v-336q0 -11 3 -22t18.5 -24t42.5 -13h117v88q0 23 16 39t39 16h145q23 0 39.5 -16t16.5 -39v-88h45q23 0 39 -16t16 -39v-68q0 -23 -16 -39t-39 -16h-45v-381q0 -45 71 -59q2 -1 7.5 -2.5t7.5 -2.5t5.5 -3t5 -4.5t2.5 -6t1 -8.5v-170 q0 -32 -33 -27q-41 0 -65.5 1.5t-60.5 12t-58 31.5l-10 7l-13 -7q-89 -47 -209 -47q-72 0 -144 21t-108 55q-96 99 -96 227zM307 256q0 -34 20 -48.5t72 -14.5q32 0 52 5t28.5 15.5t10.5 19t2 23.5v381h-117q-35 0 -51.5 -17t-16.5 -42v-322z" />
<glyph unicode="'" horiz-adv-x="217" d="M31 1139v319q0 6 5 11.5t11 5.5h121q6 0 11 -5.5t5 -11.5v-319q0 -6 -5 -11.5t-11 -5.5h-121q-6 0 -11 5.5t-5 11.5z" />
<glyph unicode="(" horiz-adv-x="389" d="M55 342v793q0 184 82 266q41 37 76.5 54.5t85.5 21.5q35 0 35 -33v-133q0 -28 -35 -35q-45 -8 -61.5 -35t-16.5 -55v-895q0 -28 16.5 -55t61.5 -35l3 -1q4 0 5.5 -0.5t5 -1.5t5.5 -2t5 -3t4.5 -4.5t3 -5.5t2.5 -7.5t1 -9.5v-133q0 -33 -35 -33q-50 4 -85.5 21.5 t-76.5 54.5q-82 82 -82 266z" />
<glyph unicode=")" horiz-adv-x="389" d="M55 33v133q0 5 1 9.5t2.5 7.5t3 5.5t4.5 4.5t5 3t5.5 2t5 1.5t4.5 0.5l4 1q45 8 61.5 35t16.5 55v895q0 28 -16.5 55t-61.5 35q-35 7 -35 35v133q0 33 35 33q50 -4 85.5 -21.5t76.5 -54.5q82 -82 82 -266v-793q0 -184 -82 -266q-41 -37 -76.5 -54.5t-85.5 -21.5 q-35 0 -35 33z" />
<glyph unicode="*" horiz-adv-x="303" d="M23 1321v49h67l-49 49l37 35l47 -47v68h51v-68l49 47l35 -35l-49 -49h70v-49h-70l49 -49l-35 -35l-49 47v-67h-51v67l-47 -47l-37 35l49 49h-67z" />
<glyph unicode="+" horiz-adv-x="532" d="M20 649v152q0 6 5.5 11t11.5 5h121h16v17v131q0 6 5 11t11 5h152q6 0 11 -5t5 -11v-131v-17h17h121q6 0 11 -5t5 -11v-152q0 -6 -5 -11t-11 -5h-121h-17v-17v-131q0 -6 -5 -11t-11 -5h-152q-6 0 -11 5t-5 11v131v17h-16h-121q-6 0 -11.5 5t-5.5 11z" />
<glyph unicode="," horiz-adv-x="280" d="M-25 -209l103 309q7 17 22 17h142q6 0 9.5 -5t0.5 -12l-102 -309q-3 -16 -21 -16h-141q-16 0 -13 16z" />
<glyph unicode="-" horiz-adv-x="479" d="M25 649v152q0 6 5 11t11 5h397q6 0 11.5 -5t5.5 -11v-152q0 -6 -5.5 -11t-11.5 -5h-397q-6 0 -11 5t-5 11z" />
<glyph unicode="." horiz-adv-x="335" d="M47 111q0 53 36.5 90t88.5 37q51 0 88 -37.5t37 -89.5q0 -51 -37 -88t-88 -37q-52 0 -88.5 37t-36.5 88z" />
<glyph unicode="/" horiz-adv-x="708" d="M43 14l428 1444q2 6 8.5 11.5t12.5 5.5h161q6 0 10 -5.5t3 -11.5l-428 -1444q-3 -16 -21 -16h-162q-15 0 -12 16z" />
<glyph unicode="0" horiz-adv-x="763" d="M41 291v883q0 137 102 239q83 80 238 80q157 0 237 -80q105 -102 105 -239v-883q0 -138 -105 -240q-77 -80 -237 -80q-158 0 -238 80q-102 102 -102 240zM328 274q0 -27 17.5 -37t35.5 -10q11 0 22 3t22 14t11 30v64l-108 506v-570zM328 1190l108 -524v524q0 45 -55 45 q-53 0 -53 -45z" />
<glyph unicode="1" horiz-adv-x="604" d="M36.5 1225q-0.5 14 8.5 24l182 201q9 10 25.5 17.5t30.5 7.5h233q14 0 23.5 -9.5t9.5 -23.5v-1409q0 -13 -9.5 -23t-23.5 -10h-237q-13 0 -23 10t-10 23v1130l-43 -57q-9 -11 -21.5 -12t-23.5 8l-111 100q-10 9 -10.5 23z" />
<glyph unicode="2" horiz-adv-x="778" d="M37 33v278q0 76 12.5 109t59.5 100l311 402q20 33 20 59v195q0 20 -12.5 32.5t-32.5 12.5q-47 0 -47 -45v-215q0 -13 -10 -23t-23 -10h-237q-14 0 -23.5 10t-9.5 23v194q0 143 109 252q89 86 243 86q158 0 244 -86q98 -98 98 -244v-202q-3 -52 -19 -95.5t-63 -111.5 l-280 -357q-18 -25 -26.5 -57t-7.5 -51l1 -19h340q14 0 23.5 -9.5t9.5 -22.5v-205q0 -13 -9.5 -23t-23.5 -10h-614q-14 0 -23.5 10t-9.5 23z" />
<glyph unicode="3" horiz-adv-x="747" d="M33 287v168q0 13 9.5 22.5t23.5 9.5h231q14 0 23.5 -9.5t9.5 -22.5v-187q0 -19 12.5 -28t26.5 -9q15 0 28 9t13 28v320q0 33 -41 33h-66h-2q-14 0 -23.5 9.5t-9.5 22.5v158q0 13 10 23t23 10h2h66q37 0 37 33v315q0 20 -11 28.5t-26 8.5q-13 0 -24 -8.5t-11 -28.5v-174 q0 -14 -10 -23.5t-23 -9.5h-231q-14 0 -23.5 9.5t-9.5 23.5v156q0 135 102 237q83 80 230 80q148 0 231 -80q102 -99 102 -229v-258q0 -51 -20 -92.5t-55 -88.5q-4 -7 -9 -10q6 -6 9 -12q26 -35 38.5 -53.5t27 -52.5t14.5 -66v-262q0 -135 -103 -238q-83 -80 -235 -80 q-151 0 -234 80q-102 102 -102 238z" />
<glyph unicode="4" horiz-adv-x="782" d="M20 276v103q0 34 11 63l315 1002q5 12 17.5 21.5t25.5 9.5h221q14 0 23.5 -9.5t9.5 -23.5v-942h86q13 0 23 -10t10 -23v-191q0 -13 -9.5 -22.5t-23.5 -9.5h-86v-211q0 -13 -9.5 -23t-23.5 -10h-207q-13 0 -22.5 9.5t-9.5 23.5v213l-318 -2q-14 0 -23.5 9.5t-9.5 22.5z M254 500h117v418z" />
<glyph unicode="5" horiz-adv-x="745" d="M43 291v145q0 23 16 39.5t39 16.5h160q23 0 39 -16.5t16 -39.5v-170q0 -45 54 -45q55 0 55 45v393q0 32 -14.5 52t-40.5 20q-40 0 -48 -43q-5 -20 -11.5 -28.5t-22.5 -8.5h-187q-23 0 -39 16.5t-16 39.5v768h616v-275h-356v-219q0 19 64 27q56 4 121.5 -11.5t115.5 -66.5 q105 -102 105 -230v-401q0 -146 -105 -248q-80 -80 -237 -80q-71 0 -124 18t-98 62q-102 102 -102 240z" />
<glyph unicode="6" horiz-adv-x="757" d="M35 297v180q0 142 35 264l209 699q5 12 17.5 21t25.5 9h221q13 0 20 -9t2 -21l-166 -547q146 -6 222 -82q104 -104 104 -244v-270q0 -143 -104 -244q-82 -82 -240 -82q-157 0 -242 82q-104 101 -104 244zM334 272q0 -39 47 -39q17 0 31 9t14 30v320q0 37 -45 37 q-47 0 -47 -37v-320z" />
<glyph unicode="7" horiz-adv-x="733" d="M29 31l342 1149h-265q-14 0 -23 9t-9 23v230q0 14 9.5 23.5t22.5 9.5h568q14 0 23.5 -9.5t9.5 -23.5v-129q0 -35 -11 -64l-370 -1218q-5 -12 -17.5 -21.5t-25.5 -9.5h-232q-13 0 -20 9.5t-2 21.5z" />
<glyph unicode="8" horiz-adv-x="735" d="M33 287v268q0 32 13.5 65.5t26.5 53.5t38 53q8 8 10 14q-3 6 -10 13q-25 33 -38 53t-26.5 53.5t-13.5 65.5v252q0 135 100 235q80 80 234 80q156 0 233 -80q102 -99 102 -235v-252q0 -32 -14 -66t-26.5 -53t-38.5 -53q-2 -4 -11 -13q2 -3 6 -7.5t5 -6.5q26 -34 38.5 -53 t26.5 -53t14 -66v-268q0 -137 -102 -236q-80 -80 -233 -80q-151 0 -234 80q-100 100 -100 236zM324 264q0 -37 43 -37q45 0 45 37v316q0 36 -45 36q-43 0 -43 -36v-316zM324 901q0 -35 43 -35q45 0 45 35v301q0 35 -45 35q-43 0 -43 -35v-301z" />
<glyph unicode="9" horiz-adv-x="741" d="M25 903v264q0 140 104 244q85 82 242 82t239 -82q105 -105 105 -244v-174q0 -142 -35 -264l-207 -698q-5 -12 -17.5 -21.5t-25.5 -9.5h-223q-13 0 -20.5 9.5t-2.5 21.5l166 547q-146 6 -221 81q-104 101 -104 244zM324 879q0 -39 47 -39q17 0 31 9t14 30v313q0 37 -45 37 q-47 0 -47 -37v-313z" />
<glyph unicode=":" horiz-adv-x="339" d="M47 111q0 53 36.5 90t88.5 37q51 0 88 -37.5t37 -89.5q0 -51 -37 -88t-88 -37q-52 0 -88.5 37t-36.5 88zM47 721q0 53 36.5 90t88.5 37q51 0 88 -37.5t37 -89.5q0 -51 -37 -88t-88 -37q-52 0 -88.5 37t-36.5 88z" />
<glyph unicode=";" horiz-adv-x="327" d="M-25 -209l103 309q7 17 22 17h142q6 0 9.5 -5t0.5 -12l-102 -309q-3 -16 -21 -16h-141q-16 0 -13 16zM49 721q0 53 36.5 90t88.5 37q51 0 88 -37.5t37 -89.5q0 -51 -37 -88t-88 -37q-52 0 -88.5 37t-36.5 88z" />
<glyph unicode="&#x3c;" horiz-adv-x="542" d="M18 715q0 1 13 14l366 367q11 11 25 0l90 -92q4 -4 4 -12t-4 -13l-250 -250q-14 -14 0 -24l250 -252q4 -5 4 -13t-4 -12l-90 -92q-16 -12 -25 0l-366 366z" />
<glyph unicode="=" horiz-adv-x="471" d="M31 465v151q0 6 5 11.5t11 5.5h377q6 0 11 -5.5t5 -11.5v-151q0 -6 -5 -11t-11 -5h-377q-6 0 -11 5t-5 11zM31 834v151q0 6 5 11t11 5h377q6 0 11 -5t5 -11v-151q0 -6 -5 -11.5t-11 -5.5h-377q-6 0 -11 5.5t-5 11.5z" />
<glyph unicode="&#x3e;" horiz-adv-x="542" d="M31 428q-14 11 0 25l252 252q10 10 0 24l-252 250q-13 13 0 25l92 92q10 10 24 0l365 -367q12 -12 12 -14q-6 -7 -12 -13l-365 -366q-15 -12 -24 0z" />
<glyph unicode="?" horiz-adv-x="716" d="M31 1075v101q0 135 104 239q78 78 230 78q79 0 132.5 -18.5t96.5 -59.5q92 -92 92 -231v-60q0 -67 -21.5 -128t-55.5 -112t-70 -101t-71.5 -117.5t-53.5 -139.5l-19 -166q0 -6 -5 -11t-11 -5h-197q-6 0 -11 5t-5 11q12 166 12 168q17 90 52 167t72 129.5t72.5 102.5 t58 108.5t22.5 125.5v33v4q0 40 -27 68t-66 28q-44 0 -71 -26.5t-27 -69.5v-123q0 -6 -5 -11t-11 -5h-201q-6 0 -11 5t-5 11zM160 111q0 53 36.5 90t88.5 37q51 0 88 -37.5t37 -89.5q0 -51 -37 -88t-88 -37q-52 0 -88.5 37t-36.5 88z" />
<glyph unicode="@" horiz-adv-x="1185" d="M41 610q-21 131 6 252q19 108 88 223v2q67 106 158 168q93 68 207 93q46 10 104 10q56 0 111 -12q114 -25 196 -93q92 -71 154 -176q61 -107 82 -233q25 -165 -31 -299q-28 -69 -76 -111h-2q-59 -59 -141 -59q-42 0 -86.5 12.5t-62.5 30.5q-39 39 -48 78q-13 -34 -49 -47 q-39 -15 -73 -15q-108 0 -181 84q-80 86 -80 213q0 126 80 215q73 82 181 82q38 0 70 -14.5t32 -42.5v51h149v-430q0 -30 24.5 -39.5t43.5 -3.5q46 15 76 76q33 61 16 184v2q-27 161 -137 270t-254 109q-24 0 -74 -8q-155 -32 -260 -207q-90 -150 -65 -330 q27 -161 135.5 -267t253.5 -106q30 0 71 9q58 11 99 30l98 -139q-84 -44 -168 -59q-51 -11 -106 -11q-49 0 -109 13q-120 27 -197 90q-90 63 -151 168q-66 114 -84 237zM479 731q0 -52 28.5 -94.5t70.5 -42.5t66 41.5t24 95.5t-24 95.5t-66 41.5t-70.5 -42.5t-28.5 -94.5z " />
<glyph unicode="A" d="M33 55l227 1364q3 23 22.5 39.5t41.5 16.5h92h2h92q23 0 41.5 -16.5t23.5 -39.5l228 -1364q1 -4 1 -8q0 -18 -12 -31q-14 -16 -36 -16h-191q-20 0 -37.5 13.5t-21.5 33.5l-14 174h-148l-14 -174q-6 -20 -23 -33.5t-39 -13.5h-190q-22 0 -36 16q-10 12 -10 29q0 5 1 10z M365 440h106l-53 578z" />
<glyph unicode="B" horiz-adv-x="786" d="M55 55v1364q0 23 16.5 39.5t39.5 16.5h272q69 0 137.5 -26.5t114.5 -72.5q102 -102 102 -256v-139q0 -109 -90 -221q107 -120 107 -244v-162q0 -155 -103 -258q-46 -45 -114.5 -70.5t-137.5 -25.5h-288q-23 0 -39.5 16t-16.5 39zM348 242h51q34 0 48 15t14 48v277 q0 29 -17.5 46t-42.5 17h-53v-403zM348 854h39q57 0 57 61v254q0 30 -16.5 46t-44.5 16h-35v-377z" />
<glyph unicode="C" horiz-adv-x="757" d="M41 293v878q0 141 104 242q80 80 238 80t238 -80q104 -101 104 -242v-243q0 -23 -16 -39.5t-39 -16.5h-181q-23 0 -39 16.5t-16 39.5v260q0 47 -51 47t-51 -47v-912q0 -47 51 -47t51 47v250q0 23 16 39.5t39 16.5h181q23 0 39 -16.5t16 -39.5v-233q0 -138 -104 -242 q-80 -80 -238 -80t-238 80q-104 104 -104 242z" />
<glyph unicode="D" horiz-adv-x="778" d="M55 55v1364q0 23 16.5 39.5t39.5 16.5h286q140 0 240 -97q104 -104 104 -258v-766q0 -154 -104 -258q-99 -96 -240 -96h-286q-23 0 -39.5 16t-16.5 39zM348 242h49q52 0 52 63v864q0 31 -14 47.5t-38 16.5h-49v-991z" />
<glyph unicode="E" horiz-adv-x="657" d="M55 55v1364q0 23 16.5 39.5t39.5 16.5h460q23 0 39.5 -16.5t16.5 -39.5v-135q0 -23 -16.5 -39t-39.5 -16h-215v-398h146q23 0 39 -16t16 -39v-102q0 -23 -16 -39.5t-39 -16.5h-146v-362h215q23 0 39.5 -16t16.5 -39v-146q0 -23 -16.5 -39t-39.5 -16h-460q-23 0 -39.5 16 t-16.5 39z" />
<glyph unicode="F" horiz-adv-x="651" d="M55 55v1364q0 23 16.5 39.5t39.5 16.5h460q23 0 39.5 -16.5t16.5 -39.5v-135q0 -23 -16.5 -39t-39.5 -16h-215v-398h146q23 0 39 -16t16 -39v-102q0 -23 -16 -39.5t-39 -16.5h-146v-563q0 -23 -16 -39t-39 -16h-190q-23 0 -39.5 16t-16.5 39z" />
<glyph unicode="G" horiz-adv-x="761" d="M41 293v878q0 141 104 242q80 80 238 80t238 -80q104 -101 104 -242v-245q0 -23 -16 -39.5t-39 -16.5h-181q-23 0 -39 16.5t-16 39.5v262q0 47 -51 47t-51 -47v-912q0 -20 12 -31t22 -13.5t21 -2.5q46 0 55 47v271q-26 0 -42.5 15.5t-16.5 39.5v51q0 23 16 39.5t39 16.5 h232q23 0 39 -16.5t16 -39.5v-653h-82v2t-1 5t-1.5 8t-1.5 10t-1.5 10.5t-1.5 10t-2 9.5t-2 7.5t-1.5 5t-1.5 0.5q-50 -50 -103.5 -73.5t-142.5 -23.5q-158 0 -238 80q-104 104 -104 242z" />
<glyph unicode="H" horiz-adv-x="819" d="M55 55v1364q0 23 16.5 39.5t39.5 16.5h190q23 0 39 -16.5t16 -39.5v-588h107v588q0 23 16 39.5t39 16.5h191q23 0 39 -16.5t16 -39.5v-1364q0 -23 -16 -39t-39 -16h-191q-23 0 -39 16t-16 39v563h-107v-563q0 -23 -16 -39t-39 -16h-190q-23 0 -39.5 16t-16.5 39z" />
<glyph unicode="I" horiz-adv-x="434" d="M72 55v1364q0 23 16 39.5t39 16.5h180q23 0 39 -16.5t16 -39.5v-1364q0 -23 -16 -39t-39 -16h-180q-23 0 -39 16t-16 39z" />
<glyph unicode="J" horiz-adv-x="772" d="M33 293v231q0 23 16 39.5t39 16.5h180q23 0 39.5 -16.5t16.5 -39.5v-248q0 -47 51 -47t51 47v1141q0 23 16 39.5t39 16.5h181q23 0 39 -16.5t16 -39.5v-1124q0 -137 -105 -242q-80 -80 -237 -80q-158 0 -238 80q-104 104 -104 242z" />
<glyph unicode="K" horiz-adv-x="866" d="M55 55v1364q0 23 16.5 39.5t39.5 16.5h172q23 0 39 -16.5t16 -39.5v-469q46 131 162 471q8 22 29 38t44 16h181q23 0 33 -15t1 -37l-202 -538l248 -832q2 -8 2 -15q0 -12 -7 -22q-11 -16 -34 -16h-183q-23 0 -43 15.5t-26 37.5q-37 136 -66.5 242t-42.5 153.5t-22.5 80.5 t-13 46.5t-7.5 28.5q-20 -51 -45 -110v-439q0 -23 -16 -39t-39 -16h-180q-23 0 -39.5 16t-16.5 39z" />
<glyph unicode="L" horiz-adv-x="651" d="M55 55v1364q0 23 16.5 39.5t39.5 16.5h190q23 0 39 -16.5t16 -39.5v-1155h215q23 0 39.5 -16t16.5 -39v-154q0 -23 -16.5 -39t-39.5 -16h-460q-23 0 -39.5 16t-16.5 39z" />
<glyph unicode="M" horiz-adv-x="1036" d="M55 55v1362q0 23 16.5 39.5t39.5 16.5h264q23 0 40 -16.5t19 -39.5l84 -1057l86 1057q1 23 19 39.5t41 16.5h262q23 0 39 -16.5t16 -39.5v-1362q0 -23 -16 -39t-39 -16h-142q-23 0 -39 16t-16 39v785q-7 -65 -94 -785q-3 -23 -21 -39t-41 -16h-108q-23 0 -41 16t-21 39 l-94 787v-787q0 -23 -16 -39t-39 -16h-143q-23 0 -39.5 16t-16.5 39z" />
<glyph unicode="N" horiz-adv-x="811" d="M55 55v1364q0 23 16.5 39.5t39.5 16.5h161q23 0 42 -16t24 -38q150 -723 162 -776v774q0 23 16 39.5t39 16.5h145q23 0 39.5 -16.5t16.5 -39.5v-1364q0 -23 -16.5 -39t-39.5 -16h-153q-23 0 -43.5 15.5t-24.5 37.5l-168 746v-744q0 -23 -16 -39t-39 -16h-145 q-23 0 -39.5 16t-16.5 39z" />
<glyph unicode="O" horiz-adv-x="763" d="M37 291v883q0 137 102 239q83 80 242 80t242 -80q104 -101 104 -239v-883q0 -139 -104 -240q-80 -80 -242 -80t-242 80q-102 102 -102 240zM328 274q0 -27 17.5 -37t35.5 -10q11 0 22 3t22 14t11 30v916q0 45 -55 45q-53 0 -53 -45v-916z" />
<glyph unicode="P" horiz-adv-x="765" d="M55 55v1364q0 23 16.5 39.5t39.5 16.5h288q141 0 240 -99q102 -102 102 -256v-205q0 -154 -102 -256q-96 -96 -240 -96h-51v-508q0 -23 -16 -39t-39 -16h-182q-23 0 -39.5 16t-16.5 39zM348 805h51q28 0 39 14.5t11 46.5v303q0 33 -11 48.5t-39 15.5h-51v-428z" />
<glyph unicode="Q" horiz-adv-x="788" d="M41 293v878q0 140 102 242q83 80 238 80q157 0 237 -80q105 -102 105 -242v-878q0 -69 -41 -123h-1h-1h1h1h1h1h1h1h1h1h1h1h1h1h1h1h1h1h1h1h1h1h9q17 0 27 -7t11 -15l1 -7v-121q0 -12 -3 -21t-10 -13t-12 -7t-16 -2.5t-15 1t-16 2.5l-12 2q-79 20 -107 55 q-106 -66 -176 -66q-155 0 -238 80q-102 105 -102 242zM332 276q0 -47 49 -47q5 0 10 2.5t8 4.5t4 2q12 10 10.5 25t-8 26t-13.5 27.5t-7 29.5h47v842q0 47 -51 47q-49 0 -49 -47v-912z" />
<glyph unicode="R" horiz-adv-x="784" d="M55 55v1364q0 23 16.5 39.5t39.5 16.5h286q141 0 240 -99q102 -102 102 -256v-188q0 -123 -102 -240q102 -79 102 -239v-375q0 -9 3 -22q2 -14 4 -22q1 -3 1 -7q1 -5 -1 -11q-2 -8 -15 -12t-37 -4h-221q-10 0 -17 21.5t-7 52.5v444q0 62 -52 62h-51v-478v-47 q0 -23 -16 -39t-39 -16h-180q-23 0 -39.5 16t-16.5 39zM346 821h51q28 0 40 15t12 47v286q0 64 -52 64h-51v-412z" />
<glyph unicode="S" horiz-adv-x="751" d="M37 293v180q0 23 16 39t39 16h172q23 0 39 -16t16 -39v-194q0 -19 11.5 -30t21.5 -13.5t19 -2.5q8 0 17.5 2.5t20.5 13.5t11 30v180q0 16 -2.5 28t-4 19.5t-12 20t-15 17t-24.5 23.5t-30 29l-213 192q-43 43 -62.5 88.5t-19.5 110.5v184q0 141 104 242q83 80 232 80 q146 0 229 -80q105 -102 105 -242v-157q0 -23 -16.5 -39.5t-39.5 -16.5h-176q-23 0 -39 16.5t-16 39.5v172q0 26 -14 36.5t-29 10.5q-18 0 -31.5 -10t-13.5 -35v-172q0 -25 8 -44t16.5 -28.5t30.5 -28.5t33 -30l217 -187q48 -48 63 -96t15 -137v-172q0 -138 -105 -240 q-82 -82 -239 -82q-148 0 -230 82q-104 101 -104 240z" />
<glyph unicode="T" horiz-adv-x="729" d="M23 1284v135q0 23 16 39.5t39 16.5h573q23 0 39.5 -16.5t16.5 -39.5v-135q0 -23 -16.5 -39t-39.5 -16h-139v-1174q0 -23 -16 -39t-39 -16h-185q-23 0 -39 16t-16 39v1174h-139q-23 0 -39 16t-16 39z" />
<glyph unicode="U" horiz-adv-x="757" d="M37 299v1118q0 23 16 39.5t39 16.5h178q23 0 39.5 -16.5t16.5 -39.5v-1143q0 -45 53 -45t53 45v1143q0 23 16 39.5t39 16.5h179q23 0 39 -16.5t16 -39.5v-1118q0 -145 -103 -248q-83 -80 -239 -80q-160 0 -240 80q-102 102 -102 248z" />
<glyph unicode="V" horiz-adv-x="837" d="M31 1419q-1 4 -1 8q0 17 12 31q14 16 36 17h190q23 0 41 -16.5t21 -39.5q82 -864 88 -919q6 55 90 919q3 23 20.5 39.5t40.5 16.5h191q22 -1 36 -17q11 -14 12 -31q0 -4 -1 -8l-225 -1364q-3 -23 -22 -39t-42 -16h-199q-23 0 -41.5 16t-21.5 39z" />
<glyph unicode="W" horiz-adv-x="1222" d="M33 1419q-1 4 -1 8q0 17 12 31q14 16 36 17h158q23 0 40.5 -16.5t20.5 -39.5q82 -825 88 -880l92 880q3 23 21 39.5t41 16.5h141q23 0 40.5 -16.5t20.5 -39.5l93 -880q6 55 88 880q3 23 20.5 39.5t40.5 16.5h158q23 -1 37 -17q11 -14 11 -31q0 -4 -1 -8l-209 -1364 q-3 -23 -21.5 -39t-41.5 -16h-156q-23 0 -42 16t-22 39l-86 639q-8 -55 -88 -639q-3 -23 -21.5 -39t-41.5 -16h-156q-23 0 -41.5 16t-21.5 39z" />
<glyph unicode="X" d="M43 53l231 721l-200 647q-8 22 4 38t35 16h192q23 0 42 -16.5t22 -39.5l55 -368l55 368q3 23 22 39.5t42 16.5h192q23 0 34 -16t5 -38l-205 -647l224 -721q2 -8 2 -15q0 -12 -7 -22q-11 -16 -34 -16h-191q-23 0 -42.5 15.5t-24.5 37.5l-76 377l-80 -377 q-6 -22 -25.5 -37.5t-42.5 -15.5h-190q-23 0 -34 16q-7 10 -7 22q0 7 2 15z" />
<glyph unicode="Y" horiz-adv-x="888" d="M37 1421q-2 8 -2 15q0 13 7 23q11 16 34 16h176q23 0 43.5 -16t26.5 -38l122 -438l123 438q6 22 26.5 38t43.5 16h176q23 0 34 -16q7 -10 7 -23q0 -7 -2 -15l-266 -811v-555q0 -23 -16.5 -39t-39.5 -16h-174q-23 0 -39 16t-16 39v559z" />
<glyph unicode="Z" horiz-adv-x="700" d="M31 55v138l297 999h-230q-23 0 -39 16t-16 39v172q0 23 16 39.5t39 16.5h512q23 0 39.5 -16.5t16.5 -39.5v-131l-312 -1020h260q23 0 39.5 -16t16.5 -39v-158q0 -23 -16.5 -39t-39.5 -16h-528q-23 0 -39 16t-16 39z" />
<glyph unicode="[" horiz-adv-x="362" d="M55 16v1442q0 6 5.5 11.5t11.5 5.5h219q6 0 11 -5.5t5 -11.5v-131q0 -6 -5 -11t-11 -5h-55h-17v-17v-1114v-16h17h55q6 0 11 -5.5t5 -11.5v-131q0 -6 -5 -11t-11 -5h-219q-6 0 -11.5 5t-5.5 11z" />
<glyph unicode="\" horiz-adv-x="708" d="M43 1458q-2 6 2 11.5t10 5.5h162q6 0 12.5 -5.5t8.5 -11.5l428 -1444q3 -16 -13 -16h-161q-18 0 -21 16z" />
<glyph unicode="]" horiz-adv-x="362" d="M55 16v131q0 6 5.5 11.5t11.5 5.5h55h16v16v1114v17h-16h-55q-6 0 -11.5 5t-5.5 11v131q0 6 5.5 11.5t11.5 5.5h219q6 0 11 -5.5t5 -11.5v-1442q0 -6 -5 -11t-11 -5h-219q-6 0 -11.5 5t-5.5 11z" />
<glyph unicode="_" horiz-adv-x="430" d="M31 14v172q0 6 5 11.5t11 5.5h336q6 0 11 -5.5t5 -11.5v-172q0 -6 -5 -11t-11 -5h-336q-6 0 -11 5t-5 11z" />
<glyph unicode="`" horiz-adv-x="327" d="M49 1778q-7 14 8 14h168q6 0 13 -5t8 -11l47 -215q3 -17 -12 -17h-78q-17 0 -25 15z" />
<glyph unicode="a" d="M33 55l227 1364q3 23 22.5 39.5t41.5 16.5h92h2h92q23 0 41.5 -16.5t23.5 -39.5l228 -1364q1 -4 1 -8q0 -18 -12 -31q-14 -16 -36 -16h-191q-20 0 -37.5 13.5t-21.5 33.5l-14 174h-148l-14 -174q-6 -20 -23 -33.5t-39 -13.5h-190q-22 0 -36 16q-10 12 -10 29q0 5 1 10z M365 440h106l-53 578z" />
<glyph unicode="b" horiz-adv-x="786" d="M55 55v1364q0 23 16.5 39.5t39.5 16.5h272q69 0 137.5 -26.5t114.5 -72.5q102 -102 102 -256v-139q0 -109 -90 -221q107 -120 107 -244v-162q0 -155 -103 -258q-46 -45 -114.5 -70.5t-137.5 -25.5h-288q-23 0 -39.5 16t-16.5 39zM348 242h51q34 0 48 15t14 48v277 q0 29 -17.5 46t-42.5 17h-53v-403zM348 854h39q57 0 57 61v254q0 30 -16.5 46t-44.5 16h-35v-377z" />
<glyph unicode="c" horiz-adv-x="757" d="M41 293v878q0 141 104 242q80 80 238 80t238 -80q104 -101 104 -242v-243q0 -23 -16 -39.5t-39 -16.5h-181q-23 0 -39 16.5t-16 39.5v260q0 47 -51 47t-51 -47v-912q0 -47 51 -47t51 47v250q0 23 16 39.5t39 16.5h181q23 0 39 -16.5t16 -39.5v-233q0 -138 -104 -242 q-80 -80 -238 -80t-238 80q-104 104 -104 242z" />
<glyph unicode="d" horiz-adv-x="778" d="M55 55v1364q0 23 16.5 39.5t39.5 16.5h286q140 0 240 -97q104 -104 104 -258v-766q0 -154 -104 -258q-99 -96 -240 -96h-286q-23 0 -39.5 16t-16.5 39zM348 242h49q52 0 52 63v864q0 31 -14 47.5t-38 16.5h-49v-991z" />
<glyph unicode="e" horiz-adv-x="657" d="M55 55v1364q0 23 16.5 39.5t39.5 16.5h460q23 0 39.5 -16.5t16.5 -39.5v-135q0 -23 -16.5 -39t-39.5 -16h-215v-398h146q23 0 39 -16t16 -39v-102q0 -23 -16 -39.5t-39 -16.5h-146v-362h215q23 0 39.5 -16t16.5 -39v-146q0 -23 -16.5 -39t-39.5 -16h-460q-23 0 -39.5 16 t-16.5 39z" />
<glyph unicode="f" horiz-adv-x="651" d="M55 55v1364q0 23 16.5 39.5t39.5 16.5h460q23 0 39.5 -16.5t16.5 -39.5v-135q0 -23 -16.5 -39t-39.5 -16h-215v-398h146q23 0 39 -16t16 -39v-102q0 -23 -16 -39.5t-39 -16.5h-146v-563q0 -23 -16 -39t-39 -16h-190q-23 0 -39.5 16t-16.5 39z" />
<glyph unicode="g" horiz-adv-x="761" d="M41 293v878q0 141 104 242q80 80 238 80t238 -80q104 -101 104 -242v-245q0 -23 -16 -39.5t-39 -16.5h-181q-23 0 -39 16.5t-16 39.5v262q0 47 -51 47t-51 -47v-912q0 -20 12 -31t22 -13.5t21 -2.5q46 0 55 47v271q-26 0 -42.5 15.5t-16.5 39.5v51q0 23 16 39.5t39 16.5 h232q23 0 39 -16.5t16 -39.5v-653h-82v2t-1 5t-1.5 8t-1.5 10t-1.5 10.5t-1.5 10t-2 9.5t-2 7.5t-1.5 5t-1.5 0.5q-50 -50 -103.5 -73.5t-142.5 -23.5q-158 0 -238 80q-104 104 -104 242z" />
<glyph unicode="h" horiz-adv-x="819" d="M55 55v1364q0 23 16.5 39.5t39.5 16.5h190q23 0 39 -16.5t16 -39.5v-588h107v588q0 23 16 39.5t39 16.5h191q23 0 39 -16.5t16 -39.5v-1364q0 -23 -16 -39t-39 -16h-191q-23 0 -39 16t-16 39v563h-107v-563q0 -23 -16 -39t-39 -16h-190q-23 0 -39.5 16t-16.5 39z" />
<glyph unicode="i" horiz-adv-x="434" d="M72 55v1364q0 23 16 39.5t39 16.5h180q23 0 39 -16.5t16 -39.5v-1364q0 -23 -16 -39t-39 -16h-180q-23 0 -39 16t-16 39z" />
<glyph unicode="j" horiz-adv-x="772" d="M33 293v231q0 23 16 39.5t39 16.5h180q23 0 39.5 -16.5t16.5 -39.5v-248q0 -47 51 -47t51 47v1141q0 23 16 39.5t39 16.5h181q23 0 39 -16.5t16 -39.5v-1124q0 -137 -105 -242q-80 -80 -237 -80q-158 0 -238 80q-104 104 -104 242z" />
<glyph unicode="k" horiz-adv-x="866" d="M55 55v1364q0 23 16.5 39.5t39.5 16.5h172q23 0 39 -16.5t16 -39.5v-469q46 131 162 471q8 22 29 38t44 16h181q23 0 33 -15t1 -37l-202 -538l248 -832q2 -8 2 -15q0 -12 -7 -22q-11 -16 -34 -16h-183q-23 0 -43 15.5t-26 37.5q-37 136 -66.5 242t-42.5 153.5t-22.5 80.5 t-13 46.5t-7.5 28.5q-20 -51 -45 -110v-439q0 -23 -16 -39t-39 -16h-180q-23 0 -39.5 16t-16.5 39z" />
<glyph unicode="l" horiz-adv-x="651" d="M55 55v1364q0 23 16.5 39.5t39.5 16.5h190q23 0 39 -16.5t16 -39.5v-1155h215q23 0 39.5 -16t16.5 -39v-154q0 -23 -16.5 -39t-39.5 -16h-460q-23 0 -39.5 16t-16.5 39z" />
<glyph unicode="m" horiz-adv-x="1036" d="M55 55v1362q0 23 16.5 39.5t39.5 16.5h264q23 0 40 -16.5t19 -39.5l84 -1057l86 1057q1 23 19 39.5t41 16.5h262q23 0 39 -16.5t16 -39.5v-1362q0 -23 -16 -39t-39 -16h-142q-23 0 -39 16t-16 39v785q-7 -65 -94 -785q-3 -23 -21 -39t-41 -16h-108q-23 0 -41 16t-21 39 l-94 787v-787q0 -23 -16 -39t-39 -16h-143q-23 0 -39.5 16t-16.5 39z" />
<glyph unicode="n" horiz-adv-x="811" d="M55 55v1364q0 23 16.5 39.5t39.5 16.5h161q23 0 42 -16t24 -38q150 -723 162 -776v774q0 23 16 39.5t39 16.5h145q23 0 39.5 -16.5t16.5 -39.5v-1364q0 -23 -16.5 -39t-39.5 -16h-153q-23 0 -43.5 15.5t-24.5 37.5l-168 746v-744q0 -23 -16 -39t-39 -16h-145 q-23 0 -39.5 16t-16.5 39z" />
<glyph unicode="o" horiz-adv-x="763" d="M37 291v883q0 137 102 239q83 80 242 80t242 -80q104 -101 104 -239v-883q0 -139 -104 -240q-80 -80 -242 -80t-242 80q-102 102 -102 240zM328 274q0 -27 17.5 -37t35.5 -10q11 0 22 3t22 14t11 30v916q0 45 -55 45q-53 0 -53 -45v-916z" />
<glyph unicode="p" horiz-adv-x="765" d="M55 55v1364q0 23 16.5 39.5t39.5 16.5h288q141 0 240 -99q102 -102 102 -256v-205q0 -154 -102 -256q-96 -96 -240 -96h-51v-508q0 -23 -16 -39t-39 -16h-182q-23 0 -39.5 16t-16.5 39zM348 805h51q28 0 39 14.5t11 46.5v303q0 33 -11 48.5t-39 15.5h-51v-428z" />
<glyph unicode="q" horiz-adv-x="788" d="M41 293v878q0 140 102 242q83 80 238 80q157 0 237 -80q105 -102 105 -242v-878q0 -69 -41 -123h-1h-1h1h1h1h1h1h1h1h1h1h1h1h1h1h1h1h1h1h1h1h1h9q17 0 27 -7t11 -15l1 -7v-121q0 -12 -3 -21t-10 -13t-12 -7t-16 -2.5t-15 1t-16 2.5l-12 2q-79 20 -107 55 q-106 -66 -176 -66q-155 0 -238 80q-102 105 -102 242zM332 276q0 -47 49 -47q5 0 10 2.5t8 4.5t4 2q12 10 10.5 25t-8 26t-13.5 27.5t-7 29.5h47v842q0 47 -51 47q-49 0 -49 -47v-912z" />
<glyph unicode="r" horiz-adv-x="784" d="M55 55v1364q0 23 16.5 39.5t39.5 16.5h286q141 0 240 -99q102 -102 102 -256v-188q0 -123 -102 -240q102 -79 102 -239v-375q0 -9 3 -22q2 -14 4 -22q1 -3 1 -7q1 -5 -1 -11q-2 -8 -15 -12t-37 -4h-221q-10 0 -17 21.5t-7 52.5v444q0 62 -52 62h-51v-478v-47 q0 -23 -16 -39t-39 -16h-180q-23 0 -39.5 16t-16.5 39zM346 821h51q28 0 40 15t12 47v286q0 64 -52 64h-51v-412z" />
<glyph unicode="s" horiz-adv-x="751" d="M37 293v180q0 23 16 39t39 16h172q23 0 39 -16t16 -39v-194q0 -19 11.5 -30t21.5 -13.5t19 -2.5q8 0 17.5 2.5t20.5 13.5t11 30v180q0 16 -2.5 28t-4 19.5t-12 20t-15 17t-24.5 23.5t-30 29l-213 192q-43 43 -62.5 88.5t-19.5 110.5v184q0 141 104 242q83 80 232 80 q146 0 229 -80q105 -102 105 -242v-157q0 -23 -16.5 -39.5t-39.5 -16.5h-176q-23 0 -39 16.5t-16 39.5v172q0 26 -14 36.5t-29 10.5q-18 0 -31.5 -10t-13.5 -35v-172q0 -25 8 -44t16.5 -28.5t30.5 -28.5t33 -30l217 -187q48 -48 63 -96t15 -137v-172q0 -138 -105 -240 q-82 -82 -239 -82q-148 0 -230 82q-104 101 -104 240z" />
<glyph unicode="t" horiz-adv-x="729" d="M23 1284v135q0 23 16 39.5t39 16.5h573q23 0 39.5 -16.5t16.5 -39.5v-135q0 -23 -16.5 -39t-39.5 -16h-139v-1174q0 -23 -16 -39t-39 -16h-185q-23 0 -39 16t-16 39v1174h-139q-23 0 -39 16t-16 39z" />
<glyph unicode="u" horiz-adv-x="757" d="M37 299v1118q0 23 16 39.5t39 16.5h178q23 0 39.5 -16.5t16.5 -39.5v-1143q0 -45 53 -45t53 45v1143q0 23 16 39.5t39 16.5h179q23 0 39 -16.5t16 -39.5v-1118q0 -145 -103 -248q-83 -80 -239 -80q-160 0 -240 80q-102 102 -102 248z" />
<glyph unicode="v" horiz-adv-x="837" d="M31 1419q-1 4 -1 8q0 17 12 31q14 16 36 17h190q23 0 41 -16.5t21 -39.5q82 -864 88 -919q6 55 90 919q3 23 20.5 39.5t40.5 16.5h191q22 -1 36 -17q11 -14 12 -31q0 -4 -1 -8l-225 -1364q-3 -23 -22 -39t-42 -16h-199q-23 0 -41.5 16t-21.5 39z" />
<glyph unicode="w" horiz-adv-x="1222" d="M33 1419q-1 4 -1 8q0 17 12 31q14 16 36 17h158q23 0 40.5 -16.5t20.5 -39.5q82 -825 88 -880l92 880q3 23 21 39.5t41 16.5h141q23 0 40.5 -16.5t20.5 -39.5l93 -880q6 55 88 880q3 23 20.5 39.5t40.5 16.5h158q23 -1 37 -17q11 -14 11 -31q0 -4 -1 -8l-209 -1364 q-3 -23 -21.5 -39t-41.5 -16h-156q-23 0 -42 16t-22 39l-86 639q-8 -55 -88 -639q-3 -23 -21.5 -39t-41.5 -16h-156q-23 0 -41.5 16t-21.5 39z" />
<glyph unicode="x" d="M43 53l231 721l-200 647q-8 22 4 38t35 16h192q23 0 42 -16.5t22 -39.5l55 -368l55 368q3 23 22 39.5t42 16.5h192q23 0 34 -16t5 -38l-205 -647l224 -721q2 -8 2 -15q0 -12 -7 -22q-11 -16 -34 -16h-191q-23 0 -42.5 15.5t-24.5 37.5l-76 377l-80 -377 q-6 -22 -25.5 -37.5t-42.5 -15.5h-190q-23 0 -34 16q-7 10 -7 22q0 7 2 15z" />
<glyph unicode="y" horiz-adv-x="888" d="M37 1421q-2 8 -2 15q0 13 7 23q11 16 34 16h176q23 0 43.5 -16t26.5 -38l122 -438l123 438q6 22 26.5 38t43.5 16h176q23 0 34 -16q7 -10 7 -23q0 -7 -2 -15l-266 -811v-555q0 -23 -16.5 -39t-39.5 -16h-174q-23 0 -39 16t-16 39v559z" />
<glyph unicode="z" horiz-adv-x="700" d="M31 55v138l297 999h-230q-23 0 -39 16t-16 39v172q0 23 16 39.5t39 16.5h512q23 0 39.5 -16.5t16.5 -39.5v-131l-312 -1020h260q23 0 39.5 -16t16.5 -39v-158q0 -23 -16.5 -39t-39.5 -16h-528q-23 0 -39 16t-16 39z" />
<glyph unicode="|" horiz-adv-x="225" d="M31 -219v1900q0 6 5 11.5t11 5.5h131q6 0 11.5 -5.5t5.5 -11.5v-1900q0 -6 -5.5 -11.5t-11.5 -5.5h-131q-6 0 -11 5.5t-5 11.5z" />
<glyph unicode="&#xa1;" horiz-adv-x="342" d="M47 612q0 51 37 88t88 37q52 0 88.5 -37t36.5 -88q0 -53 -36.5 -90t-88.5 -37q-51 0 -88 37.5t-37 89.5zM63 362q0 6 5.5 11.5t11.5 5.5h190q6 0 11.5 -5.5t5.5 -11.5v-1097q0 -6 -5.5 -11.5t-11.5 -5.5h-190q-6 0 -11.5 5.5t-5.5 11.5v1097z" />
<glyph unicode="&#xa2;" horiz-adv-x="757" d="M41 293v878q0 141 104 242q57 57 156 74v104q0 23 16 39.5t39 16.5h54q23 0 39 -16.5t16 -39.5v-104q99 -17 156 -74q104 -101 104 -242v-243q0 -23 -16 -39.5t-39 -16.5h-181q-23 0 -39 16.5t-16 39.5v260q0 47 -51 47t-51 -47v-912q0 -47 51 -47t51 47v250 q0 23 16 39.5t39 16.5h181q23 0 39 -16.5t16 -39.5v-233q0 -138 -104 -242q-57 -57 -156 -74v-108q0 -23 -16 -39t-39 -16h-54q-23 0 -39 16t-16 39v108q-99 17 -156 74q-104 104 -104 242z" />
<glyph unicode="&#xa3;" horiz-adv-x="755" d="M23 629v53q0 23 16 39t39 16h78q-19 75 -51.5 177t-52 166.5t-19.5 90.5q0 103 13.5 142t70.5 94q86 86 258 86q154 0 237 -80q105 -102 105 -242v-75q0 -23 -16 -39.5t-39 -16.5h-181q-23 0 -39 16.5t-16 39.5v92q0 47 -51 47t-51 -47q0 -7 20 -71.5t49.5 -174 t48.5 -205.5h205q23 0 39 -16t16 -39v-53q0 -23 -16 -39.5t-39 -16.5h-180q8 -106 -8.5 -187t-61.5 -112h254q23 0 39.5 -16t16.5 -39l20 -164q0 -23 -16 -39t-39 -16h-578q-23 0 -39 16t-16 39l20 168q0 23 16.5 39.5t39.5 16.5h10q26 3 44 15t26.5 32.5t12 44t1 57 t-6.5 63.5t-10 70q-1 8 -2 12h-112q-23 0 -39 16.5t-16 39.5z" />
<glyph unicode="&#xa5;" horiz-adv-x="890" d="M37 1421q-6 22 5 38t34 16h176q23 0 43.5 -16t26.5 -38l122 -438l123 438q6 22 26.5 38t43.5 16h176q23 0 34 -16t5 -38l-217 -663h113q23 0 39 -16.5t16 -39.5v-53q0 -23 -16 -39t-39 -16h-162v-111h162q23 0 39 -16t16 -39v-53q0 -23 -16 -39.5t-39 -16.5h-162v-264 q0 -23 -16.5 -39t-39.5 -16h-174q-23 0 -39 16t-16 39v264h-160q-23 0 -39 16.5t-16 39.5v53q0 23 16 39t39 16h160v111h-160q-23 0 -39 16t-16 39v53q0 23 16 39.5t39 16.5h113z" />
<glyph unicode="&#xa8;" horiz-adv-x="495" d="M29 1655q0 37 26.5 63.5t63.5 26.5t63.5 -26.5t26.5 -63.5t-26.5 -63.5t-63.5 -26.5t-63.5 26.5t-26.5 63.5zM287 1655q0 37 26.5 63.5t63.5 26.5t63.5 -26.5t26.5 -63.5t-26.5 -63.5t-63.5 -26.5t-63.5 26.5t-26.5 63.5z" />
<glyph unicode="&#xa9;" horiz-adv-x="1370" d="M43 737q0 133 46.5 252.5t135.5 212.5q183 189 459 189t459 -189q89 -94 136.5 -213.5t47.5 -251.5t-47.5 -252.5t-136.5 -212.5q-90 -93 -208 -141.5t-251 -48.5t-251 48.5t-208 141.5q-89 92 -135.5 212t-46.5 253zM195 737q0 -214 142 -363t347 -149t348.5 149 t143.5 363q0 140 -65.5 257.5t-178.5 185t-248 67.5q-205 0 -347 -148t-142 -362zM463 504v457q0 72 55 124q43 43 166 43q126 0 166 -43q55 -52 55 -124v-156h-151v164q0 15 -18 19.5t-52 4.5q-70 0 -70 -24v-473q0 -25 70 -25t70 25v157h151v-149q0 -70 -55 -125 q-40 -43 -166 -43q-123 0 -166 43q-55 55 -55 125z" />
<glyph unicode="&#xad;" horiz-adv-x="479" d="M25 649v152q0 6 5 11t11 5h397q6 0 11.5 -5t5.5 -11v-152q0 -6 -5.5 -11t-11.5 -5h-397q-6 0 -11 5t-5 11z" />
<glyph unicode="&#xae;" horiz-adv-x="1370" d="M43 737q0 132 47.5 251.5t136.5 213.5q88 93 206.5 141t250.5 48q134 0 252.5 -48t206.5 -141q89 -94 136.5 -213.5t47.5 -251.5t-47.5 -252.5t-136.5 -212.5q-88 -93 -207 -141.5t-252 -48.5q-132 0 -250.5 48.5t-206.5 141.5q-89 92 -136.5 212.5t-47.5 252.5zM195 737 q0 -214 142 -363t347 -149q136 0 249 68t178 186t65 258t-65 257.5t-178 185t-249 67.5q-205 0 -347 -148t-142 -362zM481 354v267v499h217q66 0 103 -12.5t63 -38.5q49 -46 49 -133v-98q0 -43 -11.5 -68.5t-37.5 -54.5q49 -41 49 -125v-195v-6q0 -1 7 -29l2 -2q0 -4 -4 -4 h-23h-115q-14 0 -14 37v232q0 14 -2 19t-17 9t-49 4h-69v-301h-148zM629 780h69q33 0 48 4t17.5 9.5t2.5 19.5v150q0 12 -3 17.5t-18 10t-47 4.5h-69v-215z" />
<glyph unicode="&#xaf;" horiz-adv-x="573" d="M31 1624v90q0 6 5 11.5t11 5.5h479q6 0 11.5 -5.5t5.5 -11.5v-90q0 -6 -5.5 -11t-11.5 -5h-479q-6 0 -11 5t-5 11z" />
<glyph unicode="&#xb0;" horiz-adv-x="444" d="M25 1309q0 83 57 138.5t139 55.5q84 0 141.5 -55.5t57.5 -138.5q0 -82 -58 -137.5t-141 -55.5q-82 0 -139 56t-57 137zM131 1309q0 -37 26.5 -63.5t63.5 -26.5q38 0 65 26.5t27 63.5q0 38 -27 65t-65 27q-37 0 -63.5 -27t-26.5 -65z" />
<glyph unicode="&#xb4;" horiz-adv-x="327" d="M33 1561l49 215q1 6 7.5 11t12.5 5h168q6 0 9 -4t0 -10l-132 -219q-7 -15 -24 -15h-78q-15 0 -12 17z" />
<glyph unicode="&#xb8;" horiz-adv-x="319" d="M39 -268q10 35 12 43q9 25 39 18q33 -8 55 -8q39 0 43 29q0 14 -6 18q-15 18 -76 18q-42 0 -49 17q-2 7 -4.5 13.5t-3.5 8.5q-5 6 -2 14.5t19 24.5l127 129l59 -73l-64 -52l15 -6q35 -14 53 -32q37 -40 31 -93q-7 -60 -49 -88q-40 -28 -117 -22q-28 2 -60 12 q-30 5 -22 29z" />
<glyph unicode="&#xbf;" horiz-adv-x="512" d="M-92 -399q0 67 21.5 128t55.5 112t70 101t71.5 117.5t53.5 139.5l17 166q4 16 18 16h197q6 0 11 -5t5 -11l-12 -168q-17 -90 -52 -167t-72 -129.5t-72.5 -102.5t-58 -108.5t-22.5 -125.5v-33v-4q0 -40 26.5 -68t65.5 -28q44 0 71.5 26.5t27.5 69.5v39v39v45q0 6 5 11 t11 5h201q6 0 11 -5t5 -11v-45v-39v-17q0 -135 -104 -239q-78 -78 -230 -78q-79 0 -132.5 18.5t-96.5 59.5q-92 92 -92 231v60zM184 614q0 51 37 88t88 37q52 0 88.5 -37t36.5 -88q0 -53 -36.5 -90t-88.5 -37q-51 0 -88 37.5t-37 89.5z" />
<glyph unicode="&#xc0;" d="M33 55l227 1364q3 23 22.5 39.5t41.5 16.5h92h2h92q23 0 41.5 -16.5t23.5 -39.5l228 -1364q3 -23 -10.5 -39t-36.5 -16h-191q-20 0 -37.5 13.5t-21.5 33.5l-14 174h-148l-14 -174q-6 -20 -23 -33.5t-39 -13.5h-190q-22 0 -35.5 16t-9.5 39zM217 1778q-7 14 8 14h168 q6 0 13 -5t8 -11l47 -215q3 -17 -12 -17h-78q-17 0 -25 15zM365 440h106l-53 578z" />
<glyph unicode="&#xc1;" d="M33 55l227 1364q3 23 22.5 39.5t41.5 16.5h92h2h92q23 0 41.5 -16.5t23.5 -39.5l228 -1364q3 -23 -10.5 -39t-36.5 -16h-191q-20 0 -37.5 13.5t-21.5 33.5l-14 174h-148l-14 -174q-6 -20 -23 -33.5t-39 -13.5h-190q-22 0 -35.5 16t-9.5 39zM365 440h106l-53 578z M377 1561l49 215q2 6 8 11t12 5h168q6 0 9 -4t0 -10l-131 -219q-8 -15 -25 -15h-78q-15 0 -12 17z" />
<glyph unicode="&#xc2;" d="M33 55l227 1364q3 23 22.5 39.5t41.5 16.5h92h2h92q23 0 41.5 -16.5t23.5 -39.5l228 -1364q3 -23 -10.5 -39t-36.5 -16h-191q-20 0 -37.5 13.5t-21.5 33.5l-14 174h-148l-14 -174q-6 -20 -23 -33.5t-39 -13.5h-190q-22 0 -35.5 16t-9.5 39zM221 1642q-11 10 2 23l183 139 q4 4 12 4t12 -4l182 -139q12 -13 2 -23l-67 -71q-13 -13 -23 -2l-94 76q-4 5 -12 5t-12 -5l-97 -76q-10 -10 -22 2zM365 440h106l-53 578z" />
<glyph unicode="&#xc3;" d="M33 55l227 1364q3 23 22.5 39.5t41.5 16.5h92h2h92q23 0 41.5 -16.5t23.5 -39.5l228 -1364q3 -23 -10.5 -39t-36.5 -16h-191q-20 0 -37.5 13.5t-21.5 33.5l-14 174h-148l-14 -174q-6 -20 -23 -33.5t-39 -13.5h-190q-22 0 -35.5 16t-9.5 39zM203 1700l33 41q18 23 43 35 q32 16 59 16q32 0 65 -20l58 -39q28 -21 59 8q18 18 23 24q7 9 17.5 11t14.5 -2q3 -3 25 -16t33 -21q23 -15 8 -33l-41 -55q-18 -25 -45 -37q-27 -15 -57 -15q-34 0 -66 19l-61 39q-27 21 -56 -6q-12 -12 -18 -21q-13 -15 -39 -2q-13 6 -51 35q-21 14 -4 39zM365 440h106 l-53 578z" />
<glyph unicode="&#xc4;" d="M33 55l227 1364q3 23 22.5 39.5t41.5 16.5h92h2h92q23 0 41.5 -16.5t23.5 -39.5l228 -1364q3 -23 -10.5 -39t-36.5 -16h-191q-20 0 -37.5 13.5t-21.5 33.5l-14 174h-148l-14 -174q-6 -20 -23 -33.5t-39 -13.5h-190q-22 0 -35.5 16t-9.5 39zM199 1655q0 37 26.5 63.5 t63.5 26.5t63.5 -26.5t26.5 -63.5t-26.5 -63.5t-63.5 -26.5t-63.5 26.5t-26.5 63.5zM365 440h106l-53 578zM457 1655q0 37 26.5 63.5t63.5 26.5t63.5 -26.5t26.5 -63.5t-26.5 -63.5t-63.5 -26.5t-63.5 26.5t-26.5 63.5z" />
<glyph unicode="&#xc5;" d="M33 55l227 1364q3 23 22.5 39.5t41.5 16.5h92h2h92q23 0 41.5 -16.5t23.5 -39.5l228 -1364q3 -23 -10.5 -39t-36.5 -16h-191q-20 0 -37.5 13.5t-21.5 33.5l-14 174h-148l-14 -174q-6 -20 -23 -33.5t-39 -13.5h-190q-22 0 -35.5 16t-9.5 39zM264 1686q0 63 45 107t109 44 t108.5 -44t44.5 -107q0 -62 -45 -107q-43 -43 -108 -43q-66 0 -109 43q-45 45 -45 107zM358 1686q0 -23 18.5 -40.5t41.5 -17.5t40 17.5t17 40.5q0 25 -17 42t-40 17q-25 0 -42.5 -17t-17.5 -42zM365 440h106l-53 578z" />
<glyph unicode="&#xc6;" horiz-adv-x="968" d="M35 55l229 1364q3 23 22 39.5t42 16.5h559q23 0 39 -16.5t16 -39.5v-135q0 -23 -16 -39t-39 -16h-164v-398h96q23 0 39 -16t16 -39v-102q0 -23 -16 -39.5t-39 -16.5h-96v-362h164q23 0 39 -16t16 -39v-146q0 -23 -16 -39t-39 -16h-379q-23 0 -39 16t-16 39v166h-101 l-16 -166q-3 -23 -21 -39t-41 -16h-192q-23 0 -36.5 16t-10.5 39zM375 440h78v785z" />
<glyph unicode="&#xc7;" horiz-adv-x="753" d="M41 293v878q0 141 104 242q80 80 238 80t238 -80q104 -101 104 -242v-243q0 -23 -16 -39.5t-39 -16.5h-181q-23 0 -39 16.5t-16 39.5v260q0 47 -51 47t-51 -47v-912q0 -47 51 -47t51 47v250q0 23 16 39.5t39 16.5h181q23 0 39 -16.5t16 -39.5v-233q0 -138 -104 -242 q-65 -65 -179 -78l-53 -41l14 -6q37 -15 54 -32q36 -39 30 -93q-7 -60 -49 -88q-22 -17 -46.5 -21t-69.5 -1q-28 2 -60 12q-28 6 -20 29q0 2 4 18t8 25q6 26 37 18q33 -8 55 -8q43 0 43 29q4 11 -6 18q-15 18 -76 18q-44 0 -47 17q-2 7 -4.5 13.5t-3.5 8.5q-4 6 -2 14.5 t16 24.5l47 47q-105 13 -168 76q-104 104 -104 242z" />
<glyph unicode="&#xc8;" horiz-adv-x="657" d="M55 55v1364q0 23 16.5 39.5t39.5 16.5h460q23 0 39.5 -16.5t16.5 -39.5v-135q0 -23 -16.5 -39t-39.5 -16h-215v-398h146q23 0 39 -16t16 -39v-102q0 -23 -16 -39.5t-39 -16.5h-146v-362h215q23 0 39.5 -16t16.5 -39v-146q0 -23 -16.5 -39t-39.5 -16h-460q-23 0 -39.5 16 t-16.5 39zM141 1778q-3 6 0 10t9 4h167q6 0 13 -5t8 -11l47 -215q3 -17 -12 -17h-78q-17 0 -25 15z" />
<glyph unicode="&#xc9;" horiz-adv-x="657" d="M55 55v1364q0 23 16.5 39.5t39.5 16.5h460q23 0 39.5 -16.5t16.5 -39.5v-135q0 -23 -16.5 -39t-39.5 -16h-215v-398h146q23 0 39 -16t16 -39v-102q0 -23 -16 -39.5t-39 -16.5h-146v-362h215q23 0 39.5 -16t16.5 -39v-146q0 -23 -16.5 -39t-39.5 -16h-460q-23 0 -39.5 16 t-16.5 39zM303 1561l49 215q1 6 8 11t13 5h168q15 0 8 -14l-131 -219q-8 -15 -25 -15h-78q-15 0 -12 17z" />
<glyph unicode="&#xca;" horiz-adv-x="657" d="M55 55v1364q0 23 16.5 39.5t39.5 16.5h460q23 0 39.5 -16.5t16.5 -39.5v-135q0 -23 -16.5 -39t-39.5 -16h-215v-398h146q23 0 39 -16t16 -39v-102q0 -23 -16 -39.5t-39 -16.5h-146v-362h215q23 0 39.5 -16t16.5 -39v-146q0 -23 -16.5 -39t-39.5 -16h-460q-23 0 -39.5 16 t-16.5 39zM143 1642q-11 10 2 23l183 139q4 4 12 4t12 -4l183 -139q13 -13 2 -23l-68 -71q-13 -13 -23 -2l-94 76q-4 5 -12 5t-12 -5l-97 -76q-10 -10 -22 2z" />
<glyph unicode="&#xcb;" horiz-adv-x="657" d="M55 55v1364q0 23 16.5 39.5t39.5 16.5h460q23 0 39.5 -16.5t16.5 -39.5v-135q0 -23 -16.5 -39t-39.5 -16h-215v-398h146q23 0 39 -16t16 -39v-102q0 -23 -16 -39.5t-39 -16.5h-146v-362h215q23 0 39.5 -16t16.5 -39v-146q0 -23 -16.5 -39t-39.5 -16h-460q-23 0 -39.5 16 t-16.5 39zM121 1655q0 37 26.5 63.5t63.5 26.5t63.5 -26.5t26.5 -63.5t-26.5 -63.5t-63.5 -26.5t-63.5 26.5t-26.5 63.5zM379 1655q0 37 26.5 63.5t63.5 26.5t63.5 -26.5t26.5 -63.5t-26.5 -63.5t-63.5 -26.5t-63.5 26.5t-26.5 63.5z" />
<glyph unicode="&#xcc;" horiz-adv-x="430" d="M12 1778q-7 14 8 14h168q6 0 13 -5t8 -11l47 -215q3 -17 -12 -17h-78q-6 0 -14 4.5t-11 10.5zM68 55v1364q0 23 16 39.5t39 16.5h180q23 0 39 -16.5t16 -39.5v-1364q0 -23 -16 -39t-39 -16h-180q-23 0 -39 16t-16 39z" />
<glyph unicode="&#xcd;" horiz-adv-x="438" d="M72 55q0 -23 16 -39t39 -16h180q23 0 39 16t16 39v1364q0 23 -16 39.5t-39 16.5h-180q-23 0 -39 -16.5t-16 -39.5v-1364zM172 1561l49 215q1 6 8 11t13 5h168q15 0 8 -14l-131 -219q-3 -6 -11 -10.5t-14 -4.5h-78q-15 0 -12 17z" />
<glyph unicode="&#xce;" horiz-adv-x="466" d="M37 1642q-11 10 2 23l182 139q5 4 13 4t12 -4l182 -139q12 -13 2 -23l-68 -71q-12 -12 -22 -2l-94 76q-4 5 -12 5t-13 -5l-96 -76q-11 -11 -23 2zM88 55v1364q0 23 16 39.5t39 16.5h181q23 0 39 -16.5t16 -39.5v-1364q0 -23 -16 -39t-39 -16h-181q-23 0 -39 16t-16 39z " />
<glyph unicode="&#xcf;" horiz-adv-x="471" d="M16 1655q0 37 26.5 63.5t63.5 26.5t64 -26.5t27 -63.5t-27 -63.5t-64 -26.5t-63.5 26.5t-26.5 63.5zM90 55q0 -23 16 -39t39 -16h181q23 0 39 16t16 39v1364q0 23 -16 39.5t-39 16.5h-181q-23 0 -39 -16.5t-16 -39.5v-1364zM274 1655q0 37 27 63.5t64 26.5t63.5 -26.5 t26.5 -63.5t-26.5 -63.5t-63.5 -26.5t-64 26.5t-27 63.5z" />
<glyph unicode="&#xd0;" horiz-adv-x="802" d="M12 698v54q0 23 16.5 39t39.5 16h12v612q0 23 16 39.5t39 16.5h287q140 0 240 -97q104 -104 104 -258v-766q0 -154 -104 -258q-99 -96 -240 -96h-287q-23 0 -39 16t-16 39v588h-12q-23 0 -39.5 16t-16.5 39zM373 242h49q51 0 51 63v864q0 64 -51 64h-49v-426q19 0 34 -16 t15 -39v-54q0 -23 -15 -39t-34 -16v-401z" />
<glyph unicode="&#xd1;" horiz-adv-x="811" d="M55 55v1364q0 23 16.5 39.5t39.5 16.5h161q23 0 42 -16t24 -38q150 -723 162 -776v774q0 23 16 39.5t39 16.5h145q23 0 39.5 -16.5t16.5 -39.5v-1364q0 -23 -16.5 -39t-39.5 -16h-153q-23 0 -43.5 15.5t-24.5 37.5l-168 746v-744q0 -23 -16 -39t-39 -16h-145 q-23 0 -39.5 16t-16.5 39zM182 1700l33 41q18 23 43 35q32 16 59 16q33 0 66 -20l57 -39q29 -21 60 8q12 12 22 24q7 9 18 11t15 -2q4 -3 25 -16t32 -21q24 -15 9 -33l-41 -55q-18 -25 -45 -37q-27 -15 -58 -15q-33 0 -65 19l-62 39q-26 21 -55 -6q-15 -15 -19 -21 q-12 -15 -38 -2q-16 8 -52 35q-21 14 -4 39z" />
<glyph unicode="&#xd2;" horiz-adv-x="763" d="M37 291v883q0 137 102 239q83 80 242 80t242 -80q104 -101 104 -239v-883q0 -139 -104 -240q-80 -80 -242 -80t-242 80q-102 102 -102 240zM182 1778q-7 14 8 14h168q6 0 13 -5t8 -11l47 -215q3 -17 -12 -17h-78q-6 0 -14 4.5t-11 10.5zM328 274q0 -27 17.5 -37t35.5 -10 q11 0 22 3t22 14t11 30v916q0 45 -55 45q-53 0 -53 -45v-916z" />
<glyph unicode="&#xd3;" horiz-adv-x="763" d="M37 291v883q0 137 102 239q83 80 242 80t242 -80q104 -101 104 -239v-883q0 -139 -104 -240q-80 -80 -242 -80t-242 80q-102 102 -102 240zM328 274q0 -27 17.5 -37t35.5 -10q11 0 22 3t22 14t11 30v916q0 45 -55 45q-53 0 -53 -45v-916zM344 1561l49 215q1 6 8 11t13 5 h168q15 0 8 -14l-131 -219q-3 -6 -11 -10.5t-14 -4.5h-78q-15 0 -12 17z" />
<glyph unicode="&#xd4;" horiz-adv-x="763" d="M37 291v883q0 137 102 239q83 80 242 80t242 -80q104 -101 104 -239v-883q0 -139 -104 -240q-80 -80 -242 -80t-242 80q-102 102 -102 240zM184 1642q-10 10 2 23l183 139q5 4 12 4t12 -4l182 -139q13 -13 3 -23l-68 -71q-12 -13 -23 -2l-94 76q-5 5 -12 5t-12 -5 l-97 -76q-10 -10 -22 2zM328 274q0 -27 17.5 -37t35.5 -10q11 0 22 3t22 14t11 30v916q0 45 -55 45q-53 0 -53 -45v-916z" />
<glyph unicode="&#xd5;" horiz-adv-x="763" d="M37 291v883q0 137 102 239q83 80 242 80t242 -80q104 -101 104 -239v-883q0 -139 -104 -240q-80 -80 -242 -80t-242 80q-102 102 -102 240zM166 1700l33 41q18 23 43 35q32 16 59 16q33 0 66 -20l57 -39q28 -21 59 8q18 18 23 24q7 9 18 11t15 -2q4 -3 25 -16t32 -21 q23 -15 8 -33l-41 -55q-18 -25 -45 -37q-27 -15 -57 -15q-34 0 -66 19l-61 39q-26 21 -55 -6q-15 -15 -19 -21q-13 -15 -39 -2q-13 6 -51 35q-21 14 -4 39zM328 274q0 -27 17.5 -37t35.5 -10q11 0 22 3t22 14t11 30v916q0 45 -55 45q-53 0 -53 -45v-916z" />
<glyph unicode="&#xd6;" horiz-adv-x="763" d="M37 291v883q0 137 102 239q83 80 242 80t242 -80q104 -101 104 -239v-883q0 -139 -104 -240q-80 -80 -242 -80t-242 80q-102 102 -102 240zM162 1655q0 37 26.5 63.5t63.5 26.5t63.5 -26.5t26.5 -63.5t-26.5 -63.5t-63.5 -26.5t-63.5 26.5t-26.5 63.5zM328 274 q0 -27 17.5 -37t35.5 -10q11 0 22 3t22 14t11 30v916q0 45 -55 45q-53 0 -53 -45v-916zM420 1655q0 37 26.5 63.5t63.5 26.5t63.5 -26.5t26.5 -63.5t-26.5 -63.5t-63.5 -26.5t-63.5 26.5t-26.5 63.5z" />
<glyph unicode="&#xd7;" horiz-adv-x="555" d="M18 850q0 8 5 12l106 107q11 11 25 0l100 -103l12 -10l13 10l100 103q11 11 22 0l109 -109q11 -11 0 -22l-102 -101l-11 -12l11 -12l102 -101q10 -14 0 -24l-107 -107q-5 -5 -12 -5t-12 5l-100 103l-13 10l-12 -10l-100 -103q-12 -11 -23 0l-108 109q-11 11 0 22l102 101 l10 12l-10 12l-102 101q-5 4 -5 12z" />
<glyph unicode="&#xd8;" horiz-adv-x="811" d="M14 41l68 141v2q-19 52 -19 111v879q0 136 103 239q83 80 237 80q158 0 238 -80l12 -12l33 72q1 6 8 7.5t13 -1.5l81 -39q13 -3 9 -21l-68 -143q16 -50 16 -102v-879q0 -139 -104 -240q-79 -82 -238 -82q-155 0 -237 82l-6 6l-35 -73q-6 -12 -21 -8l-81 38q-16 8 -9 23z M354 279q0 -20 10 -31.5t19.5 -14t19.5 -2.5q52 0 52 48v413l-101 -217v-196zM354 768l101 217v203q0 47 -52 47q-49 0 -49 -47v-420z" />
<glyph unicode="&#xd9;" horiz-adv-x="757" d="M37 299v1118q0 23 16 39.5t39 16.5h178q23 0 39.5 -16.5t16.5 -39.5v-1143q0 -45 53 -45t53 45v1143q0 23 16 39.5t39 16.5h179q23 0 39 -16.5t16 -39.5v-1118q0 -145 -103 -248q-83 -80 -239 -80q-160 0 -240 80q-102 102 -102 248zM186 1778q-3 6 0 10t9 4h167 q6 0 13 -5t8 -11l47 -215q3 -17 -12 -17h-78q-6 0 -14 4.5t-11 10.5z" />
<glyph unicode="&#xda;" horiz-adv-x="757" d="M37 299v1118q0 23 16 39.5t39 16.5h178q23 0 39.5 -16.5t16.5 -39.5v-1143q0 -45 53 -45t53 45v1143q0 23 16 39.5t39 16.5h179q23 0 39 -16.5t16 -39.5v-1118q0 -145 -103 -248q-83 -80 -239 -80q-160 0 -240 80q-102 102 -102 248zM332 1561l49 215q1 6 7.5 11t12.5 5 h168q6 0 9 -4t0 -10l-132 -219q-8 -15 -24 -15h-78q-15 0 -12 17z" />
<glyph unicode="&#xdb;" horiz-adv-x="757" d="M37 299v1118q0 23 16 39.5t39 16.5h178q23 0 39.5 -16.5t16.5 -39.5v-1143q0 -45 53 -45t53 45v1143q0 23 16 39.5t39 16.5h179q23 0 39 -16.5t16 -39.5v-1118q0 -145 -103 -248q-83 -80 -239 -80q-160 0 -240 80q-102 102 -102 248zM180 1642q-10 10 2 23l183 139 q5 4 12 4t12 -4l182 -139q13 -13 2 -23l-67 -71q-12 -13 -23 -2l-94 76q-5 5 -12 5t-12 -5l-97 -76q-10 -10 -22 2z" />
<glyph unicode="&#xdc;" horiz-adv-x="757" d="M37 299v1118q0 23 16 39.5t39 16.5h178q23 0 39.5 -16.5t16.5 -39.5v-1143q0 -45 53 -45t53 45v1143q0 23 16 39.5t39 16.5h179q23 0 39 -16.5t16 -39.5v-1118q0 -145 -103 -248q-83 -80 -239 -80q-160 0 -240 80q-102 102 -102 248zM158 1655q0 37 26.5 63.5t63.5 26.5 t63.5 -26.5t26.5 -63.5t-26.5 -63.5t-63.5 -26.5t-63.5 26.5t-26.5 63.5zM416 1655q0 37 26.5 63.5t63.5 26.5t63.5 -26.5t26.5 -63.5t-26.5 -63.5t-63.5 -26.5t-63.5 26.5t-26.5 63.5z" />
<glyph unicode="&#xdd;" horiz-adv-x="888" d="M37 1421q-6 22 5 38t34 16h176q23 0 43.5 -16t26.5 -38l122 -438l123 438q6 22 26.5 38t43.5 16h176q23 0 34 -16t5 -38l-266 -811v-555q0 -23 -16.5 -39t-39.5 -16h-174q-23 0 -39 16t-16 39v559zM399 1561l50 215q1 6 7.5 11t12.5 5h168q15 0 8 -14l-131 -219 q-8 -15 -25 -15h-77q-6 0 -10 5t-3 12z" />
<glyph unicode="&#xde;" horiz-adv-x="765" d="M55 55v1364q0 23 16.5 39.5t39.5 16.5h182q23 0 39 -16.5t16 -39.5v-223h51q141 0 240 -96q102 -102 102 -258v-203q0 -153 -102 -258q-99 -96 -240 -96h-51v-230q0 -23 -16 -39t-39 -16h-182q-23 0 -39.5 16t-16.5 39zM348 526h51q28 0 39 15t11 49v301q0 34 -11 48.5 t-39 14.5h-51v-428z" />
<glyph unicode="&#xdf;" horiz-adv-x="815" d="M55 57v1082q0 153 103 256q46 46 114.5 72t137.5 26h2q69 0 137.5 -26t114.5 -72q102 -102 102 -256v-158q0 -129 -74 -221q90 -101 90 -244v-162q0 -57 -14 -106q-26 -93 -88 -152q-46 -45 -114.5 -70.5t-137.5 -25.5h-2v242h2q25 0 37 6q24 13 24 57v309q0 42 -11.5 53 t-57.5 11v143q39 0 46 8.5t7 53.5v305q0 61 -61 61h-2q-29 0 -45.5 -15.5t-16.5 -45.5v-1131q0 -23 -16 -39t-39 -16h-182q-23 0 -39.5 16t-16.5 39z" />
<glyph unicode="&#xe0;" d="M23 0l245 1475h299l246 -1475h-305l-23 221h-135l-22 -221h-305zM217 1778q-7 14 8 14h168q6 0 13 -5t8 -11l47 -215q3 -17 -12 -17h-78q-17 0 -25 15zM371 440h94l-47 586z" />
<glyph unicode="&#xe1;" d="M23 0h305l22 221h135l23 -221h305l-246 1475h-299zM371 440l47 586l47 -586h-94zM377 1561l49 215q2 6 8 11t12 5h168q6 0 9 -4t0 -10l-131 -219q-8 -15 -25 -15h-78q-15 0 -12 17z" />
<glyph unicode="&#xe2;" d="M23 0l245 1475h299l246 -1475h-305l-23 221h-135l-22 -221h-305zM221 1642q-11 10 2 23l183 139q4 4 12 4t12 -4l182 -139q12 -13 2 -23l-67 -71q-13 -13 -23 -2l-94 76q-4 5 -12 5t-12 -5l-97 -76q-10 -10 -22 2zM371 440h94l-47 586z" />
<glyph unicode="&#xe3;" d="M23 0h305l22 221h135l23 -221h305l-246 1475h-299zM203 1700l33 41q18 23 43 35q32 16 59 16q32 0 65 -20l58 -39q28 -21 59 8q18 18 23 24q7 9 17.5 11t14.5 -2q3 -3 25 -16t33 -21q23 -15 8 -33l-41 -55q-18 -25 -45 -37q-27 -15 -57 -15q-34 0 -66 19l-61 39 q-27 21 -56 -6q-12 -12 -18 -21q-13 -15 -39 -2q-13 6 -51 35q-21 14 -4 39zM371 440l47 586l47 -586h-94z" />
<glyph unicode="&#xe4;" d="M23 0h305l22 221h135l23 -221h305l-246 1475h-299zM199 1655q0 37 26.5 63.5t63.5 26.5t63.5 -26.5t26.5 -63.5t-26.5 -63.5t-63.5 -26.5t-63.5 26.5t-26.5 63.5zM371 440l47 586l47 -586h-94zM457 1655q0 37 26.5 63.5t63.5 26.5t63.5 -26.5t26.5 -63.5t-26.5 -63.5 t-63.5 -26.5t-63.5 26.5t-26.5 63.5z" />
<glyph unicode="&#xe5;" d="M23 0l245 1475h299l246 -1475h-305l-23 221h-135l-22 -221h-305zM264 1686q0 63 45 107t109 44t108.5 -44t44.5 -107q0 -62 -45 -107q-43 -43 -108 -43q-66 0 -109 43q-45 45 -45 107zM358 1686q0 -23 18.5 -40.5t41.5 -17.5t40 17.5t17 40.5q0 25 -17 42t-40 17 q-25 0 -42.5 -17t-17.5 -42zM371 440h94l-47 586z" />
<glyph unicode="&#xe6;" horiz-adv-x="968" d="M35 55l229 1364q3 23 22 39.5t42 16.5h559q23 0 39 -16.5t16 -39.5v-135q0 -23 -16 -39t-39 -16h-164v-398h96q23 0 39 -16t16 -39v-102q0 -23 -16 -39.5t-39 -16.5h-96v-362h164q23 0 39 -16t16 -39v-146q0 -23 -16 -39t-39 -16h-379q-23 0 -39 16t-16 39v166h-101 l-16 -166q-3 -23 -21 -39t-41 -16h-192q-23 0 -36.5 16t-10.5 39zM375 440h78v785z" />
<glyph unicode="&#xe7;" horiz-adv-x="753" d="M41 293v878q0 141 104 242q80 80 238 80t238 -80q104 -101 104 -242v-243q0 -23 -16 -39.5t-39 -16.5h-181q-23 0 -39 16.5t-16 39.5v260q0 47 -51 47t-51 -47v-912q0 -47 51 -47t51 47v250q0 23 16 39.5t39 16.5h181q23 0 39 -16.5t16 -39.5v-233q0 -138 -104 -242 q-65 -65 -179 -78l-53 -41l14 -6q37 -15 54 -32q36 -39 30 -93q-7 -60 -49 -88q-22 -17 -46.5 -21t-69.5 -1q-28 2 -60 12q-28 6 -20 29q0 2 4 18t8 25q6 26 37 18q33 -8 55 -8q43 0 43 29q4 11 -6 18q-15 18 -76 18q-44 0 -47 17q-2 7 -4.5 13.5t-3.5 8.5q-4 6 -2 14.5 t16 24.5l47 47q-105 13 -168 76q-104 104 -104 242z" />
<glyph unicode="&#xe8;" horiz-adv-x="657" d="M55 0v1475h572v-246h-271v-398h201v-213h-201v-362h271v-256h-572zM141 1778q-3 6 0 10t9 4h167q6 0 13 -5t8 -11l47 -215q3 -17 -12 -17h-78q-17 0 -25 15z" />
<glyph unicode="&#xe9;" horiz-adv-x="657" d="M55 0h572v256h-271v362h201v213h-201v398h271v246h-572v-1475zM303 1561l49 215q1 6 8 11t13 5h168q15 0 8 -14l-131 -219q-8 -15 -25 -15h-78q-15 0 -12 17z" />
<glyph unicode="&#xea;" horiz-adv-x="657" d="M55 0v1475h572v-246h-271v-398h201v-213h-201v-362h271v-256h-572zM143 1642q-11 10 2 23l183 139q4 4 12 4t12 -4l183 -139q13 -13 2 -23l-68 -71q-13 -13 -23 -2l-94 76q-4 5 -12 5t-12 -5l-97 -76q-10 -10 -22 2z" />
<glyph unicode="&#xeb;" horiz-adv-x="657" d="M55 0h572v256h-271v362h201v213h-201v398h271v246h-572v-1475zM121 1655q0 37 26.5 63.5t63.5 26.5t63.5 -26.5t26.5 -63.5t-26.5 -63.5t-63.5 -26.5t-63.5 26.5t-26.5 63.5zM379 1655q0 37 26.5 63.5t63.5 26.5t63.5 -26.5t26.5 -63.5t-26.5 -63.5t-63.5 -26.5 t-63.5 26.5t-26.5 63.5z" />
<glyph unicode="&#xec;" horiz-adv-x="430" d="M12 1778q-7 14 8 14h168q6 0 13 -5t8 -11l47 -215q3 -17 -12 -17h-78q-6 0 -14 4.5t-11 10.5zM68 0v1475h290v-1475h-290z" />
<glyph unicode="&#xed;" horiz-adv-x="438" d="M72 0h290v1475h-290v-1475zM172 1561l49 215q1 6 8 11t13 5h168q15 0 8 -14l-131 -219q-3 -6 -11 -10.5t-14 -4.5h-78q-15 0 -12 17z" />
<glyph unicode="&#xee;" horiz-adv-x="466" d="M37 1642q-11 10 2 23l182 139q5 4 13 4t12 -4l182 -139q12 -13 2 -23l-68 -71q-12 -12 -22 -2l-94 76q-4 5 -12 5t-13 -5l-96 -76q-11 -11 -23 2zM88 0v1475h291v-1475h-291z" />
<glyph unicode="&#xef;" horiz-adv-x="471" d="M16 1655q0 37 26.5 63.5t63.5 26.5t64 -26.5t27 -63.5t-27 -63.5t-64 -26.5t-63.5 26.5t-26.5 63.5zM90 0h291v1475h-291v-1475zM274 1655q0 37 27 63.5t64 26.5t63.5 -26.5t26.5 -63.5t-26.5 -63.5t-63.5 -26.5t-64 26.5t-27 63.5z" />
<glyph unicode="&#xf0;" horiz-adv-x="802" d="M12 698v54q0 23 16.5 39t39.5 16h12v612q0 23 16 39.5t39 16.5h287q140 0 240 -97q104 -104 104 -258v-766q0 -154 -104 -258q-99 -96 -240 -96h-287q-23 0 -39 16t-16 39v588h-12q-23 0 -39.5 16t-16.5 39zM373 242h49q51 0 51 63v864q0 64 -51 64h-49v-426q19 0 34 -16 t15 -39v-54q0 -23 -15 -39t-34 -16v-401z" />
<glyph unicode="&#xf1;" horiz-adv-x="811" d="M55 0h256v721l181 -721h264v1475h-256v-703l-172 703h-273v-1475zM182 1700l33 41q18 23 43 35q32 16 59 16q33 0 66 -20l57 -39q29 -21 60 8q12 12 22 24q7 9 18 11t15 -2q4 -3 25 -16t32 -21q24 -15 9 -33l-41 -55q-18 -25 -45 -37q-27 -15 -58 -15q-33 0 -65 19 l-62 39q-26 21 -55 -6q-15 -15 -19 -21q-12 -15 -38 -2q-16 8 -52 35q-21 14 -4 39z" />
<glyph unicode="&#xf2;" horiz-adv-x="763" d="M41 291v893q0 137 102 239q83 80 238 80q154 0 237 -80q105 -102 105 -239v-893q0 -138 -105 -240q-80 -80 -237 -80q-158 0 -238 80q-102 102 -102 240zM182 1778q-7 14 8 14h168q6 0 13 -5t8 -11l47 -215q3 -17 -12 -17h-78q-6 0 -14 4.5t-11 10.5zM332 274 q0 -27 16 -37t33 -10q11 0 21 3t20 14t10 30v926q0 45 -51 45q-49 0 -49 -45v-926z" />
<glyph unicode="&#xf3;" horiz-adv-x="763" d="M41 291v893q0 137 102 239q83 80 238 80q154 0 237 -80q105 -102 105 -239v-893q0 -138 -105 -240q-80 -80 -237 -80q-158 0 -238 80q-102 102 -102 240zM332 274q0 -27 16 -37t33 -10q11 0 21 3t20 14t10 30v926q0 45 -51 45q-49 0 -49 -45v-926zM344 1561l49 215 q1 6 8 11t13 5h168q15 0 8 -14l-131 -219q-3 -6 -11 -10.5t-14 -4.5h-78q-15 0 -12 17z" />
<glyph unicode="&#xf4;" horiz-adv-x="763" d="M41 291v893q0 137 102 239q83 80 238 80q154 0 237 -80q105 -102 105 -239v-893q0 -138 -105 -240q-80 -80 -237 -80q-158 0 -238 80q-102 102 -102 240zM184 1642q-10 10 2 23l183 139q5 4 12 4t12 -4l182 -139q13 -13 3 -23l-68 -71q-12 -13 -23 -2l-94 76q-5 5 -12 5 t-12 -5l-97 -76q-10 -10 -22 2zM332 274q0 -27 16 -37t33 -10q11 0 21 3t20 14t10 30v926q0 45 -51 45q-49 0 -49 -45v-926z" />
<glyph unicode="&#xf5;" horiz-adv-x="763" d="M41 291v893q0 137 102 239q83 80 238 80q154 0 237 -80q105 -102 105 -239v-893q0 -138 -105 -240q-80 -80 -237 -80q-158 0 -238 80q-102 102 -102 240zM166 1700l33 41q18 23 43 35q32 16 59 16q33 0 66 -20l57 -39q28 -21 59 8q18 18 23 24q7 9 18 11t15 -2 q4 -3 25 -16t32 -21q23 -15 8 -33l-41 -55q-18 -25 -45 -37q-27 -15 -57 -15q-34 0 -66 19l-61 39q-26 21 -55 -6q-15 -15 -19 -21q-13 -15 -39 -2q-13 6 -51 35q-21 14 -4 39zM332 274q0 -27 16 -37t33 -10q11 0 21 3t20 14t10 30v926q0 45 -51 45q-49 0 -49 -45v-926z" />
<glyph unicode="&#xf6;" horiz-adv-x="763" d="M41 291v893q0 137 102 239q83 80 238 80q154 0 237 -80q105 -102 105 -239v-893q0 -138 -105 -240q-80 -80 -237 -80q-158 0 -238 80q-102 102 -102 240zM162 1655q0 37 26.5 63.5t63.5 26.5t63.5 -26.5t26.5 -63.5t-26.5 -63.5t-63.5 -26.5t-63.5 26.5t-26.5 63.5z M332 274q0 -27 16 -37t33 -10q11 0 21 3t20 14t10 30v926q0 45 -51 45q-49 0 -49 -45v-926zM420 1655q0 37 26.5 63.5t63.5 26.5t63.5 -26.5t26.5 -63.5t-26.5 -63.5t-63.5 -26.5t-63.5 26.5t-26.5 63.5z" />
<glyph unicode="&#xf7;" horiz-adv-x="507" d="M18 649v152q0 6 5.5 11t11.5 5h438q6 0 11 -5t5 -11v-152q0 -6 -5 -11t-11 -5h-438q-6 0 -11.5 5t-5.5 11zM160 449q0 38 28 66t66 28t66 -28t28 -66q0 -39 -28 -67t-66 -28t-66 28t-28 67zM160 1001q0 38 28 66.5t66 28.5t66 -28.5t28 -66.5q0 -39 -27.5 -66.5 t-66.5 -27.5t-66.5 27.5t-27.5 66.5z" />
<glyph unicode="&#xf8;" horiz-adv-x="823" d="M14 41l68 141v2q-19 52 -19 111v879q0 136 103 239q83 80 237 80q158 0 238 -80l12 -12l33 72q1 6 8 7.5t13 -1.5l81 -39q13 -3 9 -21l-68 -143q16 -50 16 -102v-879q0 -139 -104 -240q-79 -82 -238 -82q-155 0 -237 82l-6 6l-35 -73q-6 -12 -21 -8l-81 38q-16 8 -9 23z M354 279q0 -20 10 -31.5t19.5 -14t19.5 -2.5q52 0 52 48v413l-101 -217v-196zM354 768l101 217v203q0 47 -52 47q-49 0 -49 -47v-420z" />
<glyph unicode="&#xf9;" horiz-adv-x="757" d="M41 291v1184h289v-1201q0 -45 49 -45t49 45v1201h289v-1184q0 -137 -103 -240q-83 -80 -235 -80q-156 0 -236 80q-102 102 -102 240zM186 1778q-3 6 0 10t9 4h167q6 0 13 -5t8 -11l47 -215q3 -17 -12 -17h-78q-6 0 -14 4.5t-11 10.5z" />
<glyph unicode="&#xfa;" horiz-adv-x="757" d="M41 291v1184h289v-1201q0 -45 49 -45t49 45v1201h289v-1184q0 -137 -103 -240q-83 -80 -235 -80q-156 0 -236 80q-102 102 -102 240zM332 1561l49 215q1 6 7.5 11t12.5 5h168q6 0 9 -4t0 -10l-132 -219q-8 -15 -24 -15h-78q-15 0 -12 17z" />
<glyph unicode="&#xfb;" horiz-adv-x="757" d="M41 291v1184h289v-1201q0 -45 49 -45t49 45v1201h289v-1184q0 -137 -103 -240q-83 -80 -235 -80q-156 0 -236 80q-102 102 -102 240zM180 1642q-10 10 2 23l183 139q5 4 12 4t12 -4l182 -139q13 -13 2 -23l-67 -71q-12 -13 -23 -2l-94 76q-5 5 -12 5t-12 -5l-97 -76 q-10 -10 -22 2z" />
<glyph unicode="&#xfc;" horiz-adv-x="757" d="M41 291v1184h289v-1201q0 -45 49 -45t49 45v1201h289v-1184q0 -137 -103 -240q-83 -80 -235 -80q-156 0 -236 80q-102 102 -102 240zM158 1655q0 37 26.5 63.5t63.5 26.5t63.5 -26.5t26.5 -63.5t-26.5 -63.5t-63.5 -26.5t-63.5 26.5t-26.5 63.5zM416 1655q0 37 26.5 63.5 t63.5 26.5t63.5 -26.5t26.5 -63.5t-26.5 -63.5t-63.5 -26.5t-63.5 26.5t-26.5 63.5z" />
<glyph unicode="&#xfd;" horiz-adv-x="888" d="M20 1475l281 -861v-614h285v610l282 865h-286l-138 -492l-137 492h-287zM399 1561l50 215q1 6 7.5 11t12.5 5h168q15 0 8 -14l-131 -219q-8 -15 -25 -15h-77q-6 0 -10 5t-3 12z" />
<glyph unicode="&#xfe;" horiz-adv-x="765" d="M55 55v1364q0 23 16.5 39.5t39.5 16.5h182q23 0 39 -16.5t16 -39.5v-223h51q141 0 240 -96q102 -102 102 -258v-203q0 -153 -102 -258q-99 -96 -240 -96h-51v-230q0 -23 -16 -39t-39 -16h-182q-23 0 -39.5 16t-16.5 39zM348 526h51q28 0 39 15t11 49v301q0 34 -11 48.5 t-39 14.5h-51v-428z" />
<glyph unicode="&#xff;" horiz-adv-x="888" d="M20 1475l281 -861v-614h285v610l282 865h-286l-138 -492l-137 492h-287zM225 1655q0 37 26.5 63.5t63.5 26.5t64 -26.5t27 -63.5t-27 -63.5t-64 -26.5t-63.5 26.5t-26.5 63.5zM483 1655q0 37 26.5 63.5t63.5 26.5t64 -26.5t27 -63.5t-27 -63.5t-64 -26.5t-63.5 26.5 t-26.5 63.5z" />
<glyph unicode="&#x152;" horiz-adv-x="915" d="M37 317v842q0 142 98 240q42 40 118 58t153 18h182h6h235q23 0 39.5 -16.5t16.5 -39.5v-135q0 -23 -16.5 -39t-39.5 -16h-165v-398h96q23 0 39 -16t16 -39v-102q0 -23 -16 -39.5t-39 -16.5h-96v-362h165q23 0 39.5 -16t16.5 -39v-146q0 -23 -16.5 -39t-39.5 -16h-235h-6 h-185v2q-77 0 -151.5 18t-116.5 58q-98 98 -98 239zM315 317q0 -17 5.5 -28.5t13 -17.5t21.5 -9t22.5 -3.5t25.5 -0.5v961q-20 0 -31.5 -1.5t-26.5 -6.5t-22.5 -18t-7.5 -34v-842z" />
<glyph unicode="&#x153;" horiz-adv-x="915" d="M37 317v842q0 142 98 240q42 40 118 58t153 18h182h6h235q23 0 39.5 -16.5t16.5 -39.5v-135q0 -23 -16.5 -39t-39.5 -16h-165v-398h96q23 0 39 -16t16 -39v-102q0 -23 -16 -39.5t-39 -16.5h-96v-362h165q23 0 39.5 -16t16.5 -39v-146q0 -23 -16.5 -39t-39.5 -16h-235h-6 h-185v2q-77 0 -151.5 18t-116.5 58q-98 98 -98 239zM315 317q0 -17 5.5 -28.5t13 -17.5t21.5 -9t22.5 -3.5t25.5 -0.5v961q-20 0 -31.5 -1.5t-26.5 -6.5t-22.5 -18t-7.5 -34v-842z" />
<glyph unicode="&#x178;" horiz-adv-x="888" d="M37 1421q-6 22 5 38t34 16h176q23 0 43.5 -16t26.5 -38l122 -438l123 438q6 22 26.5 38t43.5 16h176q23 0 34 -16t5 -38l-266 -811v-555q0 -23 -16.5 -39t-39.5 -16h-174q-23 0 -39 16t-16 39v559zM225 1655q0 37 26.5 63.5t63.5 26.5t64 -26.5t27 -63.5t-27 -63.5 t-64 -26.5t-63.5 26.5t-26.5 63.5zM483 1655q0 37 26.5 63.5t63.5 26.5t64 -26.5t27 -63.5t-27 -63.5t-64 -26.5t-63.5 26.5t-26.5 63.5z" />
<glyph unicode="&#x2c6;" horiz-adv-x="442" d="M25 1642q-11 10 2 23l182 139q5 4 12 4t12 -4l183 -139q12 -13 2 -23l-68 -71q-12 -12 -22 -2l-95 76q-5 5 -12 5t-12 -5l-96 -76q-11 -11 -23 2z" />
<glyph unicode="&#x2dc;" horiz-adv-x="520" d="M45 1700l33 41q18 23 43 35q32 16 59 16q33 0 66 -20l57 -39q28 -21 59 8q18 18 23 24q7 9 18 11t15 -2q4 -3 25 -16t32 -21q23 -15 8 -33l-41 -55q-18 -25 -45 -37q-27 -15 -57 -15q-34 0 -66 19l-61 39q-26 21 -55 -6q-15 -15 -19 -21q-13 -15 -39 -2q-13 6 -51 35 q-21 14 -4 39z" />
<glyph unicode="&#x2000;" horiz-adv-x="918" />
<glyph unicode="&#x2001;" horiz-adv-x="1837" />
<glyph unicode="&#x2002;" horiz-adv-x="918" />
<glyph unicode="&#x2003;" horiz-adv-x="1837" />
<glyph unicode="&#x2004;" horiz-adv-x="612" />
<glyph unicode="&#x2005;" horiz-adv-x="459" />
<glyph unicode="&#x2006;" horiz-adv-x="306" />
<glyph unicode="&#x2007;" horiz-adv-x="306" />
<glyph unicode="&#x2008;" horiz-adv-x="229" />
<glyph unicode="&#x2009;" horiz-adv-x="367" />
<glyph unicode="&#x200a;" horiz-adv-x="102" />
<glyph unicode="&#x2010;" horiz-adv-x="479" d="M25 649v152q0 6 5 11t11 5h397q6 0 11.5 -5t5.5 -11v-152q0 -6 -5.5 -11t-11.5 -5h-397q-6 0 -11 5t-5 11z" />
<glyph unicode="&#x2011;" horiz-adv-x="479" d="M25 649v152q0 6 5 11t11 5h397q6 0 11.5 -5t5.5 -11v-152q0 -6 -5.5 -11t-11.5 -5h-397q-6 0 -11 5t-5 11z" />
<glyph unicode="&#x2012;" horiz-adv-x="479" d="M25 649v152q0 6 5 11t11 5h397q6 0 11.5 -5t5.5 -11v-152q0 -6 -5.5 -11t-11.5 -5h-397q-6 0 -11 5t-5 11z" />
<glyph unicode="&#x2013;" horiz-adv-x="759" d="M31 649v152q0 6 5 11t11 5h666q6 0 11 -5t5 -11v-152q0 -6 -5 -11t-11 -5h-666q-6 0 -11 5t-5 11z" />
<glyph unicode="&#x2014;" horiz-adv-x="985" d="M31 649v152q0 6 5 11t11 5h891q6 0 11 -5t5 -11v-152q0 -6 -5 -11t-11 -5h-891q-6 0 -11 5t-5 11z" />
<glyph unicode="&#x2018;" horiz-adv-x="212" d="M29 1159v78q0 115 50 176.5t103 61.5v-48q-2 -4 -5.5 -10.5t-12 -25t-13 -34.5t-6.5 -32.5t5 -26.5t24 -10h8v-127q0 -14 -10.5 -22.5t-28.5 -8.5h-80q-34 0 -34 29z" />
<glyph unicode="&#x2019;" horiz-adv-x="215" d="M29 1130v48q2 4 5.5 10.5t12 25t13 34.5t6.5 32.5t-5 26.5t-24 10h-8v125q0 33 39 33h77q37 0 37 -29v-78q0 -115 -50 -176.5t-103 -61.5z" />
<glyph unicode="&#x201a;" horiz-adv-x="215" d="M31 55q0 14 10.5 22.5t28.5 8.5h77q37 0 37 -29v-77q0 -115 -50 -176.5t-103 -61.5v47q2 4 5.5 10.5t12 25t13 34.5t6.5 32.5t-5 26.5t-24 10h-8v127z" />
<glyph unicode="&#x201c;" horiz-adv-x="423" d="M29 1159v78q0 115 50 176.5t103 61.5v-48q-2 -4 -5.5 -10.5t-12 -25t-13 -34.5t-6.5 -32.5t5 -26.5t24 -10h8v-127q0 -14 -10.5 -22.5t-28.5 -8.5h-80q-34 0 -34 29zM225 1159v78q0 115 50.5 176.5t103.5 61.5v-48q-2 -4 -5.5 -10.5t-12 -25t-13 -34.5t-6.5 -32.5 t5 -26.5t24 -10h8v-127q0 -14 -10.5 -22.5t-28.5 -8.5h-80q-35 0 -35 29z" />
<glyph unicode="&#x201d;" horiz-adv-x="425" d="M37 1130v48q2 4 5.5 10.5t12 25t13 34.5t6.5 32.5t-5 26.5t-24 10h-8v125q0 33 39 33h78q36 0 36 -29v-78q0 -115 -50 -176.5t-103 -61.5zM233 1130v48q2 4 5.5 10.5t12 25t13 34.5t7 32.5t-4.5 26.5t-24 10h-9v125q0 33 39 33h78q37 0 37 -29v-78q0 -115 -50.5 -176.5 t-103.5 -61.5z" />
<glyph unicode="&#x201e;" horiz-adv-x="425" d="M31 55q0 14 10.5 22.5t28.5 8.5h77q37 0 37 -29v-77q0 -115 -50 -176.5t-103 -61.5v47q2 4 5.5 10.5t12 25t13 34.5t6.5 32.5t-5 26.5t-24 10h-8v127zM229 55q0 14 10 22.5t27 8.5h80q37 0 37 -29v-77q0 -115 -50.5 -176.5t-103.5 -61.5v47q2 4 5.5 10.5t12 25t13 34.5 t7 32.5t-4.5 26.5t-24 10h-9v127z" />
<glyph unicode="&#x2022;" horiz-adv-x="407" d="M25 721q0 73 52.5 125.5t125.5 52.5q75 0 127.5 -52t52.5 -126q0 -75 -52.5 -127.5t-127.5 -52.5q-74 0 -126 52.5t-52 127.5z" />
<glyph unicode="&#x2026;" horiz-adv-x="1007" d="M51 111q0 53 36.5 90t88.5 37q51 0 88 -37.5t37 -89.5q0 -51 -37 -88t-88 -37q-52 0 -88.5 37t-36.5 88zM379 111q0 53 36.5 90t88.5 37q51 0 88 -37.5t37 -89.5q0 -51 -37 -88t-88 -37q-52 0 -88.5 37t-36.5 88zM707 111q0 53 36 90t88 37q51 0 88 -37.5t37 -89.5 q0 -51 -37 -88t-88 -37q-52 0 -88 37t-36 88z" />
<glyph unicode="&#x202f;" horiz-adv-x="367" />
<glyph unicode="&#x205f;" horiz-adv-x="459" />
<glyph unicode="&#x20ac;" horiz-adv-x="862" d="M16 586v45q0 23 16.5 39t39.5 16h73v78h-73q-23 0 -39.5 16t-16.5 39v45q0 23 16.5 39.5t39.5 16.5h73v251q0 140 105 242q80 80 237 80q158 0 238 -80q104 -101 104 -242v-79q0 -23 -16 -39.5t-39 -16.5h-180q-23 0 -39 16.5t-16 39.5v96q0 47 -52 47q-51 0 -51 -47 v-268h205q23 0 39 -16.5t16 -39.5v-45q0 -23 -16 -39t-39 -16h-205v-78h205q23 0 39 -16t16 -39v-45q0 -23 -16 -39.5t-39 -16.5h-205v-254q0 -47 51 -47q52 0 52 47v86q0 23 16 39.5t39 16.5h180q23 0 39 -16.5t16 -39.5v-69q0 -138 -104 -242q-80 -80 -238 -80 q-157 0 -237 80q-105 105 -105 242v237h-73q-23 0 -39.5 16.5t-16.5 39.5z" />
<glyph unicode="&#x2122;" horiz-adv-x="569" d="M29 1397v69h215v-69h-70v-197h-76v197h-69zM276 1200v266h97l37 -161l34 161h97v-266h-66v164l-45 -164h-41l-45 164v-164h-68z" />
<glyph unicode="&#x25fc;" horiz-adv-x="1474" d="M0 0v1475h1475v-1475h-1475z" />
</font>
</defs>
</svg>
