<?xml version="1.0" standalone="no"?>
<!DOCTYPE svg PUBLIC "-//W3C//DTD SVG 1.1//EN" "http://www.w3.org/Graphics/SVG/1.1/DTD/svg11.dtd" >
<svg xmlns="http://www.w3.org/2000/svg">
<metadata></metadata>
<defs>
<font id="intrique_script_personal_usRg" horiz-adv-x="555" >
<font-face units-per-em="2048" ascent="1536" descent="-512" />
<missing-glyph horiz-adv-x="303" />
<glyph horiz-adv-x="0" />
<glyph unicode="&#xd;" horiz-adv-x="1228" />
<glyph unicode=" "  horiz-adv-x="303" />
<glyph unicode="&#x09;" horiz-adv-x="303" />
<glyph unicode="&#xa0;" horiz-adv-x="303" />
<glyph unicode="!" horiz-adv-x="294" d="M4 100q0 41 29.5 71t70.5 30t71 -30t30 -71t-30 -70.5t-71 -29.5t-70.5 29.5t-29.5 70.5zM129 338l158 614h194q-68 -164 -121 -293q-23 -55 -45 -109t-40.5 -99t-31 -75t-14.5 -38h-100z" />
<glyph unicode="&#x22;" horiz-adv-x="253" d="M90 604l113 330h164l-215 -330h-62zM295 604l113 330h163l-215 -330h-61z" />
<glyph unicode="#" horiz-adv-x="647" d="M27 174q4 18 10 35q4 14 8 28.5t4 20.5h88l66 225h-94q4 18 10 35q4 14 8 28.5t4 20.5h96l52 172h71l-51 -172h174l51 172h72l-51 -172h78l-23 -84h-80l-65 -225h86l-23 -84h-88l-51 -174h-70l49 174h-174l-51 -174h-70l50 174h-86zM209 258h174l66 225h-175z" />
<glyph unicode="$" horiz-adv-x="1847" d="M70 -193q0 17 8 23q10 10 20 10l27 4q10 0 10 6q0 16 -16 17q-10 0 -13 -6q-8 -2 -8 -11h-24q0 14 6 21q2 8 12 12q4 2 14 2q4 2 13 2q14 0 26 -4q8 -6 13 -12q2 -4 2 -14v-56q0 -10 2 -12q0 -2 4 -6v-4h-29v6q-2 2 -2 6l-8 -8q-4 -2 -6 -2t-4 -2q-4 -2 -13 -2 q-12 0 -18 2q-6 4 -10 10q-6 6 -6 18zM96 -190q0 -4 4 -9q4 -2 6.5 -4t4.5 -2q4 0 6 4h4l10 6q4 8 4 13v12q-2 0 -10 -4l-12 -2q-4 0 -13 -4q-4 -4 -4 -10zM125 565v494l268 59l-10 37l41 12l-8 39l41 8l-6 46l41 2v41h36l4 36l39 -6l9 41l43 -6l10 39l39 -10l16 37l39 -17 l23 39l34 -18l23 35l37 -25l24 33l35 -27l27 29l26 -25l27 23l27 -29l34 23l23 -37l39 20l18 -35l37 17l17 -41l43 12l12 -39l39 10l8 -43l43 4l2 -26l404 88v-496l-185 -41l4 -2l-24 -26l24 -29l-32 -27l22 -34l-37 -23l23 -37l-35 -20l14 -37l-39 -17l13 -43l-37 -12 l6 -39l-41 -8l2 -43l-39 -4v-39h-35l-6 -37l-39 2l-8 -37l-43 6l-10 -40l-39 12l-14 -39l-44 16l-18 -39l-37 21l-22 -35l-37 23l-25 -33l-30 26l-31 -26l-27 24l-26 -24l-25 31l-35 -23l-24 37l-37 -21l-19 35l-39 -16l-18 41l-39 -13l-12 37l-41 -8l-8 43l-43 -4l-5 41 h-40v35l-35 4l4 41l-41 6l8 43l-41 12l12 37l-28 12zM186 -115h25v-18h2l6 10q2 2 3 4t5 4q2 2 15 2h6v-28h-8q-27 0 -27 -25v-55h-27v106zM236 76v16q0 4 2 7t2 7q2 12 14 25q4 6 10 10t12 9q14 6 33 6h6q4 0 8.5 -1t8.5 -1q8 0 14 -7q14 -8 21 -18q4 -4 8 -12q0 -2 1 -3 t1 -3v-5h-33v3q0 2 -4 6q-2 4 -4 5t-6 5q-6 4 -19 4h-14l-14 -12q-10 -6 -11 -15q-4 -8 -4 -28q0 -8 1 -14.5t3 -14.5q2 -10 13 -14q6 -4 10 -6t10 -2h4q12 0 19 4q4 0 7 3l5 5q4 6 6 10t2 10h-37v27h66v-84h-21l-4 20q-6 -8 -14 -14q-4 -4 -9 -5t-10 -3q-4 0 -9 -1t-9 -1 q-12 0 -25 6q-14 6 -20 16q-8 6 -16 27q-4 10 -4 33zM236 702h10l8 5l10 10l8 10l11 10q4 8 8 13l63 86l19 30l20 31q6 8 11.5 15.5t9.5 15.5l16 33q2 4 0 6t-4 2q-8 0 -10 -2l-8 -4l-33 -41q-6 -6 -15 -19l-16 -20l-55 -80l-27 -41l-22 -43l-4 -6v-11zM262 -78h29v-24h-29 v24zM262 -115h29v-106h-29v106zM276 889q2 -4 4.5 -6t6.5 -6l18 -7q14 0 23 2q4 0 4 2q2 2 2 5q0 2 -2 2h-4q-4 0 -4 -2q-14 -2 -29 2q-8 4 -10 8q0 4 -1 5t-1 5q0 6 2 12l6 15l16 18q4 4 10.5 8t12.5 9q6 4 11 7t13 7l25 12q8 0 14 2t15 6l28 4q16 4 27 5q6 0 22 -5 q10 0 15 -6l10 -12v-16q0 -12 -2 -21l-10 -18q-4 -6 -7.5 -11.5t-7.5 -9.5q-4 -6 -9 -10t-11 -10q-4 -6 -21 -19l-22 -14l-25 -10l-14 -6q-2 0 -5 -1t-7 -1h-4q-4 0 -7 -3q-2 0 -2 -2q-4 0 -4 -4q0 -2 2 -2h4q4 0 7 2h4l26 9l27 12l27 10l26 16l23 17l20 18l17 21q4 4 7 9 t5 11q4 12 4 19q2 10 0 18l-6 14l-15 11q-6 2 -10 3t-10 1q-8 2 -23 2q-8 0 -24 -4q-14 0 -27.5 -4t-29.5 -9q-29 -8 -54 -22q-6 -4 -13 -7t-13 -7t-12.5 -8.5t-10.5 -10.5l-9 -9l-9 -9l-9 -21q-4 -10 0 -16zM317 -115h25v-16q12 18 33 18q8 0 20 -4q6 -4 13 -12q4 -8 4 -21 v-71h-29v63q0 12 -2 15q-4 8 -16 8q-8 0 -17 -8q-4 -12 -4 -17v-61h-27v106zM395 57q0 20 6 29q4 14 17 20q8 6 15 7.5t18 1.5q23 0 28 -9q12 -6 19 -22q4 -10 4 -31v-8h-78q0 -6 8 -18q6 -6 19 -7q4 0 7 1.5t5 1.5q8 8 8 10h31l-10 -21l-17 -12l-12 -3t-12 -1q-55 0 -56 61 zM428 68h45q-4 12 -8 16q-8 8 -14 8q-23 0 -23 -24zM430 -166q0 6 2 12.5t4 12.5q6 14 15 20q8 8 24 8q6 0 19 -4l7 -7t5 -7l2 16h24v-100q0 -10 -4 -27q-6 -10 -16 -14q-12 -6 -33 -6q-4 0 -9 1t-9 1q-6 2 -19 10q-4 4 -4 8q-2 4 -2 11h27l6 -9q2 -2 12 -2q12 0 15 2 q8 6 8 9q0 2 1 3t1 3v18q-12 -14 -29 -14q-6 0 -11 1t-11 3q-10 8 -17 20q-4 6 -6 13.5t-2 17.5zM461 -168q0 -8 2 -14q0 -4 6 -11q8 -4 12 -4q25 0 25 29q0 14 -8 23q-4 4 -8.5 7t-8.5 3q-8 0 -14 -10q-6 -6 -6 -23zM498 717q20 0 20 -15v-49q0 -8 10 -22l17 -4q4 -2 18 -2 q12 0 25 4q8 4 10 6q8 6 8 18q-4 -10 -10 -16l-12 -8h-15q-12 0 -18 2q-2 0 -10 8q-4 4 -4 14v49q0 10 4 11q4 4 14 4h6v4h-63v-4zM510 92v21h16v28h31v-28h16v-21h-16v-61q0 -8 2 -8q0 -2 2 -3h8l2 3h2v-25h-16q-14 0 -20 4q-6 0 -9 8q-2 2 -2 13v69h-16zM510 821 q2 -8 10 -12q10 -10 23 -6q14 0 26 6q10 2 17.5 6t15.5 8t15.5 9.5t15.5 13.5l24 20l15 15q0 2 4 6q0 2 2 4l4 6l16 16l15 21q6 4 10 10t8 10l6 -2l4 -6q0 -2 2 -4v-2q0 -2 -2 -4t-4 -6l-16 -17l-14 -20l-13 -19l-4 -18q-2 -2 -2 -8v-6l4 -8h8q10 0 17 2l16 10q4 4 10.5 8 t10.5 10q6 4 10 8.5t8 8.5l8 12l8 10l5 4l4 6q4 4 4 5l12 16l21 31q0 -4 1 -7.5t1 -7.5q4 -12 4 -14l4 -8q-16 -4 -25 -13l-20 -14q-4 -4 -7.5 -9t-5.5 -9q-2 -6 -2 -17q0 -6 11 -10h18q12 0 25 8q16 8 22 17q6 4 9 8t8 8l8 18q6 8 6 19v16q0 6 -4 15l-6 16l-7 6q0 4 -4 8 q0 2 -2 4v11h-8l-4 -4l-12 -9l-4 -12l-2 -2l-4 -6l-33 -45l-4 -6l-6 -11h-3v-2q-2 0 -4 -2l-4 -8l-6 -8l-14 -18l-23 -21l-12 -6q-4 -4 -12 -4v2l8 10l6 10l8 11l6 8l9 14l10 14l4 15q2 6 2 14q-2 2 -2 8l-2 4q0 4 -2 7v22l6 10q4 6 -4 13q-4 6 -17 0q-10 -2 -16 -9 q-6 -2 -10 -12q-4 -4 -4 -10q0 -8 2 -12l4 -2l4 -5l-12 -12l-23 -31l-20 -22q-4 0 -4 -4v-2l-2 -2q0 -2 -2 -2l-11 -15q-8 -6 -14 -12t-14 -10q-12 -12 -33 -23l-21 -8q-12 -4 -18 -2q-6 0 -6 4q-2 2 -2 6q0 2 4 11l2 8l10 16q4 -2 12 -2h19q10 2 26 12q6 2 11.5 6.5 t13.5 8.5l14 16q4 4 7.5 8t3.5 8l8 13q0 12 -4 14q-4 8 -8 10h-19h-9t-9 -4l-21 -8q-27 -14 -45 -29q-18 -16 -29 -34q-4 -4 -6 -9.5t-6 -11.5q-6 -8 -8 -18v-17zM545 -115h14v27h29v-27h16v-20h-16v-55q0 -6 2 -9q0 -2 2 -2h6l4 2h2v-22h-16q-12 0 -17 2q-10 4 -10 8 q-2 2 -2 12v64h-14v20zM567 870l15 23l18 20l6 9l10 8l11 10l12 4q8 2 14 0v-10l-6 -8q-6 -6 -6 -11q-4 -4 -5 -6t-5 -4q0 -2 -8 -10q-2 -2 -3.5 -4t-5.5 -4l-10 -8l-12 -9q-6 -2 -12 -2q-10 0 -13 2zM580 717h10q2 0 4 -2q12 -4 12 -23v15l10 8l2 2h9v4h-47v-4zM610 -115 h33l21 -78l20 78h31l-35 -102l-2 -2l-8 -23l-6 -12q-6 -6 -11 -6q-4 0 -7 -1t-7 -1h-14v22h16q2 0 6 4v5q2 2 2 6l-37 102zM639 694q0 -2 4 -10q0 -6 6 -6l13 -6q2 -2 20 -6l8 -2q8 -4 12 -5q4 0 9 -4q2 0 2 -2q6 -4 6 -10l-4 -8q-2 -4 -8 -6h-11q-10 0 -16 2l-16 6l-11 10 q-10 10 -10 21h-2v-43h2q0 6 4 6q4 4 8 4q2 0 2 -1t5 -1q2 0 3 -1t3 -1l14 -4q4 -2 14 -2q4 0 17 4q2 0 12 6q2 2 2 4t4 4v21l-6 6q-2 4 -12 8l-17 6h-10l-2 2q-4 2 -8 2t-6 2q-6 0 -8 2q-2 0 -7 4q-2 0 -2 4v2v9l4 4l9 4q2 0 4 1t6 1q6 0 14 -4q8 0 12 -4q8 -4 11 -8 q4 -2 5 -7.5t5 -9.5h2v31h-2q-2 -6 -8 -6h-8q-16 10 -31 10q-8 0 -21 -4l-12 -8q-2 -4 -3 -7.5t-1 -9.5zM641 92v21h14v8q0 33 35 33h15v-25h-15q-4 0 -4 -4v-12h19v-21h-19v-94h-31v94h-14zM723 37v76h29v-70q0 -20 20 -20h10l11 10q0 2 2 5t2 7v68h26v-115h-26v16 q-6 -8 -15 -12q-12 -6 -20 -6q-20 0 -29 12q-10 8 -10 29zM731 -115h25v-16h4q2 0 4 2l8 8l8 6q2 2 8 2q10 0 17 -4q8 -4 12 -8q8 -8 10 -20q6 -10 7 -23q0 -4 -1.5 -6t-1.5 -6t-2 -6t-4 -7q-4 -16 -12 -22q-10 -8 -25 -8q-10 0 -14 2l-8 6q-2 2 -6 2l-2 4v-51h-27v145z M741 627h103v39l-6 -13l-11 -14q-6 -6 -8 -6l-10 -2q-4 -2 -12 -2h-15v41h2q8 0 19 -6l4 -7q0 -2 1 -3t1 -3v-8h2v59h-2v-8l-4 -10q-10 -10 -19 -10h-4v43h17q16 0 22 -2l8 -6l5 -11l6 -14h4v37h-103v-4h4q8 0 11 -4q6 0 6 -11v-57q0 -16 -17 -16h-4v-2zM756 -170 q0 -14 8 -20q6 -8 16 -9q12 0 19 9q4 12 4 22t-4 23q-4 4 -8.5 7t-10.5 3q-25 0 -24 -35zM793 868v9l4 10l6 8q8 10 18 18l23 11q0 -4 1 -6.5t1 -4.5q-2 -4 -2 -8v-12l-4 -8l-9 -11l-8 -6q-2 0 -3 -1t-5 -1q-2 -2 -8 -2q-4 -4 -8 0q-2 0 -6 4zM844 -166q0 17 4 25 q6 14 16 20q10 8 27 8q23 0 31 -8q10 -6 16 -22q4 -16 4 -27v-6h-72q0 -12 7 -19q6 -6 16 -6q6 0 14 4l6 9h27q-4 -16 -8 -21q-4 -4 -8 -6t-9 -4q-12 -4 -22 -4q-49 0 -49 57zM852 -2v156h29v-156h-29zM870 -158h43q0 10 -6 17q-4 2 -7 4t-9 2q-16 0 -21 -23zM903 -2v156h29 v-156h-29zM905 674q0 -14 4 -21q4 -4 6.5 -7t6.5 -7q6 -6 18 -10q6 -2 11 -3t12 -1q16 0 26 6q8 4 13.5 9t9.5 9q6 8 6 25q0 10 -4 16q-4 12 -10 17q-4 6 -19 10q-12 6 -22 6q-20 0 -29 -8q-8 -2 -12 -7.5t-9 -9.5q-8 -10 -8 -24zM915 901q0 -8 5 -8l10 -8h10h12q8 2 14.5 4 t12.5 4l27 14l22 21l19 16l14 21l10 16l6 18q4 10 0 15q0 6 -6 10q0 4 -10 8q-2 0 -6 1t-8 1q-6 0 -19 -4q-4 0 -6 -1l-6 -3l-12 -4l-25 -16l-23 -19l-16 -18l-12 -19q-10 -16 -13 -26v-23zM928 674q0 4 1 8t1 8l6 12l6 11q2 2 4 2t6 2q4 4 13 4q0 -2 2 -2h4l6 -4l10 -8 q0 -4 2 -7.5t4 -9.5q0 -2 1 -7t1 -9q0 -12 -4 -25q-4 -4 -6 -9t-6 -9q-4 -2 -16 -2q-10 0 -13 2q-8 0 -12 10l-6 12q-4 12 -4 21zM940 895v12q4 14 10 21l15 22l10 13l24 30l9.5 9.5l9.5 9.5l8 8l10 4q4 2 11 2l4 -2q2 -2 2 -8q0 -2 -4 -10l-5 -9l-6 -10l-6 -10l-20 -31 l-17 -18l-20 -21q0 -2 -10 -6q-2 -4 -13 -8h-8q-4 0 -4 2zM948 -115h17v9q0 29 30 28h13v-22h-13l-2 -2l-2 -9v-4h19v-20h-19v-86h-26v86h-17v20zM1010 92v21h14v8q0 33 35 33h12v-25h-12q-2 0 -4 -4v-12h20v-21h-20v-94h-31v94h-14zM1018 -193q0 17 10 23q10 10 21 10l24 4 q8 0 8 6q0 16 -14 17q-10 0 -12 -6q-6 -4 -6 -11h-27q0 14 6 21q6 10 14 12q4 2 11 2q4 2 14 2t16.5 -1t12.5 -3q8 -6 12 -12q2 -4 2 -14v-56q0 -10 2 -12q0 -2 4 -6v-4h-31v2q0 2 -1 2t-1 2v6q-4 -2 -5 -4t-3 -4q-4 -2 -6 -2t-4 -2q-4 -2 -14 -2q-8 0 -15 2l-14 10 q-4 8 -4 18zM1032 627h49v2q-6 0 -10 2h-8l-4 10q-2 2 -2 12v56l80 -82h4v65q0 8 1 12.5t3 8.5q4 4 16 4v4h-47v-4h8q0 -2 4 -2q6 -4 7 -8q4 -4 4 -15v-39l-66 68h-37v-4q8 0 10 -2q2 0 3.5 -1t3.5 -1q2 -4 2 -11v-53q0 -6 -2 -10l-7 -8q-4 0 -7 -1t-5 -1v-2zM1047 -190 q0 -4 4 -9q6 -6 8 -6q4 0 6 4h4l10 6q2 4 2 13v12l-8 -4l-14 -2q-4 0 -8 -4t-4 -10zM1051 905q2 0 3 -1t3 -1q4 0 8 2l8 4q0 2 4 6q2 0 2 1.5t2 1.5l4 6q0 4 5 4l16 22l20 21l17 20l22 21l29 28l10 9l10 8l13 4q2 0 2 -2h-2l-4 -4q-2 -6 -9 -8l-4 -7l-12 -14q-4 -4 -6 -7 t-6 -7l-15 -23l-14 -20l-6 -19q-4 -10 0 -16q2 -6 8 -6h19q4 2 9 5t13 7l19 14l22 23q-2 -2 -2 -6q0 -6 4 -15q2 -4 10 -8q6 -2 21 2q12 2 24 13l21 14l7 7l7 7l13 13v-5q0 -2 -1.5 -3t-1.5 -3v-6q-4 -6 0 -10q0 -2 1.5 -3t1.5 -3q0 -6 6 -6h16l6 4l8 6l13 6l32 27l17 16 l-4 -12q-4 -6 -4 -19v-6q2 0 4 -2q0 -2 6 -2q4 0 8 4q8 0 12 6l11 6l12 13q2 0 10 8l9 9t10 9l18 21v4q0 2 -2 2q-4 0 -8 -4l-2 -4l-13 -15l-10 -12q-10 -6 -12 -12l-14 -12l-9 -7l-8 -2l-2 -2q-2 0 -4 2h2l8 15q4 8 8 12l7 12q4 2 8 11l63 92q10 10 13 16l16 16l37 43 q10 10 17 20.5t16 20.5l10 19v8q-2 2 -8 2q-2 0 -11 -4q-4 0 -6 -2t-6 -4q-4 0 -10 -6l-8 -6l-23 -19l-16 -18q-6 -6 -10.5 -11.5t-8.5 -11.5q-2 -4 -6 -9t-8 -11l-27 -41l-26 -45l-19 -33l-8 -16h-2l-14 -15q-4 -6 -8.5 -10t-10.5 -10l-18 -17l-10 -8l-7 -4l-4 -2l-4 -4 h-10l12 20q0 2 2 4q4 8 8.5 14.5t10.5 12.5l16 29l15 20l8 13l6 10l2 2l2 2q0 2 1 2t1 2q6 4 4 8q0 2 -6 2l-10 -4l-10 -6l-19 -12l-14 -13q0 6 -2 11q0 2 -6 6q-12 2 -21 0q-16 -4 -22 -8l-25 -13l-18 -16q-27 -18 -37 -39q-14 -16 -21 -37h-4l-16 -18q-6 -4 -11.5 -8.5 t-11.5 -8.5q-2 -4 -12 -8q-4 -4 -10 -4h-2q-2 2 0 4l6 8l6 11l12 14l21 27q4 6 9 13t9 15l8 17q4 10 2 16q0 6 -2 6q0 4 -6 4t-8 -2l-12 -4l-13 -8l-10 -8l-10 -9q-8 -8 -12 -8l-21 -22q-4 -4 -9 -9.5t-9 -9.5l-11 -12l-10 -10l2 4l25 35l26 37q0 2 1.5 2t1.5 2q2 2 2 4 q2 2 2 6l-7 6q-2 0 -3 1t-3 1t-4 -1t-6 -1l-10 -6l-4 -4q-4 -2 -4 -4t-2 -4l-5 -7l-77 -133q-2 -2 -2 -4v-2zM1083 55q0 6 1 11.5t3 11.5q2 10 11 18q10 10 20 15q6 4 25 4q16 0 24 -4q4 -4 8.5 -5.5t8.5 -5.5t6 -9t6 -11q4 -12 4 -25q0 -16 -8 -30q-2 -8 -18 -21 q-10 -8 -31 -8q-20 0 -35 8q-6 4 -10 10t-8 13q-6 12 -7 28zM1114 55q0 -8 2 -13t4 -9q4 -10 23 -10q16 0 20 10q6 6 6 22q0 14 -6 25q-6 10 -20 10q-16 0 -23 -10q-2 -4 -4 -10.5t-2 -14.5zM1128 -170q1 16 11 41q12 16 39 16q10 0 22 -4q8 -2 17 -14q4 -6 7 -11t3 -12h-31 q0 4 -4 13q-6 6 -12 6q-10 0 -17 -10q-8 -6 -8 -21q0 -6 1 -10t1 -8l8 -11q4 -4 13 -4q8 0 12 4q6 2 6 13h27q0 -10 -6 -23q-4 -4 -7.5 -7t-7.5 -5q-12 -6 -24 -6q-23 0 -35 12q-6 2 -10 16q-4 12 -5 25zM1167 627h107v41h-2q-4 -4 -4 -6.5t-2 -6.5q-4 -4 -4 -8l-5 -6 q-8 -8 -12 -10q-2 0 -6 -1t-8 -1h-25v73q0 10 6 11q2 4 13 4h6v4h-64v-4h4q16 0 17 -15v-57q0 -16 -17 -16h-4v-2zM1221 -2v115h28v-17q12 18 35 19q14 0 21 -4l14 -13q4 -12 4 -20v-80h-29v70q0 8 -4 16q-6 6 -16 6q-12 0 -19 -8q-4 -4 -4 -19v-65h-30zM1237 -166q0 9 4 25 q6 14 16 20q10 8 29 8q20 0 29 -8q10 -6 14 -22q6 -12 6 -27v-6h-71q0 -12 6 -19q6 -6 16 -6q6 0 14 4l7 9h26q-4 -16 -10 -21q-8 -8 -14 -10q-12 -4 -23 -4q-49 0 -49 57zM1264 -158h43q0 10 -7 17q-4 2 -7 4t-9 2q-16 0 -20 -23zM1266 963l2 2q0 2 2 4l6 10l8 10l6 12 l8 11l19 24l26 33l7 8l16 13q2 2 8 2q4 2 8 2l7 -4q0 -2 1 -3.5t1 -3.5q0 -4 -2 -8q0 -2 -5 -6l-16 -22l-12 -23l-17 -14l-16 -19l-10 -8l-13 -10l-10 -8q-4 0 -5 -2t-5 -2q-8 -4 -10 -3h-2q-2 2 -2 5zM1268 717h2q10 0 14 -2l4 -4t4 -6l29 -39v-21q0 -10 -2 -12 q-8 -4 -14 -4h-7v-2h68v2h-8q-8 0 -12 4t-5 12v23l25 34l4 7q8 4 10 4q0 2 4 2q2 0 3.5 1t3.5 1h2v4h-47v-4h6q8 0 10 -2q4 -2 4 -6t-6 -11l-19 -26l-24 30q-4 8 -4 9v2q0 2 2 2q0 2 6 2h8v4h-61v-4zM1337 92v21h19v28h26v-28h21v-21h-21v-61v-6q0 -2 2 -2q4 0 5.5 -1.5 t5.5 -1.5l4 3h4v-25h-21q-14 0 -16 4q-8 0 -10 8v82h-19zM1352 -190h30v-31h-30v31zM1401 -170q0 16 10 41q12 16 39 16q10 0 23 -4q6 -2 18 -14q8 -10 8 -23h-29l-6 13q-6 6 -12 6q-10 0 -16 -10q-6 -6 -6 -21q0 -6 1 -10t1 -8q4 -8 8 -11q2 -4 10 -4q10 0 12 4q6 2 6 13 h31q-4 -12 -8 -23q-4 -4 -8 -7t-8 -5q-10 -6 -25 -6q-20 0 -35 12q-6 2 -10 16q-4 12 -4 25zM1473 31q0 16 8 24q16 8 24 11l27 4q10 0 10 8q0 14 -18 14q-8 0 -13 -4q-6 -2 -8 -14h-26q0 14 6 24q4 6 16 13q4 4 12 4h13q25 0 32 -4l7.5 -7.5t5.5 -7.5t2 -14v-72q0 -6 8 -6 v-6h-33q-2 0 -2 2v2v2q0 4 -1 5t-1 3l-8 -8q-2 -2 -3 -2t-3 -2t-4 -2q-6 0 -9.5 -1t-7.5 -1t-8 1t-8 1q-4 4 -7 6t-7 6q-4 8 -4 21zM1501 31q0 -8 4 -8q4 -4 11 -5h8l4 2q10 4 10 7q4 8 4 14v14q-6 -6 -12 -6l-14 -4q-6 0 -11 -4q-4 -2 -4 -10zM1511 -168q0 13 2 21 q4 12 11 18q6 8 16 12q12 4 25 4q10 0 22 -4l8 -4t9 -6q4 -4 5 -9t5 -9q2 -6 2 -23q0 -16 -6 -29q-4 -14 -17 -20q-12 -6 -28 -6q-20 0 -31 8q-12 6 -18 20q-4 16 -5 27zM1538 -168q0 -14 6 -22q2 -4 8.5 -6.5t12.5 -2.5q16 0 18 9q6 8 6 22q0 13 -6 23q-4 10 -18 10 q-16 0 -21 -10q-6 -10 -6 -23zM1567 1167l28 37l13 23l26 35l2 2q0 4 4 4q0 2 2 2q0 -8 -2 -10l-8 -11l-6 -10l-6 -8l-16 -21l-19 -20l-10 -12q-4 -8 -8 -11zM1585 92v21h14v28h33v-28h19v-21h-19v-69q2 0 4 -1.5t6 -1.5l5 3h4v-25h-19q-14 0 -20 4q-6 0 -8 8q0 2 -2.5 5 t-2.5 8v69h-14zM1636 -115h27v-16q8 18 31 18q8 0 16 -4q6 -4 12 -12q2 8 11 12q8 4 16 4q10 0 23 -4q8 -8 10 -14q4 -8 4 -19v-71h-27v63q0 23 -16 23q-18 0 -19 -23v-63h-26v74q0 4 -4 8t-15 4q-16 0 -16 -23v-63h-27v106z" />
<glyph unicode="%" horiz-adv-x="669" d="M25 0l618 731h133l-620 -731h-131zM115 569q0 66 47 113t112 47q66 0 113 -47t47 -113t-47 -112.5t-113 -46.5t-112.5 46.5t-46.5 112.5zM217 569q0 -41 16.5 -68.5t40.5 -27.5q25 0 41.5 27.5t16.5 68.5t-16.5 69t-41.5 28t-41 -28t-16 -69zM362 160q0 66 47.5 112.5 t112.5 46.5q66 0 113 -47t47 -112q0 -66 -47 -113t-113 -47t-113 47t-47 113zM465 160q0 -41 16.5 -69t40.5 -28q25 0 41.5 28t16.5 69t-16.5 68.5t-41.5 27.5t-41 -27.5t-16 -68.5z" />
<glyph unicode="&#x26;" horiz-adv-x="962" d="M19.5 213q5.5 70 38 132.5t94 110.5t149.5 68q-43 33 -65.5 81t-23.5 102.5t17.5 112t59.5 106.5t93 85t109.5 52t118 12t119.5 -31q61 -29 103 -71.5t62.5 -88.5t20.5 -90t-20 -75q-23 -35 -66 -37t-75 27q-35 27 -39 68.5t20 72.5q23 33 62 33q-14 27 -31.5 43 t-40.5 30q-43 23 -86 20t-82 -24.5t-72.5 -56.5t-58.5 -74q-29 -47 -39 -97t-1 -91t39 -69.5t83 -31.5h567l-20 -61h-211l-72 -209q-16 -49 -29.5 -89t-1.5 -40q33 0 76 36t84 77v-94q-25 -25 -55.5 -51.5t-64 -49t-68.5 -37t-70 -14.5q-53 0 -70 33q-70 -98 -141.5 -126 t-169.5 -5q-86 20 -142.5 68t-81 110.5t-19 132.5zM211 142.5q2 -54.5 26.5 -95.5t71.5 -55q45 -12 82 -9t70 27.5t63.5 70.5t63.5 118q8 27 22 59q29 80 50.5 132t33.5 81h-133q-92 2 -159.5 -28.5t-110.5 -80t-62.5 -107.5t-17.5 -112.5z" />
<glyph unicode="'" horiz-adv-x="12" d="M49 604l113 330h164l-215 -330h-62z" />
<glyph unicode="(" horiz-adv-x="366" d="M20.5 27.5q-4.5 68.5 9 149.5t50.5 169q37 86 89 164t113.5 145.5t126 120.5t123.5 90l54 2q-94 -96 -183.5 -230t-154.5 -292q-68 -160 -93.5 -296t-9.5 -232h-49q-31 35 -51 88t-24.5 121.5z" />
<glyph unicode=")" horiz-adv-x="481" d="M-129 -182q94 96 183 230t155 292q68 160 93.5 296t8.5 232h49q31 -35 51.5 -88t24.5 -121.5t-9 -149.5t-50 -169q-37 -86 -89 -164t-113.5 -145.5t-126 -120.5t-124.5 -90z" />
<glyph unicode="*" d="M166 303l96 109h-96l41 94h84l-35 117h125l16 -62l56 62h125l-105 -117h94l-41 -94h-84l33 -109h-125l-14 49l-45 -49h-125z" />
<glyph unicode="+" d="M72 207l41 94h123l49 117h104q-6 -16 -14 -35q-6 -16 -13.5 -37.5t-17.5 -44.5h129l-41 -94h-127q-14 -33 -26.5 -60.5t-22.5 -48.5h-104l45 109h-125z" />
<glyph unicode="," horiz-adv-x="294" d="M-49 -141l112 329h164l-215 -329h-61z" />
<glyph unicode="-" d="M164 233v95h299v-95h-299z" />
<glyph unicode="." horiz-adv-x="294" d="M4 100q0 41 29.5 71t70.5 30t71 -30t30 -71t-30 -70.5t-71 -29.5t-70.5 29.5t-29.5 70.5z" />
<glyph unicode="/" horiz-adv-x="534" d="M-59 0l612 872h72l-615 -872h-69z" />
<glyph unicode="0" horiz-adv-x="1847" d="M70 -193q0 17 8 23q10 10 20 10l27 4q10 0 10 6q0 16 -16 17q-10 0 -13 -6q-8 -2 -8 -11h-24q0 14 6 21q2 8 12 12q4 2 14 2q4 2 13 2q14 0 26 -4q8 -6 13 -12q2 -4 2 -14v-56q0 -10 2 -12q0 -2 4 -6v-4h-29v6q-2 2 -2 6l-8 -8q-4 -2 -6 -2t-4 -2q-4 -2 -13 -2 q-12 0 -18 2q-6 4 -10 10q-6 6 -6 18zM96 -190q0 -4 4 -9q4 -2 6.5 -4t4.5 -2q4 0 6 4h4l10 6q4 8 4 13v12q-2 0 -10 -4l-12 -2q-4 0 -13 -4q-4 -4 -4 -10zM125 565v494l268 59l-10 37l41 12l-8 39l41 8l-6 46l41 2v41h36l4 36l39 -6l9 41l43 -6l10 39l39 -10l16 37l39 -17 l23 39l34 -18l23 35l37 -25l24 33l35 -27l27 29l26 -25l27 23l27 -29l34 23l23 -37l39 20l18 -35l37 17l17 -41l43 12l12 -39l39 10l8 -43l43 4l2 -26l404 88v-496l-185 -41l4 -2l-24 -26l24 -29l-32 -27l22 -34l-37 -23l23 -37l-35 -20l14 -37l-39 -17l13 -43l-37 -12 l6 -39l-41 -8l2 -43l-39 -4v-39h-35l-6 -37l-39 2l-8 -37l-43 6l-10 -40l-39 12l-14 -39l-44 16l-18 -39l-37 21l-22 -35l-37 23l-25 -33l-30 26l-31 -26l-27 24l-26 -24l-25 31l-35 -23l-24 37l-37 -21l-19 35l-39 -16l-18 41l-39 -13l-12 37l-41 -8l-8 43l-43 -4l-5 41 h-40v35l-35 4l4 41l-41 6l8 43l-41 12l12 37l-28 12zM186 -115h25v-18h2l6 10q2 2 3 4t5 4q2 2 15 2h6v-28h-8q-27 0 -27 -25v-55h-27v106zM236 76v16q0 4 2 7t2 7q2 12 14 25q4 6 10 10t12 9q14 6 33 6h6q4 0 8.5 -1t8.5 -1q8 0 14 -7q14 -8 21 -18q4 -4 8 -12q0 -2 1 -3 t1 -3v-5h-33v3q0 2 -4 6q-2 4 -4 5t-6 5q-6 4 -19 4h-14l-14 -12q-10 -6 -11 -15q-4 -8 -4 -28q0 -8 1 -14.5t3 -14.5q2 -10 13 -14q6 -4 10 -6t10 -2h4q12 0 19 4q4 0 7 3l5 5q4 6 6 10t2 10h-37v27h66v-84h-21l-4 20q-6 -8 -14 -14q-4 -4 -9 -5t-10 -3q-4 0 -9 -1t-9 -1 q-12 0 -25 6q-14 6 -20 16q-8 6 -16 27q-4 10 -4 33zM236 702h10l8 5l10 10l8 10l11 10q4 8 8 13l63 86l19 30l20 31q6 8 11.5 15.5t9.5 15.5l16 33q2 4 0 6t-4 2q-8 0 -10 -2l-8 -4l-33 -41q-6 -6 -15 -19l-16 -20l-55 -80l-27 -41l-22 -43l-4 -6v-11zM262 -78h29v-24h-29 v24zM262 -115h29v-106h-29v106zM276 889q2 -4 4.5 -6t6.5 -6l18 -7q14 0 23 2q4 0 4 2q2 2 2 5q0 2 -2 2h-4q-4 0 -4 -2q-14 -2 -29 2q-8 4 -10 8q0 4 -1 5t-1 5q0 6 2 12l6 15l16 18q4 4 10.5 8t12.5 9q6 4 11 7t13 7l25 12q8 0 14 2t15 6l28 4q16 4 27 5q6 0 22 -5 q10 0 15 -6l10 -12v-16q0 -12 -2 -21l-10 -18q-4 -6 -7.5 -11.5t-7.5 -9.5q-4 -6 -9 -10t-11 -10q-4 -6 -21 -19l-22 -14l-25 -10l-14 -6q-2 0 -5 -1t-7 -1h-4q-4 0 -7 -3q-2 0 -2 -2q-4 0 -4 -4q0 -2 2 -2h4q4 0 7 2h4l26 9l27 12l27 10l26 16l23 17l20 18l17 21q4 4 7 9 t5 11q4 12 4 19q2 10 0 18l-6 14l-15 11q-6 2 -10 3t-10 1q-8 2 -23 2q-8 0 -24 -4q-14 0 -27.5 -4t-29.5 -9q-29 -8 -54 -22q-6 -4 -13 -7t-13 -7t-12.5 -8.5t-10.5 -10.5l-9 -9l-9 -9l-9 -21q-4 -10 0 -16zM317 -115h25v-16q12 18 33 18q8 0 20 -4q6 -4 13 -12q4 -8 4 -21 v-71h-29v63q0 12 -2 15q-4 8 -16 8q-8 0 -17 -8q-4 -12 -4 -17v-61h-27v106zM395 57q0 20 6 29q4 14 17 20q8 6 15 7.5t18 1.5q23 0 28 -9q12 -6 19 -22q4 -10 4 -31v-8h-78q0 -6 8 -18q6 -6 19 -7q4 0 7 1.5t5 1.5q8 8 8 10h31l-10 -21l-17 -12l-12 -3t-12 -1q-55 0 -56 61 zM428 68h45q-4 12 -8 16q-8 8 -14 8q-23 0 -23 -24zM430 -166q0 6 2 12.5t4 12.5q6 14 15 20q8 8 24 8q6 0 19 -4l7 -7t5 -7l2 16h24v-100q0 -10 -4 -27q-6 -10 -16 -14q-12 -6 -33 -6q-4 0 -9 1t-9 1q-6 2 -19 10q-4 4 -4 8q-2 4 -2 11h27l6 -9q2 -2 12 -2q12 0 15 2 q8 6 8 9q0 2 1 3t1 3v18q-12 -14 -29 -14q-6 0 -11 1t-11 3q-10 8 -17 20q-4 6 -6 13.5t-2 17.5zM461 -168q0 -8 2 -14q0 -4 6 -11q8 -4 12 -4q25 0 25 29q0 14 -8 23q-4 4 -8.5 7t-8.5 3q-8 0 -14 -10q-6 -6 -6 -23zM498 717q20 0 20 -15v-49q0 -8 10 -22l17 -4q4 -2 18 -2 q12 0 25 4q8 4 10 6q8 6 8 18q-4 -10 -10 -16l-12 -8h-15q-12 0 -18 2q-2 0 -10 8q-4 4 -4 14v49q0 10 4 11q4 4 14 4h6v4h-63v-4zM510 92v21h16v28h31v-28h16v-21h-16v-61q0 -8 2 -8q0 -2 2 -3h8l2 3h2v-25h-16q-14 0 -20 4q-6 0 -9 8q-2 2 -2 13v69h-16zM510 821 q2 -8 10 -12q10 -10 23 -6q14 0 26 6q10 2 17.5 6t15.5 8t15.5 9.5t15.5 13.5l24 20l15 15q0 2 4 6q0 2 2 4l4 6l16 16l15 21q6 4 10 10t8 10l6 -2l4 -6q0 -2 2 -4v-2q0 -2 -2 -4t-4 -6l-16 -17l-14 -20l-13 -19l-4 -18q-2 -2 -2 -8v-6l4 -8h8q10 0 17 2l16 10q4 4 10.5 8 t10.5 10q6 4 10 8.5t8 8.5l8 12l8 10l5 4l4 6q4 4 4 5l12 16l21 31q0 -4 1 -7.5t1 -7.5q4 -12 4 -14l4 -8q-16 -4 -25 -13l-20 -14q-4 -4 -7.5 -9t-5.5 -9q-2 -6 -2 -17q0 -6 11 -10h18q12 0 25 8q16 8 22 17q6 4 9 8t8 8l8 18q6 8 6 19v16q0 6 -4 15l-6 16l-7 6q0 4 -4 8 q0 2 -2 4v11h-8l-4 -4l-12 -9l-4 -12l-2 -2l-4 -6l-33 -45l-4 -6l-6 -11h-3v-2q-2 0 -4 -2l-4 -8l-6 -8l-14 -18l-23 -21l-12 -6q-4 -4 -12 -4v2l8 10l6 10l8 11l6 8l9 14l10 14l4 15q2 6 2 14q-2 2 -2 8l-2 4q0 4 -2 7v22l6 10q4 6 -4 13q-4 6 -17 0q-10 -2 -16 -9 q-6 -2 -10 -12q-4 -4 -4 -10q0 -8 2 -12l4 -2l4 -5l-12 -12l-23 -31l-20 -22q-4 0 -4 -4v-2l-2 -2q0 -2 -2 -2l-11 -15q-8 -6 -14 -12t-14 -10q-12 -12 -33 -23l-21 -8q-12 -4 -18 -2q-6 0 -6 4q-2 2 -2 6q0 2 4 11l2 8l10 16q4 -2 12 -2h19q10 2 26 12q6 2 11.5 6.5 t13.5 8.5l14 16q4 4 7.5 8t3.5 8l8 13q0 12 -4 14q-4 8 -8 10h-19h-9t-9 -4l-21 -8q-27 -14 -45 -29q-18 -16 -29 -34q-4 -4 -6 -9.5t-6 -11.5q-6 -8 -8 -18v-17zM545 -115h14v27h29v-27h16v-20h-16v-55q0 -6 2 -9q0 -2 2 -2h6l4 2h2v-22h-16q-12 0 -17 2q-10 4 -10 8 q-2 2 -2 12v64h-14v20zM567 870l15 23l18 20l6 9l10 8l11 10l12 4q8 2 14 0v-10l-6 -8q-6 -6 -6 -11q-4 -4 -5 -6t-5 -4q0 -2 -8 -10q-2 -2 -3.5 -4t-5.5 -4l-10 -8l-12 -9q-6 -2 -12 -2q-10 0 -13 2zM580 717h10q2 0 4 -2q12 -4 12 -23v15l10 8l2 2h9v4h-47v-4zM610 -115 h33l21 -78l20 78h31l-35 -102l-2 -2l-8 -23l-6 -12q-6 -6 -11 -6q-4 0 -7 -1t-7 -1h-14v22h16q2 0 6 4v5q2 2 2 6l-37 102zM639 694q0 -2 4 -10q0 -6 6 -6l13 -6q2 -2 20 -6l8 -2q8 -4 12 -5q4 0 9 -4q2 0 2 -2q6 -4 6 -10l-4 -8q-2 -4 -8 -6h-11q-10 0 -16 2l-16 6l-11 10 q-10 10 -10 21h-2v-43h2q0 6 4 6q4 4 8 4q2 0 2 -1t5 -1q2 0 3 -1t3 -1l14 -4q4 -2 14 -2q4 0 17 4q2 0 12 6q2 2 2 4t4 4v21l-6 6q-2 4 -12 8l-17 6h-10l-2 2q-4 2 -8 2t-6 2q-6 0 -8 2q-2 0 -7 4q-2 0 -2 4v2v9l4 4l9 4q2 0 4 1t6 1q6 0 14 -4q8 0 12 -4q8 -4 11 -8 q4 -2 5 -7.5t5 -9.5h2v31h-2q-2 -6 -8 -6h-8q-16 10 -31 10q-8 0 -21 -4l-12 -8q-2 -4 -3 -7.5t-1 -9.5zM641 92v21h14v8q0 33 35 33h15v-25h-15q-4 0 -4 -4v-12h19v-21h-19v-94h-31v94h-14zM723 37v76h29v-70q0 -20 20 -20h10l11 10q0 2 2 5t2 7v68h26v-115h-26v16 q-6 -8 -15 -12q-12 -6 -20 -6q-20 0 -29 12q-10 8 -10 29zM731 -115h25v-16h4q2 0 4 2l8 8l8 6q2 2 8 2q10 0 17 -4q8 -4 12 -8q8 -8 10 -20q6 -10 7 -23q0 -4 -1.5 -6t-1.5 -6t-2 -6t-4 -7q-4 -16 -12 -22q-10 -8 -25 -8q-10 0 -14 2l-8 6q-2 2 -6 2l-2 4v-51h-27v145z M741 627h103v39l-6 -13l-11 -14q-6 -6 -8 -6l-10 -2q-4 -2 -12 -2h-15v41h2q8 0 19 -6l4 -7q0 -2 1 -3t1 -3v-8h2v59h-2v-8l-4 -10q-10 -10 -19 -10h-4v43h17q16 0 22 -2l8 -6l5 -11l6 -14h4v37h-103v-4h4q8 0 11 -4q6 0 6 -11v-57q0 -16 -17 -16h-4v-2zM756 -170 q0 -14 8 -20q6 -8 16 -9q12 0 19 9q4 12 4 22t-4 23q-4 4 -8.5 7t-10.5 3q-25 0 -24 -35zM793 868v9l4 10l6 8q8 10 18 18l23 11q0 -4 1 -6.5t1 -4.5q-2 -4 -2 -8v-12l-4 -8l-9 -11l-8 -6q-2 0 -3 -1t-5 -1q-2 -2 -8 -2q-4 -4 -8 0q-2 0 -6 4zM844 -166q0 17 4 25 q6 14 16 20q10 8 27 8q23 0 31 -8q10 -6 16 -22q4 -16 4 -27v-6h-72q0 -12 7 -19q6 -6 16 -6q6 0 14 4l6 9h27q-4 -16 -8 -21q-4 -4 -8 -6t-9 -4q-12 -4 -22 -4q-49 0 -49 57zM852 -2v156h29v-156h-29zM870 -158h43q0 10 -6 17q-4 2 -7 4t-9 2q-16 0 -21 -23zM903 -2v156h29 v-156h-29zM905 674q0 -14 4 -21q4 -4 6.5 -7t6.5 -7q6 -6 18 -10q6 -2 11 -3t12 -1q16 0 26 6q8 4 13.5 9t9.5 9q6 8 6 25q0 10 -4 16q-4 12 -10 17q-4 6 -19 10q-12 6 -22 6q-20 0 -29 -8q-8 -2 -12 -7.5t-9 -9.5q-8 -10 -8 -24zM915 901q0 -8 5 -8l10 -8h10h12q8 2 14.5 4 t12.5 4l27 14l22 21l19 16l14 21l10 16l6 18q4 10 0 15q0 6 -6 10q0 4 -10 8q-2 0 -6 1t-8 1q-6 0 -19 -4q-4 0 -6 -1l-6 -3l-12 -4l-25 -16l-23 -19l-16 -18l-12 -19q-10 -16 -13 -26v-23zM928 674q0 4 1 8t1 8l6 12l6 11q2 2 4 2t6 2q4 4 13 4q0 -2 2 -2h4l6 -4l10 -8 q0 -4 2 -7.5t4 -9.5q0 -2 1 -7t1 -9q0 -12 -4 -25q-4 -4 -6 -9t-6 -9q-4 -2 -16 -2q-10 0 -13 2q-8 0 -12 10l-6 12q-4 12 -4 21zM940 895v12q4 14 10 21l15 22l10 13l24 30l9.5 9.5l9.5 9.5l8 8l10 4q4 2 11 2l4 -2q2 -2 2 -8q0 -2 -4 -10l-5 -9l-6 -10l-6 -10l-20 -31 l-17 -18l-20 -21q0 -2 -10 -6q-2 -4 -13 -8h-8q-4 0 -4 2zM948 -115h17v9q0 29 30 28h13v-22h-13l-2 -2l-2 -9v-4h19v-20h-19v-86h-26v86h-17v20zM1010 92v21h14v8q0 33 35 33h12v-25h-12q-2 0 -4 -4v-12h20v-21h-20v-94h-31v94h-14zM1018 -193q0 17 10 23q10 10 21 10l24 4 q8 0 8 6q0 16 -14 17q-10 0 -12 -6q-6 -4 -6 -11h-27q0 14 6 21q6 10 14 12q4 2 11 2q4 2 14 2t16.5 -1t12.5 -3q8 -6 12 -12q2 -4 2 -14v-56q0 -10 2 -12q0 -2 4 -6v-4h-31v2q0 2 -1 2t-1 2v6q-4 -2 -5 -4t-3 -4q-4 -2 -6 -2t-4 -2q-4 -2 -14 -2q-8 0 -15 2l-14 10 q-4 8 -4 18zM1032 627h49v2q-6 0 -10 2h-8l-4 10q-2 2 -2 12v56l80 -82h4v65q0 8 1 12.5t3 8.5q4 4 16 4v4h-47v-4h8q0 -2 4 -2q6 -4 7 -8q4 -4 4 -15v-39l-66 68h-37v-4q8 0 10 -2q2 0 3.5 -1t3.5 -1q2 -4 2 -11v-53q0 -6 -2 -10l-7 -8q-4 0 -7 -1t-5 -1v-2zM1047 -190 q0 -4 4 -9q6 -6 8 -6q4 0 6 4h4l10 6q2 4 2 13v12l-8 -4l-14 -2q-4 0 -8 -4t-4 -10zM1051 905q2 0 3 -1t3 -1q4 0 8 2l8 4q0 2 4 6q2 0 2 1.5t2 1.5l4 6q0 4 5 4l16 22l20 21l17 20l22 21l29 28l10 9l10 8l13 4q2 0 2 -2h-2l-4 -4q-2 -6 -9 -8l-4 -7l-12 -14q-4 -4 -6 -7 t-6 -7l-15 -23l-14 -20l-6 -19q-4 -10 0 -16q2 -6 8 -6h19q4 2 9 5t13 7l19 14l22 23q-2 -2 -2 -6q0 -6 4 -15q2 -4 10 -8q6 -2 21 2q12 2 24 13l21 14l7 7l7 7l13 13v-5q0 -2 -1.5 -3t-1.5 -3v-6q-4 -6 0 -10q0 -2 1.5 -3t1.5 -3q0 -6 6 -6h16l6 4l8 6l13 6l32 27l17 16 l-4 -12q-4 -6 -4 -19v-6q2 0 4 -2q0 -2 6 -2q4 0 8 4q8 0 12 6l11 6l12 13q2 0 10 8l9 9t10 9l18 21v4q0 2 -2 2q-4 0 -8 -4l-2 -4l-13 -15l-10 -12q-10 -6 -12 -12l-14 -12l-9 -7l-8 -2l-2 -2q-2 0 -4 2h2l8 15q4 8 8 12l7 12q4 2 8 11l63 92q10 10 13 16l16 16l37 43 q10 10 17 20.5t16 20.5l10 19v8q-2 2 -8 2q-2 0 -11 -4q-4 0 -6 -2t-6 -4q-4 0 -10 -6l-8 -6l-23 -19l-16 -18q-6 -6 -10.5 -11.5t-8.5 -11.5q-2 -4 -6 -9t-8 -11l-27 -41l-26 -45l-19 -33l-8 -16h-2l-14 -15q-4 -6 -8.5 -10t-10.5 -10l-18 -17l-10 -8l-7 -4l-4 -2l-4 -4 h-10l12 20q0 2 2 4q4 8 8.5 14.5t10.5 12.5l16 29l15 20l8 13l6 10l2 2l2 2q0 2 1 2t1 2q6 4 4 8q0 2 -6 2l-10 -4l-10 -6l-19 -12l-14 -13q0 6 -2 11q0 2 -6 6q-12 2 -21 0q-16 -4 -22 -8l-25 -13l-18 -16q-27 -18 -37 -39q-14 -16 -21 -37h-4l-16 -18q-6 -4 -11.5 -8.5 t-11.5 -8.5q-2 -4 -12 -8q-4 -4 -10 -4h-2q-2 2 0 4l6 8l6 11l12 14l21 27q4 6 9 13t9 15l8 17q4 10 2 16q0 6 -2 6q0 4 -6 4t-8 -2l-12 -4l-13 -8l-10 -8l-10 -9q-8 -8 -12 -8l-21 -22q-4 -4 -9 -9.5t-9 -9.5l-11 -12l-10 -10l2 4l25 35l26 37q0 2 1.5 2t1.5 2q2 2 2 4 q2 2 2 6l-7 6q-2 0 -3 1t-3 1t-4 -1t-6 -1l-10 -6l-4 -4q-4 -2 -4 -4t-2 -4l-5 -7l-77 -133q-2 -2 -2 -4v-2zM1083 55q0 6 1 11.5t3 11.5q2 10 11 18q10 10 20 15q6 4 25 4q16 0 24 -4q4 -4 8.5 -5.5t8.5 -5.5t6 -9t6 -11q4 -12 4 -25q0 -16 -8 -30q-2 -8 -18 -21 q-10 -8 -31 -8q-20 0 -35 8q-6 4 -10 10t-8 13q-6 12 -7 28zM1114 55q0 -8 2 -13t4 -9q4 -10 23 -10q16 0 20 10q6 6 6 22q0 14 -6 25q-6 10 -20 10q-16 0 -23 -10q-2 -4 -4 -10.5t-2 -14.5zM1128 -170q1 16 11 41q12 16 39 16q10 0 22 -4q8 -2 17 -14q4 -6 7 -11t3 -12h-31 q0 4 -4 13q-6 6 -12 6q-10 0 -17 -10q-8 -6 -8 -21q0 -6 1 -10t1 -8l8 -11q4 -4 13 -4q8 0 12 4q6 2 6 13h27q0 -10 -6 -23q-4 -4 -7.5 -7t-7.5 -5q-12 -6 -24 -6q-23 0 -35 12q-6 2 -10 16q-4 12 -5 25zM1167 627h107v41h-2q-4 -4 -4 -6.5t-2 -6.5q-4 -4 -4 -8l-5 -6 q-8 -8 -12 -10q-2 0 -6 -1t-8 -1h-25v73q0 10 6 11q2 4 13 4h6v4h-64v-4h4q16 0 17 -15v-57q0 -16 -17 -16h-4v-2zM1221 -2v115h28v-17q12 18 35 19q14 0 21 -4l14 -13q4 -12 4 -20v-80h-29v70q0 8 -4 16q-6 6 -16 6q-12 0 -19 -8q-4 -4 -4 -19v-65h-30zM1237 -166q0 9 4 25 q6 14 16 20q10 8 29 8q20 0 29 -8q10 -6 14 -22q6 -12 6 -27v-6h-71q0 -12 6 -19q6 -6 16 -6q6 0 14 4l7 9h26q-4 -16 -10 -21q-8 -8 -14 -10q-12 -4 -23 -4q-49 0 -49 57zM1264 -158h43q0 10 -7 17q-4 2 -7 4t-9 2q-16 0 -20 -23zM1266 963l2 2q0 2 2 4l6 10l8 10l6 12 l8 11l19 24l26 33l7 8l16 13q2 2 8 2q4 2 8 2l7 -4q0 -2 1 -3.5t1 -3.5q0 -4 -2 -8q0 -2 -5 -6l-16 -22l-12 -23l-17 -14l-16 -19l-10 -8l-13 -10l-10 -8q-4 0 -5 -2t-5 -2q-8 -4 -10 -3h-2q-2 2 -2 5zM1268 717h2q10 0 14 -2l4 -4t4 -6l29 -39v-21q0 -10 -2 -12 q-8 -4 -14 -4h-7v-2h68v2h-8q-8 0 -12 4t-5 12v23l25 34l4 7q8 4 10 4q0 2 4 2q2 0 3.5 1t3.5 1h2v4h-47v-4h6q8 0 10 -2q4 -2 4 -6t-6 -11l-19 -26l-24 30q-4 8 -4 9v2q0 2 2 2q0 2 6 2h8v4h-61v-4zM1337 92v21h19v28h26v-28h21v-21h-21v-61v-6q0 -2 2 -2q4 0 5.5 -1.5 t5.5 -1.5l4 3h4v-25h-21q-14 0 -16 4q-8 0 -10 8v82h-19zM1352 -190h30v-31h-30v31zM1401 -170q0 16 10 41q12 16 39 16q10 0 23 -4q6 -2 18 -14q8 -10 8 -23h-29l-6 13q-6 6 -12 6q-10 0 -16 -10q-6 -6 -6 -21q0 -6 1 -10t1 -8q4 -8 8 -11q2 -4 10 -4q10 0 12 4q6 2 6 13 h31q-4 -12 -8 -23q-4 -4 -8 -7t-8 -5q-10 -6 -25 -6q-20 0 -35 12q-6 2 -10 16q-4 12 -4 25zM1473 31q0 16 8 24q16 8 24 11l27 4q10 0 10 8q0 14 -18 14q-8 0 -13 -4q-6 -2 -8 -14h-26q0 14 6 24q4 6 16 13q4 4 12 4h13q25 0 32 -4l7.5 -7.5t5.5 -7.5t2 -14v-72q0 -6 8 -6 v-6h-33q-2 0 -2 2v2v2q0 4 -1 5t-1 3l-8 -8q-2 -2 -3 -2t-3 -2t-4 -2q-6 0 -9.5 -1t-7.5 -1t-8 1t-8 1q-4 4 -7 6t-7 6q-4 8 -4 21zM1501 31q0 -8 4 -8q4 -4 11 -5h8l4 2q10 4 10 7q4 8 4 14v14q-6 -6 -12 -6l-14 -4q-6 0 -11 -4q-4 -2 -4 -10zM1511 -168q0 13 2 21 q4 12 11 18q6 8 16 12q12 4 25 4q10 0 22 -4l8 -4t9 -6q4 -4 5 -9t5 -9q2 -6 2 -23q0 -16 -6 -29q-4 -14 -17 -20q-12 -6 -28 -6q-20 0 -31 8q-12 6 -18 20q-4 16 -5 27zM1538 -168q0 -14 6 -22q2 -4 8.5 -6.5t12.5 -2.5q16 0 18 9q6 8 6 22q0 13 -6 23q-4 10 -18 10 q-16 0 -21 -10q-6 -10 -6 -23zM1567 1167l28 37l13 23l26 35l2 2q0 4 4 4q0 2 2 2q0 -8 -2 -10l-8 -11l-6 -10l-6 -8l-16 -21l-19 -20l-10 -12q-4 -8 -8 -11zM1585 92v21h14v28h33v-28h19v-21h-19v-69q2 0 4 -1.5t6 -1.5l5 3h4v-25h-19q-14 0 -20 4q-6 0 -8 8q0 2 -2.5 5 t-2.5 8v69h-14zM1636 -115h27v-16q8 18 31 18q8 0 16 -4q6 -4 12 -12q2 8 11 12q8 4 16 4q10 0 23 -4q8 -8 10 -14q4 -8 4 -19v-71h-27v63q0 23 -16 23q-18 0 -19 -23v-63h-26v74q0 4 -4 8t-15 4q-16 0 -16 -23v-63h-27v106z" />
<glyph unicode="1" horiz-adv-x="1847" d="M70 -193q0 17 8 23q10 10 20 10l27 4q10 0 10 6q0 16 -16 17q-10 0 -13 -6q-8 -2 -8 -11h-24q0 14 6 21q2 8 12 12q4 2 14 2q4 2 13 2q14 0 26 -4q8 -6 13 -12q2 -4 2 -14v-56q0 -10 2 -12q0 -2 4 -6v-4h-29v6q-2 2 -2 6l-8 -8q-4 -2 -6 -2t-4 -2q-4 -2 -13 -2 q-12 0 -18 2q-6 4 -10 10q-6 6 -6 18zM96 -190q0 -4 4 -9q4 -2 6.5 -4t4.5 -2q4 0 6 4h4l10 6q4 8 4 13v12q-2 0 -10 -4l-12 -2q-4 0 -13 -4q-4 -4 -4 -10zM125 565v494l268 59l-10 37l41 12l-8 39l41 8l-6 46l41 2v41h36l4 36l39 -6l9 41l43 -6l10 39l39 -10l16 37l39 -17 l23 39l34 -18l23 35l37 -25l24 33l35 -27l27 29l26 -25l27 23l27 -29l34 23l23 -37l39 20l18 -35l37 17l17 -41l43 12l12 -39l39 10l8 -43l43 4l2 -26l404 88v-496l-185 -41l4 -2l-24 -26l24 -29l-32 -27l22 -34l-37 -23l23 -37l-35 -20l14 -37l-39 -17l13 -43l-37 -12 l6 -39l-41 -8l2 -43l-39 -4v-39h-35l-6 -37l-39 2l-8 -37l-43 6l-10 -40l-39 12l-14 -39l-44 16l-18 -39l-37 21l-22 -35l-37 23l-25 -33l-30 26l-31 -26l-27 24l-26 -24l-25 31l-35 -23l-24 37l-37 -21l-19 35l-39 -16l-18 41l-39 -13l-12 37l-41 -8l-8 43l-43 -4l-5 41 h-40v35l-35 4l4 41l-41 6l8 43l-41 12l12 37l-28 12zM186 -115h25v-18h2l6 10q2 2 3 4t5 4q2 2 15 2h6v-28h-8q-27 0 -27 -25v-55h-27v106zM236 76v16q0 4 2 7t2 7q2 12 14 25q4 6 10 10t12 9q14 6 33 6h6q4 0 8.5 -1t8.5 -1q8 0 14 -7q14 -8 21 -18q4 -4 8 -12q0 -2 1 -3 t1 -3v-5h-33v3q0 2 -4 6q-2 4 -4 5t-6 5q-6 4 -19 4h-14l-14 -12q-10 -6 -11 -15q-4 -8 -4 -28q0 -8 1 -14.5t3 -14.5q2 -10 13 -14q6 -4 10 -6t10 -2h4q12 0 19 4q4 0 7 3l5 5q4 6 6 10t2 10h-37v27h66v-84h-21l-4 20q-6 -8 -14 -14q-4 -4 -9 -5t-10 -3q-4 0 -9 -1t-9 -1 q-12 0 -25 6q-14 6 -20 16q-8 6 -16 27q-4 10 -4 33zM236 702h10l8 5l10 10l8 10l11 10q4 8 8 13l63 86l19 30l20 31q6 8 11.5 15.5t9.5 15.5l16 33q2 4 0 6t-4 2q-8 0 -10 -2l-8 -4l-33 -41q-6 -6 -15 -19l-16 -20l-55 -80l-27 -41l-22 -43l-4 -6v-11zM262 -78h29v-24h-29 v24zM262 -115h29v-106h-29v106zM276 889q2 -4 4.5 -6t6.5 -6l18 -7q14 0 23 2q4 0 4 2q2 2 2 5q0 2 -2 2h-4q-4 0 -4 -2q-14 -2 -29 2q-8 4 -10 8q0 4 -1 5t-1 5q0 6 2 12l6 15l16 18q4 4 10.5 8t12.5 9q6 4 11 7t13 7l25 12q8 0 14 2t15 6l28 4q16 4 27 5q6 0 22 -5 q10 0 15 -6l10 -12v-16q0 -12 -2 -21l-10 -18q-4 -6 -7.5 -11.5t-7.5 -9.5q-4 -6 -9 -10t-11 -10q-4 -6 -21 -19l-22 -14l-25 -10l-14 -6q-2 0 -5 -1t-7 -1h-4q-4 0 -7 -3q-2 0 -2 -2q-4 0 -4 -4q0 -2 2 -2h4q4 0 7 2h4l26 9l27 12l27 10l26 16l23 17l20 18l17 21q4 4 7 9 t5 11q4 12 4 19q2 10 0 18l-6 14l-15 11q-6 2 -10 3t-10 1q-8 2 -23 2q-8 0 -24 -4q-14 0 -27.5 -4t-29.5 -9q-29 -8 -54 -22q-6 -4 -13 -7t-13 -7t-12.5 -8.5t-10.5 -10.5l-9 -9l-9 -9l-9 -21q-4 -10 0 -16zM317 -115h25v-16q12 18 33 18q8 0 20 -4q6 -4 13 -12q4 -8 4 -21 v-71h-29v63q0 12 -2 15q-4 8 -16 8q-8 0 -17 -8q-4 -12 -4 -17v-61h-27v106zM395 57q0 20 6 29q4 14 17 20q8 6 15 7.5t18 1.5q23 0 28 -9q12 -6 19 -22q4 -10 4 -31v-8h-78q0 -6 8 -18q6 -6 19 -7q4 0 7 1.5t5 1.5q8 8 8 10h31l-10 -21l-17 -12l-12 -3t-12 -1q-55 0 -56 61 zM428 68h45q-4 12 -8 16q-8 8 -14 8q-23 0 -23 -24zM430 -166q0 6 2 12.5t4 12.5q6 14 15 20q8 8 24 8q6 0 19 -4l7 -7t5 -7l2 16h24v-100q0 -10 -4 -27q-6 -10 -16 -14q-12 -6 -33 -6q-4 0 -9 1t-9 1q-6 2 -19 10q-4 4 -4 8q-2 4 -2 11h27l6 -9q2 -2 12 -2q12 0 15 2 q8 6 8 9q0 2 1 3t1 3v18q-12 -14 -29 -14q-6 0 -11 1t-11 3q-10 8 -17 20q-4 6 -6 13.5t-2 17.5zM461 -168q0 -8 2 -14q0 -4 6 -11q8 -4 12 -4q25 0 25 29q0 14 -8 23q-4 4 -8.5 7t-8.5 3q-8 0 -14 -10q-6 -6 -6 -23zM498 717q20 0 20 -15v-49q0 -8 10 -22l17 -4q4 -2 18 -2 q12 0 25 4q8 4 10 6q8 6 8 18q-4 -10 -10 -16l-12 -8h-15q-12 0 -18 2q-2 0 -10 8q-4 4 -4 14v49q0 10 4 11q4 4 14 4h6v4h-63v-4zM510 92v21h16v28h31v-28h16v-21h-16v-61q0 -8 2 -8q0 -2 2 -3h8l2 3h2v-25h-16q-14 0 -20 4q-6 0 -9 8q-2 2 -2 13v69h-16zM510 821 q2 -8 10 -12q10 -10 23 -6q14 0 26 6q10 2 17.5 6t15.5 8t15.5 9.5t15.5 13.5l24 20l15 15q0 2 4 6q0 2 2 4l4 6l16 16l15 21q6 4 10 10t8 10l6 -2l4 -6q0 -2 2 -4v-2q0 -2 -2 -4t-4 -6l-16 -17l-14 -20l-13 -19l-4 -18q-2 -2 -2 -8v-6l4 -8h8q10 0 17 2l16 10q4 4 10.5 8 t10.5 10q6 4 10 8.5t8 8.5l8 12l8 10l5 4l4 6q4 4 4 5l12 16l21 31q0 -4 1 -7.5t1 -7.5q4 -12 4 -14l4 -8q-16 -4 -25 -13l-20 -14q-4 -4 -7.5 -9t-5.5 -9q-2 -6 -2 -17q0 -6 11 -10h18q12 0 25 8q16 8 22 17q6 4 9 8t8 8l8 18q6 8 6 19v16q0 6 -4 15l-6 16l-7 6q0 4 -4 8 q0 2 -2 4v11h-8l-4 -4l-12 -9l-4 -12l-2 -2l-4 -6l-33 -45l-4 -6l-6 -11h-3v-2q-2 0 -4 -2l-4 -8l-6 -8l-14 -18l-23 -21l-12 -6q-4 -4 -12 -4v2l8 10l6 10l8 11l6 8l9 14l10 14l4 15q2 6 2 14q-2 2 -2 8l-2 4q0 4 -2 7v22l6 10q4 6 -4 13q-4 6 -17 0q-10 -2 -16 -9 q-6 -2 -10 -12q-4 -4 -4 -10q0 -8 2 -12l4 -2l4 -5l-12 -12l-23 -31l-20 -22q-4 0 -4 -4v-2l-2 -2q0 -2 -2 -2l-11 -15q-8 -6 -14 -12t-14 -10q-12 -12 -33 -23l-21 -8q-12 -4 -18 -2q-6 0 -6 4q-2 2 -2 6q0 2 4 11l2 8l10 16q4 -2 12 -2h19q10 2 26 12q6 2 11.5 6.5 t13.5 8.5l14 16q4 4 7.5 8t3.5 8l8 13q0 12 -4 14q-4 8 -8 10h-19h-9t-9 -4l-21 -8q-27 -14 -45 -29q-18 -16 -29 -34q-4 -4 -6 -9.5t-6 -11.5q-6 -8 -8 -18v-17zM545 -115h14v27h29v-27h16v-20h-16v-55q0 -6 2 -9q0 -2 2 -2h6l4 2h2v-22h-16q-12 0 -17 2q-10 4 -10 8 q-2 2 -2 12v64h-14v20zM567 870l15 23l18 20l6 9l10 8l11 10l12 4q8 2 14 0v-10l-6 -8q-6 -6 -6 -11q-4 -4 -5 -6t-5 -4q0 -2 -8 -10q-2 -2 -3.5 -4t-5.5 -4l-10 -8l-12 -9q-6 -2 -12 -2q-10 0 -13 2zM580 717h10q2 0 4 -2q12 -4 12 -23v15l10 8l2 2h9v4h-47v-4zM610 -115 h33l21 -78l20 78h31l-35 -102l-2 -2l-8 -23l-6 -12q-6 -6 -11 -6q-4 0 -7 -1t-7 -1h-14v22h16q2 0 6 4v5q2 2 2 6l-37 102zM639 694q0 -2 4 -10q0 -6 6 -6l13 -6q2 -2 20 -6l8 -2q8 -4 12 -5q4 0 9 -4q2 0 2 -2q6 -4 6 -10l-4 -8q-2 -4 -8 -6h-11q-10 0 -16 2l-16 6l-11 10 q-10 10 -10 21h-2v-43h2q0 6 4 6q4 4 8 4q2 0 2 -1t5 -1q2 0 3 -1t3 -1l14 -4q4 -2 14 -2q4 0 17 4q2 0 12 6q2 2 2 4t4 4v21l-6 6q-2 4 -12 8l-17 6h-10l-2 2q-4 2 -8 2t-6 2q-6 0 -8 2q-2 0 -7 4q-2 0 -2 4v2v9l4 4l9 4q2 0 4 1t6 1q6 0 14 -4q8 0 12 -4q8 -4 11 -8 q4 -2 5 -7.5t5 -9.5h2v31h-2q-2 -6 -8 -6h-8q-16 10 -31 10q-8 0 -21 -4l-12 -8q-2 -4 -3 -7.5t-1 -9.5zM641 92v21h14v8q0 33 35 33h15v-25h-15q-4 0 -4 -4v-12h19v-21h-19v-94h-31v94h-14zM723 37v76h29v-70q0 -20 20 -20h10l11 10q0 2 2 5t2 7v68h26v-115h-26v16 q-6 -8 -15 -12q-12 -6 -20 -6q-20 0 -29 12q-10 8 -10 29zM731 -115h25v-16h4q2 0 4 2l8 8l8 6q2 2 8 2q10 0 17 -4q8 -4 12 -8q8 -8 10 -20q6 -10 7 -23q0 -4 -1.5 -6t-1.5 -6t-2 -6t-4 -7q-4 -16 -12 -22q-10 -8 -25 -8q-10 0 -14 2l-8 6q-2 2 -6 2l-2 4v-51h-27v145z M741 627h103v39l-6 -13l-11 -14q-6 -6 -8 -6l-10 -2q-4 -2 -12 -2h-15v41h2q8 0 19 -6l4 -7q0 -2 1 -3t1 -3v-8h2v59h-2v-8l-4 -10q-10 -10 -19 -10h-4v43h17q16 0 22 -2l8 -6l5 -11l6 -14h4v37h-103v-4h4q8 0 11 -4q6 0 6 -11v-57q0 -16 -17 -16h-4v-2zM756 -170 q0 -14 8 -20q6 -8 16 -9q12 0 19 9q4 12 4 22t-4 23q-4 4 -8.5 7t-10.5 3q-25 0 -24 -35zM793 868v9l4 10l6 8q8 10 18 18l23 11q0 -4 1 -6.5t1 -4.5q-2 -4 -2 -8v-12l-4 -8l-9 -11l-8 -6q-2 0 -3 -1t-5 -1q-2 -2 -8 -2q-4 -4 -8 0q-2 0 -6 4zM844 -166q0 17 4 25 q6 14 16 20q10 8 27 8q23 0 31 -8q10 -6 16 -22q4 -16 4 -27v-6h-72q0 -12 7 -19q6 -6 16 -6q6 0 14 4l6 9h27q-4 -16 -8 -21q-4 -4 -8 -6t-9 -4q-12 -4 -22 -4q-49 0 -49 57zM852 -2v156h29v-156h-29zM870 -158h43q0 10 -6 17q-4 2 -7 4t-9 2q-16 0 -21 -23zM903 -2v156h29 v-156h-29zM905 674q0 -14 4 -21q4 -4 6.5 -7t6.5 -7q6 -6 18 -10q6 -2 11 -3t12 -1q16 0 26 6q8 4 13.5 9t9.5 9q6 8 6 25q0 10 -4 16q-4 12 -10 17q-4 6 -19 10q-12 6 -22 6q-20 0 -29 -8q-8 -2 -12 -7.5t-9 -9.5q-8 -10 -8 -24zM915 901q0 -8 5 -8l10 -8h10h12q8 2 14.5 4 t12.5 4l27 14l22 21l19 16l14 21l10 16l6 18q4 10 0 15q0 6 -6 10q0 4 -10 8q-2 0 -6 1t-8 1q-6 0 -19 -4q-4 0 -6 -1l-6 -3l-12 -4l-25 -16l-23 -19l-16 -18l-12 -19q-10 -16 -13 -26v-23zM928 674q0 4 1 8t1 8l6 12l6 11q2 2 4 2t6 2q4 4 13 4q0 -2 2 -2h4l6 -4l10 -8 q0 -4 2 -7.5t4 -9.5q0 -2 1 -7t1 -9q0 -12 -4 -25q-4 -4 -6 -9t-6 -9q-4 -2 -16 -2q-10 0 -13 2q-8 0 -12 10l-6 12q-4 12 -4 21zM940 895v12q4 14 10 21l15 22l10 13l24 30l9.5 9.5l9.5 9.5l8 8l10 4q4 2 11 2l4 -2q2 -2 2 -8q0 -2 -4 -10l-5 -9l-6 -10l-6 -10l-20 -31 l-17 -18l-20 -21q0 -2 -10 -6q-2 -4 -13 -8h-8q-4 0 -4 2zM948 -115h17v9q0 29 30 28h13v-22h-13l-2 -2l-2 -9v-4h19v-20h-19v-86h-26v86h-17v20zM1010 92v21h14v8q0 33 35 33h12v-25h-12q-2 0 -4 -4v-12h20v-21h-20v-94h-31v94h-14zM1018 -193q0 17 10 23q10 10 21 10l24 4 q8 0 8 6q0 16 -14 17q-10 0 -12 -6q-6 -4 -6 -11h-27q0 14 6 21q6 10 14 12q4 2 11 2q4 2 14 2t16.5 -1t12.5 -3q8 -6 12 -12q2 -4 2 -14v-56q0 -10 2 -12q0 -2 4 -6v-4h-31v2q0 2 -1 2t-1 2v6q-4 -2 -5 -4t-3 -4q-4 -2 -6 -2t-4 -2q-4 -2 -14 -2q-8 0 -15 2l-14 10 q-4 8 -4 18zM1032 627h49v2q-6 0 -10 2h-8l-4 10q-2 2 -2 12v56l80 -82h4v65q0 8 1 12.5t3 8.5q4 4 16 4v4h-47v-4h8q0 -2 4 -2q6 -4 7 -8q4 -4 4 -15v-39l-66 68h-37v-4q8 0 10 -2q2 0 3.5 -1t3.5 -1q2 -4 2 -11v-53q0 -6 -2 -10l-7 -8q-4 0 -7 -1t-5 -1v-2zM1047 -190 q0 -4 4 -9q6 -6 8 -6q4 0 6 4h4l10 6q2 4 2 13v12l-8 -4l-14 -2q-4 0 -8 -4t-4 -10zM1051 905q2 0 3 -1t3 -1q4 0 8 2l8 4q0 2 4 6q2 0 2 1.5t2 1.5l4 6q0 4 5 4l16 22l20 21l17 20l22 21l29 28l10 9l10 8l13 4q2 0 2 -2h-2l-4 -4q-2 -6 -9 -8l-4 -7l-12 -14q-4 -4 -6 -7 t-6 -7l-15 -23l-14 -20l-6 -19q-4 -10 0 -16q2 -6 8 -6h19q4 2 9 5t13 7l19 14l22 23q-2 -2 -2 -6q0 -6 4 -15q2 -4 10 -8q6 -2 21 2q12 2 24 13l21 14l7 7l7 7l13 13v-5q0 -2 -1.5 -3t-1.5 -3v-6q-4 -6 0 -10q0 -2 1.5 -3t1.5 -3q0 -6 6 -6h16l6 4l8 6l13 6l32 27l17 16 l-4 -12q-4 -6 -4 -19v-6q2 0 4 -2q0 -2 6 -2q4 0 8 4q8 0 12 6l11 6l12 13q2 0 10 8l9 9t10 9l18 21v4q0 2 -2 2q-4 0 -8 -4l-2 -4l-13 -15l-10 -12q-10 -6 -12 -12l-14 -12l-9 -7l-8 -2l-2 -2q-2 0 -4 2h2l8 15q4 8 8 12l7 12q4 2 8 11l63 92q10 10 13 16l16 16l37 43 q10 10 17 20.5t16 20.5l10 19v8q-2 2 -8 2q-2 0 -11 -4q-4 0 -6 -2t-6 -4q-4 0 -10 -6l-8 -6l-23 -19l-16 -18q-6 -6 -10.5 -11.5t-8.5 -11.5q-2 -4 -6 -9t-8 -11l-27 -41l-26 -45l-19 -33l-8 -16h-2l-14 -15q-4 -6 -8.5 -10t-10.5 -10l-18 -17l-10 -8l-7 -4l-4 -2l-4 -4 h-10l12 20q0 2 2 4q4 8 8.5 14.5t10.5 12.5l16 29l15 20l8 13l6 10l2 2l2 2q0 2 1 2t1 2q6 4 4 8q0 2 -6 2l-10 -4l-10 -6l-19 -12l-14 -13q0 6 -2 11q0 2 -6 6q-12 2 -21 0q-16 -4 -22 -8l-25 -13l-18 -16q-27 -18 -37 -39q-14 -16 -21 -37h-4l-16 -18q-6 -4 -11.5 -8.5 t-11.5 -8.5q-2 -4 -12 -8q-4 -4 -10 -4h-2q-2 2 0 4l6 8l6 11l12 14l21 27q4 6 9 13t9 15l8 17q4 10 2 16q0 6 -2 6q0 4 -6 4t-8 -2l-12 -4l-13 -8l-10 -8l-10 -9q-8 -8 -12 -8l-21 -22q-4 -4 -9 -9.5t-9 -9.5l-11 -12l-10 -10l2 4l25 35l26 37q0 2 1.5 2t1.5 2q2 2 2 4 q2 2 2 6l-7 6q-2 0 -3 1t-3 1t-4 -1t-6 -1l-10 -6l-4 -4q-4 -2 -4 -4t-2 -4l-5 -7l-77 -133q-2 -2 -2 -4v-2zM1083 55q0 6 1 11.5t3 11.5q2 10 11 18q10 10 20 15q6 4 25 4q16 0 24 -4q4 -4 8.5 -5.5t8.5 -5.5t6 -9t6 -11q4 -12 4 -25q0 -16 -8 -30q-2 -8 -18 -21 q-10 -8 -31 -8q-20 0 -35 8q-6 4 -10 10t-8 13q-6 12 -7 28zM1114 55q0 -8 2 -13t4 -9q4 -10 23 -10q16 0 20 10q6 6 6 22q0 14 -6 25q-6 10 -20 10q-16 0 -23 -10q-2 -4 -4 -10.5t-2 -14.5zM1128 -170q1 16 11 41q12 16 39 16q10 0 22 -4q8 -2 17 -14q4 -6 7 -11t3 -12h-31 q0 4 -4 13q-6 6 -12 6q-10 0 -17 -10q-8 -6 -8 -21q0 -6 1 -10t1 -8l8 -11q4 -4 13 -4q8 0 12 4q6 2 6 13h27q0 -10 -6 -23q-4 -4 -7.5 -7t-7.5 -5q-12 -6 -24 -6q-23 0 -35 12q-6 2 -10 16q-4 12 -5 25zM1167 627h107v41h-2q-4 -4 -4 -6.5t-2 -6.5q-4 -4 -4 -8l-5 -6 q-8 -8 -12 -10q-2 0 -6 -1t-8 -1h-25v73q0 10 6 11q2 4 13 4h6v4h-64v-4h4q16 0 17 -15v-57q0 -16 -17 -16h-4v-2zM1221 -2v115h28v-17q12 18 35 19q14 0 21 -4l14 -13q4 -12 4 -20v-80h-29v70q0 8 -4 16q-6 6 -16 6q-12 0 -19 -8q-4 -4 -4 -19v-65h-30zM1237 -166q0 9 4 25 q6 14 16 20q10 8 29 8q20 0 29 -8q10 -6 14 -22q6 -12 6 -27v-6h-71q0 -12 6 -19q6 -6 16 -6q6 0 14 4l7 9h26q-4 -16 -10 -21q-8 -8 -14 -10q-12 -4 -23 -4q-49 0 -49 57zM1264 -158h43q0 10 -7 17q-4 2 -7 4t-9 2q-16 0 -20 -23zM1266 963l2 2q0 2 2 4l6 10l8 10l6 12 l8 11l19 24l26 33l7 8l16 13q2 2 8 2q4 2 8 2l7 -4q0 -2 1 -3.5t1 -3.5q0 -4 -2 -8q0 -2 -5 -6l-16 -22l-12 -23l-17 -14l-16 -19l-10 -8l-13 -10l-10 -8q-4 0 -5 -2t-5 -2q-8 -4 -10 -3h-2q-2 2 -2 5zM1268 717h2q10 0 14 -2l4 -4t4 -6l29 -39v-21q0 -10 -2 -12 q-8 -4 -14 -4h-7v-2h68v2h-8q-8 0 -12 4t-5 12v23l25 34l4 7q8 4 10 4q0 2 4 2q2 0 3.5 1t3.5 1h2v4h-47v-4h6q8 0 10 -2q4 -2 4 -6t-6 -11l-19 -26l-24 30q-4 8 -4 9v2q0 2 2 2q0 2 6 2h8v4h-61v-4zM1337 92v21h19v28h26v-28h21v-21h-21v-61v-6q0 -2 2 -2q4 0 5.5 -1.5 t5.5 -1.5l4 3h4v-25h-21q-14 0 -16 4q-8 0 -10 8v82h-19zM1352 -190h30v-31h-30v31zM1401 -170q0 16 10 41q12 16 39 16q10 0 23 -4q6 -2 18 -14q8 -10 8 -23h-29l-6 13q-6 6 -12 6q-10 0 -16 -10q-6 -6 -6 -21q0 -6 1 -10t1 -8q4 -8 8 -11q2 -4 10 -4q10 0 12 4q6 2 6 13 h31q-4 -12 -8 -23q-4 -4 -8 -7t-8 -5q-10 -6 -25 -6q-20 0 -35 12q-6 2 -10 16q-4 12 -4 25zM1473 31q0 16 8 24q16 8 24 11l27 4q10 0 10 8q0 14 -18 14q-8 0 -13 -4q-6 -2 -8 -14h-26q0 14 6 24q4 6 16 13q4 4 12 4h13q25 0 32 -4l7.5 -7.5t5.5 -7.5t2 -14v-72q0 -6 8 -6 v-6h-33q-2 0 -2 2v2v2q0 4 -1 5t-1 3l-8 -8q-2 -2 -3 -2t-3 -2t-4 -2q-6 0 -9.5 -1t-7.5 -1t-8 1t-8 1q-4 4 -7 6t-7 6q-4 8 -4 21zM1501 31q0 -8 4 -8q4 -4 11 -5h8l4 2q10 4 10 7q4 8 4 14v14q-6 -6 -12 -6l-14 -4q-6 0 -11 -4q-4 -2 -4 -10zM1511 -168q0 13 2 21 q4 12 11 18q6 8 16 12q12 4 25 4q10 0 22 -4l8 -4t9 -6q4 -4 5 -9t5 -9q2 -6 2 -23q0 -16 -6 -29q-4 -14 -17 -20q-12 -6 -28 -6q-20 0 -31 8q-12 6 -18 20q-4 16 -5 27zM1538 -168q0 -14 6 -22q2 -4 8.5 -6.5t12.5 -2.5q16 0 18 9q6 8 6 22q0 13 -6 23q-4 10 -18 10 q-16 0 -21 -10q-6 -10 -6 -23zM1567 1167l28 37l13 23l26 35l2 2q0 4 4 4q0 2 2 2q0 -8 -2 -10l-8 -11l-6 -10l-6 -8l-16 -21l-19 -20l-10 -12q-4 -8 -8 -11zM1585 92v21h14v28h33v-28h19v-21h-19v-69q2 0 4 -1.5t6 -1.5l5 3h4v-25h-19q-14 0 -20 4q-6 0 -8 8q0 2 -2.5 5 t-2.5 8v69h-14zM1636 -115h27v-16q8 18 31 18q8 0 16 -4q6 -4 12 -12q2 8 11 12q8 4 16 4q10 0 23 -4q8 -8 10 -14q4 -8 4 -19v-71h-27v63q0 23 -16 23q-18 0 -19 -23v-63h-26v74q0 4 -4 8t-15 4q-16 0 -16 -23v-63h-27v106z" />
<glyph unicode="2" horiz-adv-x="1847" d="M70 -193q0 17 8 23q10 10 20 10l27 4q10 0 10 6q0 16 -16 17q-10 0 -13 -6q-8 -2 -8 -11h-24q0 14 6 21q2 8 12 12q4 2 14 2q4 2 13 2q14 0 26 -4q8 -6 13 -12q2 -4 2 -14v-56q0 -10 2 -12q0 -2 4 -6v-4h-29v6q-2 2 -2 6l-8 -8q-4 -2 -6 -2t-4 -2q-4 -2 -13 -2 q-12 0 -18 2q-6 4 -10 10q-6 6 -6 18zM96 -190q0 -4 4 -9q4 -2 6.5 -4t4.5 -2q4 0 6 4h4l10 6q4 8 4 13v12q-2 0 -10 -4l-12 -2q-4 0 -13 -4q-4 -4 -4 -10zM125 565v494l268 59l-10 37l41 12l-8 39l41 8l-6 46l41 2v41h36l4 36l39 -6l9 41l43 -6l10 39l39 -10l16 37l39 -17 l23 39l34 -18l23 35l37 -25l24 33l35 -27l27 29l26 -25l27 23l27 -29l34 23l23 -37l39 20l18 -35l37 17l17 -41l43 12l12 -39l39 10l8 -43l43 4l2 -26l404 88v-496l-185 -41l4 -2l-24 -26l24 -29l-32 -27l22 -34l-37 -23l23 -37l-35 -20l14 -37l-39 -17l13 -43l-37 -12 l6 -39l-41 -8l2 -43l-39 -4v-39h-35l-6 -37l-39 2l-8 -37l-43 6l-10 -40l-39 12l-14 -39l-44 16l-18 -39l-37 21l-22 -35l-37 23l-25 -33l-30 26l-31 -26l-27 24l-26 -24l-25 31l-35 -23l-24 37l-37 -21l-19 35l-39 -16l-18 41l-39 -13l-12 37l-41 -8l-8 43l-43 -4l-5 41 h-40v35l-35 4l4 41l-41 6l8 43l-41 12l12 37l-28 12zM186 -115h25v-18h2l6 10q2 2 3 4t5 4q2 2 15 2h6v-28h-8q-27 0 -27 -25v-55h-27v106zM236 76v16q0 4 2 7t2 7q2 12 14 25q4 6 10 10t12 9q14 6 33 6h6q4 0 8.5 -1t8.5 -1q8 0 14 -7q14 -8 21 -18q4 -4 8 -12q0 -2 1 -3 t1 -3v-5h-33v3q0 2 -4 6q-2 4 -4 5t-6 5q-6 4 -19 4h-14l-14 -12q-10 -6 -11 -15q-4 -8 -4 -28q0 -8 1 -14.5t3 -14.5q2 -10 13 -14q6 -4 10 -6t10 -2h4q12 0 19 4q4 0 7 3l5 5q4 6 6 10t2 10h-37v27h66v-84h-21l-4 20q-6 -8 -14 -14q-4 -4 -9 -5t-10 -3q-4 0 -9 -1t-9 -1 q-12 0 -25 6q-14 6 -20 16q-8 6 -16 27q-4 10 -4 33zM236 702h10l8 5l10 10l8 10l11 10q4 8 8 13l63 86l19 30l20 31q6 8 11.5 15.5t9.5 15.5l16 33q2 4 0 6t-4 2q-8 0 -10 -2l-8 -4l-33 -41q-6 -6 -15 -19l-16 -20l-55 -80l-27 -41l-22 -43l-4 -6v-11zM262 -78h29v-24h-29 v24zM262 -115h29v-106h-29v106zM276 889q2 -4 4.5 -6t6.5 -6l18 -7q14 0 23 2q4 0 4 2q2 2 2 5q0 2 -2 2h-4q-4 0 -4 -2q-14 -2 -29 2q-8 4 -10 8q0 4 -1 5t-1 5q0 6 2 12l6 15l16 18q4 4 10.5 8t12.5 9q6 4 11 7t13 7l25 12q8 0 14 2t15 6l28 4q16 4 27 5q6 0 22 -5 q10 0 15 -6l10 -12v-16q0 -12 -2 -21l-10 -18q-4 -6 -7.5 -11.5t-7.5 -9.5q-4 -6 -9 -10t-11 -10q-4 -6 -21 -19l-22 -14l-25 -10l-14 -6q-2 0 -5 -1t-7 -1h-4q-4 0 -7 -3q-2 0 -2 -2q-4 0 -4 -4q0 -2 2 -2h4q4 0 7 2h4l26 9l27 12l27 10l26 16l23 17l20 18l17 21q4 4 7 9 t5 11q4 12 4 19q2 10 0 18l-6 14l-15 11q-6 2 -10 3t-10 1q-8 2 -23 2q-8 0 -24 -4q-14 0 -27.5 -4t-29.5 -9q-29 -8 -54 -22q-6 -4 -13 -7t-13 -7t-12.5 -8.5t-10.5 -10.5l-9 -9l-9 -9l-9 -21q-4 -10 0 -16zM317 -115h25v-16q12 18 33 18q8 0 20 -4q6 -4 13 -12q4 -8 4 -21 v-71h-29v63q0 12 -2 15q-4 8 -16 8q-8 0 -17 -8q-4 -12 -4 -17v-61h-27v106zM395 57q0 20 6 29q4 14 17 20q8 6 15 7.5t18 1.5q23 0 28 -9q12 -6 19 -22q4 -10 4 -31v-8h-78q0 -6 8 -18q6 -6 19 -7q4 0 7 1.5t5 1.5q8 8 8 10h31l-10 -21l-17 -12l-12 -3t-12 -1q-55 0 -56 61 zM428 68h45q-4 12 -8 16q-8 8 -14 8q-23 0 -23 -24zM430 -166q0 6 2 12.5t4 12.5q6 14 15 20q8 8 24 8q6 0 19 -4l7 -7t5 -7l2 16h24v-100q0 -10 -4 -27q-6 -10 -16 -14q-12 -6 -33 -6q-4 0 -9 1t-9 1q-6 2 -19 10q-4 4 -4 8q-2 4 -2 11h27l6 -9q2 -2 12 -2q12 0 15 2 q8 6 8 9q0 2 1 3t1 3v18q-12 -14 -29 -14q-6 0 -11 1t-11 3q-10 8 -17 20q-4 6 -6 13.5t-2 17.5zM461 -168q0 -8 2 -14q0 -4 6 -11q8 -4 12 -4q25 0 25 29q0 14 -8 23q-4 4 -8.5 7t-8.5 3q-8 0 -14 -10q-6 -6 -6 -23zM498 717q20 0 20 -15v-49q0 -8 10 -22l17 -4q4 -2 18 -2 q12 0 25 4q8 4 10 6q8 6 8 18q-4 -10 -10 -16l-12 -8h-15q-12 0 -18 2q-2 0 -10 8q-4 4 -4 14v49q0 10 4 11q4 4 14 4h6v4h-63v-4zM510 92v21h16v28h31v-28h16v-21h-16v-61q0 -8 2 -8q0 -2 2 -3h8l2 3h2v-25h-16q-14 0 -20 4q-6 0 -9 8q-2 2 -2 13v69h-16zM510 821 q2 -8 10 -12q10 -10 23 -6q14 0 26 6q10 2 17.5 6t15.5 8t15.5 9.5t15.5 13.5l24 20l15 15q0 2 4 6q0 2 2 4l4 6l16 16l15 21q6 4 10 10t8 10l6 -2l4 -6q0 -2 2 -4v-2q0 -2 -2 -4t-4 -6l-16 -17l-14 -20l-13 -19l-4 -18q-2 -2 -2 -8v-6l4 -8h8q10 0 17 2l16 10q4 4 10.5 8 t10.5 10q6 4 10 8.5t8 8.5l8 12l8 10l5 4l4 6q4 4 4 5l12 16l21 31q0 -4 1 -7.5t1 -7.5q4 -12 4 -14l4 -8q-16 -4 -25 -13l-20 -14q-4 -4 -7.5 -9t-5.5 -9q-2 -6 -2 -17q0 -6 11 -10h18q12 0 25 8q16 8 22 17q6 4 9 8t8 8l8 18q6 8 6 19v16q0 6 -4 15l-6 16l-7 6q0 4 -4 8 q0 2 -2 4v11h-8l-4 -4l-12 -9l-4 -12l-2 -2l-4 -6l-33 -45l-4 -6l-6 -11h-3v-2q-2 0 -4 -2l-4 -8l-6 -8l-14 -18l-23 -21l-12 -6q-4 -4 -12 -4v2l8 10l6 10l8 11l6 8l9 14l10 14l4 15q2 6 2 14q-2 2 -2 8l-2 4q0 4 -2 7v22l6 10q4 6 -4 13q-4 6 -17 0q-10 -2 -16 -9 q-6 -2 -10 -12q-4 -4 -4 -10q0 -8 2 -12l4 -2l4 -5l-12 -12l-23 -31l-20 -22q-4 0 -4 -4v-2l-2 -2q0 -2 -2 -2l-11 -15q-8 -6 -14 -12t-14 -10q-12 -12 -33 -23l-21 -8q-12 -4 -18 -2q-6 0 -6 4q-2 2 -2 6q0 2 4 11l2 8l10 16q4 -2 12 -2h19q10 2 26 12q6 2 11.5 6.5 t13.5 8.5l14 16q4 4 7.5 8t3.5 8l8 13q0 12 -4 14q-4 8 -8 10h-19h-9t-9 -4l-21 -8q-27 -14 -45 -29q-18 -16 -29 -34q-4 -4 -6 -9.5t-6 -11.5q-6 -8 -8 -18v-17zM545 -115h14v27h29v-27h16v-20h-16v-55q0 -6 2 -9q0 -2 2 -2h6l4 2h2v-22h-16q-12 0 -17 2q-10 4 -10 8 q-2 2 -2 12v64h-14v20zM567 870l15 23l18 20l6 9l10 8l11 10l12 4q8 2 14 0v-10l-6 -8q-6 -6 -6 -11q-4 -4 -5 -6t-5 -4q0 -2 -8 -10q-2 -2 -3.5 -4t-5.5 -4l-10 -8l-12 -9q-6 -2 -12 -2q-10 0 -13 2zM580 717h10q2 0 4 -2q12 -4 12 -23v15l10 8l2 2h9v4h-47v-4zM610 -115 h33l21 -78l20 78h31l-35 -102l-2 -2l-8 -23l-6 -12q-6 -6 -11 -6q-4 0 -7 -1t-7 -1h-14v22h16q2 0 6 4v5q2 2 2 6l-37 102zM639 694q0 -2 4 -10q0 -6 6 -6l13 -6q2 -2 20 -6l8 -2q8 -4 12 -5q4 0 9 -4q2 0 2 -2q6 -4 6 -10l-4 -8q-2 -4 -8 -6h-11q-10 0 -16 2l-16 6l-11 10 q-10 10 -10 21h-2v-43h2q0 6 4 6q4 4 8 4q2 0 2 -1t5 -1q2 0 3 -1t3 -1l14 -4q4 -2 14 -2q4 0 17 4q2 0 12 6q2 2 2 4t4 4v21l-6 6q-2 4 -12 8l-17 6h-10l-2 2q-4 2 -8 2t-6 2q-6 0 -8 2q-2 0 -7 4q-2 0 -2 4v2v9l4 4l9 4q2 0 4 1t6 1q6 0 14 -4q8 0 12 -4q8 -4 11 -8 q4 -2 5 -7.5t5 -9.5h2v31h-2q-2 -6 -8 -6h-8q-16 10 -31 10q-8 0 -21 -4l-12 -8q-2 -4 -3 -7.5t-1 -9.5zM641 92v21h14v8q0 33 35 33h15v-25h-15q-4 0 -4 -4v-12h19v-21h-19v-94h-31v94h-14zM723 37v76h29v-70q0 -20 20 -20h10l11 10q0 2 2 5t2 7v68h26v-115h-26v16 q-6 -8 -15 -12q-12 -6 -20 -6q-20 0 -29 12q-10 8 -10 29zM731 -115h25v-16h4q2 0 4 2l8 8l8 6q2 2 8 2q10 0 17 -4q8 -4 12 -8q8 -8 10 -20q6 -10 7 -23q0 -4 -1.5 -6t-1.5 -6t-2 -6t-4 -7q-4 -16 -12 -22q-10 -8 -25 -8q-10 0 -14 2l-8 6q-2 2 -6 2l-2 4v-51h-27v145z M741 627h103v39l-6 -13l-11 -14q-6 -6 -8 -6l-10 -2q-4 -2 -12 -2h-15v41h2q8 0 19 -6l4 -7q0 -2 1 -3t1 -3v-8h2v59h-2v-8l-4 -10q-10 -10 -19 -10h-4v43h17q16 0 22 -2l8 -6l5 -11l6 -14h4v37h-103v-4h4q8 0 11 -4q6 0 6 -11v-57q0 -16 -17 -16h-4v-2zM756 -170 q0 -14 8 -20q6 -8 16 -9q12 0 19 9q4 12 4 22t-4 23q-4 4 -8.5 7t-10.5 3q-25 0 -24 -35zM793 868v9l4 10l6 8q8 10 18 18l23 11q0 -4 1 -6.5t1 -4.5q-2 -4 -2 -8v-12l-4 -8l-9 -11l-8 -6q-2 0 -3 -1t-5 -1q-2 -2 -8 -2q-4 -4 -8 0q-2 0 -6 4zM844 -166q0 17 4 25 q6 14 16 20q10 8 27 8q23 0 31 -8q10 -6 16 -22q4 -16 4 -27v-6h-72q0 -12 7 -19q6 -6 16 -6q6 0 14 4l6 9h27q-4 -16 -8 -21q-4 -4 -8 -6t-9 -4q-12 -4 -22 -4q-49 0 -49 57zM852 -2v156h29v-156h-29zM870 -158h43q0 10 -6 17q-4 2 -7 4t-9 2q-16 0 -21 -23zM903 -2v156h29 v-156h-29zM905 674q0 -14 4 -21q4 -4 6.5 -7t6.5 -7q6 -6 18 -10q6 -2 11 -3t12 -1q16 0 26 6q8 4 13.5 9t9.5 9q6 8 6 25q0 10 -4 16q-4 12 -10 17q-4 6 -19 10q-12 6 -22 6q-20 0 -29 -8q-8 -2 -12 -7.5t-9 -9.5q-8 -10 -8 -24zM915 901q0 -8 5 -8l10 -8h10h12q8 2 14.5 4 t12.5 4l27 14l22 21l19 16l14 21l10 16l6 18q4 10 0 15q0 6 -6 10q0 4 -10 8q-2 0 -6 1t-8 1q-6 0 -19 -4q-4 0 -6 -1l-6 -3l-12 -4l-25 -16l-23 -19l-16 -18l-12 -19q-10 -16 -13 -26v-23zM928 674q0 4 1 8t1 8l6 12l6 11q2 2 4 2t6 2q4 4 13 4q0 -2 2 -2h4l6 -4l10 -8 q0 -4 2 -7.5t4 -9.5q0 -2 1 -7t1 -9q0 -12 -4 -25q-4 -4 -6 -9t-6 -9q-4 -2 -16 -2q-10 0 -13 2q-8 0 -12 10l-6 12q-4 12 -4 21zM940 895v12q4 14 10 21l15 22l10 13l24 30l9.5 9.5l9.5 9.5l8 8l10 4q4 2 11 2l4 -2q2 -2 2 -8q0 -2 -4 -10l-5 -9l-6 -10l-6 -10l-20 -31 l-17 -18l-20 -21q0 -2 -10 -6q-2 -4 -13 -8h-8q-4 0 -4 2zM948 -115h17v9q0 29 30 28h13v-22h-13l-2 -2l-2 -9v-4h19v-20h-19v-86h-26v86h-17v20zM1010 92v21h14v8q0 33 35 33h12v-25h-12q-2 0 -4 -4v-12h20v-21h-20v-94h-31v94h-14zM1018 -193q0 17 10 23q10 10 21 10l24 4 q8 0 8 6q0 16 -14 17q-10 0 -12 -6q-6 -4 -6 -11h-27q0 14 6 21q6 10 14 12q4 2 11 2q4 2 14 2t16.5 -1t12.5 -3q8 -6 12 -12q2 -4 2 -14v-56q0 -10 2 -12q0 -2 4 -6v-4h-31v2q0 2 -1 2t-1 2v6q-4 -2 -5 -4t-3 -4q-4 -2 -6 -2t-4 -2q-4 -2 -14 -2q-8 0 -15 2l-14 10 q-4 8 -4 18zM1032 627h49v2q-6 0 -10 2h-8l-4 10q-2 2 -2 12v56l80 -82h4v65q0 8 1 12.5t3 8.5q4 4 16 4v4h-47v-4h8q0 -2 4 -2q6 -4 7 -8q4 -4 4 -15v-39l-66 68h-37v-4q8 0 10 -2q2 0 3.5 -1t3.5 -1q2 -4 2 -11v-53q0 -6 -2 -10l-7 -8q-4 0 -7 -1t-5 -1v-2zM1047 -190 q0 -4 4 -9q6 -6 8 -6q4 0 6 4h4l10 6q2 4 2 13v12l-8 -4l-14 -2q-4 0 -8 -4t-4 -10zM1051 905q2 0 3 -1t3 -1q4 0 8 2l8 4q0 2 4 6q2 0 2 1.5t2 1.5l4 6q0 4 5 4l16 22l20 21l17 20l22 21l29 28l10 9l10 8l13 4q2 0 2 -2h-2l-4 -4q-2 -6 -9 -8l-4 -7l-12 -14q-4 -4 -6 -7 t-6 -7l-15 -23l-14 -20l-6 -19q-4 -10 0 -16q2 -6 8 -6h19q4 2 9 5t13 7l19 14l22 23q-2 -2 -2 -6q0 -6 4 -15q2 -4 10 -8q6 -2 21 2q12 2 24 13l21 14l7 7l7 7l13 13v-5q0 -2 -1.5 -3t-1.5 -3v-6q-4 -6 0 -10q0 -2 1.5 -3t1.5 -3q0 -6 6 -6h16l6 4l8 6l13 6l32 27l17 16 l-4 -12q-4 -6 -4 -19v-6q2 0 4 -2q0 -2 6 -2q4 0 8 4q8 0 12 6l11 6l12 13q2 0 10 8l9 9t10 9l18 21v4q0 2 -2 2q-4 0 -8 -4l-2 -4l-13 -15l-10 -12q-10 -6 -12 -12l-14 -12l-9 -7l-8 -2l-2 -2q-2 0 -4 2h2l8 15q4 8 8 12l7 12q4 2 8 11l63 92q10 10 13 16l16 16l37 43 q10 10 17 20.5t16 20.5l10 19v8q-2 2 -8 2q-2 0 -11 -4q-4 0 -6 -2t-6 -4q-4 0 -10 -6l-8 -6l-23 -19l-16 -18q-6 -6 -10.5 -11.5t-8.5 -11.5q-2 -4 -6 -9t-8 -11l-27 -41l-26 -45l-19 -33l-8 -16h-2l-14 -15q-4 -6 -8.5 -10t-10.5 -10l-18 -17l-10 -8l-7 -4l-4 -2l-4 -4 h-10l12 20q0 2 2 4q4 8 8.5 14.5t10.5 12.5l16 29l15 20l8 13l6 10l2 2l2 2q0 2 1 2t1 2q6 4 4 8q0 2 -6 2l-10 -4l-10 -6l-19 -12l-14 -13q0 6 -2 11q0 2 -6 6q-12 2 -21 0q-16 -4 -22 -8l-25 -13l-18 -16q-27 -18 -37 -39q-14 -16 -21 -37h-4l-16 -18q-6 -4 -11.5 -8.5 t-11.5 -8.5q-2 -4 -12 -8q-4 -4 -10 -4h-2q-2 2 0 4l6 8l6 11l12 14l21 27q4 6 9 13t9 15l8 17q4 10 2 16q0 6 -2 6q0 4 -6 4t-8 -2l-12 -4l-13 -8l-10 -8l-10 -9q-8 -8 -12 -8l-21 -22q-4 -4 -9 -9.5t-9 -9.5l-11 -12l-10 -10l2 4l25 35l26 37q0 2 1.5 2t1.5 2q2 2 2 4 q2 2 2 6l-7 6q-2 0 -3 1t-3 1t-4 -1t-6 -1l-10 -6l-4 -4q-4 -2 -4 -4t-2 -4l-5 -7l-77 -133q-2 -2 -2 -4v-2zM1083 55q0 6 1 11.5t3 11.5q2 10 11 18q10 10 20 15q6 4 25 4q16 0 24 -4q4 -4 8.5 -5.5t8.5 -5.5t6 -9t6 -11q4 -12 4 -25q0 -16 -8 -30q-2 -8 -18 -21 q-10 -8 -31 -8q-20 0 -35 8q-6 4 -10 10t-8 13q-6 12 -7 28zM1114 55q0 -8 2 -13t4 -9q4 -10 23 -10q16 0 20 10q6 6 6 22q0 14 -6 25q-6 10 -20 10q-16 0 -23 -10q-2 -4 -4 -10.5t-2 -14.5zM1128 -170q1 16 11 41q12 16 39 16q10 0 22 -4q8 -2 17 -14q4 -6 7 -11t3 -12h-31 q0 4 -4 13q-6 6 -12 6q-10 0 -17 -10q-8 -6 -8 -21q0 -6 1 -10t1 -8l8 -11q4 -4 13 -4q8 0 12 4q6 2 6 13h27q0 -10 -6 -23q-4 -4 -7.5 -7t-7.5 -5q-12 -6 -24 -6q-23 0 -35 12q-6 2 -10 16q-4 12 -5 25zM1167 627h107v41h-2q-4 -4 -4 -6.5t-2 -6.5q-4 -4 -4 -8l-5 -6 q-8 -8 -12 -10q-2 0 -6 -1t-8 -1h-25v73q0 10 6 11q2 4 13 4h6v4h-64v-4h4q16 0 17 -15v-57q0 -16 -17 -16h-4v-2zM1221 -2v115h28v-17q12 18 35 19q14 0 21 -4l14 -13q4 -12 4 -20v-80h-29v70q0 8 -4 16q-6 6 -16 6q-12 0 -19 -8q-4 -4 -4 -19v-65h-30zM1237 -166q0 9 4 25 q6 14 16 20q10 8 29 8q20 0 29 -8q10 -6 14 -22q6 -12 6 -27v-6h-71q0 -12 6 -19q6 -6 16 -6q6 0 14 4l7 9h26q-4 -16 -10 -21q-8 -8 -14 -10q-12 -4 -23 -4q-49 0 -49 57zM1264 -158h43q0 10 -7 17q-4 2 -7 4t-9 2q-16 0 -20 -23zM1266 963l2 2q0 2 2 4l6 10l8 10l6 12 l8 11l19 24l26 33l7 8l16 13q2 2 8 2q4 2 8 2l7 -4q0 -2 1 -3.5t1 -3.5q0 -4 -2 -8q0 -2 -5 -6l-16 -22l-12 -23l-17 -14l-16 -19l-10 -8l-13 -10l-10 -8q-4 0 -5 -2t-5 -2q-8 -4 -10 -3h-2q-2 2 -2 5zM1268 717h2q10 0 14 -2l4 -4t4 -6l29 -39v-21q0 -10 -2 -12 q-8 -4 -14 -4h-7v-2h68v2h-8q-8 0 -12 4t-5 12v23l25 34l4 7q8 4 10 4q0 2 4 2q2 0 3.5 1t3.5 1h2v4h-47v-4h6q8 0 10 -2q4 -2 4 -6t-6 -11l-19 -26l-24 30q-4 8 -4 9v2q0 2 2 2q0 2 6 2h8v4h-61v-4zM1337 92v21h19v28h26v-28h21v-21h-21v-61v-6q0 -2 2 -2q4 0 5.5 -1.5 t5.5 -1.5l4 3h4v-25h-21q-14 0 -16 4q-8 0 -10 8v82h-19zM1352 -190h30v-31h-30v31zM1401 -170q0 16 10 41q12 16 39 16q10 0 23 -4q6 -2 18 -14q8 -10 8 -23h-29l-6 13q-6 6 -12 6q-10 0 -16 -10q-6 -6 -6 -21q0 -6 1 -10t1 -8q4 -8 8 -11q2 -4 10 -4q10 0 12 4q6 2 6 13 h31q-4 -12 -8 -23q-4 -4 -8 -7t-8 -5q-10 -6 -25 -6q-20 0 -35 12q-6 2 -10 16q-4 12 -4 25zM1473 31q0 16 8 24q16 8 24 11l27 4q10 0 10 8q0 14 -18 14q-8 0 -13 -4q-6 -2 -8 -14h-26q0 14 6 24q4 6 16 13q4 4 12 4h13q25 0 32 -4l7.5 -7.5t5.5 -7.5t2 -14v-72q0 -6 8 -6 v-6h-33q-2 0 -2 2v2v2q0 4 -1 5t-1 3l-8 -8q-2 -2 -3 -2t-3 -2t-4 -2q-6 0 -9.5 -1t-7.5 -1t-8 1t-8 1q-4 4 -7 6t-7 6q-4 8 -4 21zM1501 31q0 -8 4 -8q4 -4 11 -5h8l4 2q10 4 10 7q4 8 4 14v14q-6 -6 -12 -6l-14 -4q-6 0 -11 -4q-4 -2 -4 -10zM1511 -168q0 13 2 21 q4 12 11 18q6 8 16 12q12 4 25 4q10 0 22 -4l8 -4t9 -6q4 -4 5 -9t5 -9q2 -6 2 -23q0 -16 -6 -29q-4 -14 -17 -20q-12 -6 -28 -6q-20 0 -31 8q-12 6 -18 20q-4 16 -5 27zM1538 -168q0 -14 6 -22q2 -4 8.5 -6.5t12.5 -2.5q16 0 18 9q6 8 6 22q0 13 -6 23q-4 10 -18 10 q-16 0 -21 -10q-6 -10 -6 -23zM1567 1167l28 37l13 23l26 35l2 2q0 4 4 4q0 2 2 2q0 -8 -2 -10l-8 -11l-6 -10l-6 -8l-16 -21l-19 -20l-10 -12q-4 -8 -8 -11zM1585 92v21h14v28h33v-28h19v-21h-19v-69q2 0 4 -1.5t6 -1.5l5 3h4v-25h-19q-14 0 -20 4q-6 0 -8 8q0 2 -2.5 5 t-2.5 8v69h-14zM1636 -115h27v-16q8 18 31 18q8 0 16 -4q6 -4 12 -12q2 8 11 12q8 4 16 4q10 0 23 -4q8 -8 10 -14q4 -8 4 -19v-71h-27v63q0 23 -16 23q-18 0 -19 -23v-63h-26v74q0 4 -4 8t-15 4q-16 0 -16 -23v-63h-27v106z" />
<glyph unicode="3" horiz-adv-x="1847" d="M70 -193q0 17 8 23q10 10 20 10l27 4q10 0 10 6q0 16 -16 17q-10 0 -13 -6q-8 -2 -8 -11h-24q0 14 6 21q2 8 12 12q4 2 14 2q4 2 13 2q14 0 26 -4q8 -6 13 -12q2 -4 2 -14v-56q0 -10 2 -12q0 -2 4 -6v-4h-29v6q-2 2 -2 6l-8 -8q-4 -2 -6 -2t-4 -2q-4 -2 -13 -2 q-12 0 -18 2q-6 4 -10 10q-6 6 -6 18zM96 -190q0 -4 4 -9q4 -2 6.5 -4t4.5 -2q4 0 6 4h4l10 6q4 8 4 13v12q-2 0 -10 -4l-12 -2q-4 0 -13 -4q-4 -4 -4 -10zM125 565v494l268 59l-10 37l41 12l-8 39l41 8l-6 46l41 2v41h36l4 36l39 -6l9 41l43 -6l10 39l39 -10l16 37l39 -17 l23 39l34 -18l23 35l37 -25l24 33l35 -27l27 29l26 -25l27 23l27 -29l34 23l23 -37l39 20l18 -35l37 17l17 -41l43 12l12 -39l39 10l8 -43l43 4l2 -26l404 88v-496l-185 -41l4 -2l-24 -26l24 -29l-32 -27l22 -34l-37 -23l23 -37l-35 -20l14 -37l-39 -17l13 -43l-37 -12 l6 -39l-41 -8l2 -43l-39 -4v-39h-35l-6 -37l-39 2l-8 -37l-43 6l-10 -40l-39 12l-14 -39l-44 16l-18 -39l-37 21l-22 -35l-37 23l-25 -33l-30 26l-31 -26l-27 24l-26 -24l-25 31l-35 -23l-24 37l-37 -21l-19 35l-39 -16l-18 41l-39 -13l-12 37l-41 -8l-8 43l-43 -4l-5 41 h-40v35l-35 4l4 41l-41 6l8 43l-41 12l12 37l-28 12zM186 -115h25v-18h2l6 10q2 2 3 4t5 4q2 2 15 2h6v-28h-8q-27 0 -27 -25v-55h-27v106zM236 76v16q0 4 2 7t2 7q2 12 14 25q4 6 10 10t12 9q14 6 33 6h6q4 0 8.5 -1t8.5 -1q8 0 14 -7q14 -8 21 -18q4 -4 8 -12q0 -2 1 -3 t1 -3v-5h-33v3q0 2 -4 6q-2 4 -4 5t-6 5q-6 4 -19 4h-14l-14 -12q-10 -6 -11 -15q-4 -8 -4 -28q0 -8 1 -14.5t3 -14.5q2 -10 13 -14q6 -4 10 -6t10 -2h4q12 0 19 4q4 0 7 3l5 5q4 6 6 10t2 10h-37v27h66v-84h-21l-4 20q-6 -8 -14 -14q-4 -4 -9 -5t-10 -3q-4 0 -9 -1t-9 -1 q-12 0 -25 6q-14 6 -20 16q-8 6 -16 27q-4 10 -4 33zM236 702h10l8 5l10 10l8 10l11 10q4 8 8 13l63 86l19 30l20 31q6 8 11.5 15.5t9.5 15.5l16 33q2 4 0 6t-4 2q-8 0 -10 -2l-8 -4l-33 -41q-6 -6 -15 -19l-16 -20l-55 -80l-27 -41l-22 -43l-4 -6v-11zM262 -78h29v-24h-29 v24zM262 -115h29v-106h-29v106zM276 889q2 -4 4.5 -6t6.5 -6l18 -7q14 0 23 2q4 0 4 2q2 2 2 5q0 2 -2 2h-4q-4 0 -4 -2q-14 -2 -29 2q-8 4 -10 8q0 4 -1 5t-1 5q0 6 2 12l6 15l16 18q4 4 10.5 8t12.5 9q6 4 11 7t13 7l25 12q8 0 14 2t15 6l28 4q16 4 27 5q6 0 22 -5 q10 0 15 -6l10 -12v-16q0 -12 -2 -21l-10 -18q-4 -6 -7.5 -11.5t-7.5 -9.5q-4 -6 -9 -10t-11 -10q-4 -6 -21 -19l-22 -14l-25 -10l-14 -6q-2 0 -5 -1t-7 -1h-4q-4 0 -7 -3q-2 0 -2 -2q-4 0 -4 -4q0 -2 2 -2h4q4 0 7 2h4l26 9l27 12l27 10l26 16l23 17l20 18l17 21q4 4 7 9 t5 11q4 12 4 19q2 10 0 18l-6 14l-15 11q-6 2 -10 3t-10 1q-8 2 -23 2q-8 0 -24 -4q-14 0 -27.5 -4t-29.5 -9q-29 -8 -54 -22q-6 -4 -13 -7t-13 -7t-12.5 -8.5t-10.5 -10.5l-9 -9l-9 -9l-9 -21q-4 -10 0 -16zM317 -115h25v-16q12 18 33 18q8 0 20 -4q6 -4 13 -12q4 -8 4 -21 v-71h-29v63q0 12 -2 15q-4 8 -16 8q-8 0 -17 -8q-4 -12 -4 -17v-61h-27v106zM395 57q0 20 6 29q4 14 17 20q8 6 15 7.5t18 1.5q23 0 28 -9q12 -6 19 -22q4 -10 4 -31v-8h-78q0 -6 8 -18q6 -6 19 -7q4 0 7 1.5t5 1.5q8 8 8 10h31l-10 -21l-17 -12l-12 -3t-12 -1q-55 0 -56 61 zM428 68h45q-4 12 -8 16q-8 8 -14 8q-23 0 -23 -24zM430 -166q0 6 2 12.5t4 12.5q6 14 15 20q8 8 24 8q6 0 19 -4l7 -7t5 -7l2 16h24v-100q0 -10 -4 -27q-6 -10 -16 -14q-12 -6 -33 -6q-4 0 -9 1t-9 1q-6 2 -19 10q-4 4 -4 8q-2 4 -2 11h27l6 -9q2 -2 12 -2q12 0 15 2 q8 6 8 9q0 2 1 3t1 3v18q-12 -14 -29 -14q-6 0 -11 1t-11 3q-10 8 -17 20q-4 6 -6 13.5t-2 17.5zM461 -168q0 -8 2 -14q0 -4 6 -11q8 -4 12 -4q25 0 25 29q0 14 -8 23q-4 4 -8.5 7t-8.5 3q-8 0 -14 -10q-6 -6 -6 -23zM498 717q20 0 20 -15v-49q0 -8 10 -22l17 -4q4 -2 18 -2 q12 0 25 4q8 4 10 6q8 6 8 18q-4 -10 -10 -16l-12 -8h-15q-12 0 -18 2q-2 0 -10 8q-4 4 -4 14v49q0 10 4 11q4 4 14 4h6v4h-63v-4zM510 92v21h16v28h31v-28h16v-21h-16v-61q0 -8 2 -8q0 -2 2 -3h8l2 3h2v-25h-16q-14 0 -20 4q-6 0 -9 8q-2 2 -2 13v69h-16zM510 821 q2 -8 10 -12q10 -10 23 -6q14 0 26 6q10 2 17.5 6t15.5 8t15.5 9.5t15.5 13.5l24 20l15 15q0 2 4 6q0 2 2 4l4 6l16 16l15 21q6 4 10 10t8 10l6 -2l4 -6q0 -2 2 -4v-2q0 -2 -2 -4t-4 -6l-16 -17l-14 -20l-13 -19l-4 -18q-2 -2 -2 -8v-6l4 -8h8q10 0 17 2l16 10q4 4 10.5 8 t10.5 10q6 4 10 8.5t8 8.5l8 12l8 10l5 4l4 6q4 4 4 5l12 16l21 31q0 -4 1 -7.5t1 -7.5q4 -12 4 -14l4 -8q-16 -4 -25 -13l-20 -14q-4 -4 -7.5 -9t-5.5 -9q-2 -6 -2 -17q0 -6 11 -10h18q12 0 25 8q16 8 22 17q6 4 9 8t8 8l8 18q6 8 6 19v16q0 6 -4 15l-6 16l-7 6q0 4 -4 8 q0 2 -2 4v11h-8l-4 -4l-12 -9l-4 -12l-2 -2l-4 -6l-33 -45l-4 -6l-6 -11h-3v-2q-2 0 -4 -2l-4 -8l-6 -8l-14 -18l-23 -21l-12 -6q-4 -4 -12 -4v2l8 10l6 10l8 11l6 8l9 14l10 14l4 15q2 6 2 14q-2 2 -2 8l-2 4q0 4 -2 7v22l6 10q4 6 -4 13q-4 6 -17 0q-10 -2 -16 -9 q-6 -2 -10 -12q-4 -4 -4 -10q0 -8 2 -12l4 -2l4 -5l-12 -12l-23 -31l-20 -22q-4 0 -4 -4v-2l-2 -2q0 -2 -2 -2l-11 -15q-8 -6 -14 -12t-14 -10q-12 -12 -33 -23l-21 -8q-12 -4 -18 -2q-6 0 -6 4q-2 2 -2 6q0 2 4 11l2 8l10 16q4 -2 12 -2h19q10 2 26 12q6 2 11.5 6.5 t13.5 8.5l14 16q4 4 7.5 8t3.5 8l8 13q0 12 -4 14q-4 8 -8 10h-19h-9t-9 -4l-21 -8q-27 -14 -45 -29q-18 -16 -29 -34q-4 -4 -6 -9.5t-6 -11.5q-6 -8 -8 -18v-17zM545 -115h14v27h29v-27h16v-20h-16v-55q0 -6 2 -9q0 -2 2 -2h6l4 2h2v-22h-16q-12 0 -17 2q-10 4 -10 8 q-2 2 -2 12v64h-14v20zM567 870l15 23l18 20l6 9l10 8l11 10l12 4q8 2 14 0v-10l-6 -8q-6 -6 -6 -11q-4 -4 -5 -6t-5 -4q0 -2 -8 -10q-2 -2 -3.5 -4t-5.5 -4l-10 -8l-12 -9q-6 -2 -12 -2q-10 0 -13 2zM580 717h10q2 0 4 -2q12 -4 12 -23v15l10 8l2 2h9v4h-47v-4zM610 -115 h33l21 -78l20 78h31l-35 -102l-2 -2l-8 -23l-6 -12q-6 -6 -11 -6q-4 0 -7 -1t-7 -1h-14v22h16q2 0 6 4v5q2 2 2 6l-37 102zM639 694q0 -2 4 -10q0 -6 6 -6l13 -6q2 -2 20 -6l8 -2q8 -4 12 -5q4 0 9 -4q2 0 2 -2q6 -4 6 -10l-4 -8q-2 -4 -8 -6h-11q-10 0 -16 2l-16 6l-11 10 q-10 10 -10 21h-2v-43h2q0 6 4 6q4 4 8 4q2 0 2 -1t5 -1q2 0 3 -1t3 -1l14 -4q4 -2 14 -2q4 0 17 4q2 0 12 6q2 2 2 4t4 4v21l-6 6q-2 4 -12 8l-17 6h-10l-2 2q-4 2 -8 2t-6 2q-6 0 -8 2q-2 0 -7 4q-2 0 -2 4v2v9l4 4l9 4q2 0 4 1t6 1q6 0 14 -4q8 0 12 -4q8 -4 11 -8 q4 -2 5 -7.5t5 -9.5h2v31h-2q-2 -6 -8 -6h-8q-16 10 -31 10q-8 0 -21 -4l-12 -8q-2 -4 -3 -7.5t-1 -9.5zM641 92v21h14v8q0 33 35 33h15v-25h-15q-4 0 -4 -4v-12h19v-21h-19v-94h-31v94h-14zM723 37v76h29v-70q0 -20 20 -20h10l11 10q0 2 2 5t2 7v68h26v-115h-26v16 q-6 -8 -15 -12q-12 -6 -20 -6q-20 0 -29 12q-10 8 -10 29zM731 -115h25v-16h4q2 0 4 2l8 8l8 6q2 2 8 2q10 0 17 -4q8 -4 12 -8q8 -8 10 -20q6 -10 7 -23q0 -4 -1.5 -6t-1.5 -6t-2 -6t-4 -7q-4 -16 -12 -22q-10 -8 -25 -8q-10 0 -14 2l-8 6q-2 2 -6 2l-2 4v-51h-27v145z M741 627h103v39l-6 -13l-11 -14q-6 -6 -8 -6l-10 -2q-4 -2 -12 -2h-15v41h2q8 0 19 -6l4 -7q0 -2 1 -3t1 -3v-8h2v59h-2v-8l-4 -10q-10 -10 -19 -10h-4v43h17q16 0 22 -2l8 -6l5 -11l6 -14h4v37h-103v-4h4q8 0 11 -4q6 0 6 -11v-57q0 -16 -17 -16h-4v-2zM756 -170 q0 -14 8 -20q6 -8 16 -9q12 0 19 9q4 12 4 22t-4 23q-4 4 -8.5 7t-10.5 3q-25 0 -24 -35zM793 868v9l4 10l6 8q8 10 18 18l23 11q0 -4 1 -6.5t1 -4.5q-2 -4 -2 -8v-12l-4 -8l-9 -11l-8 -6q-2 0 -3 -1t-5 -1q-2 -2 -8 -2q-4 -4 -8 0q-2 0 -6 4zM844 -166q0 17 4 25 q6 14 16 20q10 8 27 8q23 0 31 -8q10 -6 16 -22q4 -16 4 -27v-6h-72q0 -12 7 -19q6 -6 16 -6q6 0 14 4l6 9h27q-4 -16 -8 -21q-4 -4 -8 -6t-9 -4q-12 -4 -22 -4q-49 0 -49 57zM852 -2v156h29v-156h-29zM870 -158h43q0 10 -6 17q-4 2 -7 4t-9 2q-16 0 -21 -23zM903 -2v156h29 v-156h-29zM905 674q0 -14 4 -21q4 -4 6.5 -7t6.5 -7q6 -6 18 -10q6 -2 11 -3t12 -1q16 0 26 6q8 4 13.5 9t9.5 9q6 8 6 25q0 10 -4 16q-4 12 -10 17q-4 6 -19 10q-12 6 -22 6q-20 0 -29 -8q-8 -2 -12 -7.5t-9 -9.5q-8 -10 -8 -24zM915 901q0 -8 5 -8l10 -8h10h12q8 2 14.5 4 t12.5 4l27 14l22 21l19 16l14 21l10 16l6 18q4 10 0 15q0 6 -6 10q0 4 -10 8q-2 0 -6 1t-8 1q-6 0 -19 -4q-4 0 -6 -1l-6 -3l-12 -4l-25 -16l-23 -19l-16 -18l-12 -19q-10 -16 -13 -26v-23zM928 674q0 4 1 8t1 8l6 12l6 11q2 2 4 2t6 2q4 4 13 4q0 -2 2 -2h4l6 -4l10 -8 q0 -4 2 -7.5t4 -9.5q0 -2 1 -7t1 -9q0 -12 -4 -25q-4 -4 -6 -9t-6 -9q-4 -2 -16 -2q-10 0 -13 2q-8 0 -12 10l-6 12q-4 12 -4 21zM940 895v12q4 14 10 21l15 22l10 13l24 30l9.5 9.5l9.5 9.5l8 8l10 4q4 2 11 2l4 -2q2 -2 2 -8q0 -2 -4 -10l-5 -9l-6 -10l-6 -10l-20 -31 l-17 -18l-20 -21q0 -2 -10 -6q-2 -4 -13 -8h-8q-4 0 -4 2zM948 -115h17v9q0 29 30 28h13v-22h-13l-2 -2l-2 -9v-4h19v-20h-19v-86h-26v86h-17v20zM1010 92v21h14v8q0 33 35 33h12v-25h-12q-2 0 -4 -4v-12h20v-21h-20v-94h-31v94h-14zM1018 -193q0 17 10 23q10 10 21 10l24 4 q8 0 8 6q0 16 -14 17q-10 0 -12 -6q-6 -4 -6 -11h-27q0 14 6 21q6 10 14 12q4 2 11 2q4 2 14 2t16.5 -1t12.5 -3q8 -6 12 -12q2 -4 2 -14v-56q0 -10 2 -12q0 -2 4 -6v-4h-31v2q0 2 -1 2t-1 2v6q-4 -2 -5 -4t-3 -4q-4 -2 -6 -2t-4 -2q-4 -2 -14 -2q-8 0 -15 2l-14 10 q-4 8 -4 18zM1032 627h49v2q-6 0 -10 2h-8l-4 10q-2 2 -2 12v56l80 -82h4v65q0 8 1 12.5t3 8.5q4 4 16 4v4h-47v-4h8q0 -2 4 -2q6 -4 7 -8q4 -4 4 -15v-39l-66 68h-37v-4q8 0 10 -2q2 0 3.5 -1t3.5 -1q2 -4 2 -11v-53q0 -6 -2 -10l-7 -8q-4 0 -7 -1t-5 -1v-2zM1047 -190 q0 -4 4 -9q6 -6 8 -6q4 0 6 4h4l10 6q2 4 2 13v12l-8 -4l-14 -2q-4 0 -8 -4t-4 -10zM1051 905q2 0 3 -1t3 -1q4 0 8 2l8 4q0 2 4 6q2 0 2 1.5t2 1.5l4 6q0 4 5 4l16 22l20 21l17 20l22 21l29 28l10 9l10 8l13 4q2 0 2 -2h-2l-4 -4q-2 -6 -9 -8l-4 -7l-12 -14q-4 -4 -6 -7 t-6 -7l-15 -23l-14 -20l-6 -19q-4 -10 0 -16q2 -6 8 -6h19q4 2 9 5t13 7l19 14l22 23q-2 -2 -2 -6q0 -6 4 -15q2 -4 10 -8q6 -2 21 2q12 2 24 13l21 14l7 7l7 7l13 13v-5q0 -2 -1.5 -3t-1.5 -3v-6q-4 -6 0 -10q0 -2 1.5 -3t1.5 -3q0 -6 6 -6h16l6 4l8 6l13 6l32 27l17 16 l-4 -12q-4 -6 -4 -19v-6q2 0 4 -2q0 -2 6 -2q4 0 8 4q8 0 12 6l11 6l12 13q2 0 10 8l9 9t10 9l18 21v4q0 2 -2 2q-4 0 -8 -4l-2 -4l-13 -15l-10 -12q-10 -6 -12 -12l-14 -12l-9 -7l-8 -2l-2 -2q-2 0 -4 2h2l8 15q4 8 8 12l7 12q4 2 8 11l63 92q10 10 13 16l16 16l37 43 q10 10 17 20.5t16 20.5l10 19v8q-2 2 -8 2q-2 0 -11 -4q-4 0 -6 -2t-6 -4q-4 0 -10 -6l-8 -6l-23 -19l-16 -18q-6 -6 -10.5 -11.5t-8.5 -11.5q-2 -4 -6 -9t-8 -11l-27 -41l-26 -45l-19 -33l-8 -16h-2l-14 -15q-4 -6 -8.5 -10t-10.5 -10l-18 -17l-10 -8l-7 -4l-4 -2l-4 -4 h-10l12 20q0 2 2 4q4 8 8.5 14.5t10.5 12.5l16 29l15 20l8 13l6 10l2 2l2 2q0 2 1 2t1 2q6 4 4 8q0 2 -6 2l-10 -4l-10 -6l-19 -12l-14 -13q0 6 -2 11q0 2 -6 6q-12 2 -21 0q-16 -4 -22 -8l-25 -13l-18 -16q-27 -18 -37 -39q-14 -16 -21 -37h-4l-16 -18q-6 -4 -11.5 -8.5 t-11.5 -8.5q-2 -4 -12 -8q-4 -4 -10 -4h-2q-2 2 0 4l6 8l6 11l12 14l21 27q4 6 9 13t9 15l8 17q4 10 2 16q0 6 -2 6q0 4 -6 4t-8 -2l-12 -4l-13 -8l-10 -8l-10 -9q-8 -8 -12 -8l-21 -22q-4 -4 -9 -9.5t-9 -9.5l-11 -12l-10 -10l2 4l25 35l26 37q0 2 1.5 2t1.5 2q2 2 2 4 q2 2 2 6l-7 6q-2 0 -3 1t-3 1t-4 -1t-6 -1l-10 -6l-4 -4q-4 -2 -4 -4t-2 -4l-5 -7l-77 -133q-2 -2 -2 -4v-2zM1083 55q0 6 1 11.5t3 11.5q2 10 11 18q10 10 20 15q6 4 25 4q16 0 24 -4q4 -4 8.5 -5.5t8.5 -5.5t6 -9t6 -11q4 -12 4 -25q0 -16 -8 -30q-2 -8 -18 -21 q-10 -8 -31 -8q-20 0 -35 8q-6 4 -10 10t-8 13q-6 12 -7 28zM1114 55q0 -8 2 -13t4 -9q4 -10 23 -10q16 0 20 10q6 6 6 22q0 14 -6 25q-6 10 -20 10q-16 0 -23 -10q-2 -4 -4 -10.5t-2 -14.5zM1128 -170q1 16 11 41q12 16 39 16q10 0 22 -4q8 -2 17 -14q4 -6 7 -11t3 -12h-31 q0 4 -4 13q-6 6 -12 6q-10 0 -17 -10q-8 -6 -8 -21q0 -6 1 -10t1 -8l8 -11q4 -4 13 -4q8 0 12 4q6 2 6 13h27q0 -10 -6 -23q-4 -4 -7.5 -7t-7.5 -5q-12 -6 -24 -6q-23 0 -35 12q-6 2 -10 16q-4 12 -5 25zM1167 627h107v41h-2q-4 -4 -4 -6.5t-2 -6.5q-4 -4 -4 -8l-5 -6 q-8 -8 -12 -10q-2 0 -6 -1t-8 -1h-25v73q0 10 6 11q2 4 13 4h6v4h-64v-4h4q16 0 17 -15v-57q0 -16 -17 -16h-4v-2zM1221 -2v115h28v-17q12 18 35 19q14 0 21 -4l14 -13q4 -12 4 -20v-80h-29v70q0 8 -4 16q-6 6 -16 6q-12 0 -19 -8q-4 -4 -4 -19v-65h-30zM1237 -166q0 9 4 25 q6 14 16 20q10 8 29 8q20 0 29 -8q10 -6 14 -22q6 -12 6 -27v-6h-71q0 -12 6 -19q6 -6 16 -6q6 0 14 4l7 9h26q-4 -16 -10 -21q-8 -8 -14 -10q-12 -4 -23 -4q-49 0 -49 57zM1264 -158h43q0 10 -7 17q-4 2 -7 4t-9 2q-16 0 -20 -23zM1266 963l2 2q0 2 2 4l6 10l8 10l6 12 l8 11l19 24l26 33l7 8l16 13q2 2 8 2q4 2 8 2l7 -4q0 -2 1 -3.5t1 -3.5q0 -4 -2 -8q0 -2 -5 -6l-16 -22l-12 -23l-17 -14l-16 -19l-10 -8l-13 -10l-10 -8q-4 0 -5 -2t-5 -2q-8 -4 -10 -3h-2q-2 2 -2 5zM1268 717h2q10 0 14 -2l4 -4t4 -6l29 -39v-21q0 -10 -2 -12 q-8 -4 -14 -4h-7v-2h68v2h-8q-8 0 -12 4t-5 12v23l25 34l4 7q8 4 10 4q0 2 4 2q2 0 3.5 1t3.5 1h2v4h-47v-4h6q8 0 10 -2q4 -2 4 -6t-6 -11l-19 -26l-24 30q-4 8 -4 9v2q0 2 2 2q0 2 6 2h8v4h-61v-4zM1337 92v21h19v28h26v-28h21v-21h-21v-61v-6q0 -2 2 -2q4 0 5.5 -1.5 t5.5 -1.5l4 3h4v-25h-21q-14 0 -16 4q-8 0 -10 8v82h-19zM1352 -190h30v-31h-30v31zM1401 -170q0 16 10 41q12 16 39 16q10 0 23 -4q6 -2 18 -14q8 -10 8 -23h-29l-6 13q-6 6 -12 6q-10 0 -16 -10q-6 -6 -6 -21q0 -6 1 -10t1 -8q4 -8 8 -11q2 -4 10 -4q10 0 12 4q6 2 6 13 h31q-4 -12 -8 -23q-4 -4 -8 -7t-8 -5q-10 -6 -25 -6q-20 0 -35 12q-6 2 -10 16q-4 12 -4 25zM1473 31q0 16 8 24q16 8 24 11l27 4q10 0 10 8q0 14 -18 14q-8 0 -13 -4q-6 -2 -8 -14h-26q0 14 6 24q4 6 16 13q4 4 12 4h13q25 0 32 -4l7.5 -7.5t5.5 -7.5t2 -14v-72q0 -6 8 -6 v-6h-33q-2 0 -2 2v2v2q0 4 -1 5t-1 3l-8 -8q-2 -2 -3 -2t-3 -2t-4 -2q-6 0 -9.5 -1t-7.5 -1t-8 1t-8 1q-4 4 -7 6t-7 6q-4 8 -4 21zM1501 31q0 -8 4 -8q4 -4 11 -5h8l4 2q10 4 10 7q4 8 4 14v14q-6 -6 -12 -6l-14 -4q-6 0 -11 -4q-4 -2 -4 -10zM1511 -168q0 13 2 21 q4 12 11 18q6 8 16 12q12 4 25 4q10 0 22 -4l8 -4t9 -6q4 -4 5 -9t5 -9q2 -6 2 -23q0 -16 -6 -29q-4 -14 -17 -20q-12 -6 -28 -6q-20 0 -31 8q-12 6 -18 20q-4 16 -5 27zM1538 -168q0 -14 6 -22q2 -4 8.5 -6.5t12.5 -2.5q16 0 18 9q6 8 6 22q0 13 -6 23q-4 10 -18 10 q-16 0 -21 -10q-6 -10 -6 -23zM1567 1167l28 37l13 23l26 35l2 2q0 4 4 4q0 2 2 2q0 -8 -2 -10l-8 -11l-6 -10l-6 -8l-16 -21l-19 -20l-10 -12q-4 -8 -8 -11zM1585 92v21h14v28h33v-28h19v-21h-19v-69q2 0 4 -1.5t6 -1.5l5 3h4v-25h-19q-14 0 -20 4q-6 0 -8 8q0 2 -2.5 5 t-2.5 8v69h-14zM1636 -115h27v-16q8 18 31 18q8 0 16 -4q6 -4 12 -12q2 8 11 12q8 4 16 4q10 0 23 -4q8 -8 10 -14q4 -8 4 -19v-71h-27v63q0 23 -16 23q-18 0 -19 -23v-63h-26v74q0 4 -4 8t-15 4q-16 0 -16 -23v-63h-27v106z" />
<glyph unicode="4" horiz-adv-x="1847" d="M70 -193q0 17 8 23q10 10 20 10l27 4q10 0 10 6q0 16 -16 17q-10 0 -13 -6q-8 -2 -8 -11h-24q0 14 6 21q2 8 12 12q4 2 14 2q4 2 13 2q14 0 26 -4q8 -6 13 -12q2 -4 2 -14v-56q0 -10 2 -12q0 -2 4 -6v-4h-29v6q-2 2 -2 6l-8 -8q-4 -2 -6 -2t-4 -2q-4 -2 -13 -2 q-12 0 -18 2q-6 4 -10 10q-6 6 -6 18zM96 -190q0 -4 4 -9q4 -2 6.5 -4t4.5 -2q4 0 6 4h4l10 6q4 8 4 13v12q-2 0 -10 -4l-12 -2q-4 0 -13 -4q-4 -4 -4 -10zM125 565v494l268 59l-10 37l41 12l-8 39l41 8l-6 46l41 2v41h36l4 36l39 -6l9 41l43 -6l10 39l39 -10l16 37l39 -17 l23 39l34 -18l23 35l37 -25l24 33l35 -27l27 29l26 -25l27 23l27 -29l34 23l23 -37l39 20l18 -35l37 17l17 -41l43 12l12 -39l39 10l8 -43l43 4l2 -26l404 88v-496l-185 -41l4 -2l-24 -26l24 -29l-32 -27l22 -34l-37 -23l23 -37l-35 -20l14 -37l-39 -17l13 -43l-37 -12 l6 -39l-41 -8l2 -43l-39 -4v-39h-35l-6 -37l-39 2l-8 -37l-43 6l-10 -40l-39 12l-14 -39l-44 16l-18 -39l-37 21l-22 -35l-37 23l-25 -33l-30 26l-31 -26l-27 24l-26 -24l-25 31l-35 -23l-24 37l-37 -21l-19 35l-39 -16l-18 41l-39 -13l-12 37l-41 -8l-8 43l-43 -4l-5 41 h-40v35l-35 4l4 41l-41 6l8 43l-41 12l12 37l-28 12zM186 -115h25v-18h2l6 10q2 2 3 4t5 4q2 2 15 2h6v-28h-8q-27 0 -27 -25v-55h-27v106zM236 76v16q0 4 2 7t2 7q2 12 14 25q4 6 10 10t12 9q14 6 33 6h6q4 0 8.5 -1t8.5 -1q8 0 14 -7q14 -8 21 -18q4 -4 8 -12q0 -2 1 -3 t1 -3v-5h-33v3q0 2 -4 6q-2 4 -4 5t-6 5q-6 4 -19 4h-14l-14 -12q-10 -6 -11 -15q-4 -8 -4 -28q0 -8 1 -14.5t3 -14.5q2 -10 13 -14q6 -4 10 -6t10 -2h4q12 0 19 4q4 0 7 3l5 5q4 6 6 10t2 10h-37v27h66v-84h-21l-4 20q-6 -8 -14 -14q-4 -4 -9 -5t-10 -3q-4 0 -9 -1t-9 -1 q-12 0 -25 6q-14 6 -20 16q-8 6 -16 27q-4 10 -4 33zM236 702h10l8 5l10 10l8 10l11 10q4 8 8 13l63 86l19 30l20 31q6 8 11.5 15.5t9.5 15.5l16 33q2 4 0 6t-4 2q-8 0 -10 -2l-8 -4l-33 -41q-6 -6 -15 -19l-16 -20l-55 -80l-27 -41l-22 -43l-4 -6v-11zM262 -78h29v-24h-29 v24zM262 -115h29v-106h-29v106zM276 889q2 -4 4.5 -6t6.5 -6l18 -7q14 0 23 2q4 0 4 2q2 2 2 5q0 2 -2 2h-4q-4 0 -4 -2q-14 -2 -29 2q-8 4 -10 8q0 4 -1 5t-1 5q0 6 2 12l6 15l16 18q4 4 10.5 8t12.5 9q6 4 11 7t13 7l25 12q8 0 14 2t15 6l28 4q16 4 27 5q6 0 22 -5 q10 0 15 -6l10 -12v-16q0 -12 -2 -21l-10 -18q-4 -6 -7.5 -11.5t-7.5 -9.5q-4 -6 -9 -10t-11 -10q-4 -6 -21 -19l-22 -14l-25 -10l-14 -6q-2 0 -5 -1t-7 -1h-4q-4 0 -7 -3q-2 0 -2 -2q-4 0 -4 -4q0 -2 2 -2h4q4 0 7 2h4l26 9l27 12l27 10l26 16l23 17l20 18l17 21q4 4 7 9 t5 11q4 12 4 19q2 10 0 18l-6 14l-15 11q-6 2 -10 3t-10 1q-8 2 -23 2q-8 0 -24 -4q-14 0 -27.5 -4t-29.5 -9q-29 -8 -54 -22q-6 -4 -13 -7t-13 -7t-12.5 -8.5t-10.5 -10.5l-9 -9l-9 -9l-9 -21q-4 -10 0 -16zM317 -115h25v-16q12 18 33 18q8 0 20 -4q6 -4 13 -12q4 -8 4 -21 v-71h-29v63q0 12 -2 15q-4 8 -16 8q-8 0 -17 -8q-4 -12 -4 -17v-61h-27v106zM395 57q0 20 6 29q4 14 17 20q8 6 15 7.5t18 1.5q23 0 28 -9q12 -6 19 -22q4 -10 4 -31v-8h-78q0 -6 8 -18q6 -6 19 -7q4 0 7 1.5t5 1.5q8 8 8 10h31l-10 -21l-17 -12l-12 -3t-12 -1q-55 0 -56 61 zM428 68h45q-4 12 -8 16q-8 8 -14 8q-23 0 -23 -24zM430 -166q0 6 2 12.5t4 12.5q6 14 15 20q8 8 24 8q6 0 19 -4l7 -7t5 -7l2 16h24v-100q0 -10 -4 -27q-6 -10 -16 -14q-12 -6 -33 -6q-4 0 -9 1t-9 1q-6 2 -19 10q-4 4 -4 8q-2 4 -2 11h27l6 -9q2 -2 12 -2q12 0 15 2 q8 6 8 9q0 2 1 3t1 3v18q-12 -14 -29 -14q-6 0 -11 1t-11 3q-10 8 -17 20q-4 6 -6 13.5t-2 17.5zM461 -168q0 -8 2 -14q0 -4 6 -11q8 -4 12 -4q25 0 25 29q0 14 -8 23q-4 4 -8.5 7t-8.5 3q-8 0 -14 -10q-6 -6 -6 -23zM498 717q20 0 20 -15v-49q0 -8 10 -22l17 -4q4 -2 18 -2 q12 0 25 4q8 4 10 6q8 6 8 18q-4 -10 -10 -16l-12 -8h-15q-12 0 -18 2q-2 0 -10 8q-4 4 -4 14v49q0 10 4 11q4 4 14 4h6v4h-63v-4zM510 92v21h16v28h31v-28h16v-21h-16v-61q0 -8 2 -8q0 -2 2 -3h8l2 3h2v-25h-16q-14 0 -20 4q-6 0 -9 8q-2 2 -2 13v69h-16zM510 821 q2 -8 10 -12q10 -10 23 -6q14 0 26 6q10 2 17.5 6t15.5 8t15.5 9.5t15.5 13.5l24 20l15 15q0 2 4 6q0 2 2 4l4 6l16 16l15 21q6 4 10 10t8 10l6 -2l4 -6q0 -2 2 -4v-2q0 -2 -2 -4t-4 -6l-16 -17l-14 -20l-13 -19l-4 -18q-2 -2 -2 -8v-6l4 -8h8q10 0 17 2l16 10q4 4 10.5 8 t10.5 10q6 4 10 8.5t8 8.5l8 12l8 10l5 4l4 6q4 4 4 5l12 16l21 31q0 -4 1 -7.5t1 -7.5q4 -12 4 -14l4 -8q-16 -4 -25 -13l-20 -14q-4 -4 -7.5 -9t-5.5 -9q-2 -6 -2 -17q0 -6 11 -10h18q12 0 25 8q16 8 22 17q6 4 9 8t8 8l8 18q6 8 6 19v16q0 6 -4 15l-6 16l-7 6q0 4 -4 8 q0 2 -2 4v11h-8l-4 -4l-12 -9l-4 -12l-2 -2l-4 -6l-33 -45l-4 -6l-6 -11h-3v-2q-2 0 -4 -2l-4 -8l-6 -8l-14 -18l-23 -21l-12 -6q-4 -4 -12 -4v2l8 10l6 10l8 11l6 8l9 14l10 14l4 15q2 6 2 14q-2 2 -2 8l-2 4q0 4 -2 7v22l6 10q4 6 -4 13q-4 6 -17 0q-10 -2 -16 -9 q-6 -2 -10 -12q-4 -4 -4 -10q0 -8 2 -12l4 -2l4 -5l-12 -12l-23 -31l-20 -22q-4 0 -4 -4v-2l-2 -2q0 -2 -2 -2l-11 -15q-8 -6 -14 -12t-14 -10q-12 -12 -33 -23l-21 -8q-12 -4 -18 -2q-6 0 -6 4q-2 2 -2 6q0 2 4 11l2 8l10 16q4 -2 12 -2h19q10 2 26 12q6 2 11.5 6.5 t13.5 8.5l14 16q4 4 7.5 8t3.5 8l8 13q0 12 -4 14q-4 8 -8 10h-19h-9t-9 -4l-21 -8q-27 -14 -45 -29q-18 -16 -29 -34q-4 -4 -6 -9.5t-6 -11.5q-6 -8 -8 -18v-17zM545 -115h14v27h29v-27h16v-20h-16v-55q0 -6 2 -9q0 -2 2 -2h6l4 2h2v-22h-16q-12 0 -17 2q-10 4 -10 8 q-2 2 -2 12v64h-14v20zM567 870l15 23l18 20l6 9l10 8l11 10l12 4q8 2 14 0v-10l-6 -8q-6 -6 -6 -11q-4 -4 -5 -6t-5 -4q0 -2 -8 -10q-2 -2 -3.5 -4t-5.5 -4l-10 -8l-12 -9q-6 -2 -12 -2q-10 0 -13 2zM580 717h10q2 0 4 -2q12 -4 12 -23v15l10 8l2 2h9v4h-47v-4zM610 -115 h33l21 -78l20 78h31l-35 -102l-2 -2l-8 -23l-6 -12q-6 -6 -11 -6q-4 0 -7 -1t-7 -1h-14v22h16q2 0 6 4v5q2 2 2 6l-37 102zM639 694q0 -2 4 -10q0 -6 6 -6l13 -6q2 -2 20 -6l8 -2q8 -4 12 -5q4 0 9 -4q2 0 2 -2q6 -4 6 -10l-4 -8q-2 -4 -8 -6h-11q-10 0 -16 2l-16 6l-11 10 q-10 10 -10 21h-2v-43h2q0 6 4 6q4 4 8 4q2 0 2 -1t5 -1q2 0 3 -1t3 -1l14 -4q4 -2 14 -2q4 0 17 4q2 0 12 6q2 2 2 4t4 4v21l-6 6q-2 4 -12 8l-17 6h-10l-2 2q-4 2 -8 2t-6 2q-6 0 -8 2q-2 0 -7 4q-2 0 -2 4v2v9l4 4l9 4q2 0 4 1t6 1q6 0 14 -4q8 0 12 -4q8 -4 11 -8 q4 -2 5 -7.5t5 -9.5h2v31h-2q-2 -6 -8 -6h-8q-16 10 -31 10q-8 0 -21 -4l-12 -8q-2 -4 -3 -7.5t-1 -9.5zM641 92v21h14v8q0 33 35 33h15v-25h-15q-4 0 -4 -4v-12h19v-21h-19v-94h-31v94h-14zM723 37v76h29v-70q0 -20 20 -20h10l11 10q0 2 2 5t2 7v68h26v-115h-26v16 q-6 -8 -15 -12q-12 -6 -20 -6q-20 0 -29 12q-10 8 -10 29zM731 -115h25v-16h4q2 0 4 2l8 8l8 6q2 2 8 2q10 0 17 -4q8 -4 12 -8q8 -8 10 -20q6 -10 7 -23q0 -4 -1.5 -6t-1.5 -6t-2 -6t-4 -7q-4 -16 -12 -22q-10 -8 -25 -8q-10 0 -14 2l-8 6q-2 2 -6 2l-2 4v-51h-27v145z M741 627h103v39l-6 -13l-11 -14q-6 -6 -8 -6l-10 -2q-4 -2 -12 -2h-15v41h2q8 0 19 -6l4 -7q0 -2 1 -3t1 -3v-8h2v59h-2v-8l-4 -10q-10 -10 -19 -10h-4v43h17q16 0 22 -2l8 -6l5 -11l6 -14h4v37h-103v-4h4q8 0 11 -4q6 0 6 -11v-57q0 -16 -17 -16h-4v-2zM756 -170 q0 -14 8 -20q6 -8 16 -9q12 0 19 9q4 12 4 22t-4 23q-4 4 -8.5 7t-10.5 3q-25 0 -24 -35zM793 868v9l4 10l6 8q8 10 18 18l23 11q0 -4 1 -6.5t1 -4.5q-2 -4 -2 -8v-12l-4 -8l-9 -11l-8 -6q-2 0 -3 -1t-5 -1q-2 -2 -8 -2q-4 -4 -8 0q-2 0 -6 4zM844 -166q0 17 4 25 q6 14 16 20q10 8 27 8q23 0 31 -8q10 -6 16 -22q4 -16 4 -27v-6h-72q0 -12 7 -19q6 -6 16 -6q6 0 14 4l6 9h27q-4 -16 -8 -21q-4 -4 -8 -6t-9 -4q-12 -4 -22 -4q-49 0 -49 57zM852 -2v156h29v-156h-29zM870 -158h43q0 10 -6 17q-4 2 -7 4t-9 2q-16 0 -21 -23zM903 -2v156h29 v-156h-29zM905 674q0 -14 4 -21q4 -4 6.5 -7t6.5 -7q6 -6 18 -10q6 -2 11 -3t12 -1q16 0 26 6q8 4 13.5 9t9.5 9q6 8 6 25q0 10 -4 16q-4 12 -10 17q-4 6 -19 10q-12 6 -22 6q-20 0 -29 -8q-8 -2 -12 -7.5t-9 -9.5q-8 -10 -8 -24zM915 901q0 -8 5 -8l10 -8h10h12q8 2 14.5 4 t12.5 4l27 14l22 21l19 16l14 21l10 16l6 18q4 10 0 15q0 6 -6 10q0 4 -10 8q-2 0 -6 1t-8 1q-6 0 -19 -4q-4 0 -6 -1l-6 -3l-12 -4l-25 -16l-23 -19l-16 -18l-12 -19q-10 -16 -13 -26v-23zM928 674q0 4 1 8t1 8l6 12l6 11q2 2 4 2t6 2q4 4 13 4q0 -2 2 -2h4l6 -4l10 -8 q0 -4 2 -7.5t4 -9.5q0 -2 1 -7t1 -9q0 -12 -4 -25q-4 -4 -6 -9t-6 -9q-4 -2 -16 -2q-10 0 -13 2q-8 0 -12 10l-6 12q-4 12 -4 21zM940 895v12q4 14 10 21l15 22l10 13l24 30l9.5 9.5l9.5 9.5l8 8l10 4q4 2 11 2l4 -2q2 -2 2 -8q0 -2 -4 -10l-5 -9l-6 -10l-6 -10l-20 -31 l-17 -18l-20 -21q0 -2 -10 -6q-2 -4 -13 -8h-8q-4 0 -4 2zM948 -115h17v9q0 29 30 28h13v-22h-13l-2 -2l-2 -9v-4h19v-20h-19v-86h-26v86h-17v20zM1010 92v21h14v8q0 33 35 33h12v-25h-12q-2 0 -4 -4v-12h20v-21h-20v-94h-31v94h-14zM1018 -193q0 17 10 23q10 10 21 10l24 4 q8 0 8 6q0 16 -14 17q-10 0 -12 -6q-6 -4 -6 -11h-27q0 14 6 21q6 10 14 12q4 2 11 2q4 2 14 2t16.5 -1t12.5 -3q8 -6 12 -12q2 -4 2 -14v-56q0 -10 2 -12q0 -2 4 -6v-4h-31v2q0 2 -1 2t-1 2v6q-4 -2 -5 -4t-3 -4q-4 -2 -6 -2t-4 -2q-4 -2 -14 -2q-8 0 -15 2l-14 10 q-4 8 -4 18zM1032 627h49v2q-6 0 -10 2h-8l-4 10q-2 2 -2 12v56l80 -82h4v65q0 8 1 12.5t3 8.5q4 4 16 4v4h-47v-4h8q0 -2 4 -2q6 -4 7 -8q4 -4 4 -15v-39l-66 68h-37v-4q8 0 10 -2q2 0 3.5 -1t3.5 -1q2 -4 2 -11v-53q0 -6 -2 -10l-7 -8q-4 0 -7 -1t-5 -1v-2zM1047 -190 q0 -4 4 -9q6 -6 8 -6q4 0 6 4h4l10 6q2 4 2 13v12l-8 -4l-14 -2q-4 0 -8 -4t-4 -10zM1051 905q2 0 3 -1t3 -1q4 0 8 2l8 4q0 2 4 6q2 0 2 1.5t2 1.5l4 6q0 4 5 4l16 22l20 21l17 20l22 21l29 28l10 9l10 8l13 4q2 0 2 -2h-2l-4 -4q-2 -6 -9 -8l-4 -7l-12 -14q-4 -4 -6 -7 t-6 -7l-15 -23l-14 -20l-6 -19q-4 -10 0 -16q2 -6 8 -6h19q4 2 9 5t13 7l19 14l22 23q-2 -2 -2 -6q0 -6 4 -15q2 -4 10 -8q6 -2 21 2q12 2 24 13l21 14l7 7l7 7l13 13v-5q0 -2 -1.5 -3t-1.5 -3v-6q-4 -6 0 -10q0 -2 1.5 -3t1.5 -3q0 -6 6 -6h16l6 4l8 6l13 6l32 27l17 16 l-4 -12q-4 -6 -4 -19v-6q2 0 4 -2q0 -2 6 -2q4 0 8 4q8 0 12 6l11 6l12 13q2 0 10 8l9 9t10 9l18 21v4q0 2 -2 2q-4 0 -8 -4l-2 -4l-13 -15l-10 -12q-10 -6 -12 -12l-14 -12l-9 -7l-8 -2l-2 -2q-2 0 -4 2h2l8 15q4 8 8 12l7 12q4 2 8 11l63 92q10 10 13 16l16 16l37 43 q10 10 17 20.5t16 20.5l10 19v8q-2 2 -8 2q-2 0 -11 -4q-4 0 -6 -2t-6 -4q-4 0 -10 -6l-8 -6l-23 -19l-16 -18q-6 -6 -10.5 -11.5t-8.5 -11.5q-2 -4 -6 -9t-8 -11l-27 -41l-26 -45l-19 -33l-8 -16h-2l-14 -15q-4 -6 -8.5 -10t-10.5 -10l-18 -17l-10 -8l-7 -4l-4 -2l-4 -4 h-10l12 20q0 2 2 4q4 8 8.5 14.5t10.5 12.5l16 29l15 20l8 13l6 10l2 2l2 2q0 2 1 2t1 2q6 4 4 8q0 2 -6 2l-10 -4l-10 -6l-19 -12l-14 -13q0 6 -2 11q0 2 -6 6q-12 2 -21 0q-16 -4 -22 -8l-25 -13l-18 -16q-27 -18 -37 -39q-14 -16 -21 -37h-4l-16 -18q-6 -4 -11.5 -8.5 t-11.5 -8.5q-2 -4 -12 -8q-4 -4 -10 -4h-2q-2 2 0 4l6 8l6 11l12 14l21 27q4 6 9 13t9 15l8 17q4 10 2 16q0 6 -2 6q0 4 -6 4t-8 -2l-12 -4l-13 -8l-10 -8l-10 -9q-8 -8 -12 -8l-21 -22q-4 -4 -9 -9.5t-9 -9.5l-11 -12l-10 -10l2 4l25 35l26 37q0 2 1.5 2t1.5 2q2 2 2 4 q2 2 2 6l-7 6q-2 0 -3 1t-3 1t-4 -1t-6 -1l-10 -6l-4 -4q-4 -2 -4 -4t-2 -4l-5 -7l-77 -133q-2 -2 -2 -4v-2zM1083 55q0 6 1 11.5t3 11.5q2 10 11 18q10 10 20 15q6 4 25 4q16 0 24 -4q4 -4 8.5 -5.5t8.5 -5.5t6 -9t6 -11q4 -12 4 -25q0 -16 -8 -30q-2 -8 -18 -21 q-10 -8 -31 -8q-20 0 -35 8q-6 4 -10 10t-8 13q-6 12 -7 28zM1114 55q0 -8 2 -13t4 -9q4 -10 23 -10q16 0 20 10q6 6 6 22q0 14 -6 25q-6 10 -20 10q-16 0 -23 -10q-2 -4 -4 -10.5t-2 -14.5zM1128 -170q1 16 11 41q12 16 39 16q10 0 22 -4q8 -2 17 -14q4 -6 7 -11t3 -12h-31 q0 4 -4 13q-6 6 -12 6q-10 0 -17 -10q-8 -6 -8 -21q0 -6 1 -10t1 -8l8 -11q4 -4 13 -4q8 0 12 4q6 2 6 13h27q0 -10 -6 -23q-4 -4 -7.5 -7t-7.5 -5q-12 -6 -24 -6q-23 0 -35 12q-6 2 -10 16q-4 12 -5 25zM1167 627h107v41h-2q-4 -4 -4 -6.5t-2 -6.5q-4 -4 -4 -8l-5 -6 q-8 -8 -12 -10q-2 0 -6 -1t-8 -1h-25v73q0 10 6 11q2 4 13 4h6v4h-64v-4h4q16 0 17 -15v-57q0 -16 -17 -16h-4v-2zM1221 -2v115h28v-17q12 18 35 19q14 0 21 -4l14 -13q4 -12 4 -20v-80h-29v70q0 8 -4 16q-6 6 -16 6q-12 0 -19 -8q-4 -4 -4 -19v-65h-30zM1237 -166q0 9 4 25 q6 14 16 20q10 8 29 8q20 0 29 -8q10 -6 14 -22q6 -12 6 -27v-6h-71q0 -12 6 -19q6 -6 16 -6q6 0 14 4l7 9h26q-4 -16 -10 -21q-8 -8 -14 -10q-12 -4 -23 -4q-49 0 -49 57zM1264 -158h43q0 10 -7 17q-4 2 -7 4t-9 2q-16 0 -20 -23zM1266 963l2 2q0 2 2 4l6 10l8 10l6 12 l8 11l19 24l26 33l7 8l16 13q2 2 8 2q4 2 8 2l7 -4q0 -2 1 -3.5t1 -3.5q0 -4 -2 -8q0 -2 -5 -6l-16 -22l-12 -23l-17 -14l-16 -19l-10 -8l-13 -10l-10 -8q-4 0 -5 -2t-5 -2q-8 -4 -10 -3h-2q-2 2 -2 5zM1268 717h2q10 0 14 -2l4 -4t4 -6l29 -39v-21q0 -10 -2 -12 q-8 -4 -14 -4h-7v-2h68v2h-8q-8 0 -12 4t-5 12v23l25 34l4 7q8 4 10 4q0 2 4 2q2 0 3.5 1t3.5 1h2v4h-47v-4h6q8 0 10 -2q4 -2 4 -6t-6 -11l-19 -26l-24 30q-4 8 -4 9v2q0 2 2 2q0 2 6 2h8v4h-61v-4zM1337 92v21h19v28h26v-28h21v-21h-21v-61v-6q0 -2 2 -2q4 0 5.5 -1.5 t5.5 -1.5l4 3h4v-25h-21q-14 0 -16 4q-8 0 -10 8v82h-19zM1352 -190h30v-31h-30v31zM1401 -170q0 16 10 41q12 16 39 16q10 0 23 -4q6 -2 18 -14q8 -10 8 -23h-29l-6 13q-6 6 -12 6q-10 0 -16 -10q-6 -6 -6 -21q0 -6 1 -10t1 -8q4 -8 8 -11q2 -4 10 -4q10 0 12 4q6 2 6 13 h31q-4 -12 -8 -23q-4 -4 -8 -7t-8 -5q-10 -6 -25 -6q-20 0 -35 12q-6 2 -10 16q-4 12 -4 25zM1473 31q0 16 8 24q16 8 24 11l27 4q10 0 10 8q0 14 -18 14q-8 0 -13 -4q-6 -2 -8 -14h-26q0 14 6 24q4 6 16 13q4 4 12 4h13q25 0 32 -4l7.5 -7.5t5.5 -7.5t2 -14v-72q0 -6 8 -6 v-6h-33q-2 0 -2 2v2v2q0 4 -1 5t-1 3l-8 -8q-2 -2 -3 -2t-3 -2t-4 -2q-6 0 -9.5 -1t-7.5 -1t-8 1t-8 1q-4 4 -7 6t-7 6q-4 8 -4 21zM1501 31q0 -8 4 -8q4 -4 11 -5h8l4 2q10 4 10 7q4 8 4 14v14q-6 -6 -12 -6l-14 -4q-6 0 -11 -4q-4 -2 -4 -10zM1511 -168q0 13 2 21 q4 12 11 18q6 8 16 12q12 4 25 4q10 0 22 -4l8 -4t9 -6q4 -4 5 -9t5 -9q2 -6 2 -23q0 -16 -6 -29q-4 -14 -17 -20q-12 -6 -28 -6q-20 0 -31 8q-12 6 -18 20q-4 16 -5 27zM1538 -168q0 -14 6 -22q2 -4 8.5 -6.5t12.5 -2.5q16 0 18 9q6 8 6 22q0 13 -6 23q-4 10 -18 10 q-16 0 -21 -10q-6 -10 -6 -23zM1567 1167l28 37l13 23l26 35l2 2q0 4 4 4q0 2 2 2q0 -8 -2 -10l-8 -11l-6 -10l-6 -8l-16 -21l-19 -20l-10 -12q-4 -8 -8 -11zM1585 92v21h14v28h33v-28h19v-21h-19v-69q2 0 4 -1.5t6 -1.5l5 3h4v-25h-19q-14 0 -20 4q-6 0 -8 8q0 2 -2.5 5 t-2.5 8v69h-14zM1636 -115h27v-16q8 18 31 18q8 0 16 -4q6 -4 12 -12q2 8 11 12q8 4 16 4q10 0 23 -4q8 -8 10 -14q4 -8 4 -19v-71h-27v63q0 23 -16 23q-18 0 -19 -23v-63h-26v74q0 4 -4 8t-15 4q-16 0 -16 -23v-63h-27v106z" />
<glyph unicode="5" horiz-adv-x="1847" d="M70 -193q0 17 8 23q10 10 20 10l27 4q10 0 10 6q0 16 -16 17q-10 0 -13 -6q-8 -2 -8 -11h-24q0 14 6 21q2 8 12 12q4 2 14 2q4 2 13 2q14 0 26 -4q8 -6 13 -12q2 -4 2 -14v-56q0 -10 2 -12q0 -2 4 -6v-4h-29v6q-2 2 -2 6l-8 -8q-4 -2 -6 -2t-4 -2q-4 -2 -13 -2 q-12 0 -18 2q-6 4 -10 10q-6 6 -6 18zM96 -190q0 -4 4 -9q4 -2 6.5 -4t4.5 -2q4 0 6 4h4l10 6q4 8 4 13v12q-2 0 -10 -4l-12 -2q-4 0 -13 -4q-4 -4 -4 -10zM125 565v494l268 59l-10 37l41 12l-8 39l41 8l-6 46l41 2v41h36l4 36l39 -6l9 41l43 -6l10 39l39 -10l16 37l39 -17 l23 39l34 -18l23 35l37 -25l24 33l35 -27l27 29l26 -25l27 23l27 -29l34 23l23 -37l39 20l18 -35l37 17l17 -41l43 12l12 -39l39 10l8 -43l43 4l2 -26l404 88v-496l-185 -41l4 -2l-24 -26l24 -29l-32 -27l22 -34l-37 -23l23 -37l-35 -20l14 -37l-39 -17l13 -43l-37 -12 l6 -39l-41 -8l2 -43l-39 -4v-39h-35l-6 -37l-39 2l-8 -37l-43 6l-10 -40l-39 12l-14 -39l-44 16l-18 -39l-37 21l-22 -35l-37 23l-25 -33l-30 26l-31 -26l-27 24l-26 -24l-25 31l-35 -23l-24 37l-37 -21l-19 35l-39 -16l-18 41l-39 -13l-12 37l-41 -8l-8 43l-43 -4l-5 41 h-40v35l-35 4l4 41l-41 6l8 43l-41 12l12 37l-28 12zM186 -115h25v-18h2l6 10q2 2 3 4t5 4q2 2 15 2h6v-28h-8q-27 0 -27 -25v-55h-27v106zM236 76v16q0 4 2 7t2 7q2 12 14 25q4 6 10 10t12 9q14 6 33 6h6q4 0 8.5 -1t8.5 -1q8 0 14 -7q14 -8 21 -18q4 -4 8 -12q0 -2 1 -3 t1 -3v-5h-33v3q0 2 -4 6q-2 4 -4 5t-6 5q-6 4 -19 4h-14l-14 -12q-10 -6 -11 -15q-4 -8 -4 -28q0 -8 1 -14.5t3 -14.5q2 -10 13 -14q6 -4 10 -6t10 -2h4q12 0 19 4q4 0 7 3l5 5q4 6 6 10t2 10h-37v27h66v-84h-21l-4 20q-6 -8 -14 -14q-4 -4 -9 -5t-10 -3q-4 0 -9 -1t-9 -1 q-12 0 -25 6q-14 6 -20 16q-8 6 -16 27q-4 10 -4 33zM236 702h10l8 5l10 10l8 10l11 10q4 8 8 13l63 86l19 30l20 31q6 8 11.5 15.5t9.5 15.5l16 33q2 4 0 6t-4 2q-8 0 -10 -2l-8 -4l-33 -41q-6 -6 -15 -19l-16 -20l-55 -80l-27 -41l-22 -43l-4 -6v-11zM262 -78h29v-24h-29 v24zM262 -115h29v-106h-29v106zM276 889q2 -4 4.5 -6t6.5 -6l18 -7q14 0 23 2q4 0 4 2q2 2 2 5q0 2 -2 2h-4q-4 0 -4 -2q-14 -2 -29 2q-8 4 -10 8q0 4 -1 5t-1 5q0 6 2 12l6 15l16 18q4 4 10.5 8t12.5 9q6 4 11 7t13 7l25 12q8 0 14 2t15 6l28 4q16 4 27 5q6 0 22 -5 q10 0 15 -6l10 -12v-16q0 -12 -2 -21l-10 -18q-4 -6 -7.5 -11.5t-7.5 -9.5q-4 -6 -9 -10t-11 -10q-4 -6 -21 -19l-22 -14l-25 -10l-14 -6q-2 0 -5 -1t-7 -1h-4q-4 0 -7 -3q-2 0 -2 -2q-4 0 -4 -4q0 -2 2 -2h4q4 0 7 2h4l26 9l27 12l27 10l26 16l23 17l20 18l17 21q4 4 7 9 t5 11q4 12 4 19q2 10 0 18l-6 14l-15 11q-6 2 -10 3t-10 1q-8 2 -23 2q-8 0 -24 -4q-14 0 -27.5 -4t-29.5 -9q-29 -8 -54 -22q-6 -4 -13 -7t-13 -7t-12.5 -8.5t-10.5 -10.5l-9 -9l-9 -9l-9 -21q-4 -10 0 -16zM317 -115h25v-16q12 18 33 18q8 0 20 -4q6 -4 13 -12q4 -8 4 -21 v-71h-29v63q0 12 -2 15q-4 8 -16 8q-8 0 -17 -8q-4 -12 -4 -17v-61h-27v106zM395 57q0 20 6 29q4 14 17 20q8 6 15 7.5t18 1.5q23 0 28 -9q12 -6 19 -22q4 -10 4 -31v-8h-78q0 -6 8 -18q6 -6 19 -7q4 0 7 1.5t5 1.5q8 8 8 10h31l-10 -21l-17 -12l-12 -3t-12 -1q-55 0 -56 61 zM428 68h45q-4 12 -8 16q-8 8 -14 8q-23 0 -23 -24zM430 -166q0 6 2 12.5t4 12.5q6 14 15 20q8 8 24 8q6 0 19 -4l7 -7t5 -7l2 16h24v-100q0 -10 -4 -27q-6 -10 -16 -14q-12 -6 -33 -6q-4 0 -9 1t-9 1q-6 2 -19 10q-4 4 -4 8q-2 4 -2 11h27l6 -9q2 -2 12 -2q12 0 15 2 q8 6 8 9q0 2 1 3t1 3v18q-12 -14 -29 -14q-6 0 -11 1t-11 3q-10 8 -17 20q-4 6 -6 13.5t-2 17.5zM461 -168q0 -8 2 -14q0 -4 6 -11q8 -4 12 -4q25 0 25 29q0 14 -8 23q-4 4 -8.5 7t-8.5 3q-8 0 -14 -10q-6 -6 -6 -23zM498 717q20 0 20 -15v-49q0 -8 10 -22l17 -4q4 -2 18 -2 q12 0 25 4q8 4 10 6q8 6 8 18q-4 -10 -10 -16l-12 -8h-15q-12 0 -18 2q-2 0 -10 8q-4 4 -4 14v49q0 10 4 11q4 4 14 4h6v4h-63v-4zM510 92v21h16v28h31v-28h16v-21h-16v-61q0 -8 2 -8q0 -2 2 -3h8l2 3h2v-25h-16q-14 0 -20 4q-6 0 -9 8q-2 2 -2 13v69h-16zM510 821 q2 -8 10 -12q10 -10 23 -6q14 0 26 6q10 2 17.5 6t15.5 8t15.5 9.5t15.5 13.5l24 20l15 15q0 2 4 6q0 2 2 4l4 6l16 16l15 21q6 4 10 10t8 10l6 -2l4 -6q0 -2 2 -4v-2q0 -2 -2 -4t-4 -6l-16 -17l-14 -20l-13 -19l-4 -18q-2 -2 -2 -8v-6l4 -8h8q10 0 17 2l16 10q4 4 10.5 8 t10.5 10q6 4 10 8.5t8 8.5l8 12l8 10l5 4l4 6q4 4 4 5l12 16l21 31q0 -4 1 -7.5t1 -7.5q4 -12 4 -14l4 -8q-16 -4 -25 -13l-20 -14q-4 -4 -7.5 -9t-5.5 -9q-2 -6 -2 -17q0 -6 11 -10h18q12 0 25 8q16 8 22 17q6 4 9 8t8 8l8 18q6 8 6 19v16q0 6 -4 15l-6 16l-7 6q0 4 -4 8 q0 2 -2 4v11h-8l-4 -4l-12 -9l-4 -12l-2 -2l-4 -6l-33 -45l-4 -6l-6 -11h-3v-2q-2 0 -4 -2l-4 -8l-6 -8l-14 -18l-23 -21l-12 -6q-4 -4 -12 -4v2l8 10l6 10l8 11l6 8l9 14l10 14l4 15q2 6 2 14q-2 2 -2 8l-2 4q0 4 -2 7v22l6 10q4 6 -4 13q-4 6 -17 0q-10 -2 -16 -9 q-6 -2 -10 -12q-4 -4 -4 -10q0 -8 2 -12l4 -2l4 -5l-12 -12l-23 -31l-20 -22q-4 0 -4 -4v-2l-2 -2q0 -2 -2 -2l-11 -15q-8 -6 -14 -12t-14 -10q-12 -12 -33 -23l-21 -8q-12 -4 -18 -2q-6 0 -6 4q-2 2 -2 6q0 2 4 11l2 8l10 16q4 -2 12 -2h19q10 2 26 12q6 2 11.5 6.5 t13.5 8.5l14 16q4 4 7.5 8t3.5 8l8 13q0 12 -4 14q-4 8 -8 10h-19h-9t-9 -4l-21 -8q-27 -14 -45 -29q-18 -16 -29 -34q-4 -4 -6 -9.5t-6 -11.5q-6 -8 -8 -18v-17zM545 -115h14v27h29v-27h16v-20h-16v-55q0 -6 2 -9q0 -2 2 -2h6l4 2h2v-22h-16q-12 0 -17 2q-10 4 -10 8 q-2 2 -2 12v64h-14v20zM567 870l15 23l18 20l6 9l10 8l11 10l12 4q8 2 14 0v-10l-6 -8q-6 -6 -6 -11q-4 -4 -5 -6t-5 -4q0 -2 -8 -10q-2 -2 -3.5 -4t-5.5 -4l-10 -8l-12 -9q-6 -2 -12 -2q-10 0 -13 2zM580 717h10q2 0 4 -2q12 -4 12 -23v15l10 8l2 2h9v4h-47v-4zM610 -115 h33l21 -78l20 78h31l-35 -102l-2 -2l-8 -23l-6 -12q-6 -6 -11 -6q-4 0 -7 -1t-7 -1h-14v22h16q2 0 6 4v5q2 2 2 6l-37 102zM639 694q0 -2 4 -10q0 -6 6 -6l13 -6q2 -2 20 -6l8 -2q8 -4 12 -5q4 0 9 -4q2 0 2 -2q6 -4 6 -10l-4 -8q-2 -4 -8 -6h-11q-10 0 -16 2l-16 6l-11 10 q-10 10 -10 21h-2v-43h2q0 6 4 6q4 4 8 4q2 0 2 -1t5 -1q2 0 3 -1t3 -1l14 -4q4 -2 14 -2q4 0 17 4q2 0 12 6q2 2 2 4t4 4v21l-6 6q-2 4 -12 8l-17 6h-10l-2 2q-4 2 -8 2t-6 2q-6 0 -8 2q-2 0 -7 4q-2 0 -2 4v2v9l4 4l9 4q2 0 4 1t6 1q6 0 14 -4q8 0 12 -4q8 -4 11 -8 q4 -2 5 -7.5t5 -9.5h2v31h-2q-2 -6 -8 -6h-8q-16 10 -31 10q-8 0 -21 -4l-12 -8q-2 -4 -3 -7.5t-1 -9.5zM641 92v21h14v8q0 33 35 33h15v-25h-15q-4 0 -4 -4v-12h19v-21h-19v-94h-31v94h-14zM723 37v76h29v-70q0 -20 20 -20h10l11 10q0 2 2 5t2 7v68h26v-115h-26v16 q-6 -8 -15 -12q-12 -6 -20 -6q-20 0 -29 12q-10 8 -10 29zM731 -115h25v-16h4q2 0 4 2l8 8l8 6q2 2 8 2q10 0 17 -4q8 -4 12 -8q8 -8 10 -20q6 -10 7 -23q0 -4 -1.5 -6t-1.5 -6t-2 -6t-4 -7q-4 -16 -12 -22q-10 -8 -25 -8q-10 0 -14 2l-8 6q-2 2 -6 2l-2 4v-51h-27v145z M741 627h103v39l-6 -13l-11 -14q-6 -6 -8 -6l-10 -2q-4 -2 -12 -2h-15v41h2q8 0 19 -6l4 -7q0 -2 1 -3t1 -3v-8h2v59h-2v-8l-4 -10q-10 -10 -19 -10h-4v43h17q16 0 22 -2l8 -6l5 -11l6 -14h4v37h-103v-4h4q8 0 11 -4q6 0 6 -11v-57q0 -16 -17 -16h-4v-2zM756 -170 q0 -14 8 -20q6 -8 16 -9q12 0 19 9q4 12 4 22t-4 23q-4 4 -8.5 7t-10.5 3q-25 0 -24 -35zM793 868v9l4 10l6 8q8 10 18 18l23 11q0 -4 1 -6.5t1 -4.5q-2 -4 -2 -8v-12l-4 -8l-9 -11l-8 -6q-2 0 -3 -1t-5 -1q-2 -2 -8 -2q-4 -4 -8 0q-2 0 -6 4zM844 -166q0 17 4 25 q6 14 16 20q10 8 27 8q23 0 31 -8q10 -6 16 -22q4 -16 4 -27v-6h-72q0 -12 7 -19q6 -6 16 -6q6 0 14 4l6 9h27q-4 -16 -8 -21q-4 -4 -8 -6t-9 -4q-12 -4 -22 -4q-49 0 -49 57zM852 -2v156h29v-156h-29zM870 -158h43q0 10 -6 17q-4 2 -7 4t-9 2q-16 0 -21 -23zM903 -2v156h29 v-156h-29zM905 674q0 -14 4 -21q4 -4 6.5 -7t6.5 -7q6 -6 18 -10q6 -2 11 -3t12 -1q16 0 26 6q8 4 13.5 9t9.5 9q6 8 6 25q0 10 -4 16q-4 12 -10 17q-4 6 -19 10q-12 6 -22 6q-20 0 -29 -8q-8 -2 -12 -7.5t-9 -9.5q-8 -10 -8 -24zM915 901q0 -8 5 -8l10 -8h10h12q8 2 14.5 4 t12.5 4l27 14l22 21l19 16l14 21l10 16l6 18q4 10 0 15q0 6 -6 10q0 4 -10 8q-2 0 -6 1t-8 1q-6 0 -19 -4q-4 0 -6 -1l-6 -3l-12 -4l-25 -16l-23 -19l-16 -18l-12 -19q-10 -16 -13 -26v-23zM928 674q0 4 1 8t1 8l6 12l6 11q2 2 4 2t6 2q4 4 13 4q0 -2 2 -2h4l6 -4l10 -8 q0 -4 2 -7.5t4 -9.5q0 -2 1 -7t1 -9q0 -12 -4 -25q-4 -4 -6 -9t-6 -9q-4 -2 -16 -2q-10 0 -13 2q-8 0 -12 10l-6 12q-4 12 -4 21zM940 895v12q4 14 10 21l15 22l10 13l24 30l9.5 9.5l9.5 9.5l8 8l10 4q4 2 11 2l4 -2q2 -2 2 -8q0 -2 -4 -10l-5 -9l-6 -10l-6 -10l-20 -31 l-17 -18l-20 -21q0 -2 -10 -6q-2 -4 -13 -8h-8q-4 0 -4 2zM948 -115h17v9q0 29 30 28h13v-22h-13l-2 -2l-2 -9v-4h19v-20h-19v-86h-26v86h-17v20zM1010 92v21h14v8q0 33 35 33h12v-25h-12q-2 0 -4 -4v-12h20v-21h-20v-94h-31v94h-14zM1018 -193q0 17 10 23q10 10 21 10l24 4 q8 0 8 6q0 16 -14 17q-10 0 -12 -6q-6 -4 -6 -11h-27q0 14 6 21q6 10 14 12q4 2 11 2q4 2 14 2t16.5 -1t12.5 -3q8 -6 12 -12q2 -4 2 -14v-56q0 -10 2 -12q0 -2 4 -6v-4h-31v2q0 2 -1 2t-1 2v6q-4 -2 -5 -4t-3 -4q-4 -2 -6 -2t-4 -2q-4 -2 -14 -2q-8 0 -15 2l-14 10 q-4 8 -4 18zM1032 627h49v2q-6 0 -10 2h-8l-4 10q-2 2 -2 12v56l80 -82h4v65q0 8 1 12.5t3 8.5q4 4 16 4v4h-47v-4h8q0 -2 4 -2q6 -4 7 -8q4 -4 4 -15v-39l-66 68h-37v-4q8 0 10 -2q2 0 3.5 -1t3.5 -1q2 -4 2 -11v-53q0 -6 -2 -10l-7 -8q-4 0 -7 -1t-5 -1v-2zM1047 -190 q0 -4 4 -9q6 -6 8 -6q4 0 6 4h4l10 6q2 4 2 13v12l-8 -4l-14 -2q-4 0 -8 -4t-4 -10zM1051 905q2 0 3 -1t3 -1q4 0 8 2l8 4q0 2 4 6q2 0 2 1.5t2 1.5l4 6q0 4 5 4l16 22l20 21l17 20l22 21l29 28l10 9l10 8l13 4q2 0 2 -2h-2l-4 -4q-2 -6 -9 -8l-4 -7l-12 -14q-4 -4 -6 -7 t-6 -7l-15 -23l-14 -20l-6 -19q-4 -10 0 -16q2 -6 8 -6h19q4 2 9 5t13 7l19 14l22 23q-2 -2 -2 -6q0 -6 4 -15q2 -4 10 -8q6 -2 21 2q12 2 24 13l21 14l7 7l7 7l13 13v-5q0 -2 -1.5 -3t-1.5 -3v-6q-4 -6 0 -10q0 -2 1.5 -3t1.5 -3q0 -6 6 -6h16l6 4l8 6l13 6l32 27l17 16 l-4 -12q-4 -6 -4 -19v-6q2 0 4 -2q0 -2 6 -2q4 0 8 4q8 0 12 6l11 6l12 13q2 0 10 8l9 9t10 9l18 21v4q0 2 -2 2q-4 0 -8 -4l-2 -4l-13 -15l-10 -12q-10 -6 -12 -12l-14 -12l-9 -7l-8 -2l-2 -2q-2 0 -4 2h2l8 15q4 8 8 12l7 12q4 2 8 11l63 92q10 10 13 16l16 16l37 43 q10 10 17 20.5t16 20.5l10 19v8q-2 2 -8 2q-2 0 -11 -4q-4 0 -6 -2t-6 -4q-4 0 -10 -6l-8 -6l-23 -19l-16 -18q-6 -6 -10.5 -11.5t-8.5 -11.5q-2 -4 -6 -9t-8 -11l-27 -41l-26 -45l-19 -33l-8 -16h-2l-14 -15q-4 -6 -8.5 -10t-10.5 -10l-18 -17l-10 -8l-7 -4l-4 -2l-4 -4 h-10l12 20q0 2 2 4q4 8 8.5 14.5t10.5 12.5l16 29l15 20l8 13l6 10l2 2l2 2q0 2 1 2t1 2q6 4 4 8q0 2 -6 2l-10 -4l-10 -6l-19 -12l-14 -13q0 6 -2 11q0 2 -6 6q-12 2 -21 0q-16 -4 -22 -8l-25 -13l-18 -16q-27 -18 -37 -39q-14 -16 -21 -37h-4l-16 -18q-6 -4 -11.5 -8.5 t-11.5 -8.5q-2 -4 -12 -8q-4 -4 -10 -4h-2q-2 2 0 4l6 8l6 11l12 14l21 27q4 6 9 13t9 15l8 17q4 10 2 16q0 6 -2 6q0 4 -6 4t-8 -2l-12 -4l-13 -8l-10 -8l-10 -9q-8 -8 -12 -8l-21 -22q-4 -4 -9 -9.5t-9 -9.5l-11 -12l-10 -10l2 4l25 35l26 37q0 2 1.5 2t1.5 2q2 2 2 4 q2 2 2 6l-7 6q-2 0 -3 1t-3 1t-4 -1t-6 -1l-10 -6l-4 -4q-4 -2 -4 -4t-2 -4l-5 -7l-77 -133q-2 -2 -2 -4v-2zM1083 55q0 6 1 11.5t3 11.5q2 10 11 18q10 10 20 15q6 4 25 4q16 0 24 -4q4 -4 8.5 -5.5t8.5 -5.5t6 -9t6 -11q4 -12 4 -25q0 -16 -8 -30q-2 -8 -18 -21 q-10 -8 -31 -8q-20 0 -35 8q-6 4 -10 10t-8 13q-6 12 -7 28zM1114 55q0 -8 2 -13t4 -9q4 -10 23 -10q16 0 20 10q6 6 6 22q0 14 -6 25q-6 10 -20 10q-16 0 -23 -10q-2 -4 -4 -10.5t-2 -14.5zM1128 -170q1 16 11 41q12 16 39 16q10 0 22 -4q8 -2 17 -14q4 -6 7 -11t3 -12h-31 q0 4 -4 13q-6 6 -12 6q-10 0 -17 -10q-8 -6 -8 -21q0 -6 1 -10t1 -8l8 -11q4 -4 13 -4q8 0 12 4q6 2 6 13h27q0 -10 -6 -23q-4 -4 -7.5 -7t-7.5 -5q-12 -6 -24 -6q-23 0 -35 12q-6 2 -10 16q-4 12 -5 25zM1167 627h107v41h-2q-4 -4 -4 -6.5t-2 -6.5q-4 -4 -4 -8l-5 -6 q-8 -8 -12 -10q-2 0 -6 -1t-8 -1h-25v73q0 10 6 11q2 4 13 4h6v4h-64v-4h4q16 0 17 -15v-57q0 -16 -17 -16h-4v-2zM1221 -2v115h28v-17q12 18 35 19q14 0 21 -4l14 -13q4 -12 4 -20v-80h-29v70q0 8 -4 16q-6 6 -16 6q-12 0 -19 -8q-4 -4 -4 -19v-65h-30zM1237 -166q0 9 4 25 q6 14 16 20q10 8 29 8q20 0 29 -8q10 -6 14 -22q6 -12 6 -27v-6h-71q0 -12 6 -19q6 -6 16 -6q6 0 14 4l7 9h26q-4 -16 -10 -21q-8 -8 -14 -10q-12 -4 -23 -4q-49 0 -49 57zM1264 -158h43q0 10 -7 17q-4 2 -7 4t-9 2q-16 0 -20 -23zM1266 963l2 2q0 2 2 4l6 10l8 10l6 12 l8 11l19 24l26 33l7 8l16 13q2 2 8 2q4 2 8 2l7 -4q0 -2 1 -3.5t1 -3.5q0 -4 -2 -8q0 -2 -5 -6l-16 -22l-12 -23l-17 -14l-16 -19l-10 -8l-13 -10l-10 -8q-4 0 -5 -2t-5 -2q-8 -4 -10 -3h-2q-2 2 -2 5zM1268 717h2q10 0 14 -2l4 -4t4 -6l29 -39v-21q0 -10 -2 -12 q-8 -4 -14 -4h-7v-2h68v2h-8q-8 0 -12 4t-5 12v23l25 34l4 7q8 4 10 4q0 2 4 2q2 0 3.5 1t3.5 1h2v4h-47v-4h6q8 0 10 -2q4 -2 4 -6t-6 -11l-19 -26l-24 30q-4 8 -4 9v2q0 2 2 2q0 2 6 2h8v4h-61v-4zM1337 92v21h19v28h26v-28h21v-21h-21v-61v-6q0 -2 2 -2q4 0 5.5 -1.5 t5.5 -1.5l4 3h4v-25h-21q-14 0 -16 4q-8 0 -10 8v82h-19zM1352 -190h30v-31h-30v31zM1401 -170q0 16 10 41q12 16 39 16q10 0 23 -4q6 -2 18 -14q8 -10 8 -23h-29l-6 13q-6 6 -12 6q-10 0 -16 -10q-6 -6 -6 -21q0 -6 1 -10t1 -8q4 -8 8 -11q2 -4 10 -4q10 0 12 4q6 2 6 13 h31q-4 -12 -8 -23q-4 -4 -8 -7t-8 -5q-10 -6 -25 -6q-20 0 -35 12q-6 2 -10 16q-4 12 -4 25zM1473 31q0 16 8 24q16 8 24 11l27 4q10 0 10 8q0 14 -18 14q-8 0 -13 -4q-6 -2 -8 -14h-26q0 14 6 24q4 6 16 13q4 4 12 4h13q25 0 32 -4l7.5 -7.5t5.5 -7.5t2 -14v-72q0 -6 8 -6 v-6h-33q-2 0 -2 2v2v2q0 4 -1 5t-1 3l-8 -8q-2 -2 -3 -2t-3 -2t-4 -2q-6 0 -9.5 -1t-7.5 -1t-8 1t-8 1q-4 4 -7 6t-7 6q-4 8 -4 21zM1501 31q0 -8 4 -8q4 -4 11 -5h8l4 2q10 4 10 7q4 8 4 14v14q-6 -6 -12 -6l-14 -4q-6 0 -11 -4q-4 -2 -4 -10zM1511 -168q0 13 2 21 q4 12 11 18q6 8 16 12q12 4 25 4q10 0 22 -4l8 -4t9 -6q4 -4 5 -9t5 -9q2 -6 2 -23q0 -16 -6 -29q-4 -14 -17 -20q-12 -6 -28 -6q-20 0 -31 8q-12 6 -18 20q-4 16 -5 27zM1538 -168q0 -14 6 -22q2 -4 8.5 -6.5t12.5 -2.5q16 0 18 9q6 8 6 22q0 13 -6 23q-4 10 -18 10 q-16 0 -21 -10q-6 -10 -6 -23zM1567 1167l28 37l13 23l26 35l2 2q0 4 4 4q0 2 2 2q0 -8 -2 -10l-8 -11l-6 -10l-6 -8l-16 -21l-19 -20l-10 -12q-4 -8 -8 -11zM1585 92v21h14v28h33v-28h19v-21h-19v-69q2 0 4 -1.5t6 -1.5l5 3h4v-25h-19q-14 0 -20 4q-6 0 -8 8q0 2 -2.5 5 t-2.5 8v69h-14zM1636 -115h27v-16q8 18 31 18q8 0 16 -4q6 -4 12 -12q2 8 11 12q8 4 16 4q10 0 23 -4q8 -8 10 -14q4 -8 4 -19v-71h-27v63q0 23 -16 23q-18 0 -19 -23v-63h-26v74q0 4 -4 8t-15 4q-16 0 -16 -23v-63h-27v106z" />
<glyph unicode="6" horiz-adv-x="1847" d="M70 -193q0 17 8 23q10 10 20 10l27 4q10 0 10 6q0 16 -16 17q-10 0 -13 -6q-8 -2 -8 -11h-24q0 14 6 21q2 8 12 12q4 2 14 2q4 2 13 2q14 0 26 -4q8 -6 13 -12q2 -4 2 -14v-56q0 -10 2 -12q0 -2 4 -6v-4h-29v6q-2 2 -2 6l-8 -8q-4 -2 -6 -2t-4 -2q-4 -2 -13 -2 q-12 0 -18 2q-6 4 -10 10q-6 6 -6 18zM96 -190q0 -4 4 -9q4 -2 6.5 -4t4.5 -2q4 0 6 4h4l10 6q4 8 4 13v12q-2 0 -10 -4l-12 -2q-4 0 -13 -4q-4 -4 -4 -10zM125 565v494l268 59l-10 37l41 12l-8 39l41 8l-6 46l41 2v41h36l4 36l39 -6l9 41l43 -6l10 39l39 -10l16 37l39 -17 l23 39l34 -18l23 35l37 -25l24 33l35 -27l27 29l26 -25l27 23l27 -29l34 23l23 -37l39 20l18 -35l37 17l17 -41l43 12l12 -39l39 10l8 -43l43 4l2 -26l404 88v-496l-185 -41l4 -2l-24 -26l24 -29l-32 -27l22 -34l-37 -23l23 -37l-35 -20l14 -37l-39 -17l13 -43l-37 -12 l6 -39l-41 -8l2 -43l-39 -4v-39h-35l-6 -37l-39 2l-8 -37l-43 6l-10 -40l-39 12l-14 -39l-44 16l-18 -39l-37 21l-22 -35l-37 23l-25 -33l-30 26l-31 -26l-27 24l-26 -24l-25 31l-35 -23l-24 37l-37 -21l-19 35l-39 -16l-18 41l-39 -13l-12 37l-41 -8l-8 43l-43 -4l-5 41 h-40v35l-35 4l4 41l-41 6l8 43l-41 12l12 37l-28 12zM186 -115h25v-18h2l6 10q2 2 3 4t5 4q2 2 15 2h6v-28h-8q-27 0 -27 -25v-55h-27v106zM236 76v16q0 4 2 7t2 7q2 12 14 25q4 6 10 10t12 9q14 6 33 6h6q4 0 8.5 -1t8.5 -1q8 0 14 -7q14 -8 21 -18q4 -4 8 -12q0 -2 1 -3 t1 -3v-5h-33v3q0 2 -4 6q-2 4 -4 5t-6 5q-6 4 -19 4h-14l-14 -12q-10 -6 -11 -15q-4 -8 -4 -28q0 -8 1 -14.5t3 -14.5q2 -10 13 -14q6 -4 10 -6t10 -2h4q12 0 19 4q4 0 7 3l5 5q4 6 6 10t2 10h-37v27h66v-84h-21l-4 20q-6 -8 -14 -14q-4 -4 -9 -5t-10 -3q-4 0 -9 -1t-9 -1 q-12 0 -25 6q-14 6 -20 16q-8 6 -16 27q-4 10 -4 33zM236 702h10l8 5l10 10l8 10l11 10q4 8 8 13l63 86l19 30l20 31q6 8 11.5 15.5t9.5 15.5l16 33q2 4 0 6t-4 2q-8 0 -10 -2l-8 -4l-33 -41q-6 -6 -15 -19l-16 -20l-55 -80l-27 -41l-22 -43l-4 -6v-11zM262 -78h29v-24h-29 v24zM262 -115h29v-106h-29v106zM276 889q2 -4 4.5 -6t6.5 -6l18 -7q14 0 23 2q4 0 4 2q2 2 2 5q0 2 -2 2h-4q-4 0 -4 -2q-14 -2 -29 2q-8 4 -10 8q0 4 -1 5t-1 5q0 6 2 12l6 15l16 18q4 4 10.5 8t12.5 9q6 4 11 7t13 7l25 12q8 0 14 2t15 6l28 4q16 4 27 5q6 0 22 -5 q10 0 15 -6l10 -12v-16q0 -12 -2 -21l-10 -18q-4 -6 -7.5 -11.5t-7.5 -9.5q-4 -6 -9 -10t-11 -10q-4 -6 -21 -19l-22 -14l-25 -10l-14 -6q-2 0 -5 -1t-7 -1h-4q-4 0 -7 -3q-2 0 -2 -2q-4 0 -4 -4q0 -2 2 -2h4q4 0 7 2h4l26 9l27 12l27 10l26 16l23 17l20 18l17 21q4 4 7 9 t5 11q4 12 4 19q2 10 0 18l-6 14l-15 11q-6 2 -10 3t-10 1q-8 2 -23 2q-8 0 -24 -4q-14 0 -27.5 -4t-29.5 -9q-29 -8 -54 -22q-6 -4 -13 -7t-13 -7t-12.5 -8.5t-10.5 -10.5l-9 -9l-9 -9l-9 -21q-4 -10 0 -16zM317 -115h25v-16q12 18 33 18q8 0 20 -4q6 -4 13 -12q4 -8 4 -21 v-71h-29v63q0 12 -2 15q-4 8 -16 8q-8 0 -17 -8q-4 -12 -4 -17v-61h-27v106zM395 57q0 20 6 29q4 14 17 20q8 6 15 7.5t18 1.5q23 0 28 -9q12 -6 19 -22q4 -10 4 -31v-8h-78q0 -6 8 -18q6 -6 19 -7q4 0 7 1.5t5 1.5q8 8 8 10h31l-10 -21l-17 -12l-12 -3t-12 -1q-55 0 -56 61 zM428 68h45q-4 12 -8 16q-8 8 -14 8q-23 0 -23 -24zM430 -166q0 6 2 12.5t4 12.5q6 14 15 20q8 8 24 8q6 0 19 -4l7 -7t5 -7l2 16h24v-100q0 -10 -4 -27q-6 -10 -16 -14q-12 -6 -33 -6q-4 0 -9 1t-9 1q-6 2 -19 10q-4 4 -4 8q-2 4 -2 11h27l6 -9q2 -2 12 -2q12 0 15 2 q8 6 8 9q0 2 1 3t1 3v18q-12 -14 -29 -14q-6 0 -11 1t-11 3q-10 8 -17 20q-4 6 -6 13.5t-2 17.5zM461 -168q0 -8 2 -14q0 -4 6 -11q8 -4 12 -4q25 0 25 29q0 14 -8 23q-4 4 -8.5 7t-8.5 3q-8 0 -14 -10q-6 -6 -6 -23zM498 717q20 0 20 -15v-49q0 -8 10 -22l17 -4q4 -2 18 -2 q12 0 25 4q8 4 10 6q8 6 8 18q-4 -10 -10 -16l-12 -8h-15q-12 0 -18 2q-2 0 -10 8q-4 4 -4 14v49q0 10 4 11q4 4 14 4h6v4h-63v-4zM510 92v21h16v28h31v-28h16v-21h-16v-61q0 -8 2 -8q0 -2 2 -3h8l2 3h2v-25h-16q-14 0 -20 4q-6 0 -9 8q-2 2 -2 13v69h-16zM510 821 q2 -8 10 -12q10 -10 23 -6q14 0 26 6q10 2 17.5 6t15.5 8t15.5 9.5t15.5 13.5l24 20l15 15q0 2 4 6q0 2 2 4l4 6l16 16l15 21q6 4 10 10t8 10l6 -2l4 -6q0 -2 2 -4v-2q0 -2 -2 -4t-4 -6l-16 -17l-14 -20l-13 -19l-4 -18q-2 -2 -2 -8v-6l4 -8h8q10 0 17 2l16 10q4 4 10.5 8 t10.5 10q6 4 10 8.5t8 8.5l8 12l8 10l5 4l4 6q4 4 4 5l12 16l21 31q0 -4 1 -7.5t1 -7.5q4 -12 4 -14l4 -8q-16 -4 -25 -13l-20 -14q-4 -4 -7.5 -9t-5.5 -9q-2 -6 -2 -17q0 -6 11 -10h18q12 0 25 8q16 8 22 17q6 4 9 8t8 8l8 18q6 8 6 19v16q0 6 -4 15l-6 16l-7 6q0 4 -4 8 q0 2 -2 4v11h-8l-4 -4l-12 -9l-4 -12l-2 -2l-4 -6l-33 -45l-4 -6l-6 -11h-3v-2q-2 0 -4 -2l-4 -8l-6 -8l-14 -18l-23 -21l-12 -6q-4 -4 -12 -4v2l8 10l6 10l8 11l6 8l9 14l10 14l4 15q2 6 2 14q-2 2 -2 8l-2 4q0 4 -2 7v22l6 10q4 6 -4 13q-4 6 -17 0q-10 -2 -16 -9 q-6 -2 -10 -12q-4 -4 -4 -10q0 -8 2 -12l4 -2l4 -5l-12 -12l-23 -31l-20 -22q-4 0 -4 -4v-2l-2 -2q0 -2 -2 -2l-11 -15q-8 -6 -14 -12t-14 -10q-12 -12 -33 -23l-21 -8q-12 -4 -18 -2q-6 0 -6 4q-2 2 -2 6q0 2 4 11l2 8l10 16q4 -2 12 -2h19q10 2 26 12q6 2 11.5 6.5 t13.5 8.5l14 16q4 4 7.5 8t3.5 8l8 13q0 12 -4 14q-4 8 -8 10h-19h-9t-9 -4l-21 -8q-27 -14 -45 -29q-18 -16 -29 -34q-4 -4 -6 -9.5t-6 -11.5q-6 -8 -8 -18v-17zM545 -115h14v27h29v-27h16v-20h-16v-55q0 -6 2 -9q0 -2 2 -2h6l4 2h2v-22h-16q-12 0 -17 2q-10 4 -10 8 q-2 2 -2 12v64h-14v20zM567 870l15 23l18 20l6 9l10 8l11 10l12 4q8 2 14 0v-10l-6 -8q-6 -6 -6 -11q-4 -4 -5 -6t-5 -4q0 -2 -8 -10q-2 -2 -3.5 -4t-5.5 -4l-10 -8l-12 -9q-6 -2 -12 -2q-10 0 -13 2zM580 717h10q2 0 4 -2q12 -4 12 -23v15l10 8l2 2h9v4h-47v-4zM610 -115 h33l21 -78l20 78h31l-35 -102l-2 -2l-8 -23l-6 -12q-6 -6 -11 -6q-4 0 -7 -1t-7 -1h-14v22h16q2 0 6 4v5q2 2 2 6l-37 102zM639 694q0 -2 4 -10q0 -6 6 -6l13 -6q2 -2 20 -6l8 -2q8 -4 12 -5q4 0 9 -4q2 0 2 -2q6 -4 6 -10l-4 -8q-2 -4 -8 -6h-11q-10 0 -16 2l-16 6l-11 10 q-10 10 -10 21h-2v-43h2q0 6 4 6q4 4 8 4q2 0 2 -1t5 -1q2 0 3 -1t3 -1l14 -4q4 -2 14 -2q4 0 17 4q2 0 12 6q2 2 2 4t4 4v21l-6 6q-2 4 -12 8l-17 6h-10l-2 2q-4 2 -8 2t-6 2q-6 0 -8 2q-2 0 -7 4q-2 0 -2 4v2v9l4 4l9 4q2 0 4 1t6 1q6 0 14 -4q8 0 12 -4q8 -4 11 -8 q4 -2 5 -7.5t5 -9.5h2v31h-2q-2 -6 -8 -6h-8q-16 10 -31 10q-8 0 -21 -4l-12 -8q-2 -4 -3 -7.5t-1 -9.5zM641 92v21h14v8q0 33 35 33h15v-25h-15q-4 0 -4 -4v-12h19v-21h-19v-94h-31v94h-14zM723 37v76h29v-70q0 -20 20 -20h10l11 10q0 2 2 5t2 7v68h26v-115h-26v16 q-6 -8 -15 -12q-12 -6 -20 -6q-20 0 -29 12q-10 8 -10 29zM731 -115h25v-16h4q2 0 4 2l8 8l8 6q2 2 8 2q10 0 17 -4q8 -4 12 -8q8 -8 10 -20q6 -10 7 -23q0 -4 -1.5 -6t-1.5 -6t-2 -6t-4 -7q-4 -16 -12 -22q-10 -8 -25 -8q-10 0 -14 2l-8 6q-2 2 -6 2l-2 4v-51h-27v145z M741 627h103v39l-6 -13l-11 -14q-6 -6 -8 -6l-10 -2q-4 -2 -12 -2h-15v41h2q8 0 19 -6l4 -7q0 -2 1 -3t1 -3v-8h2v59h-2v-8l-4 -10q-10 -10 -19 -10h-4v43h17q16 0 22 -2l8 -6l5 -11l6 -14h4v37h-103v-4h4q8 0 11 -4q6 0 6 -11v-57q0 -16 -17 -16h-4v-2zM756 -170 q0 -14 8 -20q6 -8 16 -9q12 0 19 9q4 12 4 22t-4 23q-4 4 -8.5 7t-10.5 3q-25 0 -24 -35zM793 868v9l4 10l6 8q8 10 18 18l23 11q0 -4 1 -6.5t1 -4.5q-2 -4 -2 -8v-12l-4 -8l-9 -11l-8 -6q-2 0 -3 -1t-5 -1q-2 -2 -8 -2q-4 -4 -8 0q-2 0 -6 4zM844 -166q0 17 4 25 q6 14 16 20q10 8 27 8q23 0 31 -8q10 -6 16 -22q4 -16 4 -27v-6h-72q0 -12 7 -19q6 -6 16 -6q6 0 14 4l6 9h27q-4 -16 -8 -21q-4 -4 -8 -6t-9 -4q-12 -4 -22 -4q-49 0 -49 57zM852 -2v156h29v-156h-29zM870 -158h43q0 10 -6 17q-4 2 -7 4t-9 2q-16 0 -21 -23zM903 -2v156h29 v-156h-29zM905 674q0 -14 4 -21q4 -4 6.5 -7t6.5 -7q6 -6 18 -10q6 -2 11 -3t12 -1q16 0 26 6q8 4 13.5 9t9.5 9q6 8 6 25q0 10 -4 16q-4 12 -10 17q-4 6 -19 10q-12 6 -22 6q-20 0 -29 -8q-8 -2 -12 -7.5t-9 -9.5q-8 -10 -8 -24zM915 901q0 -8 5 -8l10 -8h10h12q8 2 14.5 4 t12.5 4l27 14l22 21l19 16l14 21l10 16l6 18q4 10 0 15q0 6 -6 10q0 4 -10 8q-2 0 -6 1t-8 1q-6 0 -19 -4q-4 0 -6 -1l-6 -3l-12 -4l-25 -16l-23 -19l-16 -18l-12 -19q-10 -16 -13 -26v-23zM928 674q0 4 1 8t1 8l6 12l6 11q2 2 4 2t6 2q4 4 13 4q0 -2 2 -2h4l6 -4l10 -8 q0 -4 2 -7.5t4 -9.5q0 -2 1 -7t1 -9q0 -12 -4 -25q-4 -4 -6 -9t-6 -9q-4 -2 -16 -2q-10 0 -13 2q-8 0 -12 10l-6 12q-4 12 -4 21zM940 895v12q4 14 10 21l15 22l10 13l24 30l9.5 9.5l9.5 9.5l8 8l10 4q4 2 11 2l4 -2q2 -2 2 -8q0 -2 -4 -10l-5 -9l-6 -10l-6 -10l-20 -31 l-17 -18l-20 -21q0 -2 -10 -6q-2 -4 -13 -8h-8q-4 0 -4 2zM948 -115h17v9q0 29 30 28h13v-22h-13l-2 -2l-2 -9v-4h19v-20h-19v-86h-26v86h-17v20zM1010 92v21h14v8q0 33 35 33h12v-25h-12q-2 0 -4 -4v-12h20v-21h-20v-94h-31v94h-14zM1018 -193q0 17 10 23q10 10 21 10l24 4 q8 0 8 6q0 16 -14 17q-10 0 -12 -6q-6 -4 -6 -11h-27q0 14 6 21q6 10 14 12q4 2 11 2q4 2 14 2t16.5 -1t12.5 -3q8 -6 12 -12q2 -4 2 -14v-56q0 -10 2 -12q0 -2 4 -6v-4h-31v2q0 2 -1 2t-1 2v6q-4 -2 -5 -4t-3 -4q-4 -2 -6 -2t-4 -2q-4 -2 -14 -2q-8 0 -15 2l-14 10 q-4 8 -4 18zM1032 627h49v2q-6 0 -10 2h-8l-4 10q-2 2 -2 12v56l80 -82h4v65q0 8 1 12.5t3 8.5q4 4 16 4v4h-47v-4h8q0 -2 4 -2q6 -4 7 -8q4 -4 4 -15v-39l-66 68h-37v-4q8 0 10 -2q2 0 3.5 -1t3.5 -1q2 -4 2 -11v-53q0 -6 -2 -10l-7 -8q-4 0 -7 -1t-5 -1v-2zM1047 -190 q0 -4 4 -9q6 -6 8 -6q4 0 6 4h4l10 6q2 4 2 13v12l-8 -4l-14 -2q-4 0 -8 -4t-4 -10zM1051 905q2 0 3 -1t3 -1q4 0 8 2l8 4q0 2 4 6q2 0 2 1.5t2 1.5l4 6q0 4 5 4l16 22l20 21l17 20l22 21l29 28l10 9l10 8l13 4q2 0 2 -2h-2l-4 -4q-2 -6 -9 -8l-4 -7l-12 -14q-4 -4 -6 -7 t-6 -7l-15 -23l-14 -20l-6 -19q-4 -10 0 -16q2 -6 8 -6h19q4 2 9 5t13 7l19 14l22 23q-2 -2 -2 -6q0 -6 4 -15q2 -4 10 -8q6 -2 21 2q12 2 24 13l21 14l7 7l7 7l13 13v-5q0 -2 -1.5 -3t-1.5 -3v-6q-4 -6 0 -10q0 -2 1.5 -3t1.5 -3q0 -6 6 -6h16l6 4l8 6l13 6l32 27l17 16 l-4 -12q-4 -6 -4 -19v-6q2 0 4 -2q0 -2 6 -2q4 0 8 4q8 0 12 6l11 6l12 13q2 0 10 8l9 9t10 9l18 21v4q0 2 -2 2q-4 0 -8 -4l-2 -4l-13 -15l-10 -12q-10 -6 -12 -12l-14 -12l-9 -7l-8 -2l-2 -2q-2 0 -4 2h2l8 15q4 8 8 12l7 12q4 2 8 11l63 92q10 10 13 16l16 16l37 43 q10 10 17 20.5t16 20.5l10 19v8q-2 2 -8 2q-2 0 -11 -4q-4 0 -6 -2t-6 -4q-4 0 -10 -6l-8 -6l-23 -19l-16 -18q-6 -6 -10.5 -11.5t-8.5 -11.5q-2 -4 -6 -9t-8 -11l-27 -41l-26 -45l-19 -33l-8 -16h-2l-14 -15q-4 -6 -8.5 -10t-10.5 -10l-18 -17l-10 -8l-7 -4l-4 -2l-4 -4 h-10l12 20q0 2 2 4q4 8 8.5 14.5t10.5 12.5l16 29l15 20l8 13l6 10l2 2l2 2q0 2 1 2t1 2q6 4 4 8q0 2 -6 2l-10 -4l-10 -6l-19 -12l-14 -13q0 6 -2 11q0 2 -6 6q-12 2 -21 0q-16 -4 -22 -8l-25 -13l-18 -16q-27 -18 -37 -39q-14 -16 -21 -37h-4l-16 -18q-6 -4 -11.5 -8.5 t-11.5 -8.5q-2 -4 -12 -8q-4 -4 -10 -4h-2q-2 2 0 4l6 8l6 11l12 14l21 27q4 6 9 13t9 15l8 17q4 10 2 16q0 6 -2 6q0 4 -6 4t-8 -2l-12 -4l-13 -8l-10 -8l-10 -9q-8 -8 -12 -8l-21 -22q-4 -4 -9 -9.5t-9 -9.5l-11 -12l-10 -10l2 4l25 35l26 37q0 2 1.5 2t1.5 2q2 2 2 4 q2 2 2 6l-7 6q-2 0 -3 1t-3 1t-4 -1t-6 -1l-10 -6l-4 -4q-4 -2 -4 -4t-2 -4l-5 -7l-77 -133q-2 -2 -2 -4v-2zM1083 55q0 6 1 11.5t3 11.5q2 10 11 18q10 10 20 15q6 4 25 4q16 0 24 -4q4 -4 8.5 -5.5t8.5 -5.5t6 -9t6 -11q4 -12 4 -25q0 -16 -8 -30q-2 -8 -18 -21 q-10 -8 -31 -8q-20 0 -35 8q-6 4 -10 10t-8 13q-6 12 -7 28zM1114 55q0 -8 2 -13t4 -9q4 -10 23 -10q16 0 20 10q6 6 6 22q0 14 -6 25q-6 10 -20 10q-16 0 -23 -10q-2 -4 -4 -10.5t-2 -14.5zM1128 -170q1 16 11 41q12 16 39 16q10 0 22 -4q8 -2 17 -14q4 -6 7 -11t3 -12h-31 q0 4 -4 13q-6 6 -12 6q-10 0 -17 -10q-8 -6 -8 -21q0 -6 1 -10t1 -8l8 -11q4 -4 13 -4q8 0 12 4q6 2 6 13h27q0 -10 -6 -23q-4 -4 -7.5 -7t-7.5 -5q-12 -6 -24 -6q-23 0 -35 12q-6 2 -10 16q-4 12 -5 25zM1167 627h107v41h-2q-4 -4 -4 -6.5t-2 -6.5q-4 -4 -4 -8l-5 -6 q-8 -8 -12 -10q-2 0 -6 -1t-8 -1h-25v73q0 10 6 11q2 4 13 4h6v4h-64v-4h4q16 0 17 -15v-57q0 -16 -17 -16h-4v-2zM1221 -2v115h28v-17q12 18 35 19q14 0 21 -4l14 -13q4 -12 4 -20v-80h-29v70q0 8 -4 16q-6 6 -16 6q-12 0 -19 -8q-4 -4 -4 -19v-65h-30zM1237 -166q0 9 4 25 q6 14 16 20q10 8 29 8q20 0 29 -8q10 -6 14 -22q6 -12 6 -27v-6h-71q0 -12 6 -19q6 -6 16 -6q6 0 14 4l7 9h26q-4 -16 -10 -21q-8 -8 -14 -10q-12 -4 -23 -4q-49 0 -49 57zM1264 -158h43q0 10 -7 17q-4 2 -7 4t-9 2q-16 0 -20 -23zM1266 963l2 2q0 2 2 4l6 10l8 10l6 12 l8 11l19 24l26 33l7 8l16 13q2 2 8 2q4 2 8 2l7 -4q0 -2 1 -3.5t1 -3.5q0 -4 -2 -8q0 -2 -5 -6l-16 -22l-12 -23l-17 -14l-16 -19l-10 -8l-13 -10l-10 -8q-4 0 -5 -2t-5 -2q-8 -4 -10 -3h-2q-2 2 -2 5zM1268 717h2q10 0 14 -2l4 -4t4 -6l29 -39v-21q0 -10 -2 -12 q-8 -4 -14 -4h-7v-2h68v2h-8q-8 0 -12 4t-5 12v23l25 34l4 7q8 4 10 4q0 2 4 2q2 0 3.5 1t3.5 1h2v4h-47v-4h6q8 0 10 -2q4 -2 4 -6t-6 -11l-19 -26l-24 30q-4 8 -4 9v2q0 2 2 2q0 2 6 2h8v4h-61v-4zM1337 92v21h19v28h26v-28h21v-21h-21v-61v-6q0 -2 2 -2q4 0 5.5 -1.5 t5.5 -1.5l4 3h4v-25h-21q-14 0 -16 4q-8 0 -10 8v82h-19zM1352 -190h30v-31h-30v31zM1401 -170q0 16 10 41q12 16 39 16q10 0 23 -4q6 -2 18 -14q8 -10 8 -23h-29l-6 13q-6 6 -12 6q-10 0 -16 -10q-6 -6 -6 -21q0 -6 1 -10t1 -8q4 -8 8 -11q2 -4 10 -4q10 0 12 4q6 2 6 13 h31q-4 -12 -8 -23q-4 -4 -8 -7t-8 -5q-10 -6 -25 -6q-20 0 -35 12q-6 2 -10 16q-4 12 -4 25zM1473 31q0 16 8 24q16 8 24 11l27 4q10 0 10 8q0 14 -18 14q-8 0 -13 -4q-6 -2 -8 -14h-26q0 14 6 24q4 6 16 13q4 4 12 4h13q25 0 32 -4l7.5 -7.5t5.5 -7.5t2 -14v-72q0 -6 8 -6 v-6h-33q-2 0 -2 2v2v2q0 4 -1 5t-1 3l-8 -8q-2 -2 -3 -2t-3 -2t-4 -2q-6 0 -9.5 -1t-7.5 -1t-8 1t-8 1q-4 4 -7 6t-7 6q-4 8 -4 21zM1501 31q0 -8 4 -8q4 -4 11 -5h8l4 2q10 4 10 7q4 8 4 14v14q-6 -6 -12 -6l-14 -4q-6 0 -11 -4q-4 -2 -4 -10zM1511 -168q0 13 2 21 q4 12 11 18q6 8 16 12q12 4 25 4q10 0 22 -4l8 -4t9 -6q4 -4 5 -9t5 -9q2 -6 2 -23q0 -16 -6 -29q-4 -14 -17 -20q-12 -6 -28 -6q-20 0 -31 8q-12 6 -18 20q-4 16 -5 27zM1538 -168q0 -14 6 -22q2 -4 8.5 -6.5t12.5 -2.5q16 0 18 9q6 8 6 22q0 13 -6 23q-4 10 -18 10 q-16 0 -21 -10q-6 -10 -6 -23zM1567 1167l28 37l13 23l26 35l2 2q0 4 4 4q0 2 2 2q0 -8 -2 -10l-8 -11l-6 -10l-6 -8l-16 -21l-19 -20l-10 -12q-4 -8 -8 -11zM1585 92v21h14v28h33v-28h19v-21h-19v-69q2 0 4 -1.5t6 -1.5l5 3h4v-25h-19q-14 0 -20 4q-6 0 -8 8q0 2 -2.5 5 t-2.5 8v69h-14zM1636 -115h27v-16q8 18 31 18q8 0 16 -4q6 -4 12 -12q2 8 11 12q8 4 16 4q10 0 23 -4q8 -8 10 -14q4 -8 4 -19v-71h-27v63q0 23 -16 23q-18 0 -19 -23v-63h-26v74q0 4 -4 8t-15 4q-16 0 -16 -23v-63h-27v106z" />
<glyph unicode="7" horiz-adv-x="1847" d="M70 -193q0 17 8 23q10 10 20 10l27 4q10 0 10 6q0 16 -16 17q-10 0 -13 -6q-8 -2 -8 -11h-24q0 14 6 21q2 8 12 12q4 2 14 2q4 2 13 2q14 0 26 -4q8 -6 13 -12q2 -4 2 -14v-56q0 -10 2 -12q0 -2 4 -6v-4h-29v6q-2 2 -2 6l-8 -8q-4 -2 -6 -2t-4 -2q-4 -2 -13 -2 q-12 0 -18 2q-6 4 -10 10q-6 6 -6 18zM96 -190q0 -4 4 -9q4 -2 6.5 -4t4.5 -2q4 0 6 4h4l10 6q4 8 4 13v12q-2 0 -10 -4l-12 -2q-4 0 -13 -4q-4 -4 -4 -10zM125 565v494l268 59l-10 37l41 12l-8 39l41 8l-6 46l41 2v41h36l4 36l39 -6l9 41l43 -6l10 39l39 -10l16 37l39 -17 l23 39l34 -18l23 35l37 -25l24 33l35 -27l27 29l26 -25l27 23l27 -29l34 23l23 -37l39 20l18 -35l37 17l17 -41l43 12l12 -39l39 10l8 -43l43 4l2 -26l404 88v-496l-185 -41l4 -2l-24 -26l24 -29l-32 -27l22 -34l-37 -23l23 -37l-35 -20l14 -37l-39 -17l13 -43l-37 -12 l6 -39l-41 -8l2 -43l-39 -4v-39h-35l-6 -37l-39 2l-8 -37l-43 6l-10 -40l-39 12l-14 -39l-44 16l-18 -39l-37 21l-22 -35l-37 23l-25 -33l-30 26l-31 -26l-27 24l-26 -24l-25 31l-35 -23l-24 37l-37 -21l-19 35l-39 -16l-18 41l-39 -13l-12 37l-41 -8l-8 43l-43 -4l-5 41 h-40v35l-35 4l4 41l-41 6l8 43l-41 12l12 37l-28 12zM186 -115h25v-18h2l6 10q2 2 3 4t5 4q2 2 15 2h6v-28h-8q-27 0 -27 -25v-55h-27v106zM236 76v16q0 4 2 7t2 7q2 12 14 25q4 6 10 10t12 9q14 6 33 6h6q4 0 8.5 -1t8.5 -1q8 0 14 -7q14 -8 21 -18q4 -4 8 -12q0 -2 1 -3 t1 -3v-5h-33v3q0 2 -4 6q-2 4 -4 5t-6 5q-6 4 -19 4h-14l-14 -12q-10 -6 -11 -15q-4 -8 -4 -28q0 -8 1 -14.5t3 -14.5q2 -10 13 -14q6 -4 10 -6t10 -2h4q12 0 19 4q4 0 7 3l5 5q4 6 6 10t2 10h-37v27h66v-84h-21l-4 20q-6 -8 -14 -14q-4 -4 -9 -5t-10 -3q-4 0 -9 -1t-9 -1 q-12 0 -25 6q-14 6 -20 16q-8 6 -16 27q-4 10 -4 33zM236 702h10l8 5l10 10l8 10l11 10q4 8 8 13l63 86l19 30l20 31q6 8 11.5 15.5t9.5 15.5l16 33q2 4 0 6t-4 2q-8 0 -10 -2l-8 -4l-33 -41q-6 -6 -15 -19l-16 -20l-55 -80l-27 -41l-22 -43l-4 -6v-11zM262 -78h29v-24h-29 v24zM262 -115h29v-106h-29v106zM276 889q2 -4 4.5 -6t6.5 -6l18 -7q14 0 23 2q4 0 4 2q2 2 2 5q0 2 -2 2h-4q-4 0 -4 -2q-14 -2 -29 2q-8 4 -10 8q0 4 -1 5t-1 5q0 6 2 12l6 15l16 18q4 4 10.5 8t12.5 9q6 4 11 7t13 7l25 12q8 0 14 2t15 6l28 4q16 4 27 5q6 0 22 -5 q10 0 15 -6l10 -12v-16q0 -12 -2 -21l-10 -18q-4 -6 -7.5 -11.5t-7.5 -9.5q-4 -6 -9 -10t-11 -10q-4 -6 -21 -19l-22 -14l-25 -10l-14 -6q-2 0 -5 -1t-7 -1h-4q-4 0 -7 -3q-2 0 -2 -2q-4 0 -4 -4q0 -2 2 -2h4q4 0 7 2h4l26 9l27 12l27 10l26 16l23 17l20 18l17 21q4 4 7 9 t5 11q4 12 4 19q2 10 0 18l-6 14l-15 11q-6 2 -10 3t-10 1q-8 2 -23 2q-8 0 -24 -4q-14 0 -27.5 -4t-29.5 -9q-29 -8 -54 -22q-6 -4 -13 -7t-13 -7t-12.5 -8.5t-10.5 -10.5l-9 -9l-9 -9l-9 -21q-4 -10 0 -16zM317 -115h25v-16q12 18 33 18q8 0 20 -4q6 -4 13 -12q4 -8 4 -21 v-71h-29v63q0 12 -2 15q-4 8 -16 8q-8 0 -17 -8q-4 -12 -4 -17v-61h-27v106zM395 57q0 20 6 29q4 14 17 20q8 6 15 7.5t18 1.5q23 0 28 -9q12 -6 19 -22q4 -10 4 -31v-8h-78q0 -6 8 -18q6 -6 19 -7q4 0 7 1.5t5 1.5q8 8 8 10h31l-10 -21l-17 -12l-12 -3t-12 -1q-55 0 -56 61 zM428 68h45q-4 12 -8 16q-8 8 -14 8q-23 0 -23 -24zM430 -166q0 6 2 12.5t4 12.5q6 14 15 20q8 8 24 8q6 0 19 -4l7 -7t5 -7l2 16h24v-100q0 -10 -4 -27q-6 -10 -16 -14q-12 -6 -33 -6q-4 0 -9 1t-9 1q-6 2 -19 10q-4 4 -4 8q-2 4 -2 11h27l6 -9q2 -2 12 -2q12 0 15 2 q8 6 8 9q0 2 1 3t1 3v18q-12 -14 -29 -14q-6 0 -11 1t-11 3q-10 8 -17 20q-4 6 -6 13.5t-2 17.5zM461 -168q0 -8 2 -14q0 -4 6 -11q8 -4 12 -4q25 0 25 29q0 14 -8 23q-4 4 -8.5 7t-8.5 3q-8 0 -14 -10q-6 -6 -6 -23zM498 717q20 0 20 -15v-49q0 -8 10 -22l17 -4q4 -2 18 -2 q12 0 25 4q8 4 10 6q8 6 8 18q-4 -10 -10 -16l-12 -8h-15q-12 0 -18 2q-2 0 -10 8q-4 4 -4 14v49q0 10 4 11q4 4 14 4h6v4h-63v-4zM510 92v21h16v28h31v-28h16v-21h-16v-61q0 -8 2 -8q0 -2 2 -3h8l2 3h2v-25h-16q-14 0 -20 4q-6 0 -9 8q-2 2 -2 13v69h-16zM510 821 q2 -8 10 -12q10 -10 23 -6q14 0 26 6q10 2 17.5 6t15.5 8t15.5 9.5t15.5 13.5l24 20l15 15q0 2 4 6q0 2 2 4l4 6l16 16l15 21q6 4 10 10t8 10l6 -2l4 -6q0 -2 2 -4v-2q0 -2 -2 -4t-4 -6l-16 -17l-14 -20l-13 -19l-4 -18q-2 -2 -2 -8v-6l4 -8h8q10 0 17 2l16 10q4 4 10.5 8 t10.5 10q6 4 10 8.5t8 8.5l8 12l8 10l5 4l4 6q4 4 4 5l12 16l21 31q0 -4 1 -7.5t1 -7.5q4 -12 4 -14l4 -8q-16 -4 -25 -13l-20 -14q-4 -4 -7.5 -9t-5.5 -9q-2 -6 -2 -17q0 -6 11 -10h18q12 0 25 8q16 8 22 17q6 4 9 8t8 8l8 18q6 8 6 19v16q0 6 -4 15l-6 16l-7 6q0 4 -4 8 q0 2 -2 4v11h-8l-4 -4l-12 -9l-4 -12l-2 -2l-4 -6l-33 -45l-4 -6l-6 -11h-3v-2q-2 0 -4 -2l-4 -8l-6 -8l-14 -18l-23 -21l-12 -6q-4 -4 -12 -4v2l8 10l6 10l8 11l6 8l9 14l10 14l4 15q2 6 2 14q-2 2 -2 8l-2 4q0 4 -2 7v22l6 10q4 6 -4 13q-4 6 -17 0q-10 -2 -16 -9 q-6 -2 -10 -12q-4 -4 -4 -10q0 -8 2 -12l4 -2l4 -5l-12 -12l-23 -31l-20 -22q-4 0 -4 -4v-2l-2 -2q0 -2 -2 -2l-11 -15q-8 -6 -14 -12t-14 -10q-12 -12 -33 -23l-21 -8q-12 -4 -18 -2q-6 0 -6 4q-2 2 -2 6q0 2 4 11l2 8l10 16q4 -2 12 -2h19q10 2 26 12q6 2 11.5 6.5 t13.5 8.5l14 16q4 4 7.5 8t3.5 8l8 13q0 12 -4 14q-4 8 -8 10h-19h-9t-9 -4l-21 -8q-27 -14 -45 -29q-18 -16 -29 -34q-4 -4 -6 -9.5t-6 -11.5q-6 -8 -8 -18v-17zM545 -115h14v27h29v-27h16v-20h-16v-55q0 -6 2 -9q0 -2 2 -2h6l4 2h2v-22h-16q-12 0 -17 2q-10 4 -10 8 q-2 2 -2 12v64h-14v20zM567 870l15 23l18 20l6 9l10 8l11 10l12 4q8 2 14 0v-10l-6 -8q-6 -6 -6 -11q-4 -4 -5 -6t-5 -4q0 -2 -8 -10q-2 -2 -3.5 -4t-5.5 -4l-10 -8l-12 -9q-6 -2 -12 -2q-10 0 -13 2zM580 717h10q2 0 4 -2q12 -4 12 -23v15l10 8l2 2h9v4h-47v-4zM610 -115 h33l21 -78l20 78h31l-35 -102l-2 -2l-8 -23l-6 -12q-6 -6 -11 -6q-4 0 -7 -1t-7 -1h-14v22h16q2 0 6 4v5q2 2 2 6l-37 102zM639 694q0 -2 4 -10q0 -6 6 -6l13 -6q2 -2 20 -6l8 -2q8 -4 12 -5q4 0 9 -4q2 0 2 -2q6 -4 6 -10l-4 -8q-2 -4 -8 -6h-11q-10 0 -16 2l-16 6l-11 10 q-10 10 -10 21h-2v-43h2q0 6 4 6q4 4 8 4q2 0 2 -1t5 -1q2 0 3 -1t3 -1l14 -4q4 -2 14 -2q4 0 17 4q2 0 12 6q2 2 2 4t4 4v21l-6 6q-2 4 -12 8l-17 6h-10l-2 2q-4 2 -8 2t-6 2q-6 0 -8 2q-2 0 -7 4q-2 0 -2 4v2v9l4 4l9 4q2 0 4 1t6 1q6 0 14 -4q8 0 12 -4q8 -4 11 -8 q4 -2 5 -7.5t5 -9.5h2v31h-2q-2 -6 -8 -6h-8q-16 10 -31 10q-8 0 -21 -4l-12 -8q-2 -4 -3 -7.5t-1 -9.5zM641 92v21h14v8q0 33 35 33h15v-25h-15q-4 0 -4 -4v-12h19v-21h-19v-94h-31v94h-14zM723 37v76h29v-70q0 -20 20 -20h10l11 10q0 2 2 5t2 7v68h26v-115h-26v16 q-6 -8 -15 -12q-12 -6 -20 -6q-20 0 -29 12q-10 8 -10 29zM731 -115h25v-16h4q2 0 4 2l8 8l8 6q2 2 8 2q10 0 17 -4q8 -4 12 -8q8 -8 10 -20q6 -10 7 -23q0 -4 -1.5 -6t-1.5 -6t-2 -6t-4 -7q-4 -16 -12 -22q-10 -8 -25 -8q-10 0 -14 2l-8 6q-2 2 -6 2l-2 4v-51h-27v145z M741 627h103v39l-6 -13l-11 -14q-6 -6 -8 -6l-10 -2q-4 -2 -12 -2h-15v41h2q8 0 19 -6l4 -7q0 -2 1 -3t1 -3v-8h2v59h-2v-8l-4 -10q-10 -10 -19 -10h-4v43h17q16 0 22 -2l8 -6l5 -11l6 -14h4v37h-103v-4h4q8 0 11 -4q6 0 6 -11v-57q0 -16 -17 -16h-4v-2zM756 -170 q0 -14 8 -20q6 -8 16 -9q12 0 19 9q4 12 4 22t-4 23q-4 4 -8.5 7t-10.5 3q-25 0 -24 -35zM793 868v9l4 10l6 8q8 10 18 18l23 11q0 -4 1 -6.5t1 -4.5q-2 -4 -2 -8v-12l-4 -8l-9 -11l-8 -6q-2 0 -3 -1t-5 -1q-2 -2 -8 -2q-4 -4 -8 0q-2 0 -6 4zM844 -166q0 17 4 25 q6 14 16 20q10 8 27 8q23 0 31 -8q10 -6 16 -22q4 -16 4 -27v-6h-72q0 -12 7 -19q6 -6 16 -6q6 0 14 4l6 9h27q-4 -16 -8 -21q-4 -4 -8 -6t-9 -4q-12 -4 -22 -4q-49 0 -49 57zM852 -2v156h29v-156h-29zM870 -158h43q0 10 -6 17q-4 2 -7 4t-9 2q-16 0 -21 -23zM903 -2v156h29 v-156h-29zM905 674q0 -14 4 -21q4 -4 6.5 -7t6.5 -7q6 -6 18 -10q6 -2 11 -3t12 -1q16 0 26 6q8 4 13.5 9t9.5 9q6 8 6 25q0 10 -4 16q-4 12 -10 17q-4 6 -19 10q-12 6 -22 6q-20 0 -29 -8q-8 -2 -12 -7.5t-9 -9.5q-8 -10 -8 -24zM915 901q0 -8 5 -8l10 -8h10h12q8 2 14.5 4 t12.5 4l27 14l22 21l19 16l14 21l10 16l6 18q4 10 0 15q0 6 -6 10q0 4 -10 8q-2 0 -6 1t-8 1q-6 0 -19 -4q-4 0 -6 -1l-6 -3l-12 -4l-25 -16l-23 -19l-16 -18l-12 -19q-10 -16 -13 -26v-23zM928 674q0 4 1 8t1 8l6 12l6 11q2 2 4 2t6 2q4 4 13 4q0 -2 2 -2h4l6 -4l10 -8 q0 -4 2 -7.5t4 -9.5q0 -2 1 -7t1 -9q0 -12 -4 -25q-4 -4 -6 -9t-6 -9q-4 -2 -16 -2q-10 0 -13 2q-8 0 -12 10l-6 12q-4 12 -4 21zM940 895v12q4 14 10 21l15 22l10 13l24 30l9.5 9.5l9.5 9.5l8 8l10 4q4 2 11 2l4 -2q2 -2 2 -8q0 -2 -4 -10l-5 -9l-6 -10l-6 -10l-20 -31 l-17 -18l-20 -21q0 -2 -10 -6q-2 -4 -13 -8h-8q-4 0 -4 2zM948 -115h17v9q0 29 30 28h13v-22h-13l-2 -2l-2 -9v-4h19v-20h-19v-86h-26v86h-17v20zM1010 92v21h14v8q0 33 35 33h12v-25h-12q-2 0 -4 -4v-12h20v-21h-20v-94h-31v94h-14zM1018 -193q0 17 10 23q10 10 21 10l24 4 q8 0 8 6q0 16 -14 17q-10 0 -12 -6q-6 -4 -6 -11h-27q0 14 6 21q6 10 14 12q4 2 11 2q4 2 14 2t16.5 -1t12.5 -3q8 -6 12 -12q2 -4 2 -14v-56q0 -10 2 -12q0 -2 4 -6v-4h-31v2q0 2 -1 2t-1 2v6q-4 -2 -5 -4t-3 -4q-4 -2 -6 -2t-4 -2q-4 -2 -14 -2q-8 0 -15 2l-14 10 q-4 8 -4 18zM1032 627h49v2q-6 0 -10 2h-8l-4 10q-2 2 -2 12v56l80 -82h4v65q0 8 1 12.5t3 8.5q4 4 16 4v4h-47v-4h8q0 -2 4 -2q6 -4 7 -8q4 -4 4 -15v-39l-66 68h-37v-4q8 0 10 -2q2 0 3.5 -1t3.5 -1q2 -4 2 -11v-53q0 -6 -2 -10l-7 -8q-4 0 -7 -1t-5 -1v-2zM1047 -190 q0 -4 4 -9q6 -6 8 -6q4 0 6 4h4l10 6q2 4 2 13v12l-8 -4l-14 -2q-4 0 -8 -4t-4 -10zM1051 905q2 0 3 -1t3 -1q4 0 8 2l8 4q0 2 4 6q2 0 2 1.5t2 1.5l4 6q0 4 5 4l16 22l20 21l17 20l22 21l29 28l10 9l10 8l13 4q2 0 2 -2h-2l-4 -4q-2 -6 -9 -8l-4 -7l-12 -14q-4 -4 -6 -7 t-6 -7l-15 -23l-14 -20l-6 -19q-4 -10 0 -16q2 -6 8 -6h19q4 2 9 5t13 7l19 14l22 23q-2 -2 -2 -6q0 -6 4 -15q2 -4 10 -8q6 -2 21 2q12 2 24 13l21 14l7 7l7 7l13 13v-5q0 -2 -1.5 -3t-1.5 -3v-6q-4 -6 0 -10q0 -2 1.5 -3t1.5 -3q0 -6 6 -6h16l6 4l8 6l13 6l32 27l17 16 l-4 -12q-4 -6 -4 -19v-6q2 0 4 -2q0 -2 6 -2q4 0 8 4q8 0 12 6l11 6l12 13q2 0 10 8l9 9t10 9l18 21v4q0 2 -2 2q-4 0 -8 -4l-2 -4l-13 -15l-10 -12q-10 -6 -12 -12l-14 -12l-9 -7l-8 -2l-2 -2q-2 0 -4 2h2l8 15q4 8 8 12l7 12q4 2 8 11l63 92q10 10 13 16l16 16l37 43 q10 10 17 20.5t16 20.5l10 19v8q-2 2 -8 2q-2 0 -11 -4q-4 0 -6 -2t-6 -4q-4 0 -10 -6l-8 -6l-23 -19l-16 -18q-6 -6 -10.5 -11.5t-8.5 -11.5q-2 -4 -6 -9t-8 -11l-27 -41l-26 -45l-19 -33l-8 -16h-2l-14 -15q-4 -6 -8.5 -10t-10.5 -10l-18 -17l-10 -8l-7 -4l-4 -2l-4 -4 h-10l12 20q0 2 2 4q4 8 8.5 14.5t10.5 12.5l16 29l15 20l8 13l6 10l2 2l2 2q0 2 1 2t1 2q6 4 4 8q0 2 -6 2l-10 -4l-10 -6l-19 -12l-14 -13q0 6 -2 11q0 2 -6 6q-12 2 -21 0q-16 -4 -22 -8l-25 -13l-18 -16q-27 -18 -37 -39q-14 -16 -21 -37h-4l-16 -18q-6 -4 -11.5 -8.5 t-11.5 -8.5q-2 -4 -12 -8q-4 -4 -10 -4h-2q-2 2 0 4l6 8l6 11l12 14l21 27q4 6 9 13t9 15l8 17q4 10 2 16q0 6 -2 6q0 4 -6 4t-8 -2l-12 -4l-13 -8l-10 -8l-10 -9q-8 -8 -12 -8l-21 -22q-4 -4 -9 -9.5t-9 -9.5l-11 -12l-10 -10l2 4l25 35l26 37q0 2 1.5 2t1.5 2q2 2 2 4 q2 2 2 6l-7 6q-2 0 -3 1t-3 1t-4 -1t-6 -1l-10 -6l-4 -4q-4 -2 -4 -4t-2 -4l-5 -7l-77 -133q-2 -2 -2 -4v-2zM1083 55q0 6 1 11.5t3 11.5q2 10 11 18q10 10 20 15q6 4 25 4q16 0 24 -4q4 -4 8.5 -5.5t8.5 -5.5t6 -9t6 -11q4 -12 4 -25q0 -16 -8 -30q-2 -8 -18 -21 q-10 -8 -31 -8q-20 0 -35 8q-6 4 -10 10t-8 13q-6 12 -7 28zM1114 55q0 -8 2 -13t4 -9q4 -10 23 -10q16 0 20 10q6 6 6 22q0 14 -6 25q-6 10 -20 10q-16 0 -23 -10q-2 -4 -4 -10.5t-2 -14.5zM1128 -170q1 16 11 41q12 16 39 16q10 0 22 -4q8 -2 17 -14q4 -6 7 -11t3 -12h-31 q0 4 -4 13q-6 6 -12 6q-10 0 -17 -10q-8 -6 -8 -21q0 -6 1 -10t1 -8l8 -11q4 -4 13 -4q8 0 12 4q6 2 6 13h27q0 -10 -6 -23q-4 -4 -7.5 -7t-7.5 -5q-12 -6 -24 -6q-23 0 -35 12q-6 2 -10 16q-4 12 -5 25zM1167 627h107v41h-2q-4 -4 -4 -6.5t-2 -6.5q-4 -4 -4 -8l-5 -6 q-8 -8 -12 -10q-2 0 -6 -1t-8 -1h-25v73q0 10 6 11q2 4 13 4h6v4h-64v-4h4q16 0 17 -15v-57q0 -16 -17 -16h-4v-2zM1221 -2v115h28v-17q12 18 35 19q14 0 21 -4l14 -13q4 -12 4 -20v-80h-29v70q0 8 -4 16q-6 6 -16 6q-12 0 -19 -8q-4 -4 -4 -19v-65h-30zM1237 -166q0 9 4 25 q6 14 16 20q10 8 29 8q20 0 29 -8q10 -6 14 -22q6 -12 6 -27v-6h-71q0 -12 6 -19q6 -6 16 -6q6 0 14 4l7 9h26q-4 -16 -10 -21q-8 -8 -14 -10q-12 -4 -23 -4q-49 0 -49 57zM1264 -158h43q0 10 -7 17q-4 2 -7 4t-9 2q-16 0 -20 -23zM1266 963l2 2q0 2 2 4l6 10l8 10l6 12 l8 11l19 24l26 33l7 8l16 13q2 2 8 2q4 2 8 2l7 -4q0 -2 1 -3.5t1 -3.5q0 -4 -2 -8q0 -2 -5 -6l-16 -22l-12 -23l-17 -14l-16 -19l-10 -8l-13 -10l-10 -8q-4 0 -5 -2t-5 -2q-8 -4 -10 -3h-2q-2 2 -2 5zM1268 717h2q10 0 14 -2l4 -4t4 -6l29 -39v-21q0 -10 -2 -12 q-8 -4 -14 -4h-7v-2h68v2h-8q-8 0 -12 4t-5 12v23l25 34l4 7q8 4 10 4q0 2 4 2q2 0 3.5 1t3.5 1h2v4h-47v-4h6q8 0 10 -2q4 -2 4 -6t-6 -11l-19 -26l-24 30q-4 8 -4 9v2q0 2 2 2q0 2 6 2h8v4h-61v-4zM1337 92v21h19v28h26v-28h21v-21h-21v-61v-6q0 -2 2 -2q4 0 5.5 -1.5 t5.5 -1.5l4 3h4v-25h-21q-14 0 -16 4q-8 0 -10 8v82h-19zM1352 -190h30v-31h-30v31zM1401 -170q0 16 10 41q12 16 39 16q10 0 23 -4q6 -2 18 -14q8 -10 8 -23h-29l-6 13q-6 6 -12 6q-10 0 -16 -10q-6 -6 -6 -21q0 -6 1 -10t1 -8q4 -8 8 -11q2 -4 10 -4q10 0 12 4q6 2 6 13 h31q-4 -12 -8 -23q-4 -4 -8 -7t-8 -5q-10 -6 -25 -6q-20 0 -35 12q-6 2 -10 16q-4 12 -4 25zM1473 31q0 16 8 24q16 8 24 11l27 4q10 0 10 8q0 14 -18 14q-8 0 -13 -4q-6 -2 -8 -14h-26q0 14 6 24q4 6 16 13q4 4 12 4h13q25 0 32 -4l7.5 -7.5t5.5 -7.5t2 -14v-72q0 -6 8 -6 v-6h-33q-2 0 -2 2v2v2q0 4 -1 5t-1 3l-8 -8q-2 -2 -3 -2t-3 -2t-4 -2q-6 0 -9.5 -1t-7.5 -1t-8 1t-8 1q-4 4 -7 6t-7 6q-4 8 -4 21zM1501 31q0 -8 4 -8q4 -4 11 -5h8l4 2q10 4 10 7q4 8 4 14v14q-6 -6 -12 -6l-14 -4q-6 0 -11 -4q-4 -2 -4 -10zM1511 -168q0 13 2 21 q4 12 11 18q6 8 16 12q12 4 25 4q10 0 22 -4l8 -4t9 -6q4 -4 5 -9t5 -9q2 -6 2 -23q0 -16 -6 -29q-4 -14 -17 -20q-12 -6 -28 -6q-20 0 -31 8q-12 6 -18 20q-4 16 -5 27zM1538 -168q0 -14 6 -22q2 -4 8.5 -6.5t12.5 -2.5q16 0 18 9q6 8 6 22q0 13 -6 23q-4 10 -18 10 q-16 0 -21 -10q-6 -10 -6 -23zM1567 1167l28 37l13 23l26 35l2 2q0 4 4 4q0 2 2 2q0 -8 -2 -10l-8 -11l-6 -10l-6 -8l-16 -21l-19 -20l-10 -12q-4 -8 -8 -11zM1585 92v21h14v28h33v-28h19v-21h-19v-69q2 0 4 -1.5t6 -1.5l5 3h4v-25h-19q-14 0 -20 4q-6 0 -8 8q0 2 -2.5 5 t-2.5 8v69h-14zM1636 -115h27v-16q8 18 31 18q8 0 16 -4q6 -4 12 -12q2 8 11 12q8 4 16 4q10 0 23 -4q8 -8 10 -14q4 -8 4 -19v-71h-27v63q0 23 -16 23q-18 0 -19 -23v-63h-26v74q0 4 -4 8t-15 4q-16 0 -16 -23v-63h-27v106z" />
<glyph unicode="8" horiz-adv-x="1847" d="M70 -193q0 17 8 23q10 10 20 10l27 4q10 0 10 6q0 16 -16 17q-10 0 -13 -6q-8 -2 -8 -11h-24q0 14 6 21q2 8 12 12q4 2 14 2q4 2 13 2q14 0 26 -4q8 -6 13 -12q2 -4 2 -14v-56q0 -10 2 -12q0 -2 4 -6v-4h-29v6q-2 2 -2 6l-8 -8q-4 -2 -6 -2t-4 -2q-4 -2 -13 -2 q-12 0 -18 2q-6 4 -10 10q-6 6 -6 18zM96 -190q0 -4 4 -9q4 -2 6.5 -4t4.5 -2q4 0 6 4h4l10 6q4 8 4 13v12q-2 0 -10 -4l-12 -2q-4 0 -13 -4q-4 -4 -4 -10zM125 565v494l268 59l-10 37l41 12l-8 39l41 8l-6 46l41 2v41h36l4 36l39 -6l9 41l43 -6l10 39l39 -10l16 37l39 -17 l23 39l34 -18l23 35l37 -25l24 33l35 -27l27 29l26 -25l27 23l27 -29l34 23l23 -37l39 20l18 -35l37 17l17 -41l43 12l12 -39l39 10l8 -43l43 4l2 -26l404 88v-496l-185 -41l4 -2l-24 -26l24 -29l-32 -27l22 -34l-37 -23l23 -37l-35 -20l14 -37l-39 -17l13 -43l-37 -12 l6 -39l-41 -8l2 -43l-39 -4v-39h-35l-6 -37l-39 2l-8 -37l-43 6l-10 -40l-39 12l-14 -39l-44 16l-18 -39l-37 21l-22 -35l-37 23l-25 -33l-30 26l-31 -26l-27 24l-26 -24l-25 31l-35 -23l-24 37l-37 -21l-19 35l-39 -16l-18 41l-39 -13l-12 37l-41 -8l-8 43l-43 -4l-5 41 h-40v35l-35 4l4 41l-41 6l8 43l-41 12l12 37l-28 12zM186 -115h25v-18h2l6 10q2 2 3 4t5 4q2 2 15 2h6v-28h-8q-27 0 -27 -25v-55h-27v106zM236 76v16q0 4 2 7t2 7q2 12 14 25q4 6 10 10t12 9q14 6 33 6h6q4 0 8.5 -1t8.5 -1q8 0 14 -7q14 -8 21 -18q4 -4 8 -12q0 -2 1 -3 t1 -3v-5h-33v3q0 2 -4 6q-2 4 -4 5t-6 5q-6 4 -19 4h-14l-14 -12q-10 -6 -11 -15q-4 -8 -4 -28q0 -8 1 -14.5t3 -14.5q2 -10 13 -14q6 -4 10 -6t10 -2h4q12 0 19 4q4 0 7 3l5 5q4 6 6 10t2 10h-37v27h66v-84h-21l-4 20q-6 -8 -14 -14q-4 -4 -9 -5t-10 -3q-4 0 -9 -1t-9 -1 q-12 0 -25 6q-14 6 -20 16q-8 6 -16 27q-4 10 -4 33zM236 702h10l8 5l10 10l8 10l11 10q4 8 8 13l63 86l19 30l20 31q6 8 11.5 15.5t9.5 15.5l16 33q2 4 0 6t-4 2q-8 0 -10 -2l-8 -4l-33 -41q-6 -6 -15 -19l-16 -20l-55 -80l-27 -41l-22 -43l-4 -6v-11zM262 -78h29v-24h-29 v24zM262 -115h29v-106h-29v106zM276 889q2 -4 4.5 -6t6.5 -6l18 -7q14 0 23 2q4 0 4 2q2 2 2 5q0 2 -2 2h-4q-4 0 -4 -2q-14 -2 -29 2q-8 4 -10 8q0 4 -1 5t-1 5q0 6 2 12l6 15l16 18q4 4 10.5 8t12.5 9q6 4 11 7t13 7l25 12q8 0 14 2t15 6l28 4q16 4 27 5q6 0 22 -5 q10 0 15 -6l10 -12v-16q0 -12 -2 -21l-10 -18q-4 -6 -7.5 -11.5t-7.5 -9.5q-4 -6 -9 -10t-11 -10q-4 -6 -21 -19l-22 -14l-25 -10l-14 -6q-2 0 -5 -1t-7 -1h-4q-4 0 -7 -3q-2 0 -2 -2q-4 0 -4 -4q0 -2 2 -2h4q4 0 7 2h4l26 9l27 12l27 10l26 16l23 17l20 18l17 21q4 4 7 9 t5 11q4 12 4 19q2 10 0 18l-6 14l-15 11q-6 2 -10 3t-10 1q-8 2 -23 2q-8 0 -24 -4q-14 0 -27.5 -4t-29.5 -9q-29 -8 -54 -22q-6 -4 -13 -7t-13 -7t-12.5 -8.5t-10.5 -10.5l-9 -9l-9 -9l-9 -21q-4 -10 0 -16zM317 -115h25v-16q12 18 33 18q8 0 20 -4q6 -4 13 -12q4 -8 4 -21 v-71h-29v63q0 12 -2 15q-4 8 -16 8q-8 0 -17 -8q-4 -12 -4 -17v-61h-27v106zM395 57q0 20 6 29q4 14 17 20q8 6 15 7.5t18 1.5q23 0 28 -9q12 -6 19 -22q4 -10 4 -31v-8h-78q0 -6 8 -18q6 -6 19 -7q4 0 7 1.5t5 1.5q8 8 8 10h31l-10 -21l-17 -12l-12 -3t-12 -1q-55 0 -56 61 zM428 68h45q-4 12 -8 16q-8 8 -14 8q-23 0 -23 -24zM430 -166q0 6 2 12.5t4 12.5q6 14 15 20q8 8 24 8q6 0 19 -4l7 -7t5 -7l2 16h24v-100q0 -10 -4 -27q-6 -10 -16 -14q-12 -6 -33 -6q-4 0 -9 1t-9 1q-6 2 -19 10q-4 4 -4 8q-2 4 -2 11h27l6 -9q2 -2 12 -2q12 0 15 2 q8 6 8 9q0 2 1 3t1 3v18q-12 -14 -29 -14q-6 0 -11 1t-11 3q-10 8 -17 20q-4 6 -6 13.5t-2 17.5zM461 -168q0 -8 2 -14q0 -4 6 -11q8 -4 12 -4q25 0 25 29q0 14 -8 23q-4 4 -8.5 7t-8.5 3q-8 0 -14 -10q-6 -6 -6 -23zM498 717q20 0 20 -15v-49q0 -8 10 -22l17 -4q4 -2 18 -2 q12 0 25 4q8 4 10 6q8 6 8 18q-4 -10 -10 -16l-12 -8h-15q-12 0 -18 2q-2 0 -10 8q-4 4 -4 14v49q0 10 4 11q4 4 14 4h6v4h-63v-4zM510 92v21h16v28h31v-28h16v-21h-16v-61q0 -8 2 -8q0 -2 2 -3h8l2 3h2v-25h-16q-14 0 -20 4q-6 0 -9 8q-2 2 -2 13v69h-16zM510 821 q2 -8 10 -12q10 -10 23 -6q14 0 26 6q10 2 17.5 6t15.5 8t15.5 9.5t15.5 13.5l24 20l15 15q0 2 4 6q0 2 2 4l4 6l16 16l15 21q6 4 10 10t8 10l6 -2l4 -6q0 -2 2 -4v-2q0 -2 -2 -4t-4 -6l-16 -17l-14 -20l-13 -19l-4 -18q-2 -2 -2 -8v-6l4 -8h8q10 0 17 2l16 10q4 4 10.5 8 t10.5 10q6 4 10 8.5t8 8.5l8 12l8 10l5 4l4 6q4 4 4 5l12 16l21 31q0 -4 1 -7.5t1 -7.5q4 -12 4 -14l4 -8q-16 -4 -25 -13l-20 -14q-4 -4 -7.5 -9t-5.5 -9q-2 -6 -2 -17q0 -6 11 -10h18q12 0 25 8q16 8 22 17q6 4 9 8t8 8l8 18q6 8 6 19v16q0 6 -4 15l-6 16l-7 6q0 4 -4 8 q0 2 -2 4v11h-8l-4 -4l-12 -9l-4 -12l-2 -2l-4 -6l-33 -45l-4 -6l-6 -11h-3v-2q-2 0 -4 -2l-4 -8l-6 -8l-14 -18l-23 -21l-12 -6q-4 -4 -12 -4v2l8 10l6 10l8 11l6 8l9 14l10 14l4 15q2 6 2 14q-2 2 -2 8l-2 4q0 4 -2 7v22l6 10q4 6 -4 13q-4 6 -17 0q-10 -2 -16 -9 q-6 -2 -10 -12q-4 -4 -4 -10q0 -8 2 -12l4 -2l4 -5l-12 -12l-23 -31l-20 -22q-4 0 -4 -4v-2l-2 -2q0 -2 -2 -2l-11 -15q-8 -6 -14 -12t-14 -10q-12 -12 -33 -23l-21 -8q-12 -4 -18 -2q-6 0 -6 4q-2 2 -2 6q0 2 4 11l2 8l10 16q4 -2 12 -2h19q10 2 26 12q6 2 11.5 6.5 t13.5 8.5l14 16q4 4 7.5 8t3.5 8l8 13q0 12 -4 14q-4 8 -8 10h-19h-9t-9 -4l-21 -8q-27 -14 -45 -29q-18 -16 -29 -34q-4 -4 -6 -9.5t-6 -11.5q-6 -8 -8 -18v-17zM545 -115h14v27h29v-27h16v-20h-16v-55q0 -6 2 -9q0 -2 2 -2h6l4 2h2v-22h-16q-12 0 -17 2q-10 4 -10 8 q-2 2 -2 12v64h-14v20zM567 870l15 23l18 20l6 9l10 8l11 10l12 4q8 2 14 0v-10l-6 -8q-6 -6 -6 -11q-4 -4 -5 -6t-5 -4q0 -2 -8 -10q-2 -2 -3.5 -4t-5.5 -4l-10 -8l-12 -9q-6 -2 -12 -2q-10 0 -13 2zM580 717h10q2 0 4 -2q12 -4 12 -23v15l10 8l2 2h9v4h-47v-4zM610 -115 h33l21 -78l20 78h31l-35 -102l-2 -2l-8 -23l-6 -12q-6 -6 -11 -6q-4 0 -7 -1t-7 -1h-14v22h16q2 0 6 4v5q2 2 2 6l-37 102zM639 694q0 -2 4 -10q0 -6 6 -6l13 -6q2 -2 20 -6l8 -2q8 -4 12 -5q4 0 9 -4q2 0 2 -2q6 -4 6 -10l-4 -8q-2 -4 -8 -6h-11q-10 0 -16 2l-16 6l-11 10 q-10 10 -10 21h-2v-43h2q0 6 4 6q4 4 8 4q2 0 2 -1t5 -1q2 0 3 -1t3 -1l14 -4q4 -2 14 -2q4 0 17 4q2 0 12 6q2 2 2 4t4 4v21l-6 6q-2 4 -12 8l-17 6h-10l-2 2q-4 2 -8 2t-6 2q-6 0 -8 2q-2 0 -7 4q-2 0 -2 4v2v9l4 4l9 4q2 0 4 1t6 1q6 0 14 -4q8 0 12 -4q8 -4 11 -8 q4 -2 5 -7.5t5 -9.5h2v31h-2q-2 -6 -8 -6h-8q-16 10 -31 10q-8 0 -21 -4l-12 -8q-2 -4 -3 -7.5t-1 -9.5zM641 92v21h14v8q0 33 35 33h15v-25h-15q-4 0 -4 -4v-12h19v-21h-19v-94h-31v94h-14zM723 37v76h29v-70q0 -20 20 -20h10l11 10q0 2 2 5t2 7v68h26v-115h-26v16 q-6 -8 -15 -12q-12 -6 -20 -6q-20 0 -29 12q-10 8 -10 29zM731 -115h25v-16h4q2 0 4 2l8 8l8 6q2 2 8 2q10 0 17 -4q8 -4 12 -8q8 -8 10 -20q6 -10 7 -23q0 -4 -1.5 -6t-1.5 -6t-2 -6t-4 -7q-4 -16 -12 -22q-10 -8 -25 -8q-10 0 -14 2l-8 6q-2 2 -6 2l-2 4v-51h-27v145z M741 627h103v39l-6 -13l-11 -14q-6 -6 -8 -6l-10 -2q-4 -2 -12 -2h-15v41h2q8 0 19 -6l4 -7q0 -2 1 -3t1 -3v-8h2v59h-2v-8l-4 -10q-10 -10 -19 -10h-4v43h17q16 0 22 -2l8 -6l5 -11l6 -14h4v37h-103v-4h4q8 0 11 -4q6 0 6 -11v-57q0 -16 -17 -16h-4v-2zM756 -170 q0 -14 8 -20q6 -8 16 -9q12 0 19 9q4 12 4 22t-4 23q-4 4 -8.5 7t-10.5 3q-25 0 -24 -35zM793 868v9l4 10l6 8q8 10 18 18l23 11q0 -4 1 -6.5t1 -4.5q-2 -4 -2 -8v-12l-4 -8l-9 -11l-8 -6q-2 0 -3 -1t-5 -1q-2 -2 -8 -2q-4 -4 -8 0q-2 0 -6 4zM844 -166q0 17 4 25 q6 14 16 20q10 8 27 8q23 0 31 -8q10 -6 16 -22q4 -16 4 -27v-6h-72q0 -12 7 -19q6 -6 16 -6q6 0 14 4l6 9h27q-4 -16 -8 -21q-4 -4 -8 -6t-9 -4q-12 -4 -22 -4q-49 0 -49 57zM852 -2v156h29v-156h-29zM870 -158h43q0 10 -6 17q-4 2 -7 4t-9 2q-16 0 -21 -23zM903 -2v156h29 v-156h-29zM905 674q0 -14 4 -21q4 -4 6.5 -7t6.5 -7q6 -6 18 -10q6 -2 11 -3t12 -1q16 0 26 6q8 4 13.5 9t9.5 9q6 8 6 25q0 10 -4 16q-4 12 -10 17q-4 6 -19 10q-12 6 -22 6q-20 0 -29 -8q-8 -2 -12 -7.5t-9 -9.5q-8 -10 -8 -24zM915 901q0 -8 5 -8l10 -8h10h12q8 2 14.5 4 t12.5 4l27 14l22 21l19 16l14 21l10 16l6 18q4 10 0 15q0 6 -6 10q0 4 -10 8q-2 0 -6 1t-8 1q-6 0 -19 -4q-4 0 -6 -1l-6 -3l-12 -4l-25 -16l-23 -19l-16 -18l-12 -19q-10 -16 -13 -26v-23zM928 674q0 4 1 8t1 8l6 12l6 11q2 2 4 2t6 2q4 4 13 4q0 -2 2 -2h4l6 -4l10 -8 q0 -4 2 -7.5t4 -9.5q0 -2 1 -7t1 -9q0 -12 -4 -25q-4 -4 -6 -9t-6 -9q-4 -2 -16 -2q-10 0 -13 2q-8 0 -12 10l-6 12q-4 12 -4 21zM940 895v12q4 14 10 21l15 22l10 13l24 30l9.5 9.5l9.5 9.5l8 8l10 4q4 2 11 2l4 -2q2 -2 2 -8q0 -2 -4 -10l-5 -9l-6 -10l-6 -10l-20 -31 l-17 -18l-20 -21q0 -2 -10 -6q-2 -4 -13 -8h-8q-4 0 -4 2zM948 -115h17v9q0 29 30 28h13v-22h-13l-2 -2l-2 -9v-4h19v-20h-19v-86h-26v86h-17v20zM1010 92v21h14v8q0 33 35 33h12v-25h-12q-2 0 -4 -4v-12h20v-21h-20v-94h-31v94h-14zM1018 -193q0 17 10 23q10 10 21 10l24 4 q8 0 8 6q0 16 -14 17q-10 0 -12 -6q-6 -4 -6 -11h-27q0 14 6 21q6 10 14 12q4 2 11 2q4 2 14 2t16.5 -1t12.5 -3q8 -6 12 -12q2 -4 2 -14v-56q0 -10 2 -12q0 -2 4 -6v-4h-31v2q0 2 -1 2t-1 2v6q-4 -2 -5 -4t-3 -4q-4 -2 -6 -2t-4 -2q-4 -2 -14 -2q-8 0 -15 2l-14 10 q-4 8 -4 18zM1032 627h49v2q-6 0 -10 2h-8l-4 10q-2 2 -2 12v56l80 -82h4v65q0 8 1 12.5t3 8.5q4 4 16 4v4h-47v-4h8q0 -2 4 -2q6 -4 7 -8q4 -4 4 -15v-39l-66 68h-37v-4q8 0 10 -2q2 0 3.5 -1t3.5 -1q2 -4 2 -11v-53q0 -6 -2 -10l-7 -8q-4 0 -7 -1t-5 -1v-2zM1047 -190 q0 -4 4 -9q6 -6 8 -6q4 0 6 4h4l10 6q2 4 2 13v12l-8 -4l-14 -2q-4 0 -8 -4t-4 -10zM1051 905q2 0 3 -1t3 -1q4 0 8 2l8 4q0 2 4 6q2 0 2 1.5t2 1.5l4 6q0 4 5 4l16 22l20 21l17 20l22 21l29 28l10 9l10 8l13 4q2 0 2 -2h-2l-4 -4q-2 -6 -9 -8l-4 -7l-12 -14q-4 -4 -6 -7 t-6 -7l-15 -23l-14 -20l-6 -19q-4 -10 0 -16q2 -6 8 -6h19q4 2 9 5t13 7l19 14l22 23q-2 -2 -2 -6q0 -6 4 -15q2 -4 10 -8q6 -2 21 2q12 2 24 13l21 14l7 7l7 7l13 13v-5q0 -2 -1.5 -3t-1.5 -3v-6q-4 -6 0 -10q0 -2 1.5 -3t1.5 -3q0 -6 6 -6h16l6 4l8 6l13 6l32 27l17 16 l-4 -12q-4 -6 -4 -19v-6q2 0 4 -2q0 -2 6 -2q4 0 8 4q8 0 12 6l11 6l12 13q2 0 10 8l9 9t10 9l18 21v4q0 2 -2 2q-4 0 -8 -4l-2 -4l-13 -15l-10 -12q-10 -6 -12 -12l-14 -12l-9 -7l-8 -2l-2 -2q-2 0 -4 2h2l8 15q4 8 8 12l7 12q4 2 8 11l63 92q10 10 13 16l16 16l37 43 q10 10 17 20.5t16 20.5l10 19v8q-2 2 -8 2q-2 0 -11 -4q-4 0 -6 -2t-6 -4q-4 0 -10 -6l-8 -6l-23 -19l-16 -18q-6 -6 -10.5 -11.5t-8.5 -11.5q-2 -4 -6 -9t-8 -11l-27 -41l-26 -45l-19 -33l-8 -16h-2l-14 -15q-4 -6 -8.5 -10t-10.5 -10l-18 -17l-10 -8l-7 -4l-4 -2l-4 -4 h-10l12 20q0 2 2 4q4 8 8.5 14.5t10.5 12.5l16 29l15 20l8 13l6 10l2 2l2 2q0 2 1 2t1 2q6 4 4 8q0 2 -6 2l-10 -4l-10 -6l-19 -12l-14 -13q0 6 -2 11q0 2 -6 6q-12 2 -21 0q-16 -4 -22 -8l-25 -13l-18 -16q-27 -18 -37 -39q-14 -16 -21 -37h-4l-16 -18q-6 -4 -11.5 -8.5 t-11.5 -8.5q-2 -4 -12 -8q-4 -4 -10 -4h-2q-2 2 0 4l6 8l6 11l12 14l21 27q4 6 9 13t9 15l8 17q4 10 2 16q0 6 -2 6q0 4 -6 4t-8 -2l-12 -4l-13 -8l-10 -8l-10 -9q-8 -8 -12 -8l-21 -22q-4 -4 -9 -9.5t-9 -9.5l-11 -12l-10 -10l2 4l25 35l26 37q0 2 1.5 2t1.5 2q2 2 2 4 q2 2 2 6l-7 6q-2 0 -3 1t-3 1t-4 -1t-6 -1l-10 -6l-4 -4q-4 -2 -4 -4t-2 -4l-5 -7l-77 -133q-2 -2 -2 -4v-2zM1083 55q0 6 1 11.5t3 11.5q2 10 11 18q10 10 20 15q6 4 25 4q16 0 24 -4q4 -4 8.5 -5.5t8.5 -5.5t6 -9t6 -11q4 -12 4 -25q0 -16 -8 -30q-2 -8 -18 -21 q-10 -8 -31 -8q-20 0 -35 8q-6 4 -10 10t-8 13q-6 12 -7 28zM1114 55q0 -8 2 -13t4 -9q4 -10 23 -10q16 0 20 10q6 6 6 22q0 14 -6 25q-6 10 -20 10q-16 0 -23 -10q-2 -4 -4 -10.5t-2 -14.5zM1128 -170q1 16 11 41q12 16 39 16q10 0 22 -4q8 -2 17 -14q4 -6 7 -11t3 -12h-31 q0 4 -4 13q-6 6 -12 6q-10 0 -17 -10q-8 -6 -8 -21q0 -6 1 -10t1 -8l8 -11q4 -4 13 -4q8 0 12 4q6 2 6 13h27q0 -10 -6 -23q-4 -4 -7.5 -7t-7.5 -5q-12 -6 -24 -6q-23 0 -35 12q-6 2 -10 16q-4 12 -5 25zM1167 627h107v41h-2q-4 -4 -4 -6.5t-2 -6.5q-4 -4 -4 -8l-5 -6 q-8 -8 -12 -10q-2 0 -6 -1t-8 -1h-25v73q0 10 6 11q2 4 13 4h6v4h-64v-4h4q16 0 17 -15v-57q0 -16 -17 -16h-4v-2zM1221 -2v115h28v-17q12 18 35 19q14 0 21 -4l14 -13q4 -12 4 -20v-80h-29v70q0 8 -4 16q-6 6 -16 6q-12 0 -19 -8q-4 -4 -4 -19v-65h-30zM1237 -166q0 9 4 25 q6 14 16 20q10 8 29 8q20 0 29 -8q10 -6 14 -22q6 -12 6 -27v-6h-71q0 -12 6 -19q6 -6 16 -6q6 0 14 4l7 9h26q-4 -16 -10 -21q-8 -8 -14 -10q-12 -4 -23 -4q-49 0 -49 57zM1264 -158h43q0 10 -7 17q-4 2 -7 4t-9 2q-16 0 -20 -23zM1266 963l2 2q0 2 2 4l6 10l8 10l6 12 l8 11l19 24l26 33l7 8l16 13q2 2 8 2q4 2 8 2l7 -4q0 -2 1 -3.5t1 -3.5q0 -4 -2 -8q0 -2 -5 -6l-16 -22l-12 -23l-17 -14l-16 -19l-10 -8l-13 -10l-10 -8q-4 0 -5 -2t-5 -2q-8 -4 -10 -3h-2q-2 2 -2 5zM1268 717h2q10 0 14 -2l4 -4t4 -6l29 -39v-21q0 -10 -2 -12 q-8 -4 -14 -4h-7v-2h68v2h-8q-8 0 -12 4t-5 12v23l25 34l4 7q8 4 10 4q0 2 4 2q2 0 3.5 1t3.5 1h2v4h-47v-4h6q8 0 10 -2q4 -2 4 -6t-6 -11l-19 -26l-24 30q-4 8 -4 9v2q0 2 2 2q0 2 6 2h8v4h-61v-4zM1337 92v21h19v28h26v-28h21v-21h-21v-61v-6q0 -2 2 -2q4 0 5.5 -1.5 t5.5 -1.5l4 3h4v-25h-21q-14 0 -16 4q-8 0 -10 8v82h-19zM1352 -190h30v-31h-30v31zM1401 -170q0 16 10 41q12 16 39 16q10 0 23 -4q6 -2 18 -14q8 -10 8 -23h-29l-6 13q-6 6 -12 6q-10 0 -16 -10q-6 -6 -6 -21q0 -6 1 -10t1 -8q4 -8 8 -11q2 -4 10 -4q10 0 12 4q6 2 6 13 h31q-4 -12 -8 -23q-4 -4 -8 -7t-8 -5q-10 -6 -25 -6q-20 0 -35 12q-6 2 -10 16q-4 12 -4 25zM1473 31q0 16 8 24q16 8 24 11l27 4q10 0 10 8q0 14 -18 14q-8 0 -13 -4q-6 -2 -8 -14h-26q0 14 6 24q4 6 16 13q4 4 12 4h13q25 0 32 -4l7.5 -7.5t5.5 -7.5t2 -14v-72q0 -6 8 -6 v-6h-33q-2 0 -2 2v2v2q0 4 -1 5t-1 3l-8 -8q-2 -2 -3 -2t-3 -2t-4 -2q-6 0 -9.5 -1t-7.5 -1t-8 1t-8 1q-4 4 -7 6t-7 6q-4 8 -4 21zM1501 31q0 -8 4 -8q4 -4 11 -5h8l4 2q10 4 10 7q4 8 4 14v14q-6 -6 -12 -6l-14 -4q-6 0 -11 -4q-4 -2 -4 -10zM1511 -168q0 13 2 21 q4 12 11 18q6 8 16 12q12 4 25 4q10 0 22 -4l8 -4t9 -6q4 -4 5 -9t5 -9q2 -6 2 -23q0 -16 -6 -29q-4 -14 -17 -20q-12 -6 -28 -6q-20 0 -31 8q-12 6 -18 20q-4 16 -5 27zM1538 -168q0 -14 6 -22q2 -4 8.5 -6.5t12.5 -2.5q16 0 18 9q6 8 6 22q0 13 -6 23q-4 10 -18 10 q-16 0 -21 -10q-6 -10 -6 -23zM1567 1167l28 37l13 23l26 35l2 2q0 4 4 4q0 2 2 2q0 -8 -2 -10l-8 -11l-6 -10l-6 -8l-16 -21l-19 -20l-10 -12q-4 -8 -8 -11zM1585 92v21h14v28h33v-28h19v-21h-19v-69q2 0 4 -1.5t6 -1.5l5 3h4v-25h-19q-14 0 -20 4q-6 0 -8 8q0 2 -2.5 5 t-2.5 8v69h-14zM1636 -115h27v-16q8 18 31 18q8 0 16 -4q6 -4 12 -12q2 8 11 12q8 4 16 4q10 0 23 -4q8 -8 10 -14q4 -8 4 -19v-71h-27v63q0 23 -16 23q-18 0 -19 -23v-63h-26v74q0 4 -4 8t-15 4q-16 0 -16 -23v-63h-27v106z" />
<glyph unicode="9" horiz-adv-x="1847" d="M70 -193q0 17 8 23q10 10 20 10l27 4q10 0 10 6q0 16 -16 17q-10 0 -13 -6q-8 -2 -8 -11h-24q0 14 6 21q2 8 12 12q4 2 14 2q4 2 13 2q14 0 26 -4q8 -6 13 -12q2 -4 2 -14v-56q0 -10 2 -12q0 -2 4 -6v-4h-29v6q-2 2 -2 6l-8 -8q-4 -2 -6 -2t-4 -2q-4 -2 -13 -2 q-12 0 -18 2q-6 4 -10 10q-6 6 -6 18zM96 -190q0 -4 4 -9q4 -2 6.5 -4t4.5 -2q4 0 6 4h4l10 6q4 8 4 13v12q-2 0 -10 -4l-12 -2q-4 0 -13 -4q-4 -4 -4 -10zM125 565v494l268 59l-10 37l41 12l-8 39l41 8l-6 46l41 2v41h36l4 36l39 -6l9 41l43 -6l10 39l39 -10l16 37l39 -17 l23 39l34 -18l23 35l37 -25l24 33l35 -27l27 29l26 -25l27 23l27 -29l34 23l23 -37l39 20l18 -35l37 17l17 -41l43 12l12 -39l39 10l8 -43l43 4l2 -26l404 88v-496l-185 -41l4 -2l-24 -26l24 -29l-32 -27l22 -34l-37 -23l23 -37l-35 -20l14 -37l-39 -17l13 -43l-37 -12 l6 -39l-41 -8l2 -43l-39 -4v-39h-35l-6 -37l-39 2l-8 -37l-43 6l-10 -40l-39 12l-14 -39l-44 16l-18 -39l-37 21l-22 -35l-37 23l-25 -33l-30 26l-31 -26l-27 24l-26 -24l-25 31l-35 -23l-24 37l-37 -21l-19 35l-39 -16l-18 41l-39 -13l-12 37l-41 -8l-8 43l-43 -4l-5 41 h-40v35l-35 4l4 41l-41 6l8 43l-41 12l12 37l-28 12zM186 -115h25v-18h2l6 10q2 2 3 4t5 4q2 2 15 2h6v-28h-8q-27 0 -27 -25v-55h-27v106zM236 76v16q0 4 2 7t2 7q2 12 14 25q4 6 10 10t12 9q14 6 33 6h6q4 0 8.5 -1t8.5 -1q8 0 14 -7q14 -8 21 -18q4 -4 8 -12q0 -2 1 -3 t1 -3v-5h-33v3q0 2 -4 6q-2 4 -4 5t-6 5q-6 4 -19 4h-14l-14 -12q-10 -6 -11 -15q-4 -8 -4 -28q0 -8 1 -14.5t3 -14.5q2 -10 13 -14q6 -4 10 -6t10 -2h4q12 0 19 4q4 0 7 3l5 5q4 6 6 10t2 10h-37v27h66v-84h-21l-4 20q-6 -8 -14 -14q-4 -4 -9 -5t-10 -3q-4 0 -9 -1t-9 -1 q-12 0 -25 6q-14 6 -20 16q-8 6 -16 27q-4 10 -4 33zM236 702h10l8 5l10 10l8 10l11 10q4 8 8 13l63 86l19 30l20 31q6 8 11.5 15.5t9.5 15.5l16 33q2 4 0 6t-4 2q-8 0 -10 -2l-8 -4l-33 -41q-6 -6 -15 -19l-16 -20l-55 -80l-27 -41l-22 -43l-4 -6v-11zM262 -78h29v-24h-29 v24zM262 -115h29v-106h-29v106zM276 889q2 -4 4.5 -6t6.5 -6l18 -7q14 0 23 2q4 0 4 2q2 2 2 5q0 2 -2 2h-4q-4 0 -4 -2q-14 -2 -29 2q-8 4 -10 8q0 4 -1 5t-1 5q0 6 2 12l6 15l16 18q4 4 10.5 8t12.5 9q6 4 11 7t13 7l25 12q8 0 14 2t15 6l28 4q16 4 27 5q6 0 22 -5 q10 0 15 -6l10 -12v-16q0 -12 -2 -21l-10 -18q-4 -6 -7.5 -11.5t-7.5 -9.5q-4 -6 -9 -10t-11 -10q-4 -6 -21 -19l-22 -14l-25 -10l-14 -6q-2 0 -5 -1t-7 -1h-4q-4 0 -7 -3q-2 0 -2 -2q-4 0 -4 -4q0 -2 2 -2h4q4 0 7 2h4l26 9l27 12l27 10l26 16l23 17l20 18l17 21q4 4 7 9 t5 11q4 12 4 19q2 10 0 18l-6 14l-15 11q-6 2 -10 3t-10 1q-8 2 -23 2q-8 0 -24 -4q-14 0 -27.5 -4t-29.5 -9q-29 -8 -54 -22q-6 -4 -13 -7t-13 -7t-12.5 -8.5t-10.5 -10.5l-9 -9l-9 -9l-9 -21q-4 -10 0 -16zM317 -115h25v-16q12 18 33 18q8 0 20 -4q6 -4 13 -12q4 -8 4 -21 v-71h-29v63q0 12 -2 15q-4 8 -16 8q-8 0 -17 -8q-4 -12 -4 -17v-61h-27v106zM395 57q0 20 6 29q4 14 17 20q8 6 15 7.5t18 1.5q23 0 28 -9q12 -6 19 -22q4 -10 4 -31v-8h-78q0 -6 8 -18q6 -6 19 -7q4 0 7 1.5t5 1.5q8 8 8 10h31l-10 -21l-17 -12l-12 -3t-12 -1q-55 0 -56 61 zM428 68h45q-4 12 -8 16q-8 8 -14 8q-23 0 -23 -24zM430 -166q0 6 2 12.5t4 12.5q6 14 15 20q8 8 24 8q6 0 19 -4l7 -7t5 -7l2 16h24v-100q0 -10 -4 -27q-6 -10 -16 -14q-12 -6 -33 -6q-4 0 -9 1t-9 1q-6 2 -19 10q-4 4 -4 8q-2 4 -2 11h27l6 -9q2 -2 12 -2q12 0 15 2 q8 6 8 9q0 2 1 3t1 3v18q-12 -14 -29 -14q-6 0 -11 1t-11 3q-10 8 -17 20q-4 6 -6 13.5t-2 17.5zM461 -168q0 -8 2 -14q0 -4 6 -11q8 -4 12 -4q25 0 25 29q0 14 -8 23q-4 4 -8.5 7t-8.5 3q-8 0 -14 -10q-6 -6 -6 -23zM498 717q20 0 20 -15v-49q0 -8 10 -22l17 -4q4 -2 18 -2 q12 0 25 4q8 4 10 6q8 6 8 18q-4 -10 -10 -16l-12 -8h-15q-12 0 -18 2q-2 0 -10 8q-4 4 -4 14v49q0 10 4 11q4 4 14 4h6v4h-63v-4zM510 92v21h16v28h31v-28h16v-21h-16v-61q0 -8 2 -8q0 -2 2 -3h8l2 3h2v-25h-16q-14 0 -20 4q-6 0 -9 8q-2 2 -2 13v69h-16zM510 821 q2 -8 10 -12q10 -10 23 -6q14 0 26 6q10 2 17.5 6t15.5 8t15.5 9.5t15.5 13.5l24 20l15 15q0 2 4 6q0 2 2 4l4 6l16 16l15 21q6 4 10 10t8 10l6 -2l4 -6q0 -2 2 -4v-2q0 -2 -2 -4t-4 -6l-16 -17l-14 -20l-13 -19l-4 -18q-2 -2 -2 -8v-6l4 -8h8q10 0 17 2l16 10q4 4 10.5 8 t10.5 10q6 4 10 8.5t8 8.5l8 12l8 10l5 4l4 6q4 4 4 5l12 16l21 31q0 -4 1 -7.5t1 -7.5q4 -12 4 -14l4 -8q-16 -4 -25 -13l-20 -14q-4 -4 -7.5 -9t-5.5 -9q-2 -6 -2 -17q0 -6 11 -10h18q12 0 25 8q16 8 22 17q6 4 9 8t8 8l8 18q6 8 6 19v16q0 6 -4 15l-6 16l-7 6q0 4 -4 8 q0 2 -2 4v11h-8l-4 -4l-12 -9l-4 -12l-2 -2l-4 -6l-33 -45l-4 -6l-6 -11h-3v-2q-2 0 -4 -2l-4 -8l-6 -8l-14 -18l-23 -21l-12 -6q-4 -4 -12 -4v2l8 10l6 10l8 11l6 8l9 14l10 14l4 15q2 6 2 14q-2 2 -2 8l-2 4q0 4 -2 7v22l6 10q4 6 -4 13q-4 6 -17 0q-10 -2 -16 -9 q-6 -2 -10 -12q-4 -4 -4 -10q0 -8 2 -12l4 -2l4 -5l-12 -12l-23 -31l-20 -22q-4 0 -4 -4v-2l-2 -2q0 -2 -2 -2l-11 -15q-8 -6 -14 -12t-14 -10q-12 -12 -33 -23l-21 -8q-12 -4 -18 -2q-6 0 -6 4q-2 2 -2 6q0 2 4 11l2 8l10 16q4 -2 12 -2h19q10 2 26 12q6 2 11.5 6.5 t13.5 8.5l14 16q4 4 7.5 8t3.5 8l8 13q0 12 -4 14q-4 8 -8 10h-19h-9t-9 -4l-21 -8q-27 -14 -45 -29q-18 -16 -29 -34q-4 -4 -6 -9.5t-6 -11.5q-6 -8 -8 -18v-17zM545 -115h14v27h29v-27h16v-20h-16v-55q0 -6 2 -9q0 -2 2 -2h6l4 2h2v-22h-16q-12 0 -17 2q-10 4 -10 8 q-2 2 -2 12v64h-14v20zM567 870l15 23l18 20l6 9l10 8l11 10l12 4q8 2 14 0v-10l-6 -8q-6 -6 -6 -11q-4 -4 -5 -6t-5 -4q0 -2 -8 -10q-2 -2 -3.5 -4t-5.5 -4l-10 -8l-12 -9q-6 -2 -12 -2q-10 0 -13 2zM580 717h10q2 0 4 -2q12 -4 12 -23v15l10 8l2 2h9v4h-47v-4zM610 -115 h33l21 -78l20 78h31l-35 -102l-2 -2l-8 -23l-6 -12q-6 -6 -11 -6q-4 0 -7 -1t-7 -1h-14v22h16q2 0 6 4v5q2 2 2 6l-37 102zM639 694q0 -2 4 -10q0 -6 6 -6l13 -6q2 -2 20 -6l8 -2q8 -4 12 -5q4 0 9 -4q2 0 2 -2q6 -4 6 -10l-4 -8q-2 -4 -8 -6h-11q-10 0 -16 2l-16 6l-11 10 q-10 10 -10 21h-2v-43h2q0 6 4 6q4 4 8 4q2 0 2 -1t5 -1q2 0 3 -1t3 -1l14 -4q4 -2 14 -2q4 0 17 4q2 0 12 6q2 2 2 4t4 4v21l-6 6q-2 4 -12 8l-17 6h-10l-2 2q-4 2 -8 2t-6 2q-6 0 -8 2q-2 0 -7 4q-2 0 -2 4v2v9l4 4l9 4q2 0 4 1t6 1q6 0 14 -4q8 0 12 -4q8 -4 11 -8 q4 -2 5 -7.5t5 -9.5h2v31h-2q-2 -6 -8 -6h-8q-16 10 -31 10q-8 0 -21 -4l-12 -8q-2 -4 -3 -7.5t-1 -9.5zM641 92v21h14v8q0 33 35 33h15v-25h-15q-4 0 -4 -4v-12h19v-21h-19v-94h-31v94h-14zM723 37v76h29v-70q0 -20 20 -20h10l11 10q0 2 2 5t2 7v68h26v-115h-26v16 q-6 -8 -15 -12q-12 -6 -20 -6q-20 0 -29 12q-10 8 -10 29zM731 -115h25v-16h4q2 0 4 2l8 8l8 6q2 2 8 2q10 0 17 -4q8 -4 12 -8q8 -8 10 -20q6 -10 7 -23q0 -4 -1.5 -6t-1.5 -6t-2 -6t-4 -7q-4 -16 -12 -22q-10 -8 -25 -8q-10 0 -14 2l-8 6q-2 2 -6 2l-2 4v-51h-27v145z M741 627h103v39l-6 -13l-11 -14q-6 -6 -8 -6l-10 -2q-4 -2 -12 -2h-15v41h2q8 0 19 -6l4 -7q0 -2 1 -3t1 -3v-8h2v59h-2v-8l-4 -10q-10 -10 -19 -10h-4v43h17q16 0 22 -2l8 -6l5 -11l6 -14h4v37h-103v-4h4q8 0 11 -4q6 0 6 -11v-57q0 -16 -17 -16h-4v-2zM756 -170 q0 -14 8 -20q6 -8 16 -9q12 0 19 9q4 12 4 22t-4 23q-4 4 -8.5 7t-10.5 3q-25 0 -24 -35zM793 868v9l4 10l6 8q8 10 18 18l23 11q0 -4 1 -6.5t1 -4.5q-2 -4 -2 -8v-12l-4 -8l-9 -11l-8 -6q-2 0 -3 -1t-5 -1q-2 -2 -8 -2q-4 -4 -8 0q-2 0 -6 4zM844 -166q0 17 4 25 q6 14 16 20q10 8 27 8q23 0 31 -8q10 -6 16 -22q4 -16 4 -27v-6h-72q0 -12 7 -19q6 -6 16 -6q6 0 14 4l6 9h27q-4 -16 -8 -21q-4 -4 -8 -6t-9 -4q-12 -4 -22 -4q-49 0 -49 57zM852 -2v156h29v-156h-29zM870 -158h43q0 10 -6 17q-4 2 -7 4t-9 2q-16 0 -21 -23zM903 -2v156h29 v-156h-29zM905 674q0 -14 4 -21q4 -4 6.5 -7t6.5 -7q6 -6 18 -10q6 -2 11 -3t12 -1q16 0 26 6q8 4 13.5 9t9.5 9q6 8 6 25q0 10 -4 16q-4 12 -10 17q-4 6 -19 10q-12 6 -22 6q-20 0 -29 -8q-8 -2 -12 -7.5t-9 -9.5q-8 -10 -8 -24zM915 901q0 -8 5 -8l10 -8h10h12q8 2 14.5 4 t12.5 4l27 14l22 21l19 16l14 21l10 16l6 18q4 10 0 15q0 6 -6 10q0 4 -10 8q-2 0 -6 1t-8 1q-6 0 -19 -4q-4 0 -6 -1l-6 -3l-12 -4l-25 -16l-23 -19l-16 -18l-12 -19q-10 -16 -13 -26v-23zM928 674q0 4 1 8t1 8l6 12l6 11q2 2 4 2t6 2q4 4 13 4q0 -2 2 -2h4l6 -4l10 -8 q0 -4 2 -7.5t4 -9.5q0 -2 1 -7t1 -9q0 -12 -4 -25q-4 -4 -6 -9t-6 -9q-4 -2 -16 -2q-10 0 -13 2q-8 0 -12 10l-6 12q-4 12 -4 21zM940 895v12q4 14 10 21l15 22l10 13l24 30l9.5 9.5l9.5 9.5l8 8l10 4q4 2 11 2l4 -2q2 -2 2 -8q0 -2 -4 -10l-5 -9l-6 -10l-6 -10l-20 -31 l-17 -18l-20 -21q0 -2 -10 -6q-2 -4 -13 -8h-8q-4 0 -4 2zM948 -115h17v9q0 29 30 28h13v-22h-13l-2 -2l-2 -9v-4h19v-20h-19v-86h-26v86h-17v20zM1010 92v21h14v8q0 33 35 33h12v-25h-12q-2 0 -4 -4v-12h20v-21h-20v-94h-31v94h-14zM1018 -193q0 17 10 23q10 10 21 10l24 4 q8 0 8 6q0 16 -14 17q-10 0 -12 -6q-6 -4 -6 -11h-27q0 14 6 21q6 10 14 12q4 2 11 2q4 2 14 2t16.5 -1t12.5 -3q8 -6 12 -12q2 -4 2 -14v-56q0 -10 2 -12q0 -2 4 -6v-4h-31v2q0 2 -1 2t-1 2v6q-4 -2 -5 -4t-3 -4q-4 -2 -6 -2t-4 -2q-4 -2 -14 -2q-8 0 -15 2l-14 10 q-4 8 -4 18zM1032 627h49v2q-6 0 -10 2h-8l-4 10q-2 2 -2 12v56l80 -82h4v65q0 8 1 12.5t3 8.5q4 4 16 4v4h-47v-4h8q0 -2 4 -2q6 -4 7 -8q4 -4 4 -15v-39l-66 68h-37v-4q8 0 10 -2q2 0 3.5 -1t3.5 -1q2 -4 2 -11v-53q0 -6 -2 -10l-7 -8q-4 0 -7 -1t-5 -1v-2zM1047 -190 q0 -4 4 -9q6 -6 8 -6q4 0 6 4h4l10 6q2 4 2 13v12l-8 -4l-14 -2q-4 0 -8 -4t-4 -10zM1051 905q2 0 3 -1t3 -1q4 0 8 2l8 4q0 2 4 6q2 0 2 1.5t2 1.5l4 6q0 4 5 4l16 22l20 21l17 20l22 21l29 28l10 9l10 8l13 4q2 0 2 -2h-2l-4 -4q-2 -6 -9 -8l-4 -7l-12 -14q-4 -4 -6 -7 t-6 -7l-15 -23l-14 -20l-6 -19q-4 -10 0 -16q2 -6 8 -6h19q4 2 9 5t13 7l19 14l22 23q-2 -2 -2 -6q0 -6 4 -15q2 -4 10 -8q6 -2 21 2q12 2 24 13l21 14l7 7l7 7l13 13v-5q0 -2 -1.5 -3t-1.5 -3v-6q-4 -6 0 -10q0 -2 1.5 -3t1.5 -3q0 -6 6 -6h16l6 4l8 6l13 6l32 27l17 16 l-4 -12q-4 -6 -4 -19v-6q2 0 4 -2q0 -2 6 -2q4 0 8 4q8 0 12 6l11 6l12 13q2 0 10 8l9 9t10 9l18 21v4q0 2 -2 2q-4 0 -8 -4l-2 -4l-13 -15l-10 -12q-10 -6 -12 -12l-14 -12l-9 -7l-8 -2l-2 -2q-2 0 -4 2h2l8 15q4 8 8 12l7 12q4 2 8 11l63 92q10 10 13 16l16 16l37 43 q10 10 17 20.5t16 20.5l10 19v8q-2 2 -8 2q-2 0 -11 -4q-4 0 -6 -2t-6 -4q-4 0 -10 -6l-8 -6l-23 -19l-16 -18q-6 -6 -10.5 -11.5t-8.5 -11.5q-2 -4 -6 -9t-8 -11l-27 -41l-26 -45l-19 -33l-8 -16h-2l-14 -15q-4 -6 -8.5 -10t-10.5 -10l-18 -17l-10 -8l-7 -4l-4 -2l-4 -4 h-10l12 20q0 2 2 4q4 8 8.5 14.5t10.5 12.5l16 29l15 20l8 13l6 10l2 2l2 2q0 2 1 2t1 2q6 4 4 8q0 2 -6 2l-10 -4l-10 -6l-19 -12l-14 -13q0 6 -2 11q0 2 -6 6q-12 2 -21 0q-16 -4 -22 -8l-25 -13l-18 -16q-27 -18 -37 -39q-14 -16 -21 -37h-4l-16 -18q-6 -4 -11.5 -8.5 t-11.5 -8.5q-2 -4 -12 -8q-4 -4 -10 -4h-2q-2 2 0 4l6 8l6 11l12 14l21 27q4 6 9 13t9 15l8 17q4 10 2 16q0 6 -2 6q0 4 -6 4t-8 -2l-12 -4l-13 -8l-10 -8l-10 -9q-8 -8 -12 -8l-21 -22q-4 -4 -9 -9.5t-9 -9.5l-11 -12l-10 -10l2 4l25 35l26 37q0 2 1.5 2t1.5 2q2 2 2 4 q2 2 2 6l-7 6q-2 0 -3 1t-3 1t-4 -1t-6 -1l-10 -6l-4 -4q-4 -2 -4 -4t-2 -4l-5 -7l-77 -133q-2 -2 -2 -4v-2zM1083 55q0 6 1 11.5t3 11.5q2 10 11 18q10 10 20 15q6 4 25 4q16 0 24 -4q4 -4 8.5 -5.5t8.5 -5.5t6 -9t6 -11q4 -12 4 -25q0 -16 -8 -30q-2 -8 -18 -21 q-10 -8 -31 -8q-20 0 -35 8q-6 4 -10 10t-8 13q-6 12 -7 28zM1114 55q0 -8 2 -13t4 -9q4 -10 23 -10q16 0 20 10q6 6 6 22q0 14 -6 25q-6 10 -20 10q-16 0 -23 -10q-2 -4 -4 -10.5t-2 -14.5zM1128 -170q1 16 11 41q12 16 39 16q10 0 22 -4q8 -2 17 -14q4 -6 7 -11t3 -12h-31 q0 4 -4 13q-6 6 -12 6q-10 0 -17 -10q-8 -6 -8 -21q0 -6 1 -10t1 -8l8 -11q4 -4 13 -4q8 0 12 4q6 2 6 13h27q0 -10 -6 -23q-4 -4 -7.5 -7t-7.5 -5q-12 -6 -24 -6q-23 0 -35 12q-6 2 -10 16q-4 12 -5 25zM1167 627h107v41h-2q-4 -4 -4 -6.5t-2 -6.5q-4 -4 -4 -8l-5 -6 q-8 -8 -12 -10q-2 0 -6 -1t-8 -1h-25v73q0 10 6 11q2 4 13 4h6v4h-64v-4h4q16 0 17 -15v-57q0 -16 -17 -16h-4v-2zM1221 -2v115h28v-17q12 18 35 19q14 0 21 -4l14 -13q4 -12 4 -20v-80h-29v70q0 8 -4 16q-6 6 -16 6q-12 0 -19 -8q-4 -4 -4 -19v-65h-30zM1237 -166q0 9 4 25 q6 14 16 20q10 8 29 8q20 0 29 -8q10 -6 14 -22q6 -12 6 -27v-6h-71q0 -12 6 -19q6 -6 16 -6q6 0 14 4l7 9h26q-4 -16 -10 -21q-8 -8 -14 -10q-12 -4 -23 -4q-49 0 -49 57zM1264 -158h43q0 10 -7 17q-4 2 -7 4t-9 2q-16 0 -20 -23zM1266 963l2 2q0 2 2 4l6 10l8 10l6 12 l8 11l19 24l26 33l7 8l16 13q2 2 8 2q4 2 8 2l7 -4q0 -2 1 -3.5t1 -3.5q0 -4 -2 -8q0 -2 -5 -6l-16 -22l-12 -23l-17 -14l-16 -19l-10 -8l-13 -10l-10 -8q-4 0 -5 -2t-5 -2q-8 -4 -10 -3h-2q-2 2 -2 5zM1268 717h2q10 0 14 -2l4 -4t4 -6l29 -39v-21q0 -10 -2 -12 q-8 -4 -14 -4h-7v-2h68v2h-8q-8 0 -12 4t-5 12v23l25 34l4 7q8 4 10 4q0 2 4 2q2 0 3.5 1t3.5 1h2v4h-47v-4h6q8 0 10 -2q4 -2 4 -6t-6 -11l-19 -26l-24 30q-4 8 -4 9v2q0 2 2 2q0 2 6 2h8v4h-61v-4zM1337 92v21h19v28h26v-28h21v-21h-21v-61v-6q0 -2 2 -2q4 0 5.5 -1.5 t5.5 -1.5l4 3h4v-25h-21q-14 0 -16 4q-8 0 -10 8v82h-19zM1352 -190h30v-31h-30v31zM1401 -170q0 16 10 41q12 16 39 16q10 0 23 -4q6 -2 18 -14q8 -10 8 -23h-29l-6 13q-6 6 -12 6q-10 0 -16 -10q-6 -6 -6 -21q0 -6 1 -10t1 -8q4 -8 8 -11q2 -4 10 -4q10 0 12 4q6 2 6 13 h31q-4 -12 -8 -23q-4 -4 -8 -7t-8 -5q-10 -6 -25 -6q-20 0 -35 12q-6 2 -10 16q-4 12 -4 25zM1473 31q0 16 8 24q16 8 24 11l27 4q10 0 10 8q0 14 -18 14q-8 0 -13 -4q-6 -2 -8 -14h-26q0 14 6 24q4 6 16 13q4 4 12 4h13q25 0 32 -4l7.5 -7.5t5.5 -7.5t2 -14v-72q0 -6 8 -6 v-6h-33q-2 0 -2 2v2v2q0 4 -1 5t-1 3l-8 -8q-2 -2 -3 -2t-3 -2t-4 -2q-6 0 -9.5 -1t-7.5 -1t-8 1t-8 1q-4 4 -7 6t-7 6q-4 8 -4 21zM1501 31q0 -8 4 -8q4 -4 11 -5h8l4 2q10 4 10 7q4 8 4 14v14q-6 -6 -12 -6l-14 -4q-6 0 -11 -4q-4 -2 -4 -10zM1511 -168q0 13 2 21 q4 12 11 18q6 8 16 12q12 4 25 4q10 0 22 -4l8 -4t9 -6q4 -4 5 -9t5 -9q2 -6 2 -23q0 -16 -6 -29q-4 -14 -17 -20q-12 -6 -28 -6q-20 0 -31 8q-12 6 -18 20q-4 16 -5 27zM1538 -168q0 -14 6 -22q2 -4 8.5 -6.5t12.5 -2.5q16 0 18 9q6 8 6 22q0 13 -6 23q-4 10 -18 10 q-16 0 -21 -10q-6 -10 -6 -23zM1567 1167l28 37l13 23l26 35l2 2q0 4 4 4q0 2 2 2q0 -8 -2 -10l-8 -11l-6 -10l-6 -8l-16 -21l-19 -20l-10 -12q-4 -8 -8 -11zM1585 92v21h14v28h33v-28h19v-21h-19v-69q2 0 4 -1.5t6 -1.5l5 3h4v-25h-19q-14 0 -20 4q-6 0 -8 8q0 2 -2.5 5 t-2.5 8v69h-14zM1636 -115h27v-16q8 18 31 18q8 0 16 -4q6 -4 12 -12q2 8 11 12q8 4 16 4q10 0 23 -4q8 -8 10 -14q4 -8 4 -19v-71h-27v63q0 23 -16 23q-18 0 -19 -23v-63h-26v74q0 4 -4 8t-15 4q-16 0 -16 -23v-63h-27v106z" />
<glyph unicode=":" horiz-adv-x="294" d="M4 100q0 41 29.5 71t70.5 30t71 -30t30 -71t-30 -70.5t-71 -29.5t-70.5 29.5t-29.5 70.5zM137 442q0 41 30 71t71 30t70.5 -30t29.5 -71t-29.5 -70.5t-70.5 -29.5t-71 29.5t-30 70.5z" />
<glyph unicode=";" horiz-adv-x="294" d="M-49 -141l112 329h164l-215 -329h-61zM137 442q0 41 30 71t71 30t70.5 -30t29.5 -71t-29.5 -70.5t-70.5 -29.5t-71 29.5t-30 70.5z" />
<glyph unicode="&#x3c;" d="M125 236l29 94l325 137l-28 -94l-238 -101l156 -149l-29 -94z" />
<glyph unicode="=" d="M98 152q4 16 11 30q4 12 7 24.5t5 18.5h299l-23 -73h-299zM147 315q4 16 9 31q6 29 14 43h299l-23 -74h-299z" />
<glyph unicode="&#x3e;" d="M125 29l29 94l237 100l-155 150l28 94l215 -207l-28 -94z" />
<glyph unicode="?" horiz-adv-x="294" d="M4 100q0 41 29.5 71t70.5 30t71 -30t30 -71t-30 -70.5t-71 -29.5t-70.5 29.5t-29.5 70.5zM103.5 781.5q13.5 70.5 61.5 117.5t120.5 60.5t154.5 -33.5t114 -126t15 -157q-10 -41 -34.5 -76t-58.5 -61.5t-71.5 -46t-70.5 -27.5q-51 -12 -81 -38.5t-42 -59.5h-94 q18 61 54 96t81 65.5t91 67.5t85 103q16 27 25.5 58.5t7.5 62t-16.5 56t-45.5 44.5q-49 27 -97 19.5t-80 -35t-38 -66.5t29 -72q27 -10 37 -39q16 -29 8 -55.5t-37 -36.5t-54.5 2t-39.5 39q-37 68 -23.5 138.5z" />
<glyph unicode="@" horiz-adv-x="985" d="M0 274.5q6 104.5 53 206.5t124 179t170 120t193.5 49.5t194.5 -30.5q90 -37 146.5 -100.5t82 -137.5t21.5 -151.5t-33 -145.5q-16 -37 -57 -81t-92 -83t-105.5 -67.5t-99.5 -32.5q-55 -4 -70.5 29.5t-9.5 81.5q-55 -59 -114.5 -91t-106.5 -12q-33 14 -53.5 46t-24.5 77 t8.5 99.5t42.5 115.5q25 45 57.5 85t70.5 68.5t77 43t74 10.5q70 -6 102 -61q4 12 7.5 21t7.5 15l6 13h147q-18 -61 -37 -115q-16 -47 -31.5 -93t-23.5 -71q-16 -49 -29.5 -89t-1.5 -40q37 0 91.5 37t97.5 109q33 55 41 122.5t-12.5 133t-68.5 123t-128 87.5q-82 33 -170 27 t-169 -46t-149.5 -108.5t-111.5 -160.5t-49.5 -185.5t19.5 -175.5t81 -145.5t137 -95.5q100 -41 209 -20.5t203 85.5l39 -45q-109 -74 -235 -94.5t-245 26.5q-94 37 -158.5 109t-94 163t-23.5 195.5zM361 131.5q1 -20.5 14 -25.5q23 -10 52.5 8.5t58 51.5t55.5 73.5t43 77.5 q35 72 22.5 112t-57.5 38q-35 -4 -69 -43t-62 -100q-16 -37 -29.5 -74t-21 -67.5t-6.5 -51z" />
<glyph unicode="A" horiz-adv-x="1445" d="M2 -146v6q0 54 39 99q37 41 93 45h11q49 0 88 -33q41 -37 45 -92q0 -6 1 -12q0 -48 -33 -86q-14 -14 -33 -27q28 -13 53 -13q6 0 13 1q43 6 85 46t85 105.5t87 151.5t91 182l-355 -45l191 199h239q63 129 136 256t157 234.5t181.5 186.5t212.5 107q51 10 98 15.5t82 5.5 q41 0 76 -4q16 -4 11 -23.5t-32 -36.5q-78 -41 -142.5 -145.5t-110.5 -241.5t-73 -291q-26 -154 -29 -298q0 -16 -1 -31q0 -125 22 -229q24 -116 82 -177q35 -39 87 -45q20 -2 37 -2q29 0 52 6q-53 37 -59 96q-1 10 -1 20q0 42 28 78q36 44 92 52q8 1 16 1q45 0 82 -30 q43 -35 51 -90q0 -5 1 -9q0 -78 -64 -131q-66 -56 -161 -80q-59 -15 -121 -15q-36 0 -74 6q-100 14 -162 74q-51 49 -83 120q-31 70 -45 154q-11 69 -12 143q0 17 1 34q3 93 22 192l-158 -21q-59 -125 -121.5 -239.5t-133.5 -203.5t-150.5 -142.5t-173.5 -53.5 q-98 0 -170 35t-110 86.5t-40 109.5zM956 381h123q27 109 69 214t96 200.5t118.5 176.5t136.5 136q-35 -4 -69 -14q-70 -25 -131.5 -92.5t-119 -165t-112.5 -215t-111 -240.5z" />
<glyph unicode="B" horiz-adv-x="1445" d="M10 -133q0 33 8.5 54.5t22.5 37.5q37 41 93 45h11q49 0 88 -33q41 -37 45 -93q0 -6 1 -12q0 -49 -33 -87q-16 -16 -33 -25q16 -8 32.5 -10t33.5 -2q43 0 80.5 28.5t71.5 91t66.5 163t63.5 245.5q57 260 172 403.5t303 194.5q20 6 34.5 -1t20 -20t-4 -29.5t-33.5 -29.5 q-109 -53 -165.5 -163.5t-96.5 -286.5q16 -4 33.5 -6t31.5 -2q121 0 197.5 60.5t130.5 187.5q31 74 35 146q1 11 1 23q0 61 -18 113q-22 62 -69.5 108t-116.5 66t-134 20q-55 0 -108 -14q-115 -32 -188 -98q8 -4 15 -9t15 -11q42 -36 46 -92q0 -5 1 -10q0 -50 -34 -87 q-35 -43 -91 -46h-9q-51 0 -89 34q-35 29 -44 72q-3 14 -3 27q0 29 13 57q8 27 36 67q72 104 194 165.5t269 61.5q113 0 211 -32.5t172 -91t117 -142.5t43 -184q0 -78 -23.5 -152.5t-65.5 -138t-101.5 -113t-131.5 -75.5q63 -14 107.5 -56.5t66.5 -102.5q20 -55 19 -119v-12 q-2 -71 -31 -140q-35 -82 -94 -140.5t-133 -89.5t-160 -32h-5l-167 32q-59 20 -108.5 55t-85.5 82q-45 -45 -97.5 -70.5t-115.5 -25.5q-98 0 -160 29t-95.5 68.5t-45 80.5t-11.5 66zM618 -170q10 -53 38 -93t73 -56q28 -10 57 -10q55 0 114 36q89 55 142 178q25 61 30 117 q1 15 1 29q0 38 -9 70q-13 44 -41 73t-67 39q-47 6 -95 17.5t-87 37.5v-6q-25 -111 -62.5 -224.5t-93.5 -207.5z" />
<glyph unicode="C" horiz-adv-x="1091" d="M44 38q-4 44 -4 88q0 54 6 110q11 102 41 203.5t73 191.5q70 150 177 273.5t234 198.5t263 92q30 4 60 3q105 0 204 -47q82 -41 135 -99q53 -56 77 -118q22 -55 23 -107q0 -6 -1 -13q-3 -58 -34 -101q-33 -47 -90 -48h-3q-55 0 -97 35q-41 36 -45 92v11q0 49 33 86 q33 41 84 45q-33 66 -90 98q-65 35 -132 35q-28 -1 -58 -7q-96 -22 -186.5 -96.5t-169.5 -187t-138 -237.5q-53 -115 -84 -241t-34 -238v-20q0 -100 28 -179q30 -86 102 -119q30 -13 67 -13q15 0 31 2q57 7 114.5 32.5t109 65.5t81.5 85l-15 10l-15 10q-41 36 -45 92 q0 6 -1 12q0 48 33 85q36 43 94 47h11q51 0 88 -35q35 -34 35 -82q0 -27 -10 -58q-30 -87 -119 -177q-53 -55 -121 -98.5t-140 -71.5q-70 -27 -140 -34q-21 -2 -42 -2q-46 0 -86 11q-96 29 -160.5 90.5t-99.5 144.5t-44 180z" />
<glyph unicode="D" horiz-adv-x="1599" d="M12 -133q2 53 35 92q37 41 93 45h10q49 0 86 -33q43 -37 46 -93v-8q0 -51 -34 -91q-16 -16 -31 -25q16 -8 32.5 -10t33.5 -2q43 0 80.5 28.5t71.5 91t65.5 163t64.5 245.5q55 260 171 403.5t304 194.5q20 6 35 -1t19 -20t-4.5 -29.5t-32.5 -29.5q-61 -29 -103.5 -75.5 t-74 -111t-56 -149.5t-47.5 -190q-25 -111 -61.5 -224.5t-93.5 -209.5q10 -53 38.5 -92t73.5 -55q23 -9 48 -9q42 0 89 24q76 38 148 122t134 210t99 283q35 152 35 277q0 110 -28 198q-58 188 -238 248q-60 20 -122 22h-12q-54 0 -106 -14q-56 -14 -105.5 -40.5 t-86.5 -59.5q16 -6 35 -20q41 -36 45 -92q0 -5 1 -11q0 -49 -34 -86q-37 -43 -93 -46h-9q-51 0 -89 34q-29 27 -40 61q-6 20 -6 41q0 15 3 29q4 18 13.5 40.5t29.5 51.5q72 104 194 165.5t269 61.5q158 0 291 -63.5t219 -179.5q87 -117 113 -282q9 -54 8 -111 q0 -119 -37 -256q-53 -195 -140 -340.5t-191 -235.5q-106 -90 -218 -122q-55 -16 -108 -16q-55 0 -109 17q-63 18 -111.5 55t-84.5 82q-45 -45 -98.5 -70.5t-116.5 -25.5q-98 0 -160 29t-95.5 68.5t-45 80.5t-11.5 66z" />
<glyph unicode="E" horiz-adv-x="1091" d="M30 34q10 93 56.5 177t127.5 151.5t194 100.5q-49 45 -71 109q-19 56 -19 117v19q4 72 32.5 145t83.5 138q59 68 131 115q72 48 150 70q64 18 129 18q16 0 30 -1q80 -5 156 -42q82 -41 136 -99q54 -56 78 -118q22 -55 22 -107q0 -6 -1 -13q-3 -58 -34 -101 q-33 -47 -91 -48h-3q-56 0 -95 35q-43 36 -46 92v9q0 50 32 88q16 23 37.5 33t44.5 12q-29 63 -90 98q-50 28 -102 28h-10q-58 -3 -112.5 -32t-101.5 -75t-82 -101q-37 -54 -53 -110q-13 -48 -13 -89v-16q3 -49 26.5 -89t68.5 -63q61 -2 133 -18q31 -6 45.5 -24.5t13 -37 t-19.5 -30.5t-53 -6q-42 6 -80 6q-72 0 -131 -22q-90 -34 -149.5 -95t-89.5 -141q-31 -83 -30 -161q0 -74 28 -132q30 -60 89 -82q30 -11 67 -11q16 0 34 2q58 7 115 32.5t107 64.5t81 84q-4 4 -14.5 10t-14.5 10q-43 36 -46 92v9q0 50 34 88q37 43 92 47h10q49 0 86 -35 q29 -27 34 -63l2 -20q0 -27 -10 -57q-13 -42 -44 -87t-74 -90q-53 -55 -120.5 -96t-138.5 -68t-141 -35q-28 -3 -55 -3q-39 0 -73 7q-111 27 -180.5 90.5t-98.5 145.5q-21 60 -21 126q-1 24 2 49z" />
<glyph unicode="F" horiz-adv-x="1282" d="M10 -133q0 29 9.5 51.5t25.5 40.5q37 41 93 45h10q49 0 85 -33q43 -37 47 -93v-10q0 -50 -34 -89q-14 -14 -33 -27q16 -10 33.5 -13t34.5 3q41 16 64.5 51t42 82t34.5 106.5t43 127.5q45 119 115.5 213t185.5 137q-50 45 -74 109q-21 57 -21 120v16q3 72 32.5 147 t84.5 140q59 68 131 115q72 48 151 70q65 18 130 18q15 0 29 -1q80 -5 157 -42q82 -41 136 -99q54 -56 78 -118q21 -53 21 -104q0 -8 -1 -16q-4 -58 -35 -101q-16 -23 -39.5 -35t-49.5 -13t-52.5 8t-46.5 27q-43 36 -46 92v9q0 50 33 88q16 23 37 33t43 12 q-14 35 -36.5 58.5t-51.5 39.5q-52 29 -111 29h-7q-64 -2 -124.5 -28.5t-111.5 -75t-80 -105.5q-29 -52 -40 -108q-7 -36 -7 -70q0 -18 2 -35q6 -49 30.5 -89t67.5 -63q31 -4 64.5 -8t70.5 -12q31 -6 45.5 -24.5t12.5 -37t-20.5 -31t-53.5 -5.5q-51 7 -93 7q-39 0 -71 -6 q-64 -14 -109.5 -51.5t-76.5 -100t-62 -148.5q-35 -96 -67.5 -177t-74.5 -141.5t-99.5 -94.5t-138.5 -34q-98 0 -160 29t-95.5 68.5t-45 80.5t-11.5 66z" />
<glyph unicode="G" horiz-adv-x="1036" d="M12 -125q0 45 35 84q37 41 93 45h10q49 0 86 -33q43 -37 46 -92v-8q0 -50 -34 -90q-14 -14 -33 -27q30 -13 55 -13q7 0 13 1q51 6 94 37t79 78t66.5 106.5t59.5 124.5q-41 -4 -81 -5h-9q-35 0 -66 7q-147 31 -211.5 110t-70.5 182q-1 14 -1 29q0 90 34 186 q40 112 104 206q57 88 149 171t205 139t237 75q39 5 78 5q85 0 168 -28q41 -14 95.5 -44.5t93.5 -72.5t50 -94q2 -10 2 -20q0 -41 -36 -84q-37 -41 -93 -45h-11q-49 0 -86 33q-41 37 -45 92q-1 6 -1 12q0 48 33 86q14 16 39 31l-33 18q-53 22 -107 22q-33 0 -66 -9 q-87 -21 -166.5 -75t-146.5 -129t-114 -147q-51 -80 -90 -169t-49 -170q-3 -24 -3 -47q0 -52 16 -95q24 -61 96 -84q30 -10 69 -10q25 0 53 4q35 78 73 153.5t85 137t105.5 103.5t134.5 54q20 2 35.5 -6t20.5 -21.5t-4 -28.5t-36 -23q-59 -20 -96 -95t-68.5 -177.5 t-67.5 -215t-94.5 -207t-148.5 -157t-229 -62.5q-100 0 -163 30t-96.5 69.5t-45 82.5t-11.5 70z" />
<glyph unicode="H" horiz-adv-x="1466" d="M45 -41q37 41 93 45h11q50 0 87 -33q43 -37 46 -92v-8q0 -50 -34 -90q-8 -10 -16.5 -15.5t-14.5 -11.5q25 -13 51 -13q7 0 13 1q35 4 65.5 32.5t59 76t54 111t52.5 136.5q-68 6 -138.5 44t-111.5 116q-33 61 -34 131v5q0 68 24 138q24 72 71.5 146t111 142.5t141 129 t165.5 107.5q125 69 247 99q81 20 159 20q40 0 78 -5q18 0 30.5 -8t14.5 -21.5t-7.5 -26.5t-33.5 -21q-74 -25 -131.5 -102t-103.5 -184.5t-87 -237.5t-82 -261l242 -22q37 145 105.5 290.5t160.5 266.5t204 209t235 118q22 6 36 6q4 -1 8 -1q15 -2 18 -12q1 -2 1 -4 q0 -8 -7 -18q-9 -12 -30 -20q-61 -31 -122.5 -97.5t-119 -157.5t-106.5 -199.5t-87 -222t-62.5 -226.5t-29.5 -211q-1 -23 -1 -46q0 -71 12 -130q16 -78 59 -123q35 -39 87 -45q19 -2 36 -2q29 0 54 6q-53 37 -60 96q-1 8 -1 16q0 44 29 82q34 44 89 52q8 1 16 1 q46 0 84 -30q45 -35 49 -90v-8q0 -33 -14 -70q-33 -66 -104.5 -105.5t-155.5 -51.5q-33 -5 -66 -5l-102 11q-84 20 -139 74q-43 43 -69 102t-38 130q-10 60 -10 128v24q2 80 18 164l-264 -10q-39 -113 -83 -213t-98 -176t-121.5 -121t-153.5 -45q-106 0 -177 36t-105 88 q-33 51 -33 106q0 60 36 106zM469 351q18 -85 76 -146q0 -2 2 -4q41 119 86 248t102.5 249.5t128 223t162.5 168.5q-88 -16 -177 -66.5t-169 -128.5q-86 -82 -140 -177q-53 -94 -71 -188q-9 -47 -9 -92t9 -87z" />
<glyph unicode="I" horiz-adv-x="985" d="M33 -143q-1 8 -1 16q0 46 31 86q37 41 93 45h11q50 0 89 -33q41 -37 45 -92v-11q0 -49 -33 -87q-8 -10 -15 -15.5t-17 -11.5q26 -13 53 -13q7 0 14 1q35 4 65.5 32.5t58.5 76t53.5 111t51.5 136.5q-70 6 -139 44t-110 116q-35 65 -35 139q0 31 6 63q20 110 90 218 t179.5 207.5t238.5 171.5q220 122 427 122q32 0 64 -3q13 -2 25 -12q13 -12 13 -27q0 -12 -8 -23q-9 -12 -34 -20q-74 -25 -130 -102t-103 -184.5t-88 -237.5t-83 -262t-89 -255t-106.5 -219t-133.5 -153.5t-172 -57.5q-94 0 -153.5 25.5t-94.5 62.5t-48 77t-15 69zM486 526 q-8 -45 -8 -87q0 -47 10 -92q20 -85 81 -146q39 119 84 248t102.5 249.5t128 223t163.5 168.5q-88 -16 -176.5 -66.5t-170.5 -128.5q-88 -82 -142 -178.5t-72 -190.5z" />
<glyph unicode="J" horiz-adv-x="1138" d="M25 -56v13q0 55 16 107q18 57 53 96q31 49 99 59q10 1 20 1q43 0 79 -28q44 -36 50 -92v-12q0 -48 -30 -86q-33 -43 -89 -49q-9 -1 -18 -1q-35 0 -68 19q-3 -19 -3 -37q0 -29 8 -56q12 -44 42.5 -75.5t77.5 -48.5q36 -14 79 -14q14 0 30 2q45 4 84 32.5t74.5 76t66.5 111 t61 136.5q-18 -2 -37 -2q-28 0 -58 4q-50 6 -98 24.5t-91 51.5t-74 82q-44 73 -44 164q0 23 3 47q14 119 85 238.5t188.5 225t269.5 169.5q74 31 150.5 47t153.5 24.5t149.5 8.5t138.5 -6q14 -2 24 -12.5t13 -23.5v-5q0 -10 -8 -20q-9 -13 -33 -21q-74 -25 -127.5 -99.5 t-96.5 -179t-78.5 -231.5t-76.5 -256t-90.5 -251t-117 -220.5t-159.5 -161t-217 -72.5q-25 -2 -48 -2q-76 0 -134 21q-76 26 -124 73t-70.5 107.5t-24.5 121.5zM500 574q-7 -40 -7 -80q0 -51 13 -99q22 -86 88 -149q41 -39 102 -51q45 121 93.5 252t106.5 251.5t130 224 t164 169.5q-115 -2 -235.5 -35t-225.5 -119q-96 -80 -153.5 -175t-75.5 -189z" />
<glyph unicode="K" horiz-adv-x="1400" d="M16 -143v6q0 52 35 96q37 41 93 45h11q50 0 89 -33q41 -37 45 -92v-11q0 -49 -33 -87q-8 -10 -16.5 -15.5t-18.5 -11.5q30 -13 54 -13q6 0 12 1q35 4 66.5 32.5t59 76t54.5 111t53 136.5q-70 6 -139.5 44t-110.5 116q-35 66 -35 141q-1 31 5 61q20 110 89.5 218 t179 207.5t241.5 171.5q214 119 409 119q39 0 78 -5q16 -2 26.5 -11t12.5 -21.5t-7 -24.5t-32 -20q-59 -20 -107.5 -72.5t-88.5 -128.5t-74.5 -170t-67.5 -195h6q83 0 151 54q70 56 139 137.5t138.5 173.5t151.5 162.5t182 106.5q54 19 116 19q53 0 113 -14 q37 -8 55.5 -26.5t18.5 -36t-17 -26.5t-50 -1q-11 3 -23 3q-36 0 -78 -30q-54 -38 -117 -104.5t-134.5 -147.5t-154.5 -156t-178.5 -130t-201.5 -68q80 -57 128 -135t75.5 -160.5t43 -164.5t29 -149.5t31.5 -113t53 -55.5q14 -4 27 -3q24 0 45 11q-20 8 -37 29 q-33 37 -33 87v10q4 56 45 94q37 33 85 33q6 -1 12 -1q56 -4 94 -45q36 -39 36 -87q0 -12 -2 -26q-12 -64 -58 -115.5t-116 -84.5q-51 -24 -103 -24q-19 0 -38 3q-111 18 -172 82t-93 151t-45 186.5t-28.5 191.5t-42 165.5t-84.5 106.5q-47 -147 -95 -291.5t-109.5 -259.5 t-142.5 -185.5t-189 -70.5q-94 0 -153.5 25.5t-94.5 62.5t-50.5 77t-17.5 69zM476 351q18 -85 77 -146q0 -2 1 -2t1 -2q41 119 86 249t102.5 249.5t128 222t162.5 168.5q-90 -16 -178 -66.5t-170 -128.5q-86 -82 -139 -177q-53 -94 -71 -188q-9 -47 -9 -92t9 -87z" />
<glyph unicode="L" horiz-adv-x="782" d="M37 460q20 110 90 218t179.5 207.5t238.5 171.5q214 119 409 119q39 0 78 -5q35 -1 41 -31q1 -3 1 -7q0 -25 -42 -39q-76 -27 -135 -99.5t-108.5 -175t-91.5 -226.5t-87 -250t-94 -246t-113 -214q84 -10 151 -35.5t122 -56.5t100 -58.5t86 -37.5q17 -5 32 -5q22 0 40 11 q-23 12 -37 31q-34 38 -34 89v8q3 56 46 93q40 32 89 32h8q54 -3 92 -46q16 -16 25.5 -40t9.5 -48q0 -31 -21.5 -79t-63.5 -92t-104 -75q-52 -26 -120 -26q-13 0 -27 1q-102 6 -169 35t-119 65t-97 69.5t-105 52.5q-39 -35 -83 -58.5t-97 -34.5q-10 -2 -20 -2q-25 0 -43 12 q-27 16 -26 42q0 25 28 57q30 33 104 63q35 41 65.5 105.5t61.5 144.5q-66 10 -129.5 47t-101.5 111q-35 65 -35 139q0 31 6 63zM270 358q16 -84 70 -145q43 117 90 244t105.5 245.5t131 220t164.5 167.5q-90 -16 -179 -66.5t-169 -128.5q-84 -80 -137 -174 q-52 -95 -72 -187q-11 -50 -11 -97q-1 -41 7 -79z" />
<glyph unicode="M" horiz-adv-x="1894" d="M14 -143v11q0 50 33 91q39 41 95 45h10q49 0 86 -33q43 -37 46 -92q0 -4 1 -8q0 -50 -35 -90q-6 -10 -13.5 -15.5t-17.5 -11.5q28 -13 53 -13q6 0 13 1q53 6 106 66.5t107.5 154.5t112 215t122 248t137 251t157.5 226.5t183 173.5t213 94q33 6 49.5 -14t-2.5 -43 l-555 -1339q47 37 95.5 110.5t98.5 170t103.5 209t113.5 227t127 224t143.5 202t164.5 157t189 90.5q51 10 97 15.5t81 5.5q39 0 74 -4q31 -4 31 -20q0 -17 -33 -34q-96 -47 -178.5 -149t-146 -234.5t-103.5 -282.5q-40 -149 -52 -287q-4 -50 -5 -96q-1 -84 13 -159 q20 -117 80 -182q39 -44 82 -58q34 -11 62 -11q8 0 16 1q-23 16 -38 41t-17 53q-1 8 -1 16q0 44 28 82q34 44 90 52q8 1 16 1q46 0 83 -30q44 -35 50 -90q1 -11 1 -21q0 -47 -22 -86q-28 -48 -76 -84t-110 -56q-62 -21 -126 -26q-20 -2 -39 -2q-43 0 -85 8q-60 11 -102 42 q-78 55 -106 170q-19 80 -19 175q0 41 4 85q12 145 60.5 308t120 315.5t161.5 279.5t191 201q-10 -2 -20.5 -4t-20.5 -6q-74 -25 -139.5 -102t-127 -184.5t-121 -237.5t-121 -262t-126 -255t-138 -219t-156.5 -153.5t-181 -57.5q-59 0 -84 30t-15 56l508 1272 q-76 -88 -145.5 -223t-139 -285.5t-141 -302.5t-153.5 -273.5t-176.5 -197.5t-206.5 -76q-94 0 -154.5 25.5t-94.5 62.5t-48.5 77t-16.5 69z" />
<glyph unicode="N" horiz-adv-x="1611" d="M14 -143v11q0 52 35 91q37 41 93 45h10q49 0 86 -33q43 -37 48 -92q1 -6 1 -12q0 -48 -37 -86q-4 -10 -12.5 -15.5t-18.5 -11.5q30 -13 54 -13q6 0 12 1q35 4 65.5 32.5t59 76t54 111t52.5 136.5q-70 6 -138.5 44t-109.5 116q-35 66 -35 141q-1 31 5 61q20 110 88.5 218 t179 207.5t242.5 171.5q214 119 409 119q39 0 78 -5q16 -2 29.5 -10t11.5 -20l-229 -1377q45 33 78.5 107t62.5 173t56.5 216t64.5 235.5t87 232.5t119.5 206t165 155.5t224.5 81.5q10 2 20 1q43 0 78 -28q43 -34 51 -89q1 -8 1 -16q-1 -45 -29 -83q-34 -44 -89 -51 q-9 -1 -17 -1q-48 0 -85 29q-43 34 -49 91q-2 8 -2 25q-49 -45 -87 -128t-73 -186.5t-67.5 -222.5t-70.5 -237.5t-83 -229.5t-102.5 -200t-131.5 -148.5t-170 -73.5q-10 -1 -18 -1q-33 0 -49 18q-20 24 -14 51l212 1335q-74 -76 -129 -210t-105 -289.5t-100.5 -316.5 t-115 -291t-149.5 -213t-201 -83q-94 0 -154.5 25.5t-95.5 62.5t-49.5 77t-16.5 69zM474 351q18 -85 77 -146q0 -2 2 -2q39 119 84 248t102.5 248.5t128 222t162.5 168.5q-88 -16 -176 -66.5t-170 -128.5q-86 -82 -139 -177q-53 -94 -71 -188q-9 -47 -9 -92t9 -87z" />
<glyph unicode="O" horiz-adv-x="1226" d="M44 44v31q0 83 14 171q16 104 48.5 207.5t75.5 193.5q57 125 150.5 241t207.5 192q113 76 239 102q39 8 78 9q86 0 171 -40q106 -49 156.5 -136t55.5 -201q1 -13 0 -26q0 -103 -34 -226q-39 -138 -110 -292q-74 -156 -164 -288t-190 -222q-98 -90 -206 -129 q-60 -22 -120 -22q-47 0 -94 14q-96 29 -156 91.5t-89.5 146.5t-32.5 183zM291 80q-3 -33 -3 -63q0 -71 16 -130q24 -84 97 -118q33 -15 68 -16q36 1 76 17q78 32 157.5 109.5t155.5 192t137 247.5q59 129 91 245t35 210v19q-1 81 -23 141q-26 66 -80 98q-54 30 -106 30 q-34 0 -67 -12q-85 -32 -162 -109t-141.5 -183.5t-111.5 -206.5q-53 -115 -91 -238t-48 -233z" />
<glyph unicode="P" horiz-adv-x="1421" d="M12 -123q4 43 35 82q37 41 93 45h10q49 0 86 -33q43 -37 46 -93v-8q0 -51 -34 -91q-16 -16 -31 -25q16 -8 32.5 -10t33.5 -2q43 0 80.5 28.5t71.5 91t65.5 163t64.5 245.5q55 260 171 403.5t304 194.5q20 6 35 -1t19 -20t-4.5 -29.5t-32.5 -29.5q-111 -53 -166 -163.5 t-98 -286.5q33 -8 67 -8q121 0 198 60.5t130 187.5q31 74 34 146v18q0 64 -18 118q-22 62 -68 108t-116 66q-69 20 -134 20q-56 0 -108 -14q-114 -32 -188 -98q14 -6 33 -20q41 -36 45 -92q0 -5 1 -11q0 -49 -34 -86q-37 -43 -93 -46h-9q-51 0 -89 34q-29 27 -40 61 q-6 20 -6 41q0 15 3 29q4 18 13.5 40.5t29.5 51.5q72 104 194 165.5t269 61.5q113 0 212.5 -32.5t173 -91t116.5 -142.5t43 -184t-38 -195.5t-105.5 -167t-161.5 -111.5q-75 -32 -161 -32q-22 0 -44 2q-43 4 -87 16.5t-79 34.5v-6q-23 -106 -59.5 -219t-90 -206t-128 -153.5 t-174.5 -60.5q-98 0 -160 29t-95.5 68.5t-45 80.5t-11.5 66v10z" />
<glyph unicode="Q" horiz-adv-x="1226" d="M53 44v21q0 89 15 181q16 104 49 207.5t76 193.5q57 125 150 241t207 192.5t238 101.5q39 8 77 8q86 0 171 -39q106 -49 157.5 -136t55.5 -201v-22q0 -105 -33 -230q-38 -138 -110 -292q-61 -133 -135 -246.5t-156 -201.5q45 -76 82 -131.5t84 -67.5q17 -5 32 -5 q22 0 38 11q-25 14 -39 31q-33 37 -33 87v11q4 56 45 92q39 33 89 33h11q56 -4 93 -45q23 -25 29 -56q3 -15 3 -29q0 -17 -4 -34q-6 -35 -27.5 -76.5t-59.5 -76.5t-93 -54q-34 -13 -75 -13q-26 0 -54 5q-104 18 -175 64.5t-120 109.5q-78 -47 -155 -62q-31 -6 -62 -6 q-46 0 -92 13q-96 29 -156.5 91.5t-90.5 146.5t-32 183zM297 56q-1 -20 -1 -38q0 -46 7 -86q10 -57 36 -99t71 -64q33 -14 68 -14q46 0 97 24q-33 61 -59.5 123.5t-55 119t-62 101.5t-81.5 74q-16 -74 -20 -141zM340 283q78 -33 140.5 -74t112.5 -88t89 -97.5t72 -99.5 q68 78 132.5 178t119.5 217q59 129 90.5 245t35.5 210v22q0 80 -23 138q-26 67 -81 98q-54 30 -106 30q-34 0 -67 -12q-85 -32 -162 -109t-141.5 -183.5t-111.5 -206.5q-63 -133 -100 -268z" />
<glyph unicode="R" horiz-adv-x="1421" d="M12 -133q0 23 5.5 46.5t27.5 45.5q39 39 95 44q7 1 13 1q47 0 83 -33q41 -37 45 -93v-11q0 -49 -33 -88q-16 -16 -33 -25q16 -8 32.5 -10t33.5 -2q43 0 80.5 28.5t71.5 91t66.5 163t63.5 245.5q57 260 173 403.5t304 194.5q20 6 35 -1t19 -20t-5.5 -29.5t-33.5 -29.5 q-109 -53 -164 -163.5t-98 -286.5q33 -8 67 -8q121 0 199 60.5t131 187.5q31 74 35 146q1 11 1 22q0 60 -20 114q-22 62 -69 108t-117 66q-69 20 -134 20q-56 0 -108 -14q-114 -32 -188 -98q14 -6 33 -20q41 -36 45 -92v-11q0 -49 -33 -86q-35 -43 -91 -46h-9q-51 0 -91 34 q-35 29 -43 69q-3 13 -3 26q0 27 12 54q4 16 12 34t24 40q72 104 194 165.5t269 61.5q113 0 211.5 -32.5t172 -91t116.5 -142.5t43 -184q0 -96 -35 -187.5t-96 -162t-147.5 -113.5t-188.5 -43q63 -53 103 -114.5t66 -123t42 -121t31.5 -106.5t35 -79.5t52.5 -41.5 q15 -4 28 -4q24 0 43 13q-23 10 -38 28q-33 37 -33 87v11q4 56 45 93q37 33 85 33h12q56 -4 93 -46q23 -26 29 -56q3 -15 3 -29.5t-3 -28.5q-6 -35 -27.5 -79t-59.5 -79q-38 -34 -94 -54q-33 -12 -72 -12q-26 0 -56 5q-106 18 -168 69t-96.5 122t-51 151.5t-32 156.5 t-40 140.5t-73.5 101.5q-18 8 -31 18q-2 -4 -2 -8q-23 -106 -59.5 -219t-91 -206t-129 -153.5t-172.5 -60.5t-160 29t-95.5 68.5t-45 80.5t-11.5 66z" />
<glyph unicode="S" horiz-adv-x="1245" d="M86 -97q-10 45 -10 89q0 47 12 94q22 90 76.5 155.5t137.5 94.5q40 14 85 14q48 0 100 -16q27 -12 50 -37q32 -37 32 -83q-1 -5 -1 -9q-4 -51 -44 -86q-39 -35 -88 -35h-5q-52 2 -87 43q-14 14 -22 31q-49 -26 -77 -84q-27 -56 -27 -123q0 -73 37 -141q36 -66 116 -105 q55 -27 123 -28h5q65 0 127 23q66 24 121.5 71t86.5 114q34 73 34 144q0 15 -2 29q-8 85 -40.5 169t-78 168t-77.5 174q-34 91 -44 187q-2 20 -2 41q0 78 31 161q35 92 99 148q63 56 139 78q56 17 115 16q22 0 42 -2q80 -8 154 -43q78 -37 129 -92t75 -115q21 -52 21 -101 q-1 -7 -1 -15q-4 -56 -31 -97q-33 -45 -87 -46h-3q-53 0 -93 36q-39 35 -43 87v11q0 46 31 82q35 41 78 41q-14 35 -35.5 57.5t-50.5 38.5q-50 28 -108 38q-24 4 -47 4q-32 0 -61 -8q-50 -14 -88 -49.5t-50 -96.5q-6 -23 -6 -48q0 -46 20 -96q30 -78 75.5 -167t92.5 -187 q46 -98 68 -206q11 -57 12 -117q0 -54 -10 -109q-20 -117 -107 -242q-53 -72 -128 -119t-160 -67q-68 -16 -139 -17q-17 0 -34 1q-88 5 -164 36q-121 51 -187.5 134.5t-86.5 176.5z" />
<glyph unicode="T" horiz-adv-x="1005" d="M20 -143q-1 7 -1 14q0 45 34 88q37 41 93 45h11q50 0 89 -33q41 -37 45 -92v-11q0 -49 -33 -87q-8 -10 -16.5 -15.5t-18.5 -11.5q30 -13 55 -13q6 0 13 1q66 8 112 76.5t87.5 172t84.5 229.5t100.5 248t135.5 226.5t190 167.5q-86 23 -175 59.5t-174 70.5q-86 34 -162 54 q-51 14 -96 14q-22 0 -42 -3q12 -8 19 -15q33 -35 33 -81v-12q-4 -54 -46 -89q-38 -32 -88 -32h-9q-56 3 -93 44q-29 29 -34 72q-1 8 -1 15q0 34 19 63q45 82 115.5 119t156.5 42q18 1 37 1q71 0 147 -14q98 -18 193.5 -44t187.5 -52q92 -24 171 -34q30 -4 57 -4q45 0 81 10 q58 16 88 70q12 25 28 29t27 -3q11 -6 15 -24q2 -7 2 -15q0 -11 -4 -24q-41 -131 -112.5 -184t-163.5 -57q-70 -6 -121 -62.5t-92 -143.5t-77 -195.5t-74 -220.5t-81 -218.5t-99 -190t-129 -134t-171 -50.5q-94 0 -153.5 25.5t-94.5 62.5t-49 77t-17 69z" />
<glyph unicode="U" horiz-adv-x="1351" d="M17 389v5q0 68 24 138q25 72 72 146t110.5 142.5t141 129t165.5 107.5q63 35 136 60.5t147 39.5q73 13 143 17q23 1 45 2q43 0 80 -5q16 0 27.5 -10t12.5 -22.5t-8 -24.5t-34 -20q-68 -23 -145.5 -95.5t-150 -171t-132 -209t-90.5 -210.5q-31 -102 -52.5 -206t-25.5 -188 q-1 -19 -1 -37q0 -59 10 -99q14 -52 51 -52q33 0 73.5 31.5t83.5 85t88.5 123t87.5 145.5t79.5 150.5t66.5 140.5q51 119 118.5 229.5t148.5 199.5t173 152.5t193 87.5q22 6 35 6q4 -1 8 -1q14 -2 17 -12q1 -2 1 -4q0 -8 -7 -18q-9 -12 -28 -20q-82 -41 -163.5 -144.5 t-151.5 -239.5t-122 -292t-76 -300q-16 -98 -16 -183q0 -39 4 -77q11 -116 69 -177q35 -39 86 -45q19 -2 36 -3q29 0 52 7q-23 16 -39.5 41t-20.5 55q-1 8 -1 16q0 46 30 82q35 44 90 52q8 1 16 1q46 0 84 -30q44 -35 50 -90q1 -5 0 -11q0 -37 -23 -81q-41 -55 -110.5 -94 t-149.5 -51q-33 -5 -67 -6l-93 10q-80 18 -141 78q-70 70 -98 178q-20 79 -20 170q0 33 3 67q-53 -90 -114.5 -172t-124 -143.5t-126.5 -93.5q-49 -25 -96 -25q-14 0 -28 2q-68 12 -102 59q-34 48 -48 116q-10 49 -10 105q0 21 1 42q5 80 20 155q-66 10 -128.5 48 t-101.5 110q-33 61 -34 131zM238 351q12 -87 65 -150q8 29 15.5 54t15.5 48q39 115 93 229.5t119.5 219t144.5 191.5t171 147q-100 -18 -207.5 -68.5t-187.5 -126.5q-84 -80 -139 -174q-56 -95 -80 -189q-15 -62 -15 -120q1 -31 5 -61z" />
<glyph unicode="V" horiz-adv-x="1282" d="M18 460q20 110 90 218t179.5 207.5t238.5 171.5q63 35 136 60.5t147 39.5q75 13 143 17q23 1 44 2q43 0 81 -5q35 -5 41 -33q1 -3 1 -6q0 -24 -42 -38q-68 -23 -142.5 -90.5t-144 -159.5t-126 -198.5t-86.5 -205.5q-31 -102 -52.5 -206.5t-26.5 -191.5q-1 -24 -1 -46 q0 -56 10 -98q13 -58 49 -66l14 -2q28 0 61 18q42 22 89 66.5t97 105t97.5 130t90.5 142.5t75 142q49 104 85 204.5t58 187.5q20 87 28 156q4 36 4 64q0 26 -3 46q-4 25 21.5 41t58.5 18t61.5 -13.5t28.5 -54.5q0 -111 -60 -297t-181 -426q-39 -74 -92.5 -160.5t-117 -172.5 t-134 -165t-142 -136.5t-143.5 -85.5q-51 -20 -98 -21q-20 0 -39 4q-66 14 -102 61q-34 48 -48 116q-10 49 -10 104q0 21 1 42q5 79 19 154q-66 10 -128 47t-101 111q-35 65 -35 138q0 32 6 64zM236 349q12 -87 63 -150q8 29 16.5 55t16.5 49q39 115 92 229.5t118.5 219 t144.5 191.5t171 147q-102 -18 -207.5 -68.5t-185.5 -126.5q-84 -80 -141 -174q-56 -93 -78 -189q-14 -61 -15 -120q1 -32 5 -63z" />
<glyph unicode="W" horiz-adv-x="1843" d="M16 460q20 110 89 218t179.5 207.5t241.5 171.5q63 35 136 60.5t146 39.5q74 13 142 17q23 1 44 2q43 0 81 -5q16 0 27.5 -10t12.5 -22.5t-8 -24.5t-34 -20q-66 -23 -139.5 -90.5t-142 -159.5t-125 -198.5t-86.5 -205.5q-31 -102 -49.5 -206.5t-20.5 -191.5v-20 q0 -74 14 -124q16 -58 51 -66q6 -1 13 -1q42 0 92 43q60 50 125 130q10 84 29.5 163t37.5 136q49 143 106.5 267t117 224.5t116 175t103.5 122.5q25 24 61 30q16 2 30 3q19 0 36 -4q31 -7 45 -22.5t-4 -33.5q-29 -31 -78 -99.5t-101.5 -156.5t-101.5 -184.5t-76 -184.5 q-35 -102 -53 -206.5t-20 -191.5v-19q0 -73 14 -125q16 -58 53 -66q7 -1 14 -1q27 -1 59 17q40 22 85 66.5t92 105t92 130t87 142.5t75 142q49 104 85 204.5t57.5 187.5t28.5 156q4 37 4 66q0 25 -3 44q-4 25 21.5 41t58.5 18t61.5 -13.5t28.5 -54.5q0 -111 -60.5 -297 t-181.5 -426q-39 -74 -92 -160.5t-116.5 -172.5t-134 -165t-142.5 -136q-71 -58 -143 -86q-50 -20 -98 -21q-20 0 -40 4q-74 16 -108.5 70.5t-44.5 132.5q-49 -49 -99.5 -90t-99.5 -68.5t-97 -39.5q-29 -8 -57 -8q-18 0 -36 3q-66 14 -102 61q-34 48 -48 116q-10 52 -11 110 q0 17 1 36q4 79 18 154q-66 10 -128 47t-101 111q-35 66 -35 141q0 30 6 61zM234 349q12 -87 63 -150q8 29 16.5 55t16.5 49q39 115 92 229.5t118.5 219t144.5 191.5t171 147q-102 -18 -207.5 -68.5t-185.5 -126.5q-84 -80 -139 -174q-56 -93 -80 -189q-15 -62 -15 -122 q1 -31 5 -61z" />
<glyph unicode="X" horiz-adv-x="1331" d="M16 -184q-3 12 -3 27q1 19 5 43q8 44 41 73q41 37 95 43q8 1 15 1q45 0 81 -32q41 -37 45 -92v-11q0 -49 -33 -87q-6 -10 -14 -15.5t-19 -11.5q10 -16 36 -25.5t42 -7.5q80 10 162 95.5t170 214.5q-31 -5 -63 -5q-42 0 -88 9q-80 16 -140 80q-66 72 -69 175v13 q-1 97 43 204q46 114 132.5 227.5t198.5 207.5q106 86 226 141.5t221 83.5q23 6 28 -9t-12 -44q-57 -92 -90 -230.5t-39 -295.5q70 104 144.5 202.5t154.5 176t167 132t183 72.5q7 1 13 1q12 0 23 -5q16 -8 21 -21q2 -5 2 -10q1 -8 -5 -18q-8 -16 -35 -24q-86 -31 -169 -114 t-163 -196.5t-159 -248t-158 -267.5q27 -166 89 -313.5t169 -245.5q41 -35 90 -43q22 -4 41 -3q24 0 45 5q-53 37 -60 96q-1 8 -1 16q0 46 30 82q35 44 90 52q8 1 16 1q47 0 87 -30q48 -35 47 -90q0 -88 -59.5 -145.5t-145.5 -81.5q-58 -16 -120 -15q-30 -1 -62 3 q-96 12 -172 65q-96 66 -161 160t-104 209q-55 -80 -113.5 -146.5t-119 -116t-122.5 -77t-130 -27.5q-94 0 -154.5 20.5t-95.5 51.5t-51 63.5t-23 57.5zM485 397v-10q0 -85 32 -157q34 -76 106 -119q12 -8 27.5 -10.5t31.5 -2.5q23 35 47 73t47 79q-2 36 -2 73q0 69 8 141 q12 108 40 215t75 205.5t111 184.5q-51 -18 -103.5 -47t-103.5 -65.5t-96.5 -81t-79.5 -93.5q-68 -92 -103 -192.5t-37 -192.5z" />
<glyph unicode="Y" horiz-adv-x="1110" d="M10 669q8 79 57.5 155.5t133.5 144t187.5 117t221.5 74.5q76 16 154 16q41 0 82 -5q16 -2 27.5 -11t12.5 -21.5t-8.5 -25.5t-33.5 -19q-59 -18 -108.5 -68.5t-86.5 -117t-60.5 -139.5t-33.5 -135q-6 -38 -6 -69q0 -19 2 -35q6 -43 31 -47q4 -1 8 -1q30 0 80 37 q57 42 121.5 107.5t129 142.5t111.5 140q82 113 169 176.5t192 85.5q7 1 13 1q12 0 24 -5q16 -8 20 -21q1 -4 1 -8q0 -10 -6 -20q-9 -16 -36 -24q-74 -25 -127 -99.5t-95 -179t-79 -231.5t-77 -256t-89 -251t-117.5 -220.5t-161 -161t-217.5 -72.5q-25 -2 -49 -2 q-78 0 -135 21q-76 26 -124 74t-69.5 109.5t-21.5 126t20.5 122t57.5 98.5q16 18 37.5 30.5t50.5 16.5q10 1 20 1q43 0 79 -28q44 -36 48 -92q2 -10 2 -20q0 -43 -28 -78q-35 -43 -90 -49q-9 -1 -18 -1q-35 0 -68 19q-3 -20 -3 -39q0 -28 7 -56q12 -46 43 -77.5t78 -48.5 q32 -11 70 -11q18 0 38 3q100 14 172 96t127 203t104.5 266.5t108.5 290.5q-66 -72 -134.5 -138.5t-133 -115.5t-120.5 -76q-43 -20 -77 -20q-10 0 -20 2q-51 10 -77 57t-30 117q-25 -3 -49 -3q-12 0 -24 1q-37 2 -72 11t-65.5 29.5t-53.5 55.5q-38 61 -38 127q0 12 1 24z M236 700q-4 -21 -4 -41q0 -34 10 -65q18 -49 73 -80q8 72 32 151.5t64 156.5t95 145.5t125 117.5q-74 -18 -141.5 -59t-121 -94t-88 -113.5t-44.5 -118.5z" />
<glyph unicode="Z" horiz-adv-x="1243" d="M7 -311q-3 11 -3 23q0 29 18 64q26 50 97 103q77 53 145 71q52 14 101 14q16 0 32 -1q82 98 181.5 224t208 259.5t222 261.5t228.5 230q-92 27 -179 64.5t-167 61.5q-71 21 -134 20h-17q-70 -3 -130 -58q49 -6 76 -43q23 -30 23 -66q1 -13 -3 -28q-12 -53 -59 -88 q-45 -32 -95 -32h-8q-54 3 -87 42q-21 27 -21 63v6q2 40 23 74q66 111 141.5 166.5t155.5 71.5q44 9 89 8q37 0 75 -5q84 -13 165.5 -39t159.5 -56.5t148 -46.5q143 94 276 118q27 6 43 -2q17 -9 20 -25q1 -4 1 -8q1 -14 -7 -30q-10 -22 -34 -47q-72 -72 -137.5 -111 t-131.5 -51q-88 -100 -183 -228t-196.5 -265.5t-209 -270.5t-222.5 -242q51 -25 105.5 -61.5t108 -70t103.5 -57.5t93 -24q27 0 51 13q-44 6 -69 41q-22 30 -22 65q0 14 3 29q12 53 59 88q42 33 92 33h10q56 -4 87 -43q28 -36 28 -78q-1 -16 -5 -34q-16 -62 -62 -114 q-44 -52 -110 -82q-52 -24 -102 -24q-13 0 -26 2q-57 8 -118.5 32.5t-123 55.5t-122 61.5t-113.5 53.5q-31 -20 -69.5 -43t-79.5 -43.5t-81 -35.5t-73 -22q-32 -6 -59 -6q-31 1 -55 9q-44 16 -55 53zM127 -273q8 0 20 5q10 6 28 19t38 29.5t38.5 33t33.5 28.5h-9 q-27 0 -63 -10q-43 -12 -76 -53q-21 -27 -21 -42q0 -10 11 -10z" />
<glyph unicode="[" horiz-adv-x="366" d="M-43 -182l334 1054h313l-22 -73h-244l-289 -908h238l-23 -73h-307z" />
<glyph unicode="\" horiz-adv-x="425" d="M-59 872h71l414 -872h-70z" />
<glyph unicode="]" horiz-adv-x="481" d="M-170 -182l23 73h241l289 908h-236l23 73h307l-334 -1054h-313z" />
<glyph unicode="^" horiz-adv-x="628" d="M176 475l322 340h102l117 -340h-195l-10 258l-172 -258h-164z" />
<glyph unicode="_" horiz-adv-x="520" d="M-80 -29h516v-53h-516v53z" />
<glyph unicode="`" horiz-adv-x="536" d="M37 844v151q96 -47 182 -86q74 -35 147.5 -68.5t112.5 -49.5q0 -12 -8 -29q-4 -8 -8 -17l-213 50z" />
<glyph unicode="a" horiz-adv-x="643" d="M-18 131l-2 24q0 35 10 75q12 54 43 116q25 45 57.5 85t70.5 69q39 28 77 42q30 11 58 12q8 0 15 -1q70 -6 103 -61l7 21t7 15l6 13h148q-18 -61 -37 -115q-16 -47 -31.5 -93t-24.5 -71q-16 -49 -29.5 -89t-0.5 -40q18 0 40.5 12.5t46 33t48 45t49.5 46.5q25 23 43.5 29 t27.5 0q7 -5 7 -16q0 -16 -16 -37q-53 -70 -109 -123q-49 -47 -109.5 -85t-126.5 -38q-54 0 -70 32q-11 22 -11 51q0 13 2 28q-55 -59 -115 -91q-37 -20 -69 -20q-20 0 -38 8q-33 14 -53 46t-24 77zM124 132q1 -20 13 -26q8 -4 17 -4q16 0 36 12q30 18 58 51.5t55 74 t43 77.5q26 53 26 89q0 13 -4 23q-12 38 -53 38h-4q-35 -4 -68.5 -43t-62.5 -100q-16 -37 -30 -74q-13 -38 -20 -68q-6 -27 -6 -45v-5z" />
<glyph unicode="b" horiz-adv-x="532" d="M0 270q25 33 48.5 69t44 69.5t36.5 61.5t27 46q23 66 45 128.5t41 113.5q23 59 41 114h145q-41 -119 -74 -217q-14 -43 -28.5 -85t-26.5 -78.5t-20.5 -63.5t-12.5 -39q-53 -163 -60 -225q-1 -8 -1 -15q0 -47 39 -47q35 0 63.5 34t50.5 79q-10 6 -18 12t-16 17 q-22 24 -22 66v10q3 49 26 95q22 47 57 77q28 24 58 24q8 0 16 -2q33 -10 42 -40q5 -18 5 -39q0 -13 -2 -29q-6 -38 -20.5 -80.5t-28.5 -75.5q13 -5 25 -5q27 0 52 25q23 23 40.5 29t26.5 0t9 -20.5t-14 -32.5q-29 -36 -75 -54q-29 -11 -61 -12q-18 0 -36 4 q-16 -31 -38 -63.5t-50.5 -59t-63 -44t-75.5 -17.5q-98 0 -126 70q-15 37 -15 86q0 43 12 96q-4 -4 -5 -6q-23 -29 -40 -36t-27 0q-9 6 -9 21q0 20 15 39z" />
<glyph unicode="c" horiz-adv-x="462" d="M1 278q11 68 46 125.5t93.5 95.5t140.5 38q57 0 91 -28t43 -68q4 -17 4 -34q1 -24 -7 -49q-12 -43 -47 -73q-25 -20 -48.5 -17.5t-40 16t-23.5 31t3 25.5q33 29 45 64.5t-10 54.5q-16 12 -38 3t-41 -34t-36.5 -59.5t-23.5 -69.5q-4 -32 -5 -58q0 -44 13 -74 q19 -46 67 -46h4q33 0 66 14.5t62.5 37t55 48.5t48.5 49q16 18 34.5 25.5t30.5 4.5q14 -3 14 -18q0 -13 -18 -36q-18 -25 -56 -68t-88 -85q-50 -43 -108 -71q-48 -24 -95 -23q-10 0 -19 1q-63 6 -101.5 48t-52.5 102q-8 33 -8 69q0 29 5 59z" />
<glyph unicode="d" horiz-adv-x="643" d="M-18 131l-2 24q0 35 10 75q12 54 43 116q23 45 56.5 85t70.5 69q36 28 76 42q31 11 60 12q8 0 15 -1q66 -6 101 -57q25 70 48 137t42 121q23 63 43 118h147q-51 -154 -94 -280q-18 -55 -36.5 -108.5t-34 -98.5t-25.5 -78t-15 -45q-16 -49 -29.5 -89t1.5 -40 q18 0 40.5 12.5t46 33t48 45t49.5 46.5q23 23 41 29t28 0q9 -5 8 -18q0 -16 -15 -35q-51 -70 -109 -123q-49 -47 -110.5 -85t-127.5 -38q-52 0 -68 32q-11 22 -11 51q0 13 2 28q-55 -59 -115 -91q-37 -20 -69 -20q-20 0 -38 8q-33 14 -53 46t-24 77zM124 132q1 -20 13 -26 q8 -4 17 -4q16 0 36 12q30 18 58 51.5t55 74.5t43 77v2q4 10 8 20.5t8 20.5q7 26 7 45q0 21 -8 36q-14 26 -45 26h-5q-35 -4 -70.5 -43t-64.5 -100q-16 -37 -28 -74q-13 -38 -19 -68q-5 -26 -5 -44v-6z" />
<glyph unicode="e" horiz-adv-x="462" d="M0 278q10 68 45 125.5t93.5 95.5t140.5 38q73 1 105 -49q24 -38 25 -82q-1 -13 -3 -26q-10 -58 -58.5 -107.5t-136.5 -49.5q-14 0 -25.5 2t-21.5 6t-21 11q-4 -20 0 -42t15.5 -39.5t30 -28.5t42.5 -11q33 0 65 14.5t61.5 37t56 48.5t49.5 49q16 18 34.5 25.5t30.5 4.5 q13 -3 12 -18q0 -13 -16 -36q-18 -25 -57 -68t-89 -85q-50 -43 -108 -71q-48 -24 -95 -23q-10 0 -19 1q-63 6 -101.5 48t-51.5 102q-7 34 -7 70q0 28 4 58zM152 299q13 -5 27 -5q19 0 41 10q36 18 61.5 46.5t34.5 58.5q3 9 3 17q0 18 -14 29q-17 12 -33 12q-12 -1 -22 -7 q-26 -14 -47 -42.5t-35 -63.5t-16 -55z" />
<glyph unicode="f" horiz-adv-x="331" d="M-172 -217q12 31 36.5 102.5t56.5 161.5t67 191.5t66.5 192.5t57 164t40.5 107q47 117 116 163q38 25 76 25q33 0 66 -18q45 -25 48 -70v-8q0 -42 -28 -100q-31 -65 -93.5 -149t-150.5 -187l-6 -18q-8 -27 -8 -52q0 -15 3 -29q7 -38 42 -54q20 -12 44 3t71 62 q25 23 42 29t26.5 0t8.5 -20.5t-16 -32.5q-35 -49 -74 -82q-35 -29 -77 -48q-21 -9 -44 -9q-20 0 -42 8q-29 8 -43 30l-123 -362h-162zM242 530q33 43 62.5 86t51 79t29.5 61q3 9 3 16q0 10 -7 14q-5 2 -11 2q-27 0 -56 -62q-33 -73 -72 -196z" />
<glyph unicode="g" horiz-adv-x="604" d="M-48 -120q17 46 80.5 82t184.5 36l41 90q-51 -49 -104 -74q-31 -14 -58 -14q-20 0 -37 8q-33 14 -53 46t-26 77q-1 14 -1 28q0 34 9 71q12 55 45 116q23 45 56.5 85t70.5 68.5t76 42.5q31 12 60 12q7 0 15 -1q35 -4 61.5 -19.5t43.5 -44.5q4 10 6 19.5t6 15.5q4 8 6 15 h146q-35 -98 -64 -181q-25 -72 -50.5 -141.5t-35.5 -99.5q45 29 89 70.5t85 82.5q23 23 40.5 29t26.5 0q8 -5 8 -18q0 -18 -15 -37q-78 -94 -144.5 -143.5t-126.5 -80.5q-25 -57 -55.5 -112t-70.5 -96t-93 -62q-34 -14 -74 -14q-23 0 -47 4q-63 10 -91 52q-17 26 -17 53 q0 17 7 35zM33 -161.5q0 -16.5 18 -24.5q11 -4 21 -4q23 0 44 20q31 27 68 98q-49 -4 -82.5 -20.5t-51 -34.5t-17.5 -34.5zM124 132q1 -21 11 -26q8 -4 17 -4q16 0 36 12q29 19 58.5 52t55.5 73.5t42 77.5q26 53 26 89q0 12 -4 23q-11 38 -51 38h-4q-35 -4 -70.5 -43 t-64.5 -100q-16 -37 -28.5 -74t-18.5 -68q-5 -26 -5 -44v-6z" />
<glyph unicode="h" horiz-adv-x="704" d="M-29 0q16 39 38 101.5t48 140.5q-23 -27 -39 -33t-25 1t-8 24.5t15 35.5q25 33 49.5 70t46 70.5t36.5 62.5t26 47q25 72 47 134.5t39 111.5q20 55 37 106h145q-39 -113 -76 -227q-33 -98 -71.5 -212t-71.5 -212q43 63 94 130t102.5 119t100.5 80q32 18 60 18q15 0 28 -5 q26 -8 26 -47q0 -35 -12 -81q-12 -48 -31.5 -101t-36 -97t-23.5 -74t5 -30q18 0 41 12.5t46.5 33t48 45t49.5 46.5q25 23 43 29t27 0q7 -5 7 -16q0 -16 -16 -37q-53 -70 -109 -123q-49 -47 -109.5 -85t-125.5 -38q-48 0 -66 26q-15 23 -15 56v11q3 40 18.5 87t31 87 t25.5 66.5t0 26.5t-34 -24.5t-53.5 -62t-62.5 -83t-61.5 -85t-48 -68.5t-23.5 -35v-2h-162z" />
<glyph unicode="i" horiz-adv-x="315" d="M-51 89q2 38 16.5 83t30.5 86q41 109 66.5 174.5t35.5 91.5q37 -47 103 -47q20 0 30 2l-73 -217q-16 -49 -29.5 -89t2.5 -40q18 0 40 12.5t46.5 33t48.5 44.5t49 47q23 23 41.5 29t27.5 0q8 -5 8 -18q0 -16 -15 -35q-53 -70 -111 -123q-49 -47 -110.5 -85t-126.5 -38 q-47 0 -65 26q-16 23 -15 55v8zM102 616q0 41 29 70t70 29t69.5 -29t28.5 -70t-28.5 -69.5t-69.5 -28.5t-70 28.5t-29 69.5z" />
<glyph unicode="j" horiz-adv-x="270" d="M-332 -207q-5 15 -5 32q0 25 11 52q19 45 72 85t145 54l39 90q25 57 50.5 121t48 121.5t40 103.5t25.5 68q39 -43 101 -43q23 0 30 2q-14 -37 -32.5 -89t-37 -104.5t-35 -97.5t-24.5 -69q45 29 88 69.5t86 81.5q23 23 41.5 29t27.5 0q8 -5 8 -18q0 -16 -15 -35 q-84 -100 -149.5 -146.5t-123.5 -74.5q-27 -61 -60.5 -121t-76.5 -104t-93 -64q-23 -8 -48 -8q-30 0 -64 12q-37 14 -49 53zM-264 -170q-1 -6 -1 -10q0 -11 7 -15q4 -2 8 -2q35 0 103 134q-33 -10 -58.5 -30t-40 -39.5t-18.5 -37.5zM98 616q0 41 28 70t69 29t69.5 -29 t28.5 -70t-28.5 -69.5t-69.5 -28.5t-69 28.5t-28 69.5z" />
<glyph unicode="k" horiz-adv-x="618" d="M-27 0q16 39 39 104.5t51 143.5q-2 0 -2 -2q-23 -29 -40 -36t-27 0t-9 24.5t15 35.5q31 39 58.5 84t50 83t38 65.5t19.5 34.5q23 68 44 128t38 107q18 53 35 100h145l-66 -196q-29 -86 -62.5 -187.5t-66.5 -197.5q35 29 76 85t82 163h172q-12 -37 -35 -74 q-20 -33 -53 -70t-82 -69q51 -4 63 -37q6 -17 7 -37q0 -20 -6 -43q-9 -34 -8 -53q0 -21 10 -23q12 -4 29.5 9.5t39 34t43.5 45.5t47 48q23 23 41.5 29t27.5 0q8 -5 8 -18q0 -16 -15 -35q-47 -70 -100 -123q-45 -47 -102.5 -85t-117.5 -38q-49 0 -70 18q-22 16 -26 44 q-1 8 -1 16q-1 22 7 49q10 37 25 78q12 35 7 46t-20.5 7t-38 -21.5t-42.5 -39.5l-66 -197h-162z" />
<glyph unicode="l" horiz-adv-x="311" d="M-51 89q2 38 16.5 83t30.5 86q16 47 35.5 103.5t41 115t42 116.5t41.5 109q46 117 116 163q38 25 76 25q33 0 66 -18q43 -26 47 -70v-10q0 -42 -28 -98q-32 -64 -94.5 -147.5t-150.5 -186.5q-10 -29 -18 -54.5t-12 -43.5q-16 -49 -29.5 -89t-1.5 -40q18 0 40.5 12.5 t47.5 33t49.5 45l46.5 46.5q25 23 43.5 29t27.5 0t7 -20.5t-16 -32.5q-53 -70 -109 -123q-49 -47 -109.5 -85t-125.5 -38q-47 0 -65 26q-16 23 -15 55v8zM250 537q31 43 60.5 85t49.5 76q19 34 27 58q3 8 3 16q0 10 -7 14q-5 3 -9 3q-10 0 -20 -11q-16 -16 -32.5 -50 t-34 -83t-37.5 -108z" />
<glyph unicode="m" horiz-adv-x="929" d="M0 270q33 43 64.5 90.5t54.5 88.5q27 47 51 92h154q-4 -14 -12.5 -41t-19.5 -62t-26.5 -75.5t-29.5 -81.5q39 57 82.5 113.5t87.5 98.5q46 42 86 62q25 13 48 13q14 0 27 -5q26 -11 26 -52v-9q-3 -49 -22 -111q31 41 63 77t62 60q30 25 60 34q16 5 31 5q13 0 26 -4 q25 -8 27 -44v-10q0 -32 -10 -74q-12 -48 -31 -101t-35 -97t-23.5 -74t4.5 -30q18 0 40 12.5t46.5 33t49 45t49.5 46.5q23 23 41 29q17 6 27 0q9 -5 9 -18v-3q-1 -14 -16 -32q-53 -70 -110 -123q-49 -47 -110.5 -85t-127.5 -38q-49 0 -65 26q-15 24 -15 59v8q2 40 18.5 87 t32 87t24.5 66.5t-1 26.5q-6 0 -20.5 -15t-33 -40.5t-40 -58.5t-41.5 -66q-51 -80 -109 -180h-125q23 63 43 117q16 47 32 91t24 62q14 39 24 64.5t0 25.5t-31.5 -24.5t-49 -62t-58.5 -82t-57.5 -84t-45 -69.5t-22.5 -36v-2h-127q25 53 53.5 138t52.5 171l-23 -34.5 t-22 -28.5q-23 -29 -40 -36t-27 0q-9 6 -9 21q0 20 15 39z" />
<glyph unicode="n" horiz-adv-x="698" d="M0 270q33 43 63.5 90.5t53.5 88.5q27 47 51 92h154q-8 -33 -36 -114t-63 -169q43 59 91 119.5t96.5 105.5t93.5 69q30 16 56 15q13 0 26 -4q26 -8 26 -44v-3q0 -35 -12 -81q-12 -48 -31.5 -101t-36 -97t-23.5 -74t5 -30q18 0 41 12.5t46.5 33t48 45t48.5 46.5 q25 23 42.5 29t26.5 0q8 -5 8 -18v-3q-1 -14 -15 -32q-53 -70 -109 -123q-49 -47 -109.5 -85t-125.5 -38q-48 0 -66 26q-16 24 -16 59v8q2 40 17.5 87t31.5 87t25.5 66.5t-0.5 26.5t-34 -24.5t-53.5 -62t-62.5 -83t-61.5 -85t-48 -68.5t-23.5 -35v-2h-125q23 51 50.5 135 t51.5 170l-41 -59q-23 -29 -40 -36t-27 0q-9 6 -9 21q0 20 15 39z" />
<glyph unicode="o" horiz-adv-x="507" d="M-11 166q-1 12 -1 24q0 38 12 80q16 55 47 104.5t73 86.5t92 58.5t107 21.5q47 0 78 -21.5t47 -58.5q13 -31 12 -70v-16q-3 -49 -24 -105l-12 -28q11 -3 21 -2q35 0 67 30q23 23 40 29t26.5 0t9.5 -20.5t-15 -32.5q-29 -40 -78 -60q-33 -14 -67 -13q-17 0 -33 3 q-41 -78 -100.5 -127t-132.5 -49q-47 0 -84 21.5t-58.5 58.5t-26.5 86zM139 142v-13q0 -44 25 -53q11 -4 21 -4q31 0 62 30q42 40 75 105l-17 18q-18 23 -20 53.5t10 57t34.5 44t53.5 13.5v5q0 56 -41 69q-5 1 -10 1q-32 0 -73 -43q-48 -50 -89 -155q-27 -72 -31 -128z" />
<glyph unicode="p" horiz-adv-x="587" d="M-195 -270q12 35 32 89t43.5 117.5t48 132t48.5 136.5q55 158 117 334h144q-2 -12 -9 -27q-4 -12 -10 -28.5t-12 -39.5q55 57 115 89q36 20 68 20q20 0 38 -8q33 -14 53.5 -46t25.5 -76q1 -13 1 -26q0 -34 -8 -73q-13 -56 -45 -117q-25 -49 -58 -88q55 25 106.5 71 t84.5 80q18 18 36.5 25.5t29.5 4.5q13 -3 13 -18q0 -13 -18 -36q-18 -25 -63 -70t-107.5 -87t-139.5 -69q-60 -22 -121 -22q-18 0 -36 2q-4 0 -5 1t-3 1q-61 4 -98 53q-18 -59 -37 -113.5t-33 -98.5t-24.5 -73.5t-14.5 -39.5h-162zM120 124q12 -36 47 -36h7q35 2 71 41 t64 102q16 37 29.5 74t19.5 67q6 25 6 44v8q-2 22 -12 27q-7 2 -14 2q-18 0 -38 -13q-30 -18 -59.5 -51t-56.5 -73.5t-41 -77.5q-26 -55 -26 -91q0 -12 3 -23z" />
<glyph unicode="q" horiz-adv-x="587" d="M-20 131q-1 14 -1 28q0 34 9 71q12 55 45 116q23 45 55.5 85t69.5 68.5t76 42.5q31 12 61 12q8 0 16 -1q63 -6 101 -59q4 10 7 18t5 14q2 8 4 13h145q-35 -102 -69 -205q-29 -88 -63.5 -190.5t-65.5 -192.5h487l-35 -94h-485l-43 -127h-160l47 127h-112l32 94h113l55 153 q-53 -57 -112 -86q-36 -18 -66 -18q-21 0 -39 8q-33 14 -52 46t-25 77zM124 132q1 -21 11 -26q8 -4 17 -4q16 0 34 12q29 19 58.5 52t56.5 73.5t43 77.5q26 53 26 89q0 12 -4 23q-11 38 -51 38h-4q-35 -4 -70.5 -43t-64.5 -100q-16 -37 -28.5 -74t-18.5 -68q-5 -26 -5 -44 v-6z" />
<glyph unicode="r" horiz-adv-x="481" d="M-14 234.5q0 17.5 14 35.5q37 47 61.5 87t40.5 69q-31 18 -40 51q-2 8 -2 16q0 28 22 64q24 41 54 59q23 14 42 14q6 0 12 -1q24 -6 32 -36q3 -10 3 -23q0 -26 -12 -62q37 -4 56.5 -1t39.5 13q8 4 22.5 1t27 -11t16.5 -21.5t-4 -29.5q-20 -35 -44 -94.5t-39.5 -115.5 t-19.5 -97t15 -41q18 0 42.5 16t51 41t53.5 52.5t51 49.5q23 23 41.5 29t27.5 0q8 -5 8 -18q0 -16 -15 -35q-41 -55 -88 -103q-41 -41 -91.5 -80.5t-103.5 -58.5q-19 -7 -39 -7q-11 0 -21 2q-30 5 -51.5 24.5t-29.5 55.5q-3 12 -3 26q0 28 11 63q14 43 34.5 87t39 81 t29 59.5t1.5 20.5q-26 -7 -49 -7q-9 0 -18 1q-18 -35 -46 -82t-57 -82q-23 -29 -40 -36t-26 0t-9 24.5z" />
<glyph unicode="s" horiz-adv-x="454" d="M0 270l90 119q-9 18 -9 40q0 18 6 37q13 44 41 81t64 57q19 10 36 10q15 0 30 -8q31 -16 23.5 -49t-29.5 -68q-25 -39 -66 -83q18 -10 44 -30t48.5 -48.5t39 -64.5t16.5 -77q0 -8 -1 -14t-1 -12q33 27 64.5 56.5t58.5 53.5q25 23 42 29t26 0q8 -5 8 -18v-3 q-1 -14 -15 -32q-51 -55 -104 -105q-47 -41 -105.5 -79.5t-118.5 -55.5q-31 -6 -65 -6h-17q-45 4 -71.5 28.5t-33.5 54.5t6 55.5t50 31.5q43 6 50.5 -10.5t2 -40t-8.5 -45t22 -23.5q27 -2 40 23.5t13 66.5t-12 91.5t-37 97.5l-66 -84q-23 -29 -40 -36t-27 0q-9 6 -9 21 q0 20 15 39z" />
<glyph unicode="t" horiz-adv-x="311" d="M-229 629l34 96h359q10 33 20.5 59.5t18.5 46.5q8 23 14 41h148q-6 -20 -15 -43q-12 -41 -35 -104h129l-32 -96h-129l-125 -367q-16 -49 -29.5 -89t-1.5 -40q18 0 40.5 12.5t47.5 33t49.5 45l46.5 46.5q25 23 43.5 29t27.5 0t7 -20.5t-16 -32.5q-53 -70 -109 -123 q-49 -47 -109.5 -85t-125.5 -38q-47 0 -65 26q-16 23 -15 55v8q2 38 16.5 83t30.5 86q25 70 61.5 171t71.5 200h-358z" />
<glyph unicode="u" horiz-adv-x="598" d="M-30 108v15q0 44 16 100q18 65 51 137q16 41 34.5 75t32.5 57q16 27 33 49h146q-14 -27 -29 -54q-27 -49 -49 -98q-18 -37 -39 -86t-35 -94t-15 -76t21 -31q20 0 47 33t55.5 83t56.5 108.5t50 109.5q10 27 17.5 45.5t13.5 32.5q8 14 12 27h143q-18 -61 -36 -115 q-16 -47 -31.5 -93t-24.5 -71q-8 -25 -16 -48.5t-12 -40.5t-5 -28.5t7 -11.5q18 0 39.5 12.5t46 33t49 45t49.5 46.5q25 23 42 29q16 6 26 0q9 -5 9 -18q0 -16 -16 -35q-51 -70 -108 -123q-49 -47 -110.5 -85t-125.5 -38q-53 0 -71 28q-14 23 -14 57q0 7 1 15 q-35 -45 -71.5 -72.5t-71.5 -27.5q-59 0 -87 29t-31 79z" />
<glyph unicode="v" horiz-adv-x="471" d="M-12 104q-5 25 -5.5 53.5t5.5 61.5q10 65 39 141q16 41 28.5 75t22.5 57q10 27 20 49h148q-8 -25 -17 -52q-8 -23 -17 -50t-17 -50q-53 -163 -61 -225q-1 -9 -1 -16q0 -46 39 -46q37 0 65.5 36t51.5 83q-4 6 -10.5 11.5t-10.5 13.5q-20 27 -20 70v14q4 53 25.5 103 t56.5 83q28 27 58 27q7 0 15 -2q33 -10 39 -44q3 -14 3 -29q1 -23 -5 -49q-10 -44 -27.5 -91t-31.5 -80q16 -10 39.5 -8t50.5 30q23 25 40 31t26.5 0t9.5 -21.5t-15 -33.5q-29 -38 -79 -58q-27 -11 -55 -11q-23 0 -46 7q-16 -31 -38.5 -63.5t-51.5 -59t-63.5 -44 t-75.5 -17.5q-59 0 -92 27t-43 77z" />
<glyph unicode="w" horiz-adv-x="722" d="M-16 104q-4 21 -4 45q0 32 6 70q12 65 41 141q16 41 28.5 75t22.5 57q10 27 20 49h146q-8 -25 -17 -52q-8 -23 -16 -50t-16 -50q-55 -163 -63 -225q-2 -15 -2 -26q0 -36 20 -36q14 0 27 17.5t27.5 44t27 60.5t22.5 67q4 14 9 28.5t11 30.5l5 12q14 41 26 74t23 56 q10 27 18 49h148q-8 -25 -17 -52q-8 -23 -17 -50t-18 -50q-53 -163 -58 -225q-1 -7 -1 -12q0 -50 39 -50q37 0 65.5 36t51.5 83q-4 6 -10.5 11.5t-10.5 13.5q-21 26 -21 68q1 8 1 16q4 53 26 103t56 83q28 27 57 27q7 0 14 -2q35 -10 41 -44q2 -14 3 -29q0 -23 -6 -49 q-9 -44 -27.5 -91t-30.5 -80q16 -10 39.5 -8t52.5 30q23 25 40 31t26.5 0t9.5 -21.5t-15 -33.5q-29 -40 -80 -58q-27 -10 -55 -9q-24 0 -49 7q-16 -33 -37.5 -65.5t-50.5 -59t-63.5 -44t-77.5 -17.5q-104 0 -131 88q-27 -39 -57.5 -63.5t-69.5 -24.5q-59 0 -90 27t-39 77z " />
<glyph unicode="x" horiz-adv-x="532" d="M-70 0l209 221q-14 55 -18 117q-14 -27 -28.5 -50.5t-31.5 -41.5q-25 -27 -43 -33t-28 0t-8 22.5t18 34.5q31 35 53.5 76t39 78t25.5 65.5t13 40.5q0 6 2 11h146q-5 -35 -9 -83q-2 -31 -3 -64q0 -19 1 -38l174 185h95l-261 -283q10 -53 32 -90t59 -37q14 0 34.5 14.5 t43 36t45 45t42.5 43.5q25 23 42.5 29t26.5 0q8 -5 8 -18q0 -16 -15 -35q-78 -109 -144.5 -175.5t-125.5 -70.5h-10q-47 0 -82 34q-39 38 -66 103l-127 -137h-109z" />
<glyph unicode="y" horiz-adv-x="557" d="M-94 -120q18 46 81.5 82t184.5 36l27 61q-47 -43 -93 -43h-4q-59 2 -88.5 30t-35.5 74q-2 13 -2 27q0 36 12 80q16 61 49 133q18 41 35.5 75t31.5 57q16 27 33 49h148q-14 -27 -29 -54q-12 -23 -26.5 -49t-24.5 -49q-16 -37 -37 -86t-34 -94t-15 -76t20 -31q18 0 41 27 t48.5 69t50 93t47 100t39 89t24.5 61v-2h148q-35 -96 -64 -179q-25 -72 -50.5 -140t-35.5 -101q43 29 86 69.5t84 81.5q25 23 43 29t28 0q7 -5 7 -16q0 -16 -17 -37q-78 -94 -144 -143.5t-126 -82.5q-25 -57 -55.5 -112t-70.5 -96t-93 -62q-34 -14 -74 -14q-23 0 -47 4 q-63 10 -91 52q-17 26 -17 53q0 17 6 35zM-12 -161.5q0 -16.5 16 -24.5q10 -4 20 -4q24 0 46 20q30 29 67 98q-49 -6 -83 -21.5t-50 -33.5t-16 -34.5z" />
<glyph unicode="z" horiz-adv-x="530" d="M-72 0l400 401q-45 -16 -88 -18h-14q-35 0 -64 8q-23 -37 -50.5 -77t-50.5 -68q-23 -29 -40 -36t-27 0t-9 24.5t15 35.5q33 43 59.5 83t46.5 71q-20 20 -27 49q-3 12 -3 25q0 19 6 41l164 2q-10 -23 3 -44.5t43 -28.5q9 -2 20 -2q24 0 55 10q45 16 100 65h94l-368 -379 q36 14 62 14h7q28 -2 46 -12t31 -21.5t26 -11.5q14 0 34.5 14.5t43 36t45 45t42.5 43.5q25 23 42.5 29t26.5 0q8 -5 8 -18q0 -16 -15 -35q-78 -109 -157 -177.5t-140 -68.5q-45 0 -67.5 20.5t-45 35t-53.5 7t-92 -62.5h-109z" />
<glyph unicode="{" horiz-adv-x="366" d="M33 370q2 3 9 5t17 6q47 20 94.5 83.5t101.5 139.5t117.5 148.5t143.5 113.5l70 2q-47 -47 -95.5 -130t-98.5 -166t-102 -148.5t-110 -77.5q25 -18 30 -56t0 -86t-18.5 -102.5t-24.5 -106.5t-19.5 -99.5t-2.5 -77.5h-49q-31 18 -42 57t-11 87t6 101.5t11.5 104.5t3 95 t-16.5 73q-10 16 -13 23.5t-1 10.5z" />
<glyph unicode="|" horiz-adv-x="415" d="M-14 -281l329 1153h72l-332 -1153h-69z" />
<glyph unicode="}" horiz-adv-x="481" d="M-109 -182q47 47 95.5 130t98.5 166t102.5 148.5t109.5 77.5q-25 18 -30 56t0 86t18.5 102.5t25 106.5t18.5 98.5t3 78.5h49q45 -29 50 -97.5t-3 -148t-14 -154.5t16 -118q8 -16 12 -24.5t2 -11.5t-9 -4t-17 -5q-47 -20 -94.5 -83.5t-101.5 -139.5t-117.5 -149.5 t-143.5 -112.5z" />
<glyph unicode="~" horiz-adv-x="677" d="M141 170q2 53 25.5 97t58.5 77t79 50.5t89 17.5q39 0 56.5 -21.5t26.5 -48.5t17.5 -48.5t28.5 -23.5q14 -2 18.5 20.5t4.5 51.5q0 33 -6 72l139 -2q-14 -57 -43 -105.5t-64.5 -81t-74.5 -48t-72 -9.5q-35 6 -51.5 33.5t-25.5 57.5t-16 53.5t-22 23.5q-14 0 -22 -15.5 t-10.5 -39t0 -53t8.5 -58.5h-144z" />
<glyph unicode="&#xa1;" horiz-adv-x="428" d="M-27 -84q68 160 121 291q23 55 45.5 109.5t41 99.5t30.5 75.5t14 38.5h101l-158 -614h-195zM250 768q0 41 29.5 70.5t70.5 29.5t71 -29.5t30 -70.5t-30 -70.5t-71 -29.5t-70.5 29.5t-29.5 70.5z" />
<glyph unicode="&#xa2;" horiz-adv-x="462" d="M0 172q-8 55 5 115.5t46 112t86 86t125 38.5l31 109h72l-33 -113q45 -10 67.5 -38.5t24.5 -63.5t-13.5 -71t-45.5 -62q-29 -23 -55.5 -13.5t-43.5 25.5l-51 -176h16q33 0 66 14.5t62.5 37t55 49t48.5 48.5q16 18 34.5 25.5t31 4.5t13.5 -16.5t-18 -37.5q-16 -25 -52 -65 t-83 -80t-101.5 -69.5t-107.5 -31.5l-30 -106h-70l33 116q-49 18 -77 62.5t-36 99.5zM152 299q-12 -86 8 -131l80 281q-29 -18 -53.5 -59.5t-34.5 -90.5zM281 346q41 14 52 49t-22 56z" />
<glyph unicode="&#xa3;" horiz-adv-x="704" d="M4 43q0 14 14.5 30.5t51.5 32.5q10 16 16 38t12 49h-39q4 16 11 30q4 12 7 24.5t5 18.5h33l24 90h-30q4 16 8 31q6 29 14 43h33q29 78 63.5 144.5t75.5 113.5q55 63 123 87t127 -5q43 -20 69.5 -50t39 -61.5t10.5 -62.5t-19 -51q-16 -25 -44.5 -26t-51.5 20 q-23 18 -24 46.5t18 49.5q16 23 41 22q-14 37 -45 52q-41 23 -82 -3t-82 -77q-29 -35 -53.5 -87.5t-46.5 -111.5h147l-22 -74h-150l-29 -90h152l-23 -73h-147q-2 -4 -2 -11q-4 -16 -8 -30.5t-11 -28.5q43 -6 78 -19.5t62.5 -30t50 -29.5t45.5 -19t37 4q-12 8 -19 14 q-18 23 -17 51.5t24 46.5t50 17.5t46 -23.5q18 -18 18 -45q0 -16 -11 -40.5t-32.5 -48.5t-53.5 -39t-75 -11q-53 2 -88 17.5t-61.5 32.5t-49 34.5t-53.5 27.5q-41 -39 -92 -47q-18 -4 -31.5 4.5t-13.5 22.5z" />
<glyph unicode="&#xa4;" horiz-adv-x="628" d="M47 381l80 106l66 -110q47 53 118 53q35 0 63.5 -14.5t51.5 -36.5l61 113l82 -105l-120 -35q23 -39 22 -82q0 -49 -27 -88l129 -30l-79 -105l-68 113q-45 -49 -115 -49q-72 0 -116 51l-64 -119l-82 104l127 37q-24 37 -24 86q0 39 20 80zM213 270q0 -41 28.5 -69.5 t69.5 -28.5t70 28.5t29 69.5t-29 70t-70 29t-69.5 -29t-28.5 -70z" />
<glyph unicode="&#xa5;" horiz-adv-x="1110" d="M10 669q8 79 57.5 155.5t133.5 144t187.5 117t221 74t236.5 11.5q16 -2 27.5 -11t12.5 -21.5t-8.5 -25.5t-33.5 -19q-59 -18 -108.5 -68.5t-86.5 -117t-60.5 -139.5t-33.5 -134.5t-4 -104.5t31 -47q31 -6 88 36t121.5 107.5t129 142.5t111.5 140q82 113 169 176.5 t192 85.5q20 4 36.5 -4t20.5 -21t-5 -28.5t-36 -23.5q-80 -27 -136 -112t-100.5 -202.5t-84 -259t-84.5 -278.5h69l-22 -74h-74q-10 -23 -17.5 -45.5t-17.5 -44.5h82l-23 -74h-94q-37 -78 -82 -143.5t-101 -116.5t-125 -83t-153 -38q-109 -8 -184.5 18.5t-123.5 74.5 t-69.5 109.5t-21.5 126t20.5 122t57.5 98.5q16 18 37.5 30.5t50.5 16.5q55 8 99 -27.5t48 -91.5q8 -55 -26.5 -98t-89.5 -49q-45 -6 -86 18q-8 -49 4 -95t43 -77.5t78 -48t108 -8.5q94 14 160.5 85t120.5 177h-162q4 16 10 31q4 12 7 24.5t5 18.5h175l36 90h-184q4 16 8 31 q6 29 15 43h190q31 86 62.5 176t68.5 180q-66 -72 -134.5 -138.5t-133 -115.5t-120.5 -75.5t-97 -18.5q-51 10 -77 57t-30 117q-37 -4 -73.5 -2t-71.5 11t-65.5 29.5t-53.5 55.5q-45 72 -37 151zM235.5 700.5q-10.5 -57.5 7 -106.5t72.5 -80q8 72 32 151.5t64 156.5 t95 145.5t125 117.5q-74 -18 -141.5 -59t-121 -94t-88 -113.5t-45 -118z" />
<glyph unicode="&#xa6;" horiz-adv-x="415" d="M-14 -281l159 551h72l-162 -551h-69zM166 342l149 530h72l-151 -530h-70z" />
<glyph unicode="&#xa7;" horiz-adv-x="454" d="M-30 222q7 42 44 48q43 6 56.5 -25.5t17.5 -74.5t7 -80t28 -39q31 -2 45 32t11 85t-23.5 108.5t-57.5 102.5q-23 27 -26.5 60.5t5.5 66.5t31.5 59.5t51.5 40.5v8q0 43 19.5 79t51 61.5t72.5 38t84 8.5q45 -4 79 -45t49 -88t8 -89t-44 -49q-43 -6 -56 26t-17.5 75t-7 80 t-27.5 39q-31 2 -45.5 -32t-11.5 -85t23.5 -108.5t57.5 -102.5q23 -29 27 -62.5t-6 -65.5t-32 -58.5t-50 -40.5v-9q0 -43 -19.5 -78.5t-51.5 -61.5t-72.5 -38t-84.5 -8q-45 4 -78.5 45t-49 88t-8.5 89zM145 477.5q-8 -28.5 41 -71.5q23 -20 61 -53.5t62 -80.5q29 20 37 50 t-39 73q-23 18 -60.5 51t-64.5 80q-29 -20 -37 -48.5z" />
<glyph unicode="&#xa8;" d="M51 844q0 41 30 70.5t71 29.5t70.5 -29.5t29.5 -70.5t-29.5 -71t-70.5 -30t-71 30t-30 71zM289 844q0 41 29.5 70.5t70.5 29.5t70.5 -29.5t29.5 -70.5t-29.5 -71t-70.5 -30t-70.5 30t-29.5 71z" />
<glyph unicode="&#xa9;" horiz-adv-x="907" d="M-14 207.5q2 101.5 36.5 205t102.5 193.5t154 145.5t173 73t171 -5t149 -86.5q68 -66 100.5 -156t30.5 -191t-37 -204.5t-104 -193.5q-68 -90 -153 -145.5t-173 -72t-172 5t-149 87.5q-66 63 -98.5 153t-30.5 191.5zM42 208q-3 -89 24.5 -169t87.5 -135 q57 -55 129.5 -72.5t149.5 -1.5t153 65.5t137 129.5q61 82 93 174t35 182t-23.5 170t-84.5 135q-57 55 -130.5 72.5t-151.5 1t-154 -66.5t-135 -130q-61 -82 -94 -174t-36 -181zM191.5 277.5q11.5 68.5 46 126t93 95.5t140.5 38q57 0 91 -28t43 -68t-3 -83t-47 -73 q-25 -20 -48.5 -17.5t-39.5 16t-23.5 31t2.5 25.5q33 29 45.5 64.5t-10.5 54.5q-16 12 -37.5 3t-41 -34t-37 -59.5t-23.5 -69.5q-12 -84 8.5 -132t71.5 -46q33 0 65.5 14.5t62.5 37t55 48.5t48 49q16 18 35 25.5t31 4.5t13 -16.5t-17 -37.5q-18 -25 -56 -68t-88.5 -85 t-109 -70.5t-113.5 -22.5q-63 6 -101 48t-52.5 101.5t-3 128z" />
<glyph unicode="&#xaa;" horiz-adv-x="643" d="M151.5 635q-4.5 45 8 99t43.5 116q25 45 57.5 85t70.5 68.5t76.5 43t73.5 10.5q70 -6 103 -62q4 12 7 21.5t7 15.5l6 12h148q-18 -61 -37 -114q-16 -47 -31.5 -93t-24.5 -71q-16 -49 -29.5 -89t-0.5 -40q18 0 40.5 12.5t46 32.5t48 45t49.5 47q25 23 43 29t27.5 0 t7.5 -20.5t-17 -32.5q-53 -70 -108 -123q-49 -47 -109.5 -85t-126.5 -38q-55 0 -70.5 31.5t-8.5 78.5q-55 -59 -115 -90.5t-107 -11.5q-33 14 -53 46t-24.5 77zM294 634.5q1 -20.5 13 -24.5q23 -10 52.5 8.5t58 51t55.5 73.5t43 78q35 72 22.5 112t-57.5 38 q-35 -4 -68.5 -43t-62.5 -101q-16 -37 -29.5 -73.5t-20.5 -67.5t-6 -51.5z" />
<glyph unicode="&#xab;" horiz-adv-x="661" d="M63 236l29 94l326 137l-29 -94l-237 -101l155 -149l-28 -94zM289 236l28 94l326 137l-29 -94l-237 -101l155 -149l-28 -94z" />
<glyph unicode="&#xac;" d="M164 233v95h358l-51 -197h-86q2 14 8 33q4 14 9.5 32.5t11.5 36.5h-250z" />
<glyph unicode="&#xad;" d="M164 233v95h299v-95h-299z" />
<glyph unicode="&#xae;" horiz-adv-x="907" d="M-14 207.5q2 101.5 36.5 205t102.5 193.5t154 145.5t173 73t171 -5t149 -86.5q68 -66 100.5 -156t30.5 -191t-37 -204.5t-104 -193.5q-68 -90 -153 -145.5t-173 -72t-172 5t-149 87.5q-66 63 -98.5 153t-30.5 191.5zM42 208q-3 -89 24.5 -169t87.5 -135 q57 -55 129.5 -72.5t149.5 -1.5t153 65.5t137 129.5q61 82 93 174t35 182t-23.5 170t-84.5 135q-57 55 -130.5 72.5t-151.5 1t-154 -66.5t-135 -130q-61 -82 -94 -174t-36 -181zM190.5 234.5q0.5 17.5 14.5 35.5q37 47 61.5 87t40.5 69q-31 18 -40 51t20 80q23 41 53.5 59.5 t54 12.5t32.5 -36t-9 -85q37 -4 56.5 -1t39.5 13q8 4 22.5 1t26.5 -11t16.5 -21.5t-4.5 -29.5q-20 -35 -43.5 -94.5t-39 -115.5t-19.5 -97t14 -41t43 16t51.5 41t53.5 52.5t51 49.5q23 23 41 29t27.5 0t8.5 -20.5t-15 -32.5q-41 -55 -89 -103q-41 -41 -91 -80.5t-103 -58.5 q-29 -10 -59.5 -5t-52 24.5t-30 55.5t8.5 89q14 43 34.5 87t39 81t28.5 59.5t2 20.5q-37 -10 -67 -6q-18 -35 -46 -82t-57 -82q-23 -29 -40 -36t-26.5 0t-9 24.5z" />
<glyph unicode="&#xaf;" horiz-adv-x="593" d="M78 745v95h418v-95h-418z" />
<glyph unicode="&#xb0;" horiz-adv-x="362" d="M152 580q0 66 47 112.5t112 46.5q66 0 113 -47t47 -112q0 -66 -47 -113t-113 -47t-112.5 47t-46.5 113zM213 580q0 -41 28.5 -70t69.5 -29t70 29t29 70t-29 69.5t-70 28.5t-69.5 -28.5t-28.5 -69.5z" />
<glyph unicode="&#xb1;" d="M45 53l41 94h360l-40 -94h-361zM121 317l41 95h123l49 116h104q-6 -16 -14 -34q-6 -16 -13.5 -38t-17.5 -44h129l-41 -95h-127q-14 -33 -26.5 -60.5t-22.5 -47.5h-104l45 108h-125z" />
</font>
</defs>
</svg>
